{
  "asset": {
    "generator": "glTF-Transform v4.5.1",
    "version": "2.0"
  },
  "accessors": [
    {
      "type": "SCALAR",
      "componentType": 5123,
      "count": 3828,
      "normalized": false,
      "byteOffset": 0,
      "bufferView": 0
    },
    {
      "type": "VEC3",
      "componentType": 5122,
      "count": 2003,
      "max": [
        15473,
        32767,
        15473
      ],
      "min": [
        -15473,
        -32767,
        -15473
      ],
      "normalized": true,
      "byteOffset": 0,
      "bufferView": 1
    },
    {
      "type": "VEC3",
      "componentType": 5122,
      "count": 2003,
      "normalized": true,
      "byteOffset": 0,
      "bufferView": 2
    },
    {
      "type": "VEC2",
      "componentType": 5123,
      "count": 2003,
      "normalized": true,
      "byteOffset": 0,
      "bufferView": 3
    }
  ],
  "bufferViews": [
    {
      "buffer": 1,
      "byteOffset": 0,
      "byteLength": 7656,
      "target": 34963,
      "extensions": {
        "EXT_meshopt_compression": {
          "buffer": 0,
          "byteOffset": 0,
          "byteLength": 1310,
          "mode": "TRIANGLES",
          "byteStride": 2,
          "count": 3828
        }
      }
    },
    {
      "buffer": 1,
      "byteOffset": 7656,
      "byteLength": 16024,
      "target": 34962,
      "byteStride": 8,
      "extensions": {
        "EXT_meshopt_compression": {
          "buffer": 0,
          "byteOffset": 1312,
          "byteLength": 9091,
          "mode": "ATTRIBUTES",
          "byteStride": 8,
          "count": 2003
        }
      }
    },
    {
      "buffer": 1,
      "byteOffset": 23680,
      "byteLength": 16024,
      "target": 34962,
      "byteStride": 8,
      "extensions": {
        "EXT_meshopt_compression": {
          "buffer": 0,
          "byteOffset": 10404,
          "byteLength": 5366,
          "mode": "ATTRIBUTES",
          "byteStride": 8,
          "count": 2003
        }
      }
    },
    {
      "buffer": 1,
      "byteOffset": 39704,
      "byteLength": 8012,
      "target": 34962,
      "byteStride": 4,
      "extensions": {
        "EXT_meshopt_compression": {
          "buffer": 0,
          "byteOffset": 15772,
          "byteLength": 3196,
          "mode": "ATTRIBUTES",
          "byteStride": 4,
          "count": 2003
        }
      }
    }
  ],
  "samplers": [
    {
      "minFilter": 9987,
      "wrapS": 10497,
      "wrapT": 10497
    }
  ],
  "textures": [
    {
      "source": 0,
      "sampler": 0
    }
  ],
  "images": [
    {
      "name": "colormap",
      "mimeType": "image/png",
      "uri": "Textures/colormap.png"
    }
  ],
  "buffers": [
    {
      "uri": "building-skyscraper-a.bin",
      "byteLength": 18968
    },
    {
      "byteLength": 47716,
      "extensions": {
        "EXT_meshopt_compression": {
          "fallback": true
        }
      }
    }
  ],
  "materials": [
    {
      "name": "colormap",
      "doubleSided": true,
      "pbrMetallicRoughness": {
        "metallicFactor": 0,
        "baseColorTexture": {
          "index": 0,
          "extensions": {
            "KHR_texture_transform": {
              "texCoord": 0
            }
          }
        }
      }
    }
  ],
  "meshes": [
    {
      "name": "building-skyscraper-a",
      "primitives": [
        {
          "attributes": {
            "POSITION": 1,
            "NORMAL": 2,
            "TEXCOORD_0": 3
          },
          "mode": 4,
          "material": 0,
          "indices": 0
        }
      ]
    }
  ],
  "nodes": [
    {
      "name": "building-skyscraper-a",
      "translation": [
        -4.76837158203125e-7,
        1.4399999380111694,
        0
      ],
      "scale": [
        1.4399999380111694,
        1.4399999380111694,
        1.4399999380111694
      ],
      "mesh": 0
    }
  ],
  "scenes": [
    {
      "name": "building-skyscraper-a",
      "nodes": [
        0
      ]
    }
  ],
  "scene": 0,
  "extensionsUsed": [
    "EXT_meshopt_compression",
    "KHR_mesh_quantization",
    "KHR_texture_transform"
  ],
  "extensionsRequired": [
    "EXT_meshopt_compression",
    "KHR_mesh_quantization"
  ]
}