{
  "asset": {
    "generator": "glTF-Transform v4.5.1",
    "version": "2.0"
  },
  "accessors": [
    {
      "type": "SCALAR",
      "componentType": 5123,
      "count": 3129,
      "normalized": false,
      "byteOffset": 0,
      "bufferView": 0
    },
    {
      "type": "VEC3",
      "componentType": 5122,
      "count": 1741,
      "max": [
        10401,
        32767,
        9973
      ],
      "min": [
        -10401,
        -32767,
        -9973
      ],
      "normalized": true,
      "byteOffset": 0,
      "bufferView": 1
    },
    {
      "type": "VEC3",
      "componentType": 5122,
      "count": 1741,
      "normalized": true,
      "byteOffset": 0,
      "bufferView": 2
    },
    {
      "type": "VEC2",
      "componentType": 5123,
      "count": 1741,
      "normalized": true,
      "byteOffset": 0,
      "bufferView": 3
    }
  ],
  "bufferViews": [
    {
      "buffer": 1,
      "byteOffset": 0,
      "byteLength": 6258,
      "target": 34963,
      "extensions": {
        "EXT_meshopt_compression": {
          "buffer": 0,
          "byteOffset": 0,
          "byteLength": 1067,
          "mode": "TRIANGLES",
          "byteStride": 2,
          "count": 3129
        }
      }
    },
    {
      "buffer": 1,
      "byteOffset": 6260,
      "byteLength": 13928,
      "target": 34962,
      "byteStride": 8,
      "extensions": {
        "EXT_meshopt_compression": {
          "buffer": 0,
          "byteOffset": 1068,
          "byteLength": 7730,
          "mode": "ATTRIBUTES",
          "byteStride": 8,
          "count": 1741
        }
      }
    },
    {
      "buffer": 1,
      "byteOffset": 20188,
      "byteLength": 13928,
      "target": 34962,
      "byteStride": 8,
      "extensions": {
        "EXT_meshopt_compression": {
          "buffer": 0,
          "byteOffset": 8800,
          "byteLength": 4237,
          "mode": "ATTRIBUTES",
          "byteStride": 8,
          "count": 1741
        }
      }
    },
    {
      "buffer": 1,
      "byteOffset": 34116,
      "byteLength": 6964,
      "target": 34962,
      "byteStride": 4,
      "extensions": {
        "EXT_meshopt_compression": {
          "buffer": 0,
          "byteOffset": 13040,
          "byteLength": 2788,
          "mode": "ATTRIBUTES",
          "byteStride": 4,
          "count": 1741
        }
      }
    }
  ],
  "samplers": [
    {
      "minFilter": 9987,
      "wrapS": 10497,
      "wrapT": 10497
    }
  ],
  "textures": [
    {
      "source": 0,
      "sampler": 0
    }
  ],
  "images": [
    {
      "name": "colormap",
      "mimeType": "image/png",
      "uri": "Textures/colormap.png"
    }
  ],
  "buffers": [
    {
      "uri": "building-skyscraper-e.bin",
      "byteLength": 15828
    },
    {
      "byteLength": 41080,
      "extensions": {
        "EXT_meshopt_compression": {
          "fallback": true
        }
      }
    }
  ],
  "materials": [
    {
      "name": "colormap",
      "doubleSided": true,
      "pbrMetallicRoughness": {
        "metallicFactor": 0,
        "baseColorTexture": {
          "index": 0,
          "extensions": {
            "KHR_texture_transform": {
              "texCoord": 0
            }
          }
        }
      }
    }
  ],
  "meshes": [
    {
      "name": "building-skyscraper-e",
      "primitives": [
        {
          "attributes": {
            "POSITION": 1,
            "NORMAL": 2,
            "TEXCOORD_0": 3
          },
          "mode": 4,
          "material": 0,
          "indices": 0
        }
      ]
    }
  ],
  "nodes": [
    {
      "name": "building-skyscraper-e",
      "translation": [
        1.1920928955078125e-7,
        2.0399999618530273,
        5.960464477539063e-8
      ],
      "scale": [
        2.0399999618530273,
        2.0399999618530273,
        2.0399999618530273
      ],
      "mesh": 0
    }
  ],
  "scenes": [
    {
      "name": "building-skyscraper-e",
      "nodes": [
        0
      ]
    }
  ],
  "scene": 0,
  "extensionsUsed": [
    "EXT_meshopt_compression",
    "KHR_mesh_quantization",
    "KHR_texture_transform"
  ],
  "extensionsRequired": [
    "EXT_meshopt_compression",
    "KHR_mesh_quantization"
  ]
}