{
  "asset": {
    "generator": "glTF-Transform v4.5.1",
    "version": "2.0"
  },
  "accessors": [
    {
      "type": "SCALAR",
      "componentType": 5123,
      "count": 4428,
      "normalized": false,
      "byteOffset": 0,
      "bufferView": 0
    },
    {
      "type": "VEC3",
      "componentType": 5122,
      "count": 2399,
      "max": [
        9949,
        32767,
        9949
      ],
      "min": [
        -9949,
        -32767,
        -9949
      ],
      "normalized": true,
      "byteOffset": 0,
      "bufferView": 1
    },
    {
      "type": "VEC3",
      "componentType": 5122,
      "count": 2399,
      "normalized": true,
      "byteOffset": 0,
      "bufferView": 2
    },
    {
      "type": "VEC2",
      "componentType": 5123,
      "count": 2399,
      "normalized": true,
      "byteOffset": 0,
      "bufferView": 3
    }
  ],
  "bufferViews": [
    {
      "buffer": 1,
      "byteOffset": 0,
      "byteLength": 8856,
      "target": 34963,
      "extensions": {
        "EXT_meshopt_compression": {
          "buffer": 0,
          "byteOffset": 0,
          "byteLength": 1514,
          "mode": "TRIANGLES",
          "byteStride": 2,
          "count": 4428
        }
      }
    },
    {
      "buffer": 1,
      "byteOffset": 8856,
      "byteLength": 19192,
      "target": 34962,
      "byteStride": 8,
      "extensions": {
        "EXT_meshopt_compression": {
          "buffer": 0,
          "byteOffset": 1516,
          "byteLength": 10360,
          "mode": "ATTRIBUTES",
          "byteStride": 8,
          "count": 2399
        }
      }
    },
    {
      "buffer": 1,
      "byteOffset": 28048,
      "byteLength": 19192,
      "target": 34962,
      "byteStride": 8,
      "extensions": {
        "EXT_meshopt_compression": {
          "buffer": 0,
          "byteOffset": 11876,
          "byteLength": 6691,
          "mode": "ATTRIBUTES",
          "byteStride": 8,
          "count": 2399
        }
      }
    },
    {
      "buffer": 1,
      "byteOffset": 47240,
      "byteLength": 9596,
      "target": 34962,
      "byteStride": 4,
      "extensions": {
        "EXT_meshopt_compression": {
          "buffer": 0,
          "byteOffset": 18568,
          "byteLength": 3793,
          "mode": "ATTRIBUTES",
          "byteStride": 4,
          "count": 2399
        }
      }
    }
  ],
  "samplers": [
    {
      "minFilter": 9987,
      "wrapS": 10497,
      "wrapT": 10497
    }
  ],
  "textures": [
    {
      "source": 0,
      "sampler": 0
    }
  ],
  "images": [
    {
      "name": "colormap",
      "mimeType": "image/png",
      "uri": "Textures/colormap.png"
    }
  ],
  "buffers": [
    {
      "uri": "building-skyscraper-b.bin",
      "byteLength": 22364
    },
    {
      "byteLength": 56836,
      "extensions": {
        "EXT_meshopt_compression": {
          "fallback": true
        }
      }
    }
  ],
  "materials": [
    {
      "name": "colormap",
      "doubleSided": true,
      "pbrMetallicRoughness": {
        "metallicFactor": 0,
        "baseColorTexture": {
          "index": 0,
          "extensions": {
            "KHR_texture_transform": {
              "texCoord": 0
            }
          }
        }
      }
    }
  ],
  "meshes": [
    {
      "name": "building-skyscraper-b",
      "primitives": [
        {
          "attributes": {
            "POSITION": 1,
            "NORMAL": 2,
            "TEXCOORD_0": 3
          },
          "mode": 4,
          "material": 0,
          "indices": 0
        }
      ]
    }
  ],
  "nodes": [
    {
      "name": "building-skyscraper-b",
      "translation": [
        -7.152557373046875e-7,
        2.240000009536743,
        2.9802322387695312e-8
      ],
      "scale": [
        2.240000009536743,
        2.240000009536743,
        2.240000009536743
      ],
      "mesh": 0
    }
  ],
  "scenes": [
    {
      "name": "building-skyscraper-b",
      "nodes": [
        0
      ]
    }
  ],
  "scene": 0,
  "extensionsUsed": [
    "EXT_meshopt_compression",
    "KHR_mesh_quantization",
    "KHR_texture_transform"
  ],
  "extensionsRequired": [
    "EXT_meshopt_compression",
    "KHR_mesh_quantization"
  ]
}