{
  "asset": {
    "generator": "glTF-Transform v4.5.1",
    "version": "2.0"
  },
  "accessors": [
    {
      "type": "SCALAR",
      "componentType": 5123,
      "count": 5730,
      "normalized": false,
      "byteOffset": 0,
      "bufferView": 0
    },
    {
      "type": "VEC3",
      "componentType": 5122,
      "count": 2904,
      "max": [
        18774,
        32767,
        17846
      ],
      "min": [
        -18774,
        -32767,
        -17846
      ],
      "normalized": true,
      "byteOffset": 0,
      "bufferView": 1
    },
    {
      "type": "VEC3",
      "componentType": 5122,
      "count": 2904,
      "normalized": true,
      "byteOffset": 0,
      "bufferView": 2
    },
    {
      "type": "VEC2",
      "componentType": 5123,
      "count": 2904,
      "normalized": true,
      "byteOffset": 0,
      "bufferView": 3
    }
  ],
  "bufferViews": [
    {
      "buffer": 1,
      "byteOffset": 0,
      "byteLength": 11460,
      "target": 34963,
      "extensions": {
        "EXT_meshopt_compression": {
          "buffer": 0,
          "byteOffset": 0,
          "byteLength": 1951,
          "mode": "TRIANGLES",
          "byteStride": 2,
          "count": 5730
        }
      }
    },
    {
      "buffer": 1,
      "byteOffset": 11460,
      "byteLength": 23232,
      "target": 34962,
      "byteStride": 8,
      "extensions": {
        "EXT_meshopt_compression": {
          "buffer": 0,
          "byteOffset": 1952,
          "byteLength": 13259,
          "mode": "ATTRIBUTES",
          "byteStride": 8,
          "count": 2904
        }
      }
    },
    {
      "buffer": 1,
      "byteOffset": 34692,
      "byteLength": 23232,
      "target": 34962,
      "byteStride": 8,
      "extensions": {
        "EXT_meshopt_compression": {
          "buffer": 0,
          "byteOffset": 15212,
          "byteLength": 8620,
          "mode": "ATTRIBUTES",
          "byteStride": 8,
          "count": 2904
        }
      }
    },
    {
      "buffer": 1,
      "byteOffset": 57924,
      "byteLength": 11616,
      "target": 34962,
      "byteStride": 4,
      "extensions": {
        "EXT_meshopt_compression": {
          "buffer": 0,
          "byteOffset": 23832,
          "byteLength": 4776,
          "mode": "ATTRIBUTES",
          "byteStride": 4,
          "count": 2904
        }
      }
    }
  ],
  "samplers": [
    {
      "minFilter": 9987,
      "wrapS": 10497,
      "wrapT": 10497
    }
  ],
  "textures": [
    {
      "source": 0,
      "sampler": 0
    }
  ],
  "images": [
    {
      "name": "colormap",
      "mimeType": "image/png",
      "uri": "Textures/colormap.png"
    }
  ],
  "buffers": [
    {
      "uri": "building-g.bin",
      "byteLength": 28608
    },
    {
      "byteLength": 69540,
      "extensions": {
        "EXT_meshopt_compression": {
          "fallback": true
        }
      }
    }
  ],
  "materials": [
    {
      "name": "colormap",
      "doubleSided": true,
      "pbrMetallicRoughness": {
        "metallicFactor": 0,
        "baseColorTexture": {
          "index": 0,
          "extensions": {
            "KHR_texture_transform": {
              "texCoord": 0
            }
          }
        }
      }
    }
  ],
  "meshes": [
    {
      "name": "building-g",
      "primitives": [
        {
          "attributes": {
            "POSITION": 1,
            "NORMAL": 2,
            "TEXCOORD_0": 3
          },
          "mode": 4,
          "material": 0,
          "indices": 0
        }
      ]
    }
  ],
  "nodes": [
    {
      "name": "building-g",
      "translation": [
        0,
        0.846500039100647,
        1.043081283569336e-7
      ],
      "scale": [
        0.846500039100647,
        0.846500039100647,
        0.846500039100647
      ],
      "mesh": 0
    }
  ],
  "scenes": [
    {
      "name": "building-g",
      "nodes": [
        0
      ]
    }
  ],
  "scene": 0,
  "extensionsUsed": [
    "EXT_meshopt_compression",
    "KHR_mesh_quantization",
    "KHR_texture_transform"
  ],
  "extensionsRequired": [
    "EXT_meshopt_compression",
    "KHR_mesh_quantization"
  ]
}