{
  "asset": {
    "generator": "glTF-Transform v4.5.1",
    "version": "2.0"
  },
  "accessors": [
    {
      "type": "SCALAR",
      "componentType": 5123,
      "count": 4653,
      "normalized": false,
      "byteOffset": 0,
      "bufferView": 0
    },
    {
      "type": "VEC3",
      "componentType": 5122,
      "count": 2518,
      "max": [
        10281,
        32767,
        11145
      ],
      "min": [
        -10281,
        -32767,
        -11145
      ],
      "normalized": true,
      "byteOffset": 0,
      "bufferView": 1
    },
    {
      "type": "VEC3",
      "componentType": 5122,
      "count": 2518,
      "normalized": true,
      "byteOffset": 0,
      "bufferView": 2
    },
    {
      "type": "VEC2",
      "componentType": 5123,
      "count": 2518,
      "normalized": true,
      "byteOffset": 0,
      "bufferView": 3
    }
  ],
  "bufferViews": [
    {
      "buffer": 1,
      "byteOffset": 0,
      "byteLength": 9306,
      "target": 34963,
      "extensions": {
        "EXT_meshopt_compression": {
          "buffer": 0,
          "byteOffset": 0,
          "byteLength": 1600,
          "mode": "TRIANGLES",
          "byteStride": 2,
          "count": 4653
        }
      }
    },
    {
      "buffer": 1,
      "byteOffset": 9308,
      "byteLength": 20144,
      "target": 34962,
      "byteStride": 8,
      "extensions": {
        "EXT_meshopt_compression": {
          "buffer": 0,
          "byteOffset": 1600,
          "byteLength": 11000,
          "mode": "ATTRIBUTES",
          "byteStride": 8,
          "count": 2518
        }
      }
    },
    {
      "buffer": 1,
      "byteOffset": 29452,
      "byteLength": 20144,
      "target": 34962,
      "byteStride": 8,
      "extensions": {
        "EXT_meshopt_compression": {
          "buffer": 0,
          "byteOffset": 12600,
          "byteLength": 7482,
          "mode": "ATTRIBUTES",
          "byteStride": 8,
          "count": 2518
        }
      }
    },
    {
      "buffer": 1,
      "byteOffset": 49596,
      "byteLength": 10072,
      "target": 34962,
      "byteStride": 4,
      "extensions": {
        "EXT_meshopt_compression": {
          "buffer": 0,
          "byteOffset": 20084,
          "byteLength": 4084,
          "mode": "ATTRIBUTES",
          "byteStride": 4,
          "count": 2518
        }
      }
    }
  ],
  "samplers": [
    {
      "minFilter": 9987,
      "wrapS": 10497,
      "wrapT": 10497
    }
  ],
  "textures": [
    {
      "source": 0,
      "sampler": 0
    }
  ],
  "images": [
    {
      "name": "colormap",
      "mimeType": "image/png",
      "uri": "Textures/colormap.png"
    }
  ],
  "buffers": [
    {
      "uri": "building-skyscraper-c.bin",
      "byteLength": 24168
    },
    {
      "byteLength": 59668,
      "extensions": {
        "EXT_meshopt_compression": {
          "fallback": true
        }
      }
    }
  ],
  "materials": [
    {
      "name": "colormap",
      "doubleSided": true,
      "pbrMetallicRoughness": {
        "metallicFactor": 0,
        "baseColorTexture": {
          "index": 0,
          "extensions": {
            "KHR_texture_transform": {
              "texCoord": 0
            }
          }
        }
      }
    }
  ],
  "meshes": [
    {
      "name": "building-skyscraper-c",
      "primitives": [
        {
          "attributes": {
            "POSITION": 1,
            "NORMAL": 2,
            "TEXCOORD_0": 3
          },
          "mode": 4,
          "material": 0,
          "indices": 0
        }
      ]
    }
  ],
  "nodes": [
    {
      "name": "building-skyscraper-c",
      "translation": [
        -1.4901161193847656e-7,
        2.0399999618530273,
        2.9802322387695312e-8
      ],
      "scale": [
        2.0399999618530273,
        2.0399999618530273,
        2.0399999618530273
      ],
      "mesh": 0
    }
  ],
  "scenes": [
    {
      "name": "building-skyscraper-c",
      "nodes": [
        0
      ]
    }
  ],
  "scene": 0,
  "extensionsUsed": [
    "EXT_meshopt_compression",
    "KHR_mesh_quantization",
    "KHR_texture_transform"
  ],
  "extensionsRequired": [
    "EXT_meshopt_compression",
    "KHR_mesh_quantization"
  ]
}