{
  "asset": {
    "generator": "glTF-Transform v4.5.1",
    "version": "2.0"
  },
  "accessors": [
    {
      "type": "SCALAR",
      "componentType": 5123,
      "count": 7524,
      "normalized": false,
      "byteOffset": 0,
      "bufferView": 0
    },
    {
      "type": "VEC3",
      "componentType": 5122,
      "count": 3908,
      "max": [
        24186,
        32767,
        25395
      ],
      "min": [
        -24186,
        -32767,
        -25395
      ],
      "normalized": true,
      "byteOffset": 0,
      "bufferView": 1
    },
    {
      "type": "VEC3",
      "componentType": 5122,
      "count": 3908,
      "normalized": true,
      "byteOffset": 0,
      "bufferView": 2
    },
    {
      "type": "VEC2",
      "componentType": 5123,
      "count": 3908,
      "normalized": true,
      "byteOffset": 0,
      "bufferView": 3
    }
  ],
  "bufferViews": [
    {
      "buffer": 1,
      "byteOffset": 0,
      "byteLength": 15048,
      "target": 34963,
      "extensions": {
        "EXT_meshopt_compression": {
          "buffer": 0,
          "byteOffset": 0,
          "byteLength": 2598,
          "mode": "TRIANGLES",
          "byteStride": 2,
          "count": 7524
        }
      }
    },
    {
      "buffer": 1,
      "byteOffset": 15048,
      "byteLength": 31264,
      "target": 34962,
      "byteStride": 8,
      "extensions": {
        "EXT_meshopt_compression": {
          "buffer": 0,
          "byteOffset": 2600,
          "byteLength": 17894,
          "mode": "ATTRIBUTES",
          "byteStride": 8,
          "count": 3908
        }
      }
    },
    {
      "buffer": 1,
      "byteOffset": 46312,
      "byteLength": 31264,
      "target": 34962,
      "byteStride": 8,
      "extensions": {
        "EXT_meshopt_compression": {
          "buffer": 0,
          "byteOffset": 20496,
          "byteLength": 9869,
          "mode": "ATTRIBUTES",
          "byteStride": 8,
          "count": 3908
        }
      }
    },
    {
      "buffer": 1,
      "byteOffset": 77576,
      "byteLength": 15632,
      "target": 34962,
      "byteStride": 4,
      "extensions": {
        "EXT_meshopt_compression": {
          "buffer": 0,
          "byteOffset": 30368,
          "byteLength": 6584,
          "mode": "ATTRIBUTES",
          "byteStride": 4,
          "count": 3908
        }
      }
    }
  ],
  "samplers": [
    {
      "minFilter": 9987,
      "wrapS": 10497,
      "wrapT": 10497
    }
  ],
  "textures": [
    {
      "source": 0,
      "sampler": 0
    }
  ],
  "images": [
    {
      "name": "colormap",
      "mimeType": "image/png",
      "uri": "Textures/colormap.png"
    }
  ],
  "buffers": [
    {
      "uri": "building-i.bin",
      "byteLength": 36952
    },
    {
      "byteLength": 93208,
      "extensions": {
        "EXT_meshopt_compression": {
          "fallback": true
        }
      }
    }
  ],
  "materials": [
    {
      "name": "colormap",
      "doubleSided": true,
      "pbrMetallicRoughness": {
        "metallicFactor": 0,
        "baseColorTexture": {
          "index": 0,
          "extensions": {
            "KHR_texture_transform": {
              "texCoord": 0
            }
          }
        }
      }
    }
  ],
  "meshes": [
    {
      "name": "building-i",
      "primitives": [
        {
          "attributes": {
            "POSITION": 1,
            "NORMAL": 2,
            "TEXCOORD_0": 3
          },
          "mode": 4,
          "material": 0,
          "indices": 0
        }
      ]
    }
  ],
  "nodes": [
    {
      "name": "building-i",
      "translation": [
        2.9802322387695312e-8,
        0.8400000333786011,
        2.9802322387695312e-8
      ],
      "scale": [
        0.8400000333786011,
        0.8400000333786011,
        0.8400000333786011
      ],
      "mesh": 0
    }
  ],
  "scenes": [
    {
      "name": "building-i",
      "nodes": [
        0
      ]
    }
  ],
  "scene": 0,
  "extensionsUsed": [
    "EXT_meshopt_compression",
    "KHR_mesh_quantization",
    "KHR_texture_transform"
  ],
  "extensionsRequired": [
    "EXT_meshopt_compression",
    "KHR_mesh_quantization"
  ]
}