{
  "asset": {
    "generator": "glTF-Transform v4.5.1",
    "version": "2.0"
  },
  "accessors": [
    {
      "type": "SCALAR",
      "componentType": 5123,
      "count": 288,
      "normalized": false,
      "byteOffset": 0,
      "bufferView": 0
    },
    {
      "type": "VEC3",
      "componentType": 5122,
      "count": 144,
      "max": [
        25223,
        32767,
        29127
      ],
      "min": [
        -25223,
        -32767,
        -29127
      ],
      "normalized": true,
      "byteOffset": 0,
      "bufferView": 1
    },
    {
      "type": "VEC3",
      "componentType": 5122,
      "count": 144,
      "normalized": true,
      "byteOffset": 0,
      "bufferView": 2
    },
    {
      "type": "VEC2",
      "componentType": 5123,
      "count": 144,
      "normalized": true,
      "byteOffset": 0,
      "bufferView": 3
    }
  ],
  "bufferViews": [
    {
      "buffer": 1,
      "byteOffset": 0,
      "byteLength": 576,
      "target": 34963,
      "extensions": {
        "EXT_meshopt_compression": {
          "buffer": 0,
          "byteOffset": 0,
          "byteLength": 113,
          "mode": "TRIANGLES",
          "byteStride": 2,
          "count": 288
        }
      }
    },
    {
      "buffer": 1,
      "byteOffset": 576,
      "byteLength": 1152,
      "target": 34962,
      "byteStride": 8,
      "extensions": {
        "EXT_meshopt_compression": {
          "buffer": 0,
          "byteOffset": 116,
          "byteLength": 805,
          "mode": "ATTRIBUTES",
          "byteStride": 8,
          "count": 144
        }
      }
    },
    {
      "buffer": 1,
      "byteOffset": 1728,
      "byteLength": 1152,
      "target": 34962,
      "byteStride": 8,
      "extensions": {
        "EXT_meshopt_compression": {
          "buffer": 0,
          "byteOffset": 924,
          "byteLength": 505,
          "mode": "ATTRIBUTES",
          "byteStride": 8,
          "count": 144
        }
      }
    },
    {
      "buffer": 1,
      "byteOffset": 2880,
      "byteLength": 576,
      "target": 34962,
      "byteStride": 4,
      "extensions": {
        "EXT_meshopt_compression": {
          "buffer": 0,
          "byteOffset": 1432,
          "byteLength": 295,
          "mode": "ATTRIBUTES",
          "byteStride": 4,
          "count": 144
        }
      }
    }
  ],
  "samplers": [
    {
      "minFilter": 9987,
      "wrapS": 10497,
      "wrapT": 10497
    }
  ],
  "textures": [
    {
      "source": 0,
      "sampler": 0
    }
  ],
  "images": [
    {
      "name": "colormap",
      "mimeType": "image/png",
      "uri": "Textures/colormap.png"
    }
  ],
  "buffers": [
    {
      "uri": "detail-parasol-a.bin",
      "byteLength": 1728
    },
    {
      "byteLength": 3456,
      "extensions": {
        "EXT_meshopt_compression": {
          "fallback": true
        }
      }
    }
  ],
  "materials": [
    {
      "name": "colormap",
      "doubleSided": true,
      "pbrMetallicRoughness": {
        "metallicFactor": 0,
        "baseColorTexture": {
          "index": 0,
          "extensions": {
            "KHR_texture_transform": {
              "texCoord": 0
            }
          }
        }
      }
    }
  ],
  "meshes": [
    {
      "name": "detail-parasol-a",
      "primitives": [
        {
          "attributes": {
            "POSITION": 1,
            "NORMAL": 2,
            "TEXCOORD_0": 3
          },
          "mode": 4,
          "material": 0,
          "indices": 0
        }
      ]
    }
  ],
  "nodes": [
    {
      "name": "detail-parasol-a",
      "translation": [
        0,
        0.22500000894069672,
        0
      ],
      "scale": [
        0.22500000894069672,
        0.22500000894069672,
        0.22500000894069672
      ],
      "mesh": 0
    }
  ],
  "scenes": [
    {
      "name": "detail-parasol-a",
      "nodes": [
        0
      ]
    }
  ],
  "scene": 0,
  "extensionsUsed": [
    "EXT_meshopt_compression",
    "KHR_mesh_quantization",
    "KHR_texture_transform"
  ],
  "extensionsRequired": [
    "EXT_meshopt_compression",
    "KHR_mesh_quantization"
  ]
}