{
  "asset": {
    "generator": "glTF-Transform v4.5.1",
    "version": "2.0"
  },
  "accessors": [
    {
      "type": "SCALAR",
      "componentType": 5123,
      "count": 132,
      "normalized": false,
      "byteOffset": 0,
      "bufferView": 0
    },
    {
      "type": "VEC3",
      "componentType": 5122,
      "count": 24,
      "max": [
        32767,
        24679,
        32767
      ],
      "min": [
        -32767,
        -24679,
        -32767
      ],
      "normalized": true,
      "byteOffset": 0,
      "bufferView": 1
    },
    {
      "type": "VEC2",
      "componentType": 5123,
      "count": 24,
      "normalized": true,
      "byteOffset": 0,
      "bufferView": 2
    },
    {
      "type": "VEC3",
      "componentType": 5122,
      "count": 24,
      "normalized": true,
      "byteOffset": 0,
      "bufferView": 3
    }
  ],
  "bufferViews": [
    {
      "buffer": 1,
      "byteOffset": 0,
      "byteLength": 264,
      "target": 34963,
      "extensions": {
        "EXT_meshopt_compression": {
          "buffer": 0,
          "byteOffset": 0,
          "byteLength": 63,
          "mode": "TRIANGLES",
          "byteStride": 2,
          "count": 132
        }
      }
    },
    {
      "buffer": 1,
      "byteOffset": 264,
      "byteLength": 192,
      "target": 34962,
      "byteStride": 8,
      "extensions": {
        "EXT_meshopt_compression": {
          "buffer": 0,
          "byteOffset": 64,
          "byteLength": 203,
          "mode": "ATTRIBUTES",
          "byteStride": 8,
          "count": 24
        }
      }
    },
    {
      "buffer": 1,
      "byteOffset": 456,
      "byteLength": 96,
      "target": 34962,
      "byteStride": 4,
      "extensions": {
        "EXT_meshopt_compression": {
          "buffer": 0,
          "byteOffset": 268,
          "byteLength": 136,
          "mode": "ATTRIBUTES",
          "byteStride": 4,
          "count": 24
        }
      }
    },
    {
      "buffer": 1,
      "byteOffset": 552,
      "byteLength": 192,
      "target": 34962,
      "byteStride": 8,
      "extensions": {
        "EXT_meshopt_compression": {
          "buffer": 0,
          "byteOffset": 404,
          "byteLength": 198,
          "mode": "ATTRIBUTES",
          "byteStride": 8,
          "count": 24
        }
      }
    }
  ],
  "samplers": [
    {
      "magFilter": 9729,
      "minFilter": 9987,
      "wrapS": 10497,
      "wrapT": 10497
    }
  ],
  "textures": [
    {
      "source": 0,
      "sampler": 0
    }
  ],
  "images": [
    {
      "name": "forest_texture",
      "mimeType": "image/png",
      "uri": "forest_texture.png"
    }
  ],
  "buffers": [
    {
      "uri": "Bush_4_A_Color1.bin",
      "byteLength": 604
    },
    {
      "byteLength": 744,
      "extensions": {
        "EXT_meshopt_compression": {
          "fallback": true
        }
      }
    }
  ],
  "materials": [
    {
      "name": "forest",
      "pbrMetallicRoughness": {
        "roughnessFactor": 0.6000000238418579,
        "metallicFactor": 0,
        "baseColorTexture": {
          "index": 0
        }
      }
    }
  ],
  "meshes": [
    {
      "name": "Bush_4_A_Color1",
      "primitives": [
        {
          "attributes": {
            "POSITION": 1,
            "TEXCOORD_0": 2,
            "NORMAL": 3
          },
          "mode": 4,
          "material": 0,
          "indices": 0
        }
      ]
    }
  ],
  "nodes": [
    {
      "name": "Bush_4_A_Color1",
      "translation": [
        -2.9802322387695312e-8,
        0.21698109805583954,
        0
      ],
      "scale": [
        0.288410484790802,
        0.288410484790802,
        0.288410484790802
      ],
      "mesh": 0
    }
  ],
  "scenes": [
    {
      "name": "Scene",
      "nodes": [
        0
      ]
    }
  ],
  "scene": 0,
  "extensionsUsed": [
    "EXT_meshopt_compression",
    "KHR_mesh_quantization"
  ],
  "extensionsRequired": [
    "EXT_meshopt_compression",
    "KHR_mesh_quantization"
  ]
}