{
  "asset": {
    "generator": "glTF-Transform v4.5.1",
    "version": "2.0"
  },
  "accessors": [
    {
      "type": "SCALAR",
      "componentType": 5123,
      "count": 120,
      "normalized": false,
      "byteOffset": 0,
      "bufferView": 0
    },
    {
      "type": "VEC3",
      "componentType": 5122,
      "count": 52,
      "max": [
        19874,
        32767,
        8893
      ],
      "min": [
        -19874,
        -32767,
        -8893
      ],
      "normalized": true,
      "byteOffset": 0,
      "bufferView": 1
    },
    {
      "type": "VEC2",
      "componentType": 5123,
      "count": 52,
      "normalized": true,
      "byteOffset": 0,
      "bufferView": 2
    },
    {
      "type": "VEC3",
      "componentType": 5122,
      "count": 52,
      "normalized": true,
      "byteOffset": 0,
      "bufferView": 3
    }
  ],
  "bufferViews": [
    {
      "buffer": 1,
      "byteOffset": 0,
      "byteLength": 240,
      "target": 34963,
      "extensions": {
        "EXT_meshopt_compression": {
          "buffer": 0,
          "byteOffset": 0,
          "byteLength": 57,
          "mode": "TRIANGLES",
          "byteStride": 2,
          "count": 120
        }
      }
    },
    {
      "buffer": 1,
      "byteOffset": 240,
      "byteLength": 416,
      "target": 34962,
      "byteStride": 8,
      "extensions": {
        "EXT_meshopt_compression": {
          "buffer": 0,
          "byteOffset": 60,
          "byteLength": 372,
          "mode": "ATTRIBUTES",
          "byteStride": 8,
          "count": 52
        }
      }
    },
    {
      "buffer": 1,
      "byteOffset": 656,
      "byteLength": 208,
      "target": 34962,
      "byteStride": 4,
      "extensions": {
        "EXT_meshopt_compression": {
          "buffer": 0,
          "byteOffset": 432,
          "byteLength": 212,
          "mode": "ATTRIBUTES",
          "byteStride": 4,
          "count": 52
        }
      }
    },
    {
      "buffer": 1,
      "byteOffset": 864,
      "byteLength": 416,
      "target": 34962,
      "byteStride": 8,
      "extensions": {
        "EXT_meshopt_compression": {
          "buffer": 0,
          "byteOffset": 644,
          "byteLength": 319,
          "mode": "ATTRIBUTES",
          "byteStride": 8,
          "count": 52
        }
      }
    }
  ],
  "samplers": [
    {
      "magFilter": 9729,
      "minFilter": 9987,
      "wrapS": 10497,
      "wrapT": 10497
    }
  ],
  "textures": [
    {
      "source": 0,
      "sampler": 0
    }
  ],
  "images": [
    {
      "name": "forest_texture",
      "mimeType": "image/png",
      "uri": "forest_texture.png"
    }
  ],
  "buffers": [
    {
      "uri": "Grass_1_A_Color1.bin",
      "byteLength": 964
    },
    {
      "byteLength": 1280,
      "extensions": {
        "EXT_meshopt_compression": {
          "fallback": true
        }
      }
    }
  ],
  "materials": [
    {
      "name": "forest",
      "pbrMetallicRoughness": {
        "roughnessFactor": 0.6000000238418579,
        "metallicFactor": 0,
        "baseColorTexture": {
          "index": 0
        }
      }
    }
  ],
  "meshes": [
    {
      "name": "Grass_1_A_Color1",
      "primitives": [
        {
          "attributes": {
            "POSITION": 1,
            "TEXCOORD_0": 2,
            "NORMAL": 3
          },
          "mode": 4,
          "material": 0,
          "indices": 0
        }
      ]
    }
  ],
  "nodes": [
    {
      "name": "Grass_1_A_Color1",
      "translation": [
        0.0000036582350730895996,
        0.25967072509229183,
        -0.002499029040336609
      ],
      "scale": [
        0.279670724645257,
        0.279670724645257,
        0.279670724645257
      ],
      "mesh": 0
    }
  ],
  "scenes": [
    {
      "name": "Scene",
      "nodes": [
        0
      ]
    }
  ],
  "scene": 0,
  "extensionsUsed": [
    "EXT_meshopt_compression",
    "KHR_mesh_quantization"
  ],
  "extensionsRequired": [
    "EXT_meshopt_compression",
    "KHR_mesh_quantization"
  ]
}