{
  "asset": {
    "generator": "glTF-Transform v4.5.1",
    "version": "2.0"
  },
  "accessors": [
    {
      "type": "SCALAR",
      "componentType": 5123,
      "count": 126,
      "normalized": false,
      "byteOffset": 0,
      "bufferView": 0
    },
    {
      "type": "VEC3",
      "componentType": 5122,
      "count": 76,
      "max": [
        31163,
        29127,
        32767
      ],
      "min": [
        -31163,
        -29127,
        -32767
      ],
      "normalized": true,
      "byteOffset": 0,
      "bufferView": 1
    },
    {
      "type": "VEC2",
      "componentType": 5123,
      "count": 76,
      "normalized": true,
      "byteOffset": 0,
      "bufferView": 2
    },
    {
      "type": "VEC3",
      "componentType": 5122,
      "count": 76,
      "normalized": true,
      "byteOffset": 0,
      "bufferView": 3
    }
  ],
  "bufferViews": [
    {
      "buffer": 1,
      "byteOffset": 0,
      "byteLength": 252,
      "target": 34963,
      "extensions": {
        "EXT_meshopt_compression": {
          "buffer": 0,
          "byteOffset": 0,
          "byteLength": 59,
          "mode": "TRIANGLES",
          "byteStride": 2,
          "count": 126
        }
      }
    },
    {
      "buffer": 1,
      "byteOffset": 252,
      "byteLength": 608,
      "target": 34962,
      "byteStride": 8,
      "extensions": {
        "EXT_meshopt_compression": {
          "buffer": 0,
          "byteOffset": 60,
          "byteLength": 459,
          "mode": "ATTRIBUTES",
          "byteStride": 8,
          "count": 76
        }
      }
    },
    {
      "buffer": 1,
      "byteOffset": 860,
      "byteLength": 304,
      "target": 34962,
      "byteStride": 4,
      "extensions": {
        "EXT_meshopt_compression": {
          "buffer": 0,
          "byteOffset": 520,
          "byteLength": 248,
          "mode": "ATTRIBUTES",
          "byteStride": 4,
          "count": 76
        }
      }
    },
    {
      "buffer": 1,
      "byteOffset": 1164,
      "byteLength": 608,
      "target": 34962,
      "byteStride": 8,
      "extensions": {
        "EXT_meshopt_compression": {
          "buffer": 0,
          "byteOffset": 768,
          "byteLength": 249,
          "mode": "ATTRIBUTES",
          "byteStride": 8,
          "count": 76
        }
      }
    }
  ],
  "samplers": [
    {
      "magFilter": 9729,
      "minFilter": 9987,
      "wrapS": 10497,
      "wrapT": 10497
    }
  ],
  "textures": [
    {
      "source": 0,
      "sampler": 0
    }
  ],
  "images": [
    {
      "name": "forest_texture",
      "mimeType": "image/png",
      "uri": "forest_texture.png"
    }
  ],
  "buffers": [
    {
      "uri": "Rock_1_A_Color1.bin",
      "byteLength": 1020
    },
    {
      "byteLength": 1772,
      "extensions": {
        "EXT_meshopt_compression": {
          "fallback": true
        }
      }
    }
  ],
  "materials": [
    {
      "name": "forest",
      "pbrMetallicRoughness": {
        "roughnessFactor": 0.6000000238418579,
        "metallicFactor": 0,
        "baseColorTexture": {
          "index": 0
        }
      }
    }
  ],
  "meshes": [
    {
      "name": "Rock_1_A_Color1",
      "primitives": [
        {
          "attributes": {
            "POSITION": 1,
            "TEXCOORD_0": 2,
            "NORMAL": 3
          },
          "mode": 4,
          "material": 0,
          "indices": 0
        }
      ]
    }
  ],
  "nodes": [
    {
      "name": "Rock_1_A_Color1",
      "translation": [
        -0.030512109398841858,
        0.27013397216796875,
        0
      ],
      "scale": [
        0.3038882315158844,
        0.3038882315158844,
        0.3038882315158844
      ],
      "mesh": 0
    }
  ],
  "scenes": [
    {
      "name": "Scene",
      "nodes": [
        0
      ]
    }
  ],
  "scene": 0,
  "extensionsUsed": [
    "EXT_meshopt_compression",
    "KHR_mesh_quantization"
  ],
  "extensionsRequired": [
    "EXT_meshopt_compression",
    "KHR_mesh_quantization"
  ]
}