{
  "asset": {
    "generator": "glTF-Transform v4.5.1",
    "version": "2.0"
  },
  "accessors": [
    {
      "type": "SCALAR",
      "componentType": 5123,
      "count": 228,
      "normalized": false,
      "byteOffset": 0,
      "bufferView": 0
    },
    {
      "type": "VEC3",
      "componentType": 5122,
      "count": 130,
      "max": [
        28999,
        32767,
        31475
      ],
      "min": [
        -28999,
        -32767,
        -31475
      ],
      "normalized": true,
      "byteOffset": 0,
      "bufferView": 1
    },
    {
      "type": "VEC2",
      "componentType": 5123,
      "count": 130,
      "normalized": true,
      "byteOffset": 0,
      "bufferView": 2
    },
    {
      "type": "VEC3",
      "componentType": 5122,
      "count": 130,
      "normalized": true,
      "byteOffset": 0,
      "bufferView": 3
    }
  ],
  "bufferViews": [
    {
      "buffer": 1,
      "byteOffset": 0,
      "byteLength": 456,
      "target": 34963,
      "extensions": {
        "EXT_meshopt_compression": {
          "buffer": 0,
          "byteOffset": 0,
          "byteLength": 93,
          "mode": "TRIANGLES",
          "byteStride": 2,
          "count": 228
        }
      }
    },
    {
      "buffer": 1,
      "byteOffset": 456,
      "byteLength": 1040,
      "target": 34962,
      "byteStride": 8,
      "extensions": {
        "EXT_meshopt_compression": {
          "buffer": 0,
          "byteOffset": 96,
          "byteLength": 756,
          "mode": "ATTRIBUTES",
          "byteStride": 8,
          "count": 130
        }
      }
    },
    {
      "buffer": 1,
      "byteOffset": 1496,
      "byteLength": 520,
      "target": 34962,
      "byteStride": 4,
      "extensions": {
        "EXT_meshopt_compression": {
          "buffer": 0,
          "byteOffset": 852,
          "byteLength": 403,
          "mode": "ATTRIBUTES",
          "byteStride": 4,
          "count": 130
        }
      }
    },
    {
      "buffer": 1,
      "byteOffset": 2016,
      "byteLength": 1040,
      "target": 34962,
      "byteStride": 8,
      "extensions": {
        "EXT_meshopt_compression": {
          "buffer": 0,
          "byteOffset": 1256,
          "byteLength": 415,
          "mode": "ATTRIBUTES",
          "byteStride": 8,
          "count": 130
        }
      }
    }
  ],
  "samplers": [
    {
      "magFilter": 9729,
      "minFilter": 9987,
      "wrapS": 10497,
      "wrapT": 10497
    }
  ],
  "textures": [
    {
      "source": 0,
      "sampler": 0
    }
  ],
  "images": [
    {
      "name": "forest_texture",
      "mimeType": "image/png",
      "uri": "forest_texture.png"
    }
  ],
  "buffers": [
    {
      "uri": "Rock_1_E_Color1.bin",
      "byteLength": 1672
    },
    {
      "byteLength": 3056,
      "extensions": {
        "EXT_meshopt_compression": {
          "fallback": true
        }
      }
    }
  ],
  "materials": [
    {
      "name": "forest",
      "pbrMetallicRoughness": {
        "roughnessFactor": 0.6000000238418579,
        "metallicFactor": 0,
        "baseColorTexture": {
          "index": 0
        }
      }
    }
  ],
  "meshes": [
    {
      "name": "Rock_1_E_Color1",
      "primitives": [
        {
          "attributes": {
            "POSITION": 1,
            "TEXCOORD_0": 2,
            "NORMAL": 3
          },
          "mode": 4,
          "material": 0,
          "indices": 0
        }
      ]
    }
  ],
  "nodes": [
    {
      "name": "Rock_1_E_Color1",
      "translation": [
        0,
        0.5649865865707397,
        -0.10967016220092773
      ],
      "scale": [
        0.5649865865707397,
        0.5649865865707397,
        0.5649865865707397
      ],
      "mesh": 0
    }
  ],
  "scenes": [
    {
      "name": "Scene",
      "nodes": [
        0
      ]
    }
  ],
  "scene": 0,
  "extensionsUsed": [
    "EXT_meshopt_compression",
    "KHR_mesh_quantization"
  ],
  "extensionsRequired": [
    "EXT_meshopt_compression",
    "KHR_mesh_quantization"
  ]
}