{
  "asset": {
    "generator": "glTF-Transform v4.5.1",
    "version": "2.0"
  },
  "accessors": [
    {
      "type": "SCALAR",
      "componentType": 5123,
      "count": 984,
      "normalized": false,
      "byteOffset": 0,
      "bufferView": 0
    },
    {
      "type": "VEC3",
      "componentType": 5122,
      "count": 266,
      "max": [
        12529,
        32767,
        12509
      ],
      "min": [
        -12529,
        -32767,
        -12509
      ],
      "normalized": true,
      "byteOffset": 0,
      "bufferView": 1
    },
    {
      "type": "VEC2",
      "componentType": 5123,
      "count": 266,
      "normalized": true,
      "byteOffset": 0,
      "bufferView": 2
    },
    {
      "type": "VEC3",
      "componentType": 5122,
      "count": 266,
      "normalized": true,
      "byteOffset": 0,
      "bufferView": 3
    }
  ],
  "bufferViews": [
    {
      "buffer": 1,
      "byteOffset": 0,
      "byteLength": 1968,
      "target": 34963,
      "extensions": {
        "EXT_meshopt_compression": {
          "buffer": 0,
          "byteOffset": 0,
          "byteLength": 364,
          "mode": "TRIANGLES",
          "byteStride": 2,
          "count": 984
        }
      }
    },
    {
      "buffer": 1,
      "byteOffset": 1968,
      "byteLength": 2128,
      "target": 34962,
      "byteStride": 8,
      "extensions": {
        "EXT_meshopt_compression": {
          "buffer": 0,
          "byteOffset": 364,
          "byteLength": 1514,
          "mode": "ATTRIBUTES",
          "byteStride": 8,
          "count": 266
        }
      }
    },
    {
      "buffer": 1,
      "byteOffset": 4096,
      "byteLength": 1064,
      "target": 34962,
      "byteStride": 4,
      "extensions": {
        "EXT_meshopt_compression": {
          "buffer": 0,
          "byteOffset": 1880,
          "byteLength": 853,
          "mode": "ATTRIBUTES",
          "byteStride": 4,
          "count": 266
        }
      }
    },
    {
      "buffer": 1,
      "byteOffset": 5160,
      "byteLength": 2128,
      "target": 34962,
      "byteStride": 8,
      "extensions": {
        "EXT_meshopt_compression": {
          "buffer": 0,
          "byteOffset": 2736,
          "byteLength": 1681,
          "mode": "ATTRIBUTES",
          "byteStride": 8,
          "count": 266
        }
      }
    }
  ],
  "samplers": [
    {
      "magFilter": 9729,
      "minFilter": 9987,
      "wrapS": 10497,
      "wrapT": 10497
    }
  ],
  "textures": [
    {
      "source": 0,
      "sampler": 0
    }
  ],
  "images": [
    {
      "name": "forest_texture",
      "mimeType": "image/png",
      "uri": "forest_texture.png"
    }
  ],
  "buffers": [
    {
      "uri": "Tree_4_A_Color1.bin",
      "byteLength": 4420
    },
    {
      "byteLength": 7288,
      "extensions": {
        "EXT_meshopt_compression": {
          "fallback": true
        }
      }
    }
  ],
  "materials": [
    {
      "name": "forest",
      "pbrMetallicRoughness": {
        "roughnessFactor": 0.6000000238418579,
        "metallicFactor": 0,
        "baseColorTexture": {
          "index": 0
        }
      }
    }
  ],
  "meshes": [
    {
      "name": "Tree_4_A_Color1",
      "primitives": [
        {
          "attributes": {
            "POSITION": 1,
            "TEXCOORD_0": 2,
            "NORMAL": 3
          },
          "mode": 4,
          "material": 0,
          "indices": 0
        }
      ]
    }
  ],
  "nodes": [
    {
      "name": "Tree_4_A_Color1",
      "translation": [
        0.043667763471603394,
        2.2828142642974854,
        -0.01750454306602478
      ],
      "scale": [
        2.624939203262329,
        2.624939203262329,
        2.624939203262329
      ],
      "mesh": 0
    }
  ],
  "scenes": [
    {
      "name": "Scene",
      "nodes": [
        0
      ]
    }
  ],
  "scene": 0,
  "extensionsUsed": [
    "EXT_meshopt_compression",
    "KHR_mesh_quantization"
  ],
  "extensionsRequired": [
    "EXT_meshopt_compression",
    "KHR_mesh_quantization"
  ]
}