{
  "asset": {
    "generator": "glTF-Transform v4.5.1",
    "version": "2.0"
  },
  "accessors": [
    {
      "type": "SCALAR",
      "componentType": 5123,
      "count": 426,
      "normalized": false,
      "byteOffset": 0,
      "bufferView": 0
    },
    {
      "type": "SCALAR",
      "componentType": 5123,
      "count": 426,
      "normalized": false,
      "byteOffset": 852,
      "bufferView": 0
    },
    {
      "type": "SCALAR",
      "componentType": 5123,
      "count": 1956,
      "normalized": false,
      "byteOffset": 1704,
      "bufferView": 0
    },
    {
      "type": "VEC3",
      "componentType": 5122,
      "count": 145,
      "max": [
        13877,
        32767,
        32767
      ],
      "min": [
        -13877,
        -32767,
        -32767
      ],
      "normalized": true,
      "byteOffset": 0,
      "bufferView": 1
    },
    {
      "type": "VEC2",
      "componentType": 5123,
      "count": 145,
      "normalized": true,
      "byteOffset": 0,
      "bufferView": 2
    },
    {
      "type": "VEC3",
      "componentType": 5122,
      "count": 145,
      "normalized": true,
      "byteOffset": 0,
      "bufferView": 3
    },
    {
      "type": "VEC3",
      "componentType": 5122,
      "count": 145,
      "max": [
        13877,
        32767,
        32767
      ],
      "min": [
        -13877,
        -32767,
        -32767
      ],
      "normalized": true,
      "byteOffset": 0,
      "bufferView": 4
    },
    {
      "type": "VEC3",
      "componentType": 5122,
      "count": 145,
      "normalized": true,
      "byteOffset": 0,
      "bufferView": 5
    },
    {
      "type": "VEC2",
      "componentType": 5123,
      "count": 145,
      "normalized": true,
      "byteOffset": 0,
      "bufferView": 6
    },
    {
      "type": "VEC3",
      "componentType": 5122,
      "count": 1043,
      "max": [
        14633,
        14093,
        32767
      ],
      "min": [
        -14633,
        -14093,
        -32767
      ],
      "normalized": true,
      "byteOffset": 0,
      "bufferView": 7
    },
    {
      "type": "VEC2",
      "componentType": 5123,
      "count": 1043,
      "normalized": true,
      "byteOffset": 0,
      "bufferView": 8
    },
    {
      "type": "VEC3",
      "componentType": 5122,
      "count": 1043,
      "normalized": true,
      "byteOffset": 0,
      "bufferView": 9
    }
  ],
  "bufferViews": [
    {
      "buffer": 1,
      "byteOffset": 0,
      "byteLength": 5616,
      "target": 34963,
      "extensions": {
        "EXT_meshopt_compression": {
          "buffer": 0,
          "byteOffset": 0,
          "byteLength": 993,
          "mode": "TRIANGLES",
          "byteStride": 2,
          "count": 2808
        }
      }
    },
    {
      "buffer": 1,
      "byteOffset": 5616,
      "byteLength": 1160,
      "target": 34962,
      "byteStride": 8,
      "extensions": {
        "EXT_meshopt_compression": {
          "buffer": 0,
          "byteOffset": 996,
          "byteLength": 852,
          "mode": "ATTRIBUTES",
          "byteStride": 8,
          "count": 145
        }
      }
    },
    {
      "buffer": 1,
      "byteOffset": 6776,
      "byteLength": 580,
      "target": 34962,
      "byteStride": 4,
      "extensions": {
        "EXT_meshopt_compression": {
          "buffer": 0,
          "byteOffset": 1848,
          "byteLength": 499,
          "mode": "ATTRIBUTES",
          "byteStride": 4,
          "count": 145
        }
      }
    },
    {
      "buffer": 1,
      "byteOffset": 7356,
      "byteLength": 1160,
      "target": 34962,
      "byteStride": 8,
      "extensions": {
        "EXT_meshopt_compression": {
          "buffer": 0,
          "byteOffset": 2348,
          "byteLength": 504,
          "mode": "ATTRIBUTES",
          "byteStride": 8,
          "count": 145
        }
      }
    },
    {
      "buffer": 1,
      "byteOffset": 8516,
      "byteLength": 1160,
      "target": 34962,
      "byteStride": 8,
      "extensions": {
        "EXT_meshopt_compression": {
          "buffer": 0,
          "byteOffset": 2852,
          "byteLength": 851,
          "mode": "ATTRIBUTES",
          "byteStride": 8,
          "count": 145
        }
      }
    },
    {
      "buffer": 1,
      "byteOffset": 9676,
      "byteLength": 1160,
      "target": 34962,
      "byteStride": 8,
      "extensions": {
        "EXT_meshopt_compression": {
          "buffer": 0,
          "byteOffset": 3704,
          "byteLength": 490,
          "mode": "ATTRIBUTES",
          "byteStride": 8,
          "count": 145
        }
      }
    },
    {
      "buffer": 1,
      "byteOffset": 10836,
      "byteLength": 580,
      "target": 34962,
      "byteStride": 4,
      "extensions": {
        "EXT_meshopt_compression": {
          "buffer": 0,
          "byteOffset": 4196,
          "byteLength": 496,
          "mode": "ATTRIBUTES",
          "byteStride": 4,
          "count": 145
        }
      }
    },
    {
      "buffer": 1,
      "byteOffset": 11416,
      "byteLength": 8344,
      "target": 34962,
      "byteStride": 8,
      "extensions": {
        "EXT_meshopt_compression": {
          "buffer": 0,
          "byteOffset": 4692,
          "byteLength": 5328,
          "mode": "ATTRIBUTES",
          "byteStride": 8,
          "count": 1043
        }
      }
    },
    {
      "buffer": 1,
      "byteOffset": 19760,
      "byteLength": 4172,
      "target": 34962,
      "byteStride": 4,
      "extensions": {
        "EXT_meshopt_compression": {
          "buffer": 0,
          "byteOffset": 10020,
          "byteLength": 2892,
          "mode": "ATTRIBUTES",
          "byteStride": 4,
          "count": 1043
        }
      }
    },
    {
      "buffer": 1,
      "byteOffset": 23932,
      "byteLength": 8344,
      "target": 34962,
      "byteStride": 8,
      "extensions": {
        "EXT_meshopt_compression": {
          "buffer": 0,
          "byteOffset": 12912,
          "byteLength": 3721,
          "mode": "ATTRIBUTES",
          "byteStride": 8,
          "count": 1043
        }
      }
    }
  ],
  "samplers": [
    {
      "magFilter": 9729,
      "minFilter": 9987,
      "wrapS": 10497,
      "wrapT": 10497
    }
  ],
  "textures": [
    {
      "source": 0,
      "sampler": 0
    }
  ],
  "images": [
    {
      "name": "citybits_texture",
      "mimeType": "image/png",
      "uri": "citybits_texture.png"
    }
  ],
  "buffers": [
    {
      "uri": "car_taxi.bin",
      "byteLength": 16636
    },
    {
      "byteLength": 32276,
      "extensions": {
        "EXT_meshopt_compression": {
          "fallback": true
        }
      }
    }
  ],
  "materials": [
    {
      "name": "citybits_texture",
      "pbrMetallicRoughness": {
        "roughnessFactor": 0.4000000059604645,
        "metallicFactor": 0,
        "baseColorTexture": {
          "index": 0
        }
      }
    }
  ],
  "meshes": [
    {
      "name": "Cylinder.283",
      "primitives": [
        {
          "attributes": {
            "POSITION": 3,
            "TEXCOORD_0": 4,
            "NORMAL": 5
          },
          "mode": 4,
          "material": 0,
          "indices": 0
        }
      ]
    },
    {
      "name": "Cylinder.285",
      "primitives": [
        {
          "attributes": {
            "POSITION": 6,
            "NORMAL": 7,
            "TEXCOORD_0": 8
          },
          "mode": 4,
          "material": 0,
          "indices": 1
        }
      ]
    },
    {
      "name": "Cylinder.286",
      "primitives": [
        {
          "attributes": {
            "POSITION": 6,
            "NORMAL": 7,
            "TEXCOORD_0": 8
          },
          "mode": 4,
          "material": 0,
          "indices": 1
        }
      ]
    },
    {
      "name": "Cube.1023",
      "primitives": [
        {
          "attributes": {
            "POSITION": 9,
            "TEXCOORD_0": 10,
            "NORMAL": 11
          },
          "mode": 4,
          "material": 0,
          "indices": 2
        }
      ]
    }
  ],
  "nodes": [
    {
      "name": "car_taxi_wheel_front_left",
      "translation": [
        0.17598647810518742,
        0.011256713420152664,
        0.24540486931800842
      ],
      "scale": [
        0.07229961827397346,
        0.07229961827397346,
        0.07229961827397346
      ],
      "mesh": 0
    },
    {
      "name": "car_taxi_wheel_front_right",
      "translation": [
        -0.17598647810518742,
        0.011256713420152664,
        0.24540486931800842
      ],
      "scale": [
        0.07229961827397346,
        0.07229961827397346,
        0.07229961827397346
      ],
      "mesh": 1
    },
    {
      "name": "car_taxi_wheel_rear_left",
      "translation": [
        0.17598647810518742,
        0.011256713420152664,
        -0.25617823004722595
      ],
      "scale": [
        0.07229961827397346,
        0.07229961827397346,
        0.07229961827397346
      ],
      "mesh": 0
    },
    {
      "name": "car_taxi_wheel_rear_right",
      "translation": [
        -0.17598647810518742,
        0.011256713420152664,
        -0.25617823004722595
      ],
      "scale": [
        0.07229961827397346,
        0.07229961827397346,
        0.07229961827397346
      ],
      "mesh": 2
    },
    {
      "name": "car_taxi",
      "children": [
        0,
        1,
        2,
        3,
        5
      ]
    },
    {
      "translation": [
        0.00000492483377456665,
        0.1717144399881363,
        -0.003298461437225342
      ],
      "scale": [
        0.4690364897251129,
        0.4690364897251129,
        0.4690364897251129
      ],
      "mesh": 3
    }
  ],
  "scenes": [
    {
      "name": "Scene",
      "nodes": [
        4
      ]
    }
  ],
  "scene": 0,
  "extensionsUsed": [
    "EXT_meshopt_compression",
    "KHR_mesh_quantization"
  ],
  "extensionsRequired": [
    "EXT_meshopt_compression",
    "KHR_mesh_quantization"
  ]
}