{
  "asset": {
    "generator": "glTF-Transform v4.5.1",
    "version": "2.0"
  },
  "accessors": [
    {
      "type": "SCALAR",
      "componentType": 5123,
      "count": 426,
      "normalized": false,
      "byteOffset": 0,
      "bufferView": 0
    },
    {
      "type": "SCALAR",
      "componentType": 5123,
      "count": 426,
      "normalized": false,
      "byteOffset": 852,
      "bufferView": 0
    },
    {
      "type": "SCALAR",
      "componentType": 5123,
      "count": 1866,
      "normalized": false,
      "byteOffset": 1704,
      "bufferView": 0
    },
    {
      "type": "VEC3",
      "componentType": 5122,
      "count": 145,
      "max": [
        13877,
        32767,
        32767
      ],
      "min": [
        -13877,
        -32767,
        -32767
      ],
      "normalized": true,
      "byteOffset": 0,
      "bufferView": 1
    },
    {
      "type": "VEC2",
      "componentType": 5123,
      "count": 145,
      "normalized": true,
      "byteOffset": 0,
      "bufferView": 2
    },
    {
      "type": "VEC3",
      "componentType": 5122,
      "count": 145,
      "normalized": true,
      "byteOffset": 0,
      "bufferView": 3
    },
    {
      "type": "VEC3",
      "componentType": 5122,
      "count": 145,
      "max": [
        13877,
        32767,
        32767
      ],
      "min": [
        -13877,
        -32767,
        -32767
      ],
      "normalized": true,
      "byteOffset": 0,
      "bufferView": 4
    },
    {
      "type": "VEC3",
      "componentType": 5122,
      "count": 145,
      "normalized": true,
      "byteOffset": 0,
      "bufferView": 5
    },
    {
      "type": "VEC2",
      "componentType": 5123,
      "count": 145,
      "normalized": true,
      "byteOffset": 0,
      "bufferView": 6
    },
    {
      "type": "VEC3",
      "componentType": 5122,
      "count": 948,
      "max": [
        14633,
        11797,
        32767
      ],
      "min": [
        -14633,
        -11797,
        -32767
      ],
      "normalized": true,
      "byteOffset": 0,
      "bufferView": 7
    },
    {
      "type": "VEC2",
      "componentType": 5123,
      "count": 948,
      "normalized": true,
      "byteOffset": 0,
      "bufferView": 8
    },
    {
      "type": "VEC3",
      "componentType": 5122,
      "count": 948,
      "normalized": true,
      "byteOffset": 0,
      "bufferView": 9
    }
  ],
  "bufferViews": [
    {
      "buffer": 1,
      "byteOffset": 0,
      "byteLength": 5436,
      "target": 34963,
      "extensions": {
        "EXT_meshopt_compression": {
          "buffer": 0,
          "byteOffset": 0,
          "byteLength": 965,
          "mode": "TRIANGLES",
          "byteStride": 2,
          "count": 2718
        }
      }
    },
    {
      "buffer": 1,
      "byteOffset": 5436,
      "byteLength": 1160,
      "target": 34962,
      "byteStride": 8,
      "extensions": {
        "EXT_meshopt_compression": {
          "buffer": 0,
          "byteOffset": 968,
          "byteLength": 852,
          "mode": "ATTRIBUTES",
          "byteStride": 8,
          "count": 145
        }
      }
    },
    {
      "buffer": 1,
      "byteOffset": 6596,
      "byteLength": 580,
      "target": 34962,
      "byteStride": 4,
      "extensions": {
        "EXT_meshopt_compression": {
          "buffer": 0,
          "byteOffset": 1820,
          "byteLength": 497,
          "mode": "ATTRIBUTES",
          "byteStride": 4,
          "count": 145
        }
      }
    },
    {
      "buffer": 1,
      "byteOffset": 7176,
      "byteLength": 1160,
      "target": 34962,
      "byteStride": 8,
      "extensions": {
        "EXT_meshopt_compression": {
          "buffer": 0,
          "byteOffset": 2320,
          "byteLength": 504,
          "mode": "ATTRIBUTES",
          "byteStride": 8,
          "count": 145
        }
      }
    },
    {
      "buffer": 1,
      "byteOffset": 8336,
      "byteLength": 1160,
      "target": 34962,
      "byteStride": 8,
      "extensions": {
        "EXT_meshopt_compression": {
          "buffer": 0,
          "byteOffset": 2824,
          "byteLength": 851,
          "mode": "ATTRIBUTES",
          "byteStride": 8,
          "count": 145
        }
      }
    },
    {
      "buffer": 1,
      "byteOffset": 9496,
      "byteLength": 1160,
      "target": 34962,
      "byteStride": 8,
      "extensions": {
        "EXT_meshopt_compression": {
          "buffer": 0,
          "byteOffset": 3676,
          "byteLength": 490,
          "mode": "ATTRIBUTES",
          "byteStride": 8,
          "count": 145
        }
      }
    },
    {
      "buffer": 1,
      "byteOffset": 10656,
      "byteLength": 580,
      "target": 34962,
      "byteStride": 4,
      "extensions": {
        "EXT_meshopt_compression": {
          "buffer": 0,
          "byteOffset": 4168,
          "byteLength": 494,
          "mode": "ATTRIBUTES",
          "byteStride": 4,
          "count": 145
        }
      }
    },
    {
      "buffer": 1,
      "byteOffset": 11236,
      "byteLength": 7584,
      "target": 34962,
      "byteStride": 8,
      "extensions": {
        "EXT_meshopt_compression": {
          "buffer": 0,
          "byteOffset": 4664,
          "byteLength": 4886,
          "mode": "ATTRIBUTES",
          "byteStride": 8,
          "count": 948
        }
      }
    },
    {
      "buffer": 1,
      "byteOffset": 18820,
      "byteLength": 3792,
      "target": 34962,
      "byteStride": 4,
      "extensions": {
        "EXT_meshopt_compression": {
          "buffer": 0,
          "byteOffset": 9552,
          "byteLength": 2810,
          "mode": "ATTRIBUTES",
          "byteStride": 4,
          "count": 948
        }
      }
    },
    {
      "buffer": 1,
      "byteOffset": 22612,
      "byteLength": 7584,
      "target": 34962,
      "byteStride": 8,
      "extensions": {
        "EXT_meshopt_compression": {
          "buffer": 0,
          "byteOffset": 12364,
          "byteLength": 3486,
          "mode": "ATTRIBUTES",
          "byteStride": 8,
          "count": 948
        }
      }
    }
  ],
  "samplers": [
    {
      "magFilter": 9729,
      "minFilter": 9987,
      "wrapS": 10497,
      "wrapT": 10497
    }
  ],
  "textures": [
    {
      "source": 0,
      "sampler": 0
    }
  ],
  "images": [
    {
      "name": "citybits_texture",
      "mimeType": "image/png",
      "uri": "citybits_texture.png"
    }
  ],
  "buffers": [
    {
      "uri": "car_sedan.bin",
      "byteLength": 15852
    },
    {
      "byteLength": 30196,
      "extensions": {
        "EXT_meshopt_compression": {
          "fallback": true
        }
      }
    }
  ],
  "materials": [
    {
      "name": "citybits_texture",
      "pbrMetallicRoughness": {
        "roughnessFactor": 0.4000000059604645,
        "metallicFactor": 0,
        "baseColorTexture": {
          "index": 0
        }
      }
    }
  ],
  "meshes": [
    {
      "name": "Cylinder.291",
      "primitives": [
        {
          "attributes": {
            "POSITION": 3,
            "TEXCOORD_0": 4,
            "NORMAL": 5
          },
          "mode": 4,
          "material": 0,
          "indices": 0
        }
      ]
    },
    {
      "name": "Cylinder.293",
      "primitives": [
        {
          "attributes": {
            "POSITION": 6,
            "NORMAL": 7,
            "TEXCOORD_0": 8
          },
          "mode": 4,
          "material": 0,
          "indices": 1
        }
      ]
    },
    {
      "name": "Cylinder.294",
      "primitives": [
        {
          "attributes": {
            "POSITION": 6,
            "NORMAL": 7,
            "TEXCOORD_0": 8
          },
          "mode": 4,
          "material": 0,
          "indices": 1
        }
      ]
    },
    {
      "name": "Cube.13729",
      "primitives": [
        {
          "attributes": {
            "POSITION": 9,
            "TEXCOORD_0": 10,
            "NORMAL": 11
          },
          "mode": 4,
          "material": 0,
          "indices": 2
        }
      ]
    }
  ],
  "nodes": [
    {
      "name": "car_sedan_wheel_front_left",
      "translation": [
        0.1759845707565546,
        0.011256713420152664,
        0.24540486931800842
      ],
      "scale": [
        0.07229961827397346,
        0.07229961827397346,
        0.07229961827397346
      ],
      "mesh": 0
    },
    {
      "name": "car_sedan_wheel_front_right",
      "translation": [
        -0.17598838545382023,
        0.011256713420152664,
        0.24540486931800842
      ],
      "scale": [
        0.07229961827397346,
        0.07229961827397346,
        0.07229961827397346
      ],
      "mesh": 1
    },
    {
      "name": "car_sedan_wheel_rear_left",
      "translation": [
        0.1759845707565546,
        0.011256713420152664,
        -0.25617823004722595
      ],
      "scale": [
        0.07229961827397346,
        0.07229961827397346,
        0.07229961827397346
      ],
      "mesh": 0
    },
    {
      "name": "car_sedan_wheel_rear_right",
      "translation": [
        -0.17598838545382023,
        0.011256713420152664,
        -0.25617823004722595
      ],
      "scale": [
        0.07229961827397346,
        0.07229961827397346,
        0.07229961827397346
      ],
      "mesh": 2
    },
    {
      "name": "car_sedan",
      "children": [
        0,
        1,
        2,
        3,
        5
      ]
    },
    {
      "translation": [
        0.00000492483377456665,
        0.13886065781116486,
        -0.003298461437225342
      ],
      "scale": [
        0.4690364897251129,
        0.4690364897251129,
        0.4690364897251129
      ],
      "mesh": 3
    }
  ],
  "scenes": [
    {
      "name": "Scene",
      "nodes": [
        4
      ]
    }
  ],
  "scene": 0,
  "extensionsUsed": [
    "EXT_meshopt_compression",
    "KHR_mesh_quantization"
  ],
  "extensionsRequired": [
    "EXT_meshopt_compression",
    "KHR_mesh_quantization"
  ]
}