{
  "asset": {
    "generator": "glTF-Transform v4.5.1",
    "version": "2.0"
  },
  "accessors": [
    {
      "type": "SCALAR",
      "componentType": 5123,
      "count": 540,
      "normalized": false,
      "byteOffset": 0,
      "bufferView": 0
    },
    {
      "type": "VEC3",
      "componentType": 5122,
      "count": 218,
      "max": [
        19770,
        32767,
        19158
      ],
      "min": [
        -19770,
        -32767,
        -19158
      ],
      "normalized": true,
      "byteOffset": 0,
      "bufferView": 1
    },
    {
      "type": "VEC2",
      "componentType": 5123,
      "count": 218,
      "normalized": true,
      "byteOffset": 0,
      "bufferView": 2
    },
    {
      "type": "VEC3",
      "componentType": 5122,
      "count": 218,
      "normalized": true,
      "byteOffset": 0,
      "bufferView": 3
    }
  ],
  "bufferViews": [
    {
      "buffer": 1,
      "byteOffset": 0,
      "byteLength": 1080,
      "target": 34963,
      "extensions": {
        "EXT_meshopt_compression": {
          "buffer": 0,
          "byteOffset": 0,
          "byteLength": 213,
          "mode": "TRIANGLES",
          "byteStride": 2,
          "count": 540
        }
      }
    },
    {
      "buffer": 1,
      "byteOffset": 1080,
      "byteLength": 1744,
      "target": 34962,
      "byteStride": 8,
      "extensions": {
        "EXT_meshopt_compression": {
          "buffer": 0,
          "byteOffset": 216,
          "byteLength": 1182,
          "mode": "ATTRIBUTES",
          "byteStride": 8,
          "count": 218
        }
      }
    },
    {
      "buffer": 1,
      "byteOffset": 2824,
      "byteLength": 872,
      "target": 34962,
      "byteStride": 4,
      "extensions": {
        "EXT_meshopt_compression": {
          "buffer": 0,
          "byteOffset": 1400,
          "byteLength": 669,
          "mode": "ATTRIBUTES",
          "byteStride": 4,
          "count": 218
        }
      }
    },
    {
      "buffer": 1,
      "byteOffset": 3696,
      "byteLength": 1744,
      "target": 34962,
      "byteStride": 8,
      "extensions": {
        "EXT_meshopt_compression": {
          "buffer": 0,
          "byteOffset": 2072,
          "byteLength": 823,
          "mode": "ATTRIBUTES",
          "byteStride": 8,
          "count": 218
        }
      }
    }
  ],
  "samplers": [
    {
      "magFilter": 9729,
      "minFilter": 9987,
      "wrapS": 10497,
      "wrapT": 10497
    }
  ],
  "textures": [
    {
      "source": 0,
      "sampler": 0
    }
  ],
  "images": [
    {
      "name": "citybits_texture",
      "mimeType": "image/png",
      "uri": "citybits_texture.png"
    }
  ],
  "buffers": [
    {
      "uri": "firehydrant.bin",
      "byteLength": 2896
    },
    {
      "byteLength": 5440,
      "extensions": {
        "EXT_meshopt_compression": {
          "fallback": true
        }
      }
    }
  ],
  "materials": [
    {
      "name": "citybits_texture",
      "pbrMetallicRoughness": {
        "roughnessFactor": 0.4000000059604645,
        "metallicFactor": 0,
        "baseColorTexture": {
          "index": 0
        }
      }
    }
  ],
  "meshes": [
    {
      "name": "Cylinder.158",
      "primitives": [
        {
          "attributes": {
            "POSITION": 1,
            "TEXCOORD_0": 2,
            "NORMAL": 3
          },
          "mode": 4,
          "material": 0,
          "indices": 0
        }
      ]
    }
  ],
  "nodes": [
    {
      "name": "firehydrant",
      "translation": [
        0.0000020265579223632812,
        0.11229759827256203,
        0.0005620718002319336
      ],
      "scale": [
        0.11229753121733665,
        0.11229753121733665,
        0.11229753121733665
      ],
      "mesh": 0
    }
  ],
  "scenes": [
    {
      "name": "Scene",
      "nodes": [
        0
      ]
    }
  ],
  "scene": 0,
  "extensionsUsed": [
    "EXT_meshopt_compression",
    "KHR_mesh_quantization"
  ],
  "extensionsRequired": [
    "EXT_meshopt_compression",
    "KHR_mesh_quantization"
  ]
}