{
  "asset": {
    "generator": "glTF-Transform v4.5.1",
    "version": "2.0"
  },
  "accessors": [
    {
      "type": "SCALAR",
      "componentType": 5123,
      "count": 426,
      "normalized": false,
      "byteOffset": 0,
      "bufferView": 0
    },
    {
      "type": "VEC3",
      "componentType": 5122,
      "count": 166,
      "max": [
        9193,
        32767,
        2356
      ],
      "min": [
        -9193,
        -32767,
        -2356
      ],
      "normalized": true,
      "byteOffset": 0,
      "bufferView": 1
    },
    {
      "type": "VEC2",
      "componentType": 5123,
      "count": 166,
      "normalized": true,
      "byteOffset": 0,
      "bufferView": 2
    },
    {
      "type": "VEC3",
      "componentType": 5122,
      "count": 166,
      "normalized": true,
      "byteOffset": 0,
      "bufferView": 3
    }
  ],
  "bufferViews": [
    {
      "buffer": 1,
      "byteOffset": 0,
      "byteLength": 852,
      "target": 34963,
      "extensions": {
        "EXT_meshopt_compression": {
          "buffer": 0,
          "byteOffset": 0,
          "byteLength": 162,
          "mode": "TRIANGLES",
          "byteStride": 2,
          "count": 426
        }
      }
    },
    {
      "buffer": 1,
      "byteOffset": 852,
      "byteLength": 1328,
      "target": 34962,
      "byteStride": 8,
      "extensions": {
        "EXT_meshopt_compression": {
          "buffer": 0,
          "byteOffset": 164,
          "byteLength": 909,
          "mode": "ATTRIBUTES",
          "byteStride": 8,
          "count": 166
        }
      }
    },
    {
      "buffer": 1,
      "byteOffset": 2180,
      "byteLength": 664,
      "target": 34962,
      "byteStride": 4,
      "extensions": {
        "EXT_meshopt_compression": {
          "buffer": 0,
          "byteOffset": 1076,
          "byteLength": 591,
          "mode": "ATTRIBUTES",
          "byteStride": 4,
          "count": 166
        }
      }
    },
    {
      "buffer": 1,
      "byteOffset": 2844,
      "byteLength": 1328,
      "target": 34962,
      "byteStride": 8,
      "extensions": {
        "EXT_meshopt_compression": {
          "buffer": 0,
          "byteOffset": 1668,
          "byteLength": 851,
          "mode": "ATTRIBUTES",
          "byteStride": 8,
          "count": 166
        }
      }
    }
  ],
  "samplers": [
    {
      "magFilter": 9729,
      "minFilter": 9987,
      "wrapS": 10497,
      "wrapT": 10497
    }
  ],
  "textures": [
    {
      "source": 0,
      "sampler": 0
    }
  ],
  "images": [
    {
      "name": "citybits_texture",
      "mimeType": "image/png",
      "uri": "citybits_texture.png"
    }
  ],
  "buffers": [
    {
      "uri": "streetlight.bin",
      "byteLength": 2520
    },
    {
      "byteLength": 4172,
      "extensions": {
        "EXT_meshopt_compression": {
          "fallback": true
        }
      }
    }
  ],
  "materials": [
    {
      "name": "citybits_texture",
      "pbrMetallicRoughness": {
        "roughnessFactor": 0.4000000059604645,
        "metallicFactor": 0,
        "baseColorTexture": {
          "index": 0
        }
      }
    }
  ],
  "meshes": [
    {
      "name": "Cylinder.162",
      "primitives": [
        {
          "attributes": {
            "POSITION": 1,
            "TEXCOORD_0": 2,
            "NORMAL": 3
          },
          "mode": 4,
          "material": 0,
          "indices": 0
        }
      ]
    }
  ],
  "nodes": [
    {
      "name": "streetlight",
      "translation": [
        -0.10455688834190369,
        0.47996656969189644,
        -2.2351741790771484e-7
      ],
      "scale": [
        0.4799574129283428,
        0.4799574129283428,
        0.4799574129283428
      ],
      "mesh": 0
    }
  ],
  "scenes": [
    {
      "name": "Scene",
      "nodes": [
        0
      ]
    }
  ],
  "scene": 0,
  "extensionsUsed": [
    "EXT_meshopt_compression",
    "KHR_mesh_quantization"
  ],
  "extensionsRequired": [
    "EXT_meshopt_compression",
    "KHR_mesh_quantization"
  ]
}