{
  "asset": {
    "generator": "glTF-Transform v4.5.1",
    "version": "2.0"
  },
  "accessors": [
    {
      "type": "SCALAR",
      "componentType": 5123,
      "count": 438,
      "normalized": false,
      "byteOffset": 0,
      "bufferView": 0
    },
    {
      "type": "VEC3",
      "componentType": 5122,
      "count": 231,
      "max": [
        24398,
        32767,
        24398
      ],
      "min": [
        -24398,
        -32767,
        -24398
      ],
      "normalized": true,
      "byteOffset": 0,
      "bufferView": 1
    },
    {
      "type": "VEC2",
      "componentType": 5123,
      "count": 231,
      "normalized": true,
      "byteOffset": 0,
      "bufferView": 2
    },
    {
      "type": "VEC3",
      "componentType": 5122,
      "count": 231,
      "normalized": true,
      "byteOffset": 0,
      "bufferView": 3
    }
  ],
  "bufferViews": [
    {
      "buffer": 1,
      "byteOffset": 0,
      "byteLength": 876,
      "target": 34963,
      "extensions": {
        "EXT_meshopt_compression": {
          "buffer": 0,
          "byteOffset": 0,
          "byteLength": 193,
          "mode": "TRIANGLES",
          "byteStride": 2,
          "count": 438
        }
      }
    },
    {
      "buffer": 1,
      "byteOffset": 876,
      "byteLength": 1848,
      "target": 34962,
      "byteStride": 8,
      "extensions": {
        "EXT_meshopt_compression": {
          "buffer": 0,
          "byteOffset": 196,
          "byteLength": 1165,
          "mode": "ATTRIBUTES",
          "byteStride": 8,
          "count": 231
        }
      }
    },
    {
      "buffer": 1,
      "byteOffset": 2724,
      "byteLength": 924,
      "target": 34962,
      "byteStride": 4,
      "extensions": {
        "EXT_meshopt_compression": {
          "buffer": 0,
          "byteOffset": 1364,
          "byteLength": 708,
          "mode": "ATTRIBUTES",
          "byteStride": 4,
          "count": 231
        }
      }
    },
    {
      "buffer": 1,
      "byteOffset": 3648,
      "byteLength": 1848,
      "target": 34962,
      "byteStride": 8,
      "extensions": {
        "EXT_meshopt_compression": {
          "buffer": 0,
          "byteOffset": 2072,
          "byteLength": 692,
          "mode": "ATTRIBUTES",
          "byteStride": 8,
          "count": 231
        }
      }
    }
  ],
  "samplers": [
    {
      "magFilter": 9729,
      "minFilter": 9987,
      "wrapS": 10497,
      "wrapT": 10497
    }
  ],
  "textures": [
    {
      "source": 0,
      "sampler": 0
    }
  ],
  "images": [
    {
      "name": "citybits_texture",
      "mimeType": "image/png",
      "uri": "citybits_texture.png"
    }
  ],
  "buffers": [
    {
      "uri": "watertower.bin",
      "byteLength": 2764
    },
    {
      "byteLength": 5496,
      "extensions": {
        "EXT_meshopt_compression": {
          "fallback": true
        }
      }
    }
  ],
  "materials": [
    {
      "name": "citybits_texture",
      "pbrMetallicRoughness": {
        "roughnessFactor": 0.4000000059604645,
        "metallicFactor": 0,
        "baseColorTexture": {
          "index": 0
        }
      }
    }
  ],
  "meshes": [
    {
      "name": "Cylinder.157",
      "primitives": [
        {
          "attributes": {
            "POSITION": 1,
            "TEXCOORD_0": 2,
            "NORMAL": 3
          },
          "mode": 4,
          "material": 0,
          "indices": 0
        }
      ]
    }
  ],
  "nodes": [
    {
      "name": "watertower",
      "translation": [
        -7.450580596923828e-9,
        0.33499956876039505,
        -7.450580596923828e-9
      ],
      "scale": [
        0.33500050753355026,
        0.33500050753355026,
        0.33500050753355026
      ],
      "mesh": 0
    }
  ],
  "scenes": [
    {
      "name": "Scene",
      "nodes": [
        0
      ]
    }
  ],
  "scene": 0,
  "extensionsUsed": [
    "EXT_meshopt_compression",
    "KHR_mesh_quantization"
  ],
  "extensionsRequired": [
    "EXT_meshopt_compression",
    "KHR_mesh_quantization"
  ]
}