{
  "asset": {
    "generator": "glTF-Transform v4.5.1",
    "version": "2.0"
  },
  "accessors": [
    {
      "type": "SCALAR",
      "componentType": 5123,
      "count": 888,
      "normalized": false,
      "byteOffset": 0,
      "bufferView": 0
    },
    {
      "type": "SCALAR",
      "componentType": 5123,
      "count": 3210,
      "normalized": false,
      "byteOffset": 1776,
      "bufferView": 0
    },
    {
      "type": "SCALAR",
      "componentType": 5123,
      "count": 4542,
      "normalized": false,
      "byteOffset": 8196,
      "bufferView": 0
    },
    {
      "type": "VEC3",
      "componentType": 5122,
      "count": 514,
      "max": [
        18726,
        32767,
        32767
      ],
      "min": [
        -18726,
        -32767,
        -32767
      ],
      "normalized": true,
      "byteOffset": 0,
      "bufferView": 1
    },
    {
      "type": "VEC2",
      "componentType": 5123,
      "count": 514,
      "normalized": true,
      "byteOffset": 0,
      "bufferView": 2
    },
    {
      "type": "VEC3",
      "componentType": 5122,
      "count": 514,
      "normalized": true,
      "byteOffset": 0,
      "bufferView": 3
    },
    {
      "type": "VEC3",
      "componentType": 5122,
      "count": 1507,
      "max": [
        19646,
        18094,
        32767
      ],
      "min": [
        -19646,
        -18094,
        -32767
      ],
      "normalized": true,
      "byteOffset": 0,
      "bufferView": 4
    },
    {
      "type": "VEC2",
      "componentType": 5123,
      "count": 1507,
      "normalized": true,
      "byteOffset": 0,
      "bufferView": 5
    },
    {
      "type": "VEC3",
      "componentType": 5122,
      "count": 1507,
      "normalized": true,
      "byteOffset": 0,
      "bufferView": 6
    },
    {
      "type": "VEC3",
      "componentType": 5122,
      "count": 2321,
      "max": [
        32767,
        25255,
        24607
      ],
      "min": [
        -32767,
        -25255,
        -24607
      ],
      "normalized": true,
      "byteOffset": 0,
      "bufferView": 7
    },
    {
      "type": "VEC2",
      "componentType": 5123,
      "count": 2321,
      "normalized": true,
      "byteOffset": 0,
      "bufferView": 8
    },
    {
      "type": "VEC3",
      "componentType": 5122,
      "count": 2321,
      "normalized": true,
      "byteOffset": 0,
      "bufferView": 9
    }
  ],
  "bufferViews": [
    {
      "buffer": 1,
      "byteOffset": 0,
      "byteLength": 17280,
      "target": 34963,
      "extensions": {
        "EXT_meshopt_compression": {
          "buffer": 0,
          "byteOffset": 0,
          "byteLength": 3081,
          "mode": "TRIANGLES",
          "byteStride": 2,
          "count": 8640
        }
      }
    },
    {
      "buffer": 1,
      "byteOffset": 17280,
      "byteLength": 4112,
      "target": 34962,
      "byteStride": 8,
      "extensions": {
        "EXT_meshopt_compression": {
          "buffer": 0,
          "byteOffset": 3084,
          "byteLength": 2683,
          "mode": "ATTRIBUTES",
          "byteStride": 8,
          "count": 514
        }
      }
    },
    {
      "buffer": 1,
      "byteOffset": 21392,
      "byteLength": 2056,
      "target": 34962,
      "byteStride": 4,
      "extensions": {
        "EXT_meshopt_compression": {
          "buffer": 0,
          "byteOffset": 5768,
          "byteLength": 1539,
          "mode": "ATTRIBUTES",
          "byteStride": 4,
          "count": 514
        }
      }
    },
    {
      "buffer": 1,
      "byteOffset": 23448,
      "byteLength": 4112,
      "target": 34962,
      "byteStride": 8,
      "extensions": {
        "EXT_meshopt_compression": {
          "buffer": 0,
          "byteOffset": 7308,
          "byteLength": 1694,
          "mode": "ATTRIBUTES",
          "byteStride": 8,
          "count": 514
        }
      }
    },
    {
      "buffer": 1,
      "byteOffset": 27560,
      "byteLength": 12056,
      "target": 34962,
      "byteStride": 8,
      "extensions": {
        "EXT_meshopt_compression": {
          "buffer": 0,
          "byteOffset": 9004,
          "byteLength": 7605,
          "mode": "ATTRIBUTES",
          "byteStride": 8,
          "count": 1507
        }
      }
    },
    {
      "buffer": 1,
      "byteOffset": 39616,
      "byteLength": 6028,
      "target": 34962,
      "byteStride": 4,
      "extensions": {
        "EXT_meshopt_compression": {
          "buffer": 0,
          "byteOffset": 16612,
          "byteLength": 3534,
          "mode": "ATTRIBUTES",
          "byteStride": 4,
          "count": 1507
        }
      }
    },
    {
      "buffer": 1,
      "byteOffset": 45644,
      "byteLength": 12056,
      "target": 34962,
      "byteStride": 8,
      "extensions": {
        "EXT_meshopt_compression": {
          "buffer": 0,
          "byteOffset": 20148,
          "byteLength": 4970,
          "mode": "ATTRIBUTES",
          "byteStride": 8,
          "count": 1507
        }
      }
    },
    {
      "buffer": 1,
      "byteOffset": 57700,
      "byteLength": 18568,
      "target": 34962,
      "byteStride": 8,
      "extensions": {
        "EXT_meshopt_compression": {
          "buffer": 0,
          "byteOffset": 25120,
          "byteLength": 11178,
          "mode": "ATTRIBUTES",
          "byteStride": 8,
          "count": 2321
        }
      }
    },
    {
      "buffer": 1,
      "byteOffset": 76268,
      "byteLength": 9284,
      "target": 34962,
      "byteStride": 4,
      "extensions": {
        "EXT_meshopt_compression": {
          "buffer": 0,
          "byteOffset": 36300,
          "byteLength": 6163,
          "mode": "ATTRIBUTES",
          "byteStride": 4,
          "count": 2321
        }
      }
    },
    {
      "buffer": 1,
      "byteOffset": 85552,
      "byteLength": 18568,
      "target": 34962,
      "byteStride": 8,
      "extensions": {
        "EXT_meshopt_compression": {
          "buffer": 0,
          "byteOffset": 42464,
          "byteLength": 9258,
          "mode": "ATTRIBUTES",
          "byteStride": 8,
          "count": 2321
        }
      }
    }
  ],
  "samplers": [
    {
      "magFilter": 9729,
      "minFilter": 9987,
      "wrapS": 10497,
      "wrapT": 10497
    }
  ],
  "textures": [
    {
      "source": 0,
      "sampler": 0
    }
  ],
  "images": [
    {
      "name": "hexagons_medieval",
      "mimeType": "image/png",
      "uri": "hexagons_medieval.png"
    }
  ],
  "buffers": [
    {
      "uri": "building_lumbermill_yellow.bin",
      "byteLength": 51724
    },
    {
      "byteLength": 104120,
      "extensions": {
        "EXT_meshopt_compression": {
          "fallback": true
        }
      }
    }
  ],
  "materials": [
    {
      "name": "hexagons_medieval",
      "pbrMetallicRoughness": {
        "roughnessFactor": 0.5,
        "metallicFactor": 0,
        "baseColorTexture": {
          "index": 0
        }
      }
    }
  ],
  "meshes": [
    {
      "name": "building_lumbermill_saw_yellow",
      "primitives": [
        {
          "attributes": {
            "POSITION": 3,
            "TEXCOORD_0": 4,
            "NORMAL": 5
          },
          "mode": 4,
          "material": 0,
          "indices": 0
        }
      ]
    },
    {
      "name": "building_lumbermill_top_yellow",
      "primitives": [
        {
          "attributes": {
            "POSITION": 6,
            "TEXCOORD_0": 7,
            "NORMAL": 8
          },
          "mode": 4,
          "material": 0,
          "indices": 1
        }
      ]
    },
    {
      "name": "building_lumbermill_yellow",
      "primitives": [
        {
          "attributes": {
            "POSITION": 9,
            "TEXCOORD_0": 10,
            "NORMAL": 11
          },
          "mode": 4,
          "material": 0,
          "indices": 2
        }
      ]
    }
  ],
  "nodes": [
    {
      "name": "building_lumbermill_saw_yellow",
      "translation": [
        0.2799956724047661,
        0.28000107407569885,
        -7.450580596923828e-9
      ],
      "scale": [
        0.24500001221895218,
        0.24500001221895218,
        0.24500001221895218
      ],
      "mesh": 0
    },
    {
      "name": "building_lumbermill_top_yellow",
      "translation": [
        -0.09975577890872955,
        1.3771610260009766,
        0.1374804675579071
      ],
      "scale": [
        0.5924798548221588,
        0.5924798548221588,
        0.5924798548221588
      ],
      "mesh": 1
    },
    {
      "name": "building_lumbermill_yellow",
      "children": [
        0,
        1,
        3
      ]
    },
    {
      "translation": [
        -0.0026448965072631836,
        0.5232488140463829,
        0.05449989438056946
      ],
      "scale": [
        0.6834835410118103,
        0.6834835410118103,
        0.6834835410118103
      ],
      "mesh": 2
    }
  ],
  "scenes": [
    {
      "name": "Scene",
      "nodes": [
        2
      ]
    }
  ],
  "scene": 0,
  "extensionsUsed": [
    "EXT_meshopt_compression",
    "KHR_mesh_quantization"
  ],
  "extensionsRequired": [
    "EXT_meshopt_compression",
    "KHR_mesh_quantization"
  ]
}