{
  "asset": {
    "generator": "glTF-Transform v4.5.1",
    "version": "2.0"
  },
  "accessors": [
    {
      "type": "SCALAR",
      "componentType": 5123,
      "count": 1812,
      "normalized": false,
      "byteOffset": 0,
      "bufferView": 0
    },
    {
      "type": "SCALAR",
      "componentType": 5123,
      "count": 3657,
      "normalized": false,
      "byteOffset": 3624,
      "bufferView": 0
    },
    {
      "type": "VEC3",
      "componentType": 5122,
      "count": 890,
      "max": [
        32767,
        32767,
        13105
      ],
      "min": [
        -32767,
        -32767,
        -13105
      ],
      "normalized": true,
      "byteOffset": 0,
      "bufferView": 1
    },
    {
      "type": "VEC2",
      "componentType": 5123,
      "count": 890,
      "normalized": true,
      "byteOffset": 0,
      "bufferView": 2
    },
    {
      "type": "VEC3",
      "componentType": 5122,
      "count": 890,
      "normalized": true,
      "byteOffset": 0,
      "bufferView": 3
    },
    {
      "type": "VEC3",
      "componentType": 5122,
      "count": 2137,
      "max": [
        20662,
        32767,
        25827
      ],
      "min": [
        -20662,
        -32767,
        -25827
      ],
      "normalized": true,
      "byteOffset": 0,
      "bufferView": 4
    },
    {
      "type": "VEC2",
      "componentType": 5123,
      "count": 2137,
      "normalized": true,
      "byteOffset": 0,
      "bufferView": 5
    },
    {
      "type": "VEC3",
      "componentType": 5122,
      "count": 2137,
      "normalized": true,
      "byteOffset": 0,
      "bufferView": 6
    }
  ],
  "bufferViews": [
    {
      "buffer": 1,
      "byteOffset": 0,
      "byteLength": 10938,
      "target": 34963,
      "extensions": {
        "EXT_meshopt_compression": {
          "buffer": 0,
          "byteOffset": 0,
          "byteLength": 1900,
          "mode": "TRIANGLES",
          "byteStride": 2,
          "count": 5469
        }
      }
    },
    {
      "buffer": 1,
      "byteOffset": 10940,
      "byteLength": 7120,
      "target": 34962,
      "byteStride": 8,
      "extensions": {
        "EXT_meshopt_compression": {
          "buffer": 0,
          "byteOffset": 1900,
          "byteLength": 4456,
          "mode": "ATTRIBUTES",
          "byteStride": 8,
          "count": 890
        }
      }
    },
    {
      "buffer": 1,
      "byteOffset": 18060,
      "byteLength": 3560,
      "target": 34962,
      "byteStride": 4,
      "extensions": {
        "EXT_meshopt_compression": {
          "buffer": 0,
          "byteOffset": 6356,
          "byteLength": 2376,
          "mode": "ATTRIBUTES",
          "byteStride": 4,
          "count": 890
        }
      }
    },
    {
      "buffer": 1,
      "byteOffset": 21620,
      "byteLength": 7120,
      "target": 34962,
      "byteStride": 8,
      "extensions": {
        "EXT_meshopt_compression": {
          "buffer": 0,
          "byteOffset": 8732,
          "byteLength": 2259,
          "mode": "ATTRIBUTES",
          "byteStride": 8,
          "count": 890
        }
      }
    },
    {
      "buffer": 1,
      "byteOffset": 28740,
      "byteLength": 17096,
      "target": 34962,
      "byteStride": 8,
      "extensions": {
        "EXT_meshopt_compression": {
          "buffer": 0,
          "byteOffset": 10992,
          "byteLength": 9919,
          "mode": "ATTRIBUTES",
          "byteStride": 8,
          "count": 2137
        }
      }
    },
    {
      "buffer": 1,
      "byteOffset": 45836,
      "byteLength": 8548,
      "target": 34962,
      "byteStride": 4,
      "extensions": {
        "EXT_meshopt_compression": {
          "buffer": 0,
          "byteOffset": 20912,
          "byteLength": 5640,
          "mode": "ATTRIBUTES",
          "byteStride": 4,
          "count": 2137
        }
      }
    },
    {
      "buffer": 1,
      "byteOffset": 54384,
      "byteLength": 17096,
      "target": 34962,
      "byteStride": 8,
      "extensions": {
        "EXT_meshopt_compression": {
          "buffer": 0,
          "byteOffset": 26552,
          "byteLength": 5135,
          "mode": "ATTRIBUTES",
          "byteStride": 8,
          "count": 2137
        }
      }
    }
  ],
  "samplers": [
    {
      "magFilter": 9729,
      "minFilter": 9987,
      "wrapS": 10497,
      "wrapT": 10497
    }
  ],
  "textures": [
    {
      "source": 0,
      "sampler": 0
    }
  ],
  "images": [
    {
      "name": "hexagons_medieval",
      "mimeType": "image/png",
      "uri": "hexagons_medieval.png"
    }
  ],
  "buffers": [
    {
      "uri": "building_watermill_blue.bin",
      "byteLength": 31688
    },
    {
      "byteLength": 71480,
      "extensions": {
        "EXT_meshopt_compression": {
          "fallback": true
        }
      }
    }
  ],
  "materials": [
    {
      "name": "hexagons_medieval",
      "pbrMetallicRoughness": {
        "roughnessFactor": 0.5,
        "metallicFactor": 0,
        "baseColorTexture": {
          "index": 0
        }
      }
    }
  ],
  "meshes": [
    {
      "name": "building_watermill_wheel_blue",
      "primitives": [
        {
          "attributes": {
            "POSITION": 2,
            "TEXCOORD_0": 3,
            "NORMAL": 4
          },
          "mode": 4,
          "material": 0,
          "indices": 0
        }
      ]
    },
    {
      "name": "building_watermill_blue",
      "primitives": [
        {
          "attributes": {
            "POSITION": 5,
            "TEXCOORD_0": 6,
            "NORMAL": 7
          },
          "mode": 4,
          "material": 0,
          "indices": 1
        }
      ]
    }
  ],
  "nodes": [
    {
      "name": "building_watermill_wheel_blue",
      "translation": [
        0.000018864870071411133,
        0.2449999749660492,
        -0.05498695373535156
      ],
      "scale": [
        0.5250000655651093,
        0.5250000655651093,
        0.5250000655651093
      ],
      "mesh": 0
    },
    {
      "name": "building_watermill_blue",
      "children": [
        0,
        2
      ]
    },
    {
      "translation": [
        -0.004344940185546875,
        0.43400172889232635,
        0.2480107992887497
      ],
      "scale": [
        0.7840021401643753,
        0.7840021401643753,
        0.7840021401643753
      ],
      "mesh": 1
    }
  ],
  "scenes": [
    {
      "name": "Scene",
      "nodes": [
        1
      ]
    }
  ],
  "scene": 0,
  "extensionsUsed": [
    "EXT_meshopt_compression",
    "KHR_mesh_quantization"
  ],
  "extensionsRequired": [
    "EXT_meshopt_compression",
    "KHR_mesh_quantization"
  ]
}