{
  "asset": {
    "generator": "glTF-Transform v4.5.1",
    "version": "2.0"
  },
  "accessors": [
    {
      "type": "SCALAR",
      "componentType": 5123,
      "count": 1596,
      "normalized": false,
      "byteOffset": 0,
      "bufferView": 0
    },
    {
      "type": "SCALAR",
      "componentType": 5123,
      "count": 3975,
      "normalized": false,
      "byteOffset": 3192,
      "bufferView": 0
    },
    {
      "type": "VEC3",
      "componentType": 5122,
      "count": 799,
      "max": [
        28379,
        26107,
        32767
      ],
      "min": [
        -28379,
        -26107,
        -32767
      ],
      "normalized": true,
      "byteOffset": 0,
      "bufferView": 1
    },
    {
      "type": "VEC2",
      "componentType": 5123,
      "count": 799,
      "normalized": true,
      "byteOffset": 0,
      "bufferView": 2
    },
    {
      "type": "VEC3",
      "componentType": 5122,
      "count": 799,
      "normalized": true,
      "byteOffset": 0,
      "bufferView": 3
    },
    {
      "type": "VEC3",
      "componentType": 5122,
      "count": 2063,
      "max": [
        20310,
        32767,
        24270
      ],
      "min": [
        -20310,
        -32767,
        -24270
      ],
      "normalized": true,
      "byteOffset": 0,
      "bufferView": 4
    },
    {
      "type": "VEC2",
      "componentType": 5123,
      "count": 2063,
      "normalized": true,
      "byteOffset": 0,
      "bufferView": 5
    },
    {
      "type": "VEC3",
      "componentType": 5122,
      "count": 2063,
      "normalized": true,
      "byteOffset": 0,
      "bufferView": 6
    }
  ],
  "bufferViews": [
    {
      "buffer": 1,
      "byteOffset": 0,
      "byteLength": 11142,
      "target": 34963,
      "extensions": {
        "EXT_meshopt_compression": {
          "buffer": 0,
          "byteOffset": 0,
          "byteLength": 1891,
          "mode": "TRIANGLES",
          "byteStride": 2,
          "count": 5571
        }
      }
    },
    {
      "buffer": 1,
      "byteOffset": 11144,
      "byteLength": 6392,
      "target": 34962,
      "byteStride": 8,
      "extensions": {
        "EXT_meshopt_compression": {
          "buffer": 0,
          "byteOffset": 1892,
          "byteLength": 4133,
          "mode": "ATTRIBUTES",
          "byteStride": 8,
          "count": 799
        }
      }
    },
    {
      "buffer": 1,
      "byteOffset": 17536,
      "byteLength": 3196,
      "target": 34962,
      "byteStride": 4,
      "extensions": {
        "EXT_meshopt_compression": {
          "buffer": 0,
          "byteOffset": 6028,
          "byteLength": 2284,
          "mode": "ATTRIBUTES",
          "byteStride": 4,
          "count": 799
        }
      }
    },
    {
      "buffer": 1,
      "byteOffset": 20732,
      "byteLength": 6392,
      "target": 34962,
      "byteStride": 8,
      "extensions": {
        "EXT_meshopt_compression": {
          "buffer": 0,
          "byteOffset": 8312,
          "byteLength": 2264,
          "mode": "ATTRIBUTES",
          "byteStride": 8,
          "count": 799
        }
      }
    },
    {
      "buffer": 1,
      "byteOffset": 27124,
      "byteLength": 16504,
      "target": 34962,
      "byteStride": 8,
      "extensions": {
        "EXT_meshopt_compression": {
          "buffer": 0,
          "byteOffset": 10576,
          "byteLength": 9920,
          "mode": "ATTRIBUTES",
          "byteStride": 8,
          "count": 2063
        }
      }
    },
    {
      "buffer": 1,
      "byteOffset": 43628,
      "byteLength": 8252,
      "target": 34962,
      "byteStride": 4,
      "extensions": {
        "EXT_meshopt_compression": {
          "buffer": 0,
          "byteOffset": 20496,
          "byteLength": 4023,
          "mode": "ATTRIBUTES",
          "byteStride": 4,
          "count": 2063
        }
      }
    },
    {
      "buffer": 1,
      "byteOffset": 51880,
      "byteLength": 16504,
      "target": 34962,
      "byteStride": 8,
      "extensions": {
        "EXT_meshopt_compression": {
          "buffer": 0,
          "byteOffset": 24520,
          "byteLength": 5795,
          "mode": "ATTRIBUTES",
          "byteStride": 8,
          "count": 2063
        }
      }
    }
  ],
  "samplers": [
    {
      "magFilter": 9729,
      "minFilter": 9987,
      "wrapS": 10497,
      "wrapT": 10497
    }
  ],
  "textures": [
    {
      "source": 0,
      "sampler": 0
    }
  ],
  "images": [
    {
      "name": "hexagons_medieval",
      "mimeType": "image/png",
      "uri": "hexagons_medieval.png"
    }
  ],
  "buffers": [
    {
      "uri": "building_tower_A_red.bin",
      "byteLength": 30316
    },
    {
      "byteLength": 68384,
      "extensions": {
        "EXT_meshopt_compression": {
          "fallback": true
        }
      }
    }
  ],
  "materials": [
    {
      "name": "hexagons_medieval",
      "pbrMetallicRoughness": {
        "roughnessFactor": 0.5,
        "metallicFactor": 0,
        "baseColorTexture": {
          "index": 0
        }
      }
    }
  ],
  "meshes": [
    {
      "name": "building_tower_A_top_red",
      "primitives": [
        {
          "attributes": {
            "POSITION": 2,
            "TEXCOORD_0": 3,
            "NORMAL": 4
          },
          "mode": 4,
          "material": 0,
          "indices": 0
        }
      ]
    },
    {
      "name": "building_tower_A_red",
      "primitives": [
        {
          "attributes": {
            "POSITION": 5,
            "TEXCOORD_0": 6,
            "NORMAL": 7
          },
          "mode": 4,
          "material": 0,
          "indices": 1
        }
      ]
    }
  ],
  "nodes": [
    {
      "name": "building_tower_A_top_red",
      "translation": [
        -2.9802322387695312e-8,
        1.7348293662071228,
        0
      ],
      "scale": [
        0.5734661817550659,
        0.5734661817550659,
        0.5734661817550659
      ],
      "mesh": 0
    },
    {
      "name": "building_tower_A_red",
      "children": [
        0,
        2
      ]
    },
    {
      "translation": [
        0,
        0.75,
        0.024437010288238525
      ],
      "scale": [
        0.75,
        0.75,
        0.75
      ],
      "mesh": 1
    }
  ],
  "scenes": [
    {
      "name": "Scene",
      "nodes": [
        1
      ]
    }
  ],
  "scene": 0,
  "extensionsUsed": [
    "EXT_meshopt_compression",
    "KHR_mesh_quantization"
  ],
  "extensionsRequired": [
    "EXT_meshopt_compression",
    "KHR_mesh_quantization"
  ]
}