{
  "asset": {
    "generator": "glTF-Transform v4.5.1",
    "version": "2.0"
  },
  "accessors": [
    {
      "type": "SCALAR",
      "componentType": 5123,
      "count": 204,
      "normalized": false,
      "byteOffset": 0,
      "bufferView": 0
    },
    {
      "type": "VEC3",
      "componentType": 5122,
      "count": 76,
      "max": [
        32767,
        2656,
        32651
      ],
      "min": [
        -32767,
        -2656,
        -32651
      ],
      "normalized": true,
      "byteOffset": 0,
      "bufferView": 1
    },
    {
      "type": "VEC2",
      "componentType": 5123,
      "count": 76,
      "normalized": true,
      "byteOffset": 0,
      "bufferView": 2
    },
    {
      "type": "VEC3",
      "componentType": 5122,
      "count": 76,
      "normalized": true,
      "byteOffset": 0,
      "bufferView": 3
    }
  ],
  "bufferViews": [
    {
      "buffer": 1,
      "byteOffset": 0,
      "byteLength": 408,
      "target": 34963,
      "extensions": {
        "EXT_meshopt_compression": {
          "buffer": 0,
          "byteOffset": 0,
          "byteLength": 87,
          "mode": "TRIANGLES",
          "byteStride": 2,
          "count": 204
        }
      }
    },
    {
      "buffer": 1,
      "byteOffset": 408,
      "byteLength": 608,
      "target": 34962,
      "byteStride": 8,
      "extensions": {
        "EXT_meshopt_compression": {
          "buffer": 0,
          "byteOffset": 88,
          "byteLength": 475,
          "mode": "ATTRIBUTES",
          "byteStride": 8,
          "count": 76
        }
      }
    },
    {
      "buffer": 1,
      "byteOffset": 1016,
      "byteLength": 304,
      "target": 34962,
      "byteStride": 4,
      "extensions": {
        "EXT_meshopt_compression": {
          "buffer": 0,
          "byteOffset": 564,
          "byteLength": 265,
          "mode": "ATTRIBUTES",
          "byteStride": 4,
          "count": 76
        }
      }
    },
    {
      "buffer": 1,
      "byteOffset": 1320,
      "byteLength": 608,
      "target": 34962,
      "byteStride": 8,
      "extensions": {
        "EXT_meshopt_compression": {
          "buffer": 0,
          "byteOffset": 832,
          "byteLength": 313,
          "mode": "ATTRIBUTES",
          "byteStride": 8,
          "count": 76
        }
      }
    }
  ],
  "samplers": [
    {
      "magFilter": 9729,
      "minFilter": 9987,
      "wrapS": 10497,
      "wrapT": 10497
    }
  ],
  "textures": [
    {
      "source": 0,
      "sampler": 0
    }
  ],
  "images": [
    {
      "name": "hexagons_medieval",
      "mimeType": "image/png",
      "uri": "hexagons_medieval.png"
    }
  ],
  "buffers": [
    {
      "uri": "waterlily_B.bin",
      "byteLength": 1148
    },
    {
      "byteLength": 1928,
      "extensions": {
        "EXT_meshopt_compression": {
          "fallback": true
        }
      }
    }
  ],
  "materials": [
    {
      "name": "hexagons_medieval",
      "pbrMetallicRoughness": {
        "roughnessFactor": 0.5,
        "metallicFactor": 0,
        "baseColorTexture": {
          "index": 0
        }
      }
    }
  ],
  "meshes": [
    {
      "name": "waterlily_B",
      "primitives": [
        {
          "attributes": {
            "POSITION": 1,
            "TEXCOORD_0": 2,
            "NORMAL": 3
          },
          "mode": 4,
          "material": 0,
          "indices": 0
        }
      ]
    }
  ],
  "nodes": [
    {
      "name": "waterlily_B",
      "translation": [
        -5.960464477539063e-8,
        0.008574310690164566,
        -0.00037879496812820435
      ],
      "scale": [
        0.10572636127471924,
        0.10572636127471924,
        0.10572636127471924
      ],
      "mesh": 0
    }
  ],
  "scenes": [
    {
      "name": "Scene",
      "nodes": [
        0
      ]
    }
  ],
  "scene": 0,
  "extensionsUsed": [
    "EXT_meshopt_compression",
    "KHR_mesh_quantization"
  ],
  "extensionsRequired": [
    "EXT_meshopt_compression",
    "KHR_mesh_quantization"
  ]
}