{
  "asset": {
    "generator": "glTF-Transform v4.5.1",
    "version": "2.0"
  },
  "accessors": [
    {
      "type": "SCALAR",
      "componentType": 5123,
      "count": 1176,
      "normalized": false,
      "byteOffset": 0,
      "bufferView": 0
    },
    {
      "type": "VEC3",
      "componentType": 5122,
      "count": 518,
      "max": [
        15421,
        12209,
        32767
      ],
      "min": [
        -15421,
        -12209,
        -32767
      ],
      "normalized": true,
      "byteOffset": 0,
      "bufferView": 1
    },
    {
      "type": "VEC2",
      "componentType": 5123,
      "count": 518,
      "normalized": true,
      "byteOffset": 0,
      "bufferView": 2
    },
    {
      "type": "VEC3",
      "componentType": 5122,
      "count": 518,
      "normalized": true,
      "byteOffset": 0,
      "bufferView": 3
    }
  ],
  "bufferViews": [
    {
      "buffer": 1,
      "byteOffset": 0,
      "byteLength": 2352,
      "target": 34963,
      "extensions": {
        "EXT_meshopt_compression": {
          "buffer": 0,
          "byteOffset": 0,
          "byteLength": 419,
          "mode": "TRIANGLES",
          "byteStride": 2,
          "count": 1176
        }
      }
    },
    {
      "buffer": 1,
      "byteOffset": 2352,
      "byteLength": 4144,
      "target": 34962,
      "byteStride": 8,
      "extensions": {
        "EXT_meshopt_compression": {
          "buffer": 0,
          "byteOffset": 420,
          "byteLength": 2736,
          "mode": "ATTRIBUTES",
          "byteStride": 8,
          "count": 518
        }
      }
    },
    {
      "buffer": 1,
      "byteOffset": 6496,
      "byteLength": 2072,
      "target": 34962,
      "byteStride": 4,
      "extensions": {
        "EXT_meshopt_compression": {
          "buffer": 0,
          "byteOffset": 3156,
          "byteLength": 1586,
          "mode": "ATTRIBUTES",
          "byteStride": 4,
          "count": 518
        }
      }
    },
    {
      "buffer": 1,
      "byteOffset": 8568,
      "byteLength": 4144,
      "target": 34962,
      "byteStride": 8,
      "extensions": {
        "EXT_meshopt_compression": {
          "buffer": 0,
          "byteOffset": 4744,
          "byteLength": 1664,
          "mode": "ATTRIBUTES",
          "byteStride": 8,
          "count": 518
        }
      }
    }
  ],
  "samplers": [
    {
      "magFilter": 9729,
      "minFilter": 9987,
      "wrapS": 10497,
      "wrapT": 10497
    }
  ],
  "textures": [
    {
      "source": 0,
      "sampler": 0
    }
  ],
  "images": [
    {
      "name": "hexagons_medieval",
      "mimeType": "image/png",
      "uri": "hexagons_medieval.png"
    }
  ],
  "buffers": [
    {
      "uri": "wheelbarrow.bin",
      "byteLength": 6408
    },
    {
      "byteLength": 12712,
      "extensions": {
        "EXT_meshopt_compression": {
          "fallback": true
        }
      }
    }
  ],
  "materials": [
    {
      "name": "hexagons_medieval",
      "pbrMetallicRoughness": {
        "roughnessFactor": 0.5,
        "metallicFactor": 0,
        "baseColorTexture": {
          "index": 0
        }
      }
    }
  ],
  "meshes": [
    {
      "name": "wheelbarrow",
      "primitives": [
        {
          "attributes": {
            "POSITION": 1,
            "TEXCOORD_0": 2,
            "NORMAL": 3
          },
          "mode": 4,
          "material": 0,
          "indices": 0
        }
      ]
    }
  ],
  "nodes": [
    {
      "name": "wheelbarrow",
      "translation": [
        3.203749656677246e-7,
        0.09420759230852127,
        0.04003927856683731
      ],
      "scale": [
        0.2528398260474205,
        0.2528398260474205,
        0.2528398260474205
      ],
      "mesh": 0
    }
  ],
  "scenes": [
    {
      "name": "Scene",
      "nodes": [
        0
      ]
    }
  ],
  "scene": 0,
  "extensionsUsed": [
    "EXT_meshopt_compression",
    "KHR_mesh_quantization"
  ],
  "extensionsRequired": [
    "EXT_meshopt_compression",
    "KHR_mesh_quantization"
  ]
}