{
  "asset": {
    "generator": "glTF-Transform v4.5.1",
    "version": "2.0"
  },
  "accessors": [
    {
      "type": "SCALAR",
      "componentType": 5123,
      "count": 3030,
      "normalized": false,
      "byteOffset": 0,
      "bufferView": 0
    },
    {
      "type": "VEC3",
      "componentType": 5122,
      "count": 1559,
      "max": [
        29519,
        32767,
        29287
      ],
      "min": [
        -29519,
        -32767,
        -29287
      ],
      "normalized": true,
      "byteOffset": 0,
      "bufferView": 1
    },
    {
      "type": "VEC3",
      "componentType": 5122,
      "count": 1559,
      "normalized": true,
      "byteOffset": 0,
      "bufferView": 2
    },
    {
      "type": "VEC2",
      "componentType": 5123,
      "count": 1559,
      "normalized": true,
      "byteOffset": 0,
      "bufferView": 3
    }
  ],
  "bufferViews": [
    {
      "buffer": 1,
      "byteOffset": 0,
      "byteLength": 6060,
      "target": 34963,
      "extensions": {
        "EXT_meshopt_compression": {
          "buffer": 0,
          "byteOffset": 0,
          "byteLength": 1063,
          "mode": "TRIANGLES",
          "byteStride": 2,
          "count": 3030
        }
      }
    },
    {
      "buffer": 1,
      "byteOffset": 6060,
      "byteLength": 12472,
      "target": 34962,
      "byteStride": 8,
      "extensions": {
        "EXT_meshopt_compression": {
          "buffer": 0,
          "byteOffset": 1064,
          "byteLength": 7874,
          "mode": "ATTRIBUTES",
          "byteStride": 8,
          "count": 1559
        }
      }
    },
    {
      "buffer": 1,
      "byteOffset": 18532,
      "byteLength": 12472,
      "target": 34962,
      "byteStride": 8,
      "extensions": {
        "EXT_meshopt_compression": {
          "buffer": 0,
          "byteOffset": 8940,
          "byteLength": 5353,
          "mode": "ATTRIBUTES",
          "byteStride": 8,
          "count": 1559
        }
      }
    },
    {
      "buffer": 1,
      "byteOffset": 31004,
      "byteLength": 6236,
      "target": 34962,
      "byteStride": 4,
      "extensions": {
        "EXT_meshopt_compression": {
          "buffer": 0,
          "byteOffset": 14296,
          "byteLength": 2711,
          "mode": "ATTRIBUTES",
          "byteStride": 4,
          "count": 1559
        }
      }
    }
  ],
  "samplers": [
    {
      "magFilter": 9728,
      "minFilter": 9984,
      "wrapS": 10497,
      "wrapT": 10497
    }
  ],
  "textures": [
    {
      "source": 0,
      "sampler": 0
    }
  ],
  "images": [
    {
      "name": "colormap",
      "mimeType": "image/png",
      "uri": "Textures/colormap.png"
    }
  ],
  "buffers": [
    {
      "uri": "building-type-r.bin",
      "byteLength": 17008
    },
    {
      "byteLength": 37240,
      "extensions": {
        "EXT_meshopt_compression": {
          "fallback": true
        }
      }
    }
  ],
  "materials": [
    {
      "name": "colormap",
      "doubleSided": true,
      "pbrMetallicRoughness": {
        "metallicFactor": 0,
        "baseColorTexture": {
          "index": 0,
          "extensions": {
            "KHR_texture_transform": {
              "texCoord": 0
            }
          }
        }
      }
    }
  ],
  "meshes": [
    {
      "name": "building-type-r",
      "primitives": [
        {
          "attributes": {
            "POSITION": 1,
            "NORMAL": 2,
            "TEXCOORD_0": 3
          },
          "mode": 4,
          "material": 0,
          "indices": 0
        }
      ]
    }
  ],
  "nodes": [
    {
      "name": "building-type-r",
      "translation": [
        0,
        0.5705714225769043,
        -2.9802322387695312e-8
      ],
      "scale": [
        0.5705714225769043,
        0.5705714225769043,
        0.5705714225769043
      ],
      "mesh": 0
    }
  ],
  "scenes": [
    {
      "name": "building-type-r",
      "nodes": [
        0
      ]
    }
  ],
  "scene": 0,
  "extensionsUsed": [
    "EXT_meshopt_compression",
    "KHR_mesh_quantization",
    "KHR_texture_transform"
  ],
  "extensionsRequired": [
    "EXT_meshopt_compression",
    "KHR_mesh_quantization"
  ]
}