{
  "asset": {
    "generator": "glTF-Transform v4.5.1",
    "version": "2.0"
  },
  "accessors": [
    {
      "type": "SCALAR",
      "componentType": 5123,
      "count": 3237,
      "normalized": false,
      "byteOffset": 0,
      "bufferView": 0
    },
    {
      "type": "VEC3",
      "componentType": 5122,
      "count": 1682,
      "max": [
        32767,
        16922,
        32767
      ],
      "min": [
        -32767,
        -16922,
        -32767
      ],
      "normalized": true,
      "byteOffset": 0,
      "bufferView": 1
    },
    {
      "type": "VEC3",
      "componentType": 5122,
      "count": 1682,
      "normalized": true,
      "byteOffset": 0,
      "bufferView": 2
    },
    {
      "type": "VEC2",
      "componentType": 5123,
      "count": 1682,
      "normalized": true,
      "byteOffset": 0,
      "bufferView": 3
    }
  ],
  "bufferViews": [
    {
      "buffer": 1,
      "byteOffset": 0,
      "byteLength": 6474,
      "target": 34963,
      "extensions": {
        "EXT_meshopt_compression": {
          "buffer": 0,
          "byteOffset": 0,
          "byteLength": 1159,
          "mode": "TRIANGLES",
          "byteStride": 2,
          "count": 3237
        }
      }
    },
    {
      "buffer": 1,
      "byteOffset": 6476,
      "byteLength": 13456,
      "target": 34962,
      "byteStride": 8,
      "extensions": {
        "EXT_meshopt_compression": {
          "buffer": 0,
          "byteOffset": 1160,
          "byteLength": 8369,
          "mode": "ATTRIBUTES",
          "byteStride": 8,
          "count": 1682
        }
      }
    },
    {
      "buffer": 1,
      "byteOffset": 19932,
      "byteLength": 13456,
      "target": 34962,
      "byteStride": 8,
      "extensions": {
        "EXT_meshopt_compression": {
          "buffer": 0,
          "byteOffset": 9532,
          "byteLength": 5874,
          "mode": "ATTRIBUTES",
          "byteStride": 8,
          "count": 1682
        }
      }
    },
    {
      "buffer": 1,
      "byteOffset": 33388,
      "byteLength": 6728,
      "target": 34962,
      "byteStride": 4,
      "extensions": {
        "EXT_meshopt_compression": {
          "buffer": 0,
          "byteOffset": 15408,
          "byteLength": 2955,
          "mode": "ATTRIBUTES",
          "byteStride": 4,
          "count": 1682
        }
      }
    }
  ],
  "samplers": [
    {
      "magFilter": 9728,
      "minFilter": 9984,
      "wrapS": 10497,
      "wrapT": 10497
    }
  ],
  "textures": [
    {
      "source": 0,
      "sampler": 0
    }
  ],
  "images": [
    {
      "name": "colormap",
      "mimeType": "image/png",
      "uri": "Textures/colormap.png"
    }
  ],
  "buffers": [
    {
      "uri": "building-type-m.bin",
      "byteLength": 18364
    },
    {
      "byteLength": 40116,
      "extensions": {
        "EXT_meshopt_compression": {
          "fallback": true
        }
      }
    }
  ],
  "materials": [
    {
      "name": "colormap",
      "doubleSided": true,
      "pbrMetallicRoughness": {
        "metallicFactor": 0,
        "baseColorTexture": {
          "index": 0,
          "extensions": {
            "KHR_texture_transform": {
              "texCoord": 0
            }
          }
        }
      }
    }
  ],
  "meshes": [
    {
      "name": "building-type-m",
      "primitives": [
        {
          "attributes": {
            "POSITION": 1,
            "NORMAL": 2,
            "TEXCOORD_0": 3
          },
          "mode": 4,
          "material": 0,
          "indices": 0
        }
      ]
    }
  ],
  "nodes": [
    {
      "name": "building-type-m",
      "translation": [
        0,
        0.3687499761581421,
        -2.9802322387695312e-8
      ],
      "scale": [
        0.7140000462532043,
        0.7140000462532043,
        0.7140000462532043
      ],
      "mesh": 0
    }
  ],
  "scenes": [
    {
      "name": "building-type-m",
      "nodes": [
        0
      ]
    }
  ],
  "scene": 0,
  "extensionsUsed": [
    "EXT_meshopt_compression",
    "KHR_mesh_quantization",
    "KHR_texture_transform"
  ],
  "extensionsRequired": [
    "EXT_meshopt_compression",
    "KHR_mesh_quantization"
  ]
}