{
  "asset": {
    "generator": "glTF-Transform v4.5.1",
    "version": "2.0"
  },
  "accessors": [
    {
      "type": "SCALAR",
      "componentType": 5123,
      "count": 3996,
      "normalized": false,
      "byteOffset": 0,
      "bufferView": 0
    },
    {
      "type": "VEC3",
      "componentType": 5122,
      "count": 2107,
      "max": [
        32767,
        26103,
        24943
      ],
      "min": [
        -32767,
        -26103,
        -24943
      ],
      "normalized": true,
      "byteOffset": 0,
      "bufferView": 1
    },
    {
      "type": "VEC3",
      "componentType": 5122,
      "count": 2107,
      "normalized": true,
      "byteOffset": 0,
      "bufferView": 2
    },
    {
      "type": "VEC2",
      "componentType": 5123,
      "count": 2107,
      "normalized": true,
      "byteOffset": 0,
      "bufferView": 3
    }
  ],
  "bufferViews": [
    {
      "buffer": 1,
      "byteOffset": 0,
      "byteLength": 7992,
      "target": 34963,
      "extensions": {
        "EXT_meshopt_compression": {
          "buffer": 0,
          "byteOffset": 0,
          "byteLength": 1408,
          "mode": "TRIANGLES",
          "byteStride": 2,
          "count": 3996
        }
      }
    },
    {
      "buffer": 1,
      "byteOffset": 7992,
      "byteLength": 16856,
      "target": 34962,
      "byteStride": 8,
      "extensions": {
        "EXT_meshopt_compression": {
          "buffer": 0,
          "byteOffset": 1408,
          "byteLength": 10509,
          "mode": "ATTRIBUTES",
          "byteStride": 8,
          "count": 2107
        }
      }
    },
    {
      "buffer": 1,
      "byteOffset": 24848,
      "byteLength": 16856,
      "target": 34962,
      "byteStride": 8,
      "extensions": {
        "EXT_meshopt_compression": {
          "buffer": 0,
          "byteOffset": 11920,
          "byteLength": 7533,
          "mode": "ATTRIBUTES",
          "byteStride": 8,
          "count": 2107
        }
      }
    },
    {
      "buffer": 1,
      "byteOffset": 41704,
      "byteLength": 8428,
      "target": 34962,
      "byteStride": 4,
      "extensions": {
        "EXT_meshopt_compression": {
          "buffer": 0,
          "byteOffset": 19456,
          "byteLength": 3693,
          "mode": "ATTRIBUTES",
          "byteStride": 4,
          "count": 2107
        }
      }
    }
  ],
  "samplers": [
    {
      "magFilter": 9728,
      "minFilter": 9984,
      "wrapS": 10497,
      "wrapT": 10497
    }
  ],
  "textures": [
    {
      "source": 0,
      "sampler": 0
    }
  ],
  "images": [
    {
      "name": "colormap",
      "mimeType": "image/png",
      "uri": "Textures/colormap.png"
    }
  ],
  "buffers": [
    {
      "uri": "building-type-u.bin",
      "byteLength": 23152
    },
    {
      "byteLength": 50132,
      "extensions": {
        "EXT_meshopt_compression": {
          "fallback": true
        }
      }
    }
  ],
  "materials": [
    {
      "name": "colormap",
      "doubleSided": true,
      "pbrMetallicRoughness": {
        "metallicFactor": 0,
        "baseColorTexture": {
          "index": 0,
          "extensions": {
            "KHR_texture_transform": {
              "texCoord": 0
            }
          }
        }
      }
    }
  ],
  "meshes": [
    {
      "name": "building-type-u",
      "primitives": [
        {
          "attributes": {
            "POSITION": 1,
            "NORMAL": 2,
            "TEXCOORD_0": 3
          },
          "mode": 4,
          "material": 0,
          "indices": 0
        }
      ]
    }
  ],
  "nodes": [
    {
      "name": "building-type-u",
      "translation": [
        -8.940696716308594e-8,
        0.5687500238418579,
        2.9802322387695312e-8
      ],
      "scale": [
        0.7140001356601715,
        0.7140001356601715,
        0.7140001356601715
      ],
      "mesh": 0
    }
  ],
  "scenes": [
    {
      "name": "building-type-u",
      "nodes": [
        0
      ]
    }
  ],
  "scene": 0,
  "extensionsUsed": [
    "EXT_meshopt_compression",
    "KHR_mesh_quantization",
    "KHR_texture_transform"
  ],
  "extensionsRequired": [
    "EXT_meshopt_compression",
    "KHR_mesh_quantization"
  ]
}