{
  "asset": {
    "generator": "glTF-Transform v4.5.1",
    "version": "2.0"
  },
  "accessors": [
    {
      "type": "SCALAR",
      "componentType": 5123,
      "count": 3438,
      "normalized": false,
      "byteOffset": 0,
      "bufferView": 0
    },
    {
      "type": "VEC3",
      "componentType": 5122,
      "count": 1731,
      "max": [
        32767,
        21010,
        25915
      ],
      "min": [
        -32767,
        -21010,
        -25915
      ],
      "normalized": true,
      "byteOffset": 0,
      "bufferView": 1
    },
    {
      "type": "VEC3",
      "componentType": 5122,
      "count": 1731,
      "normalized": true,
      "byteOffset": 0,
      "bufferView": 2
    },
    {
      "type": "VEC2",
      "componentType": 5123,
      "count": 1731,
      "normalized": true,
      "byteOffset": 0,
      "bufferView": 3
    }
  ],
  "bufferViews": [
    {
      "buffer": 1,
      "byteOffset": 0,
      "byteLength": 6876,
      "target": 34963,
      "extensions": {
        "EXT_meshopt_compression": {
          "buffer": 0,
          "byteOffset": 0,
          "byteLength": 1202,
          "mode": "TRIANGLES",
          "byteStride": 2,
          "count": 3438
        }
      }
    },
    {
      "buffer": 1,
      "byteOffset": 6876,
      "byteLength": 13848,
      "target": 34962,
      "byteStride": 8,
      "extensions": {
        "EXT_meshopt_compression": {
          "buffer": 0,
          "byteOffset": 1204,
          "byteLength": 8667,
          "mode": "ATTRIBUTES",
          "byteStride": 8,
          "count": 1731
        }
      }
    },
    {
      "buffer": 1,
      "byteOffset": 20724,
      "byteLength": 13848,
      "target": 34962,
      "byteStride": 8,
      "extensions": {
        "EXT_meshopt_compression": {
          "buffer": 0,
          "byteOffset": 9872,
          "byteLength": 6017,
          "mode": "ATTRIBUTES",
          "byteStride": 8,
          "count": 1731
        }
      }
    },
    {
      "buffer": 1,
      "byteOffset": 34572,
      "byteLength": 6924,
      "target": 34962,
      "byteStride": 4,
      "extensions": {
        "EXT_meshopt_compression": {
          "buffer": 0,
          "byteOffset": 15892,
          "byteLength": 3063,
          "mode": "ATTRIBUTES",
          "byteStride": 4,
          "count": 1731
        }
      }
    }
  ],
  "samplers": [
    {
      "magFilter": 9728,
      "minFilter": 9984,
      "wrapS": 10497,
      "wrapT": 10497
    }
  ],
  "textures": [
    {
      "source": 0,
      "sampler": 0
    }
  ],
  "images": [
    {
      "name": "colormap",
      "mimeType": "image/png",
      "uri": "Textures/colormap.png"
    }
  ],
  "buffers": [
    {
      "uri": "building-type-a.bin",
      "byteLength": 18956
    },
    {
      "byteLength": 41496,
      "extensions": {
        "EXT_meshopt_compression": {
          "fallback": true
        }
      }
    }
  ],
  "materials": [
    {
      "name": "colormap",
      "doubleSided": true,
      "pbrMetallicRoughness": {
        "metallicFactor": 0,
        "baseColorTexture": {
          "index": 0,
          "extensions": {
            "KHR_texture_transform": {
              "texCoord": 0
            }
          }
        }
      }
    }
  ],
  "meshes": [
    {
      "name": "building-type-a",
      "primitives": [
        {
          "attributes": {
            "POSITION": 1,
            "NORMAL": 2,
            "TEXCOORD_0": 3
          },
          "mode": 4,
          "material": 0,
          "indices": 0
        }
      ]
    }
  ],
  "nodes": [
    {
      "name": "building-type-a",
      "translation": [
        0,
        0.41677048802375793,
        0
      ],
      "scale": [
        0.6499999761581421,
        0.6499999761581421,
        0.6499999761581421
      ],
      "mesh": 0
    }
  ],
  "scenes": [
    {
      "name": "building-type-a",
      "nodes": [
        0
      ]
    }
  ],
  "scene": 0,
  "extensionsUsed": [
    "EXT_meshopt_compression",
    "KHR_mesh_quantization",
    "KHR_texture_transform"
  ],
  "extensionsRequired": [
    "EXT_meshopt_compression",
    "KHR_mesh_quantization"
  ]
}