{
  "asset": {
    "generator": "glTF-Transform v4.5.1",
    "version": "2.0"
  },
  "accessors": [
    {
      "type": "SCALAR",
      "componentType": 5123,
      "count": 2178,
      "normalized": false,
      "byteOffset": 0,
      "bufferView": 0
    },
    {
      "type": "VEC3",
      "componentType": 5122,
      "count": 679,
      "max": [
        24871,
        5036,
        32767
      ],
      "min": [
        -24871,
        -5036,
        -32767
      ],
      "normalized": true,
      "byteOffset": 0,
      "bufferView": 1
    },
    {
      "type": "VEC2",
      "componentType": 5123,
      "count": 679,
      "normalized": true,
      "byteOffset": 0,
      "bufferView": 2
    },
    {
      "type": "VEC3",
      "componentType": 5122,
      "count": 679,
      "normalized": true,
      "byteOffset": 0,
      "bufferView": 3
    }
  ],
  "bufferViews": [
    {
      "buffer": 1,
      "byteOffset": 0,
      "byteLength": 4356,
      "target": 34963,
      "extensions": {
        "EXT_meshopt_compression": {
          "buffer": 0,
          "byteOffset": 0,
          "byteLength": 813,
          "mode": "TRIANGLES",
          "byteStride": 2,
          "count": 2178
        }
      }
    },
    {
      "buffer": 1,
      "byteOffset": 4356,
      "byteLength": 5432,
      "target": 34962,
      "byteStride": 8,
      "extensions": {
        "EXT_meshopt_compression": {
          "buffer": 0,
          "byteOffset": 816,
          "byteLength": 3541,
          "mode": "ATTRIBUTES",
          "byteStride": 8,
          "count": 679
        }
      }
    },
    {
      "buffer": 1,
      "byteOffset": 9788,
      "byteLength": 2716,
      "target": 34962,
      "byteStride": 4,
      "extensions": {
        "EXT_meshopt_compression": {
          "buffer": 0,
          "byteOffset": 4360,
          "byteLength": 2310,
          "mode": "ATTRIBUTES",
          "byteStride": 4,
          "count": 679
        }
      }
    },
    {
      "buffer": 1,
      "byteOffset": 12504,
      "byteLength": 5432,
      "target": 34962,
      "byteStride": 8,
      "extensions": {
        "EXT_meshopt_compression": {
          "buffer": 0,
          "byteOffset": 6672,
          "byteLength": 3542,
          "mode": "ATTRIBUTES",
          "byteStride": 8,
          "count": 679
        }
      }
    }
  ],
  "samplers": [
    {
      "magFilter": 9729,
      "minFilter": 9987,
      "wrapS": 10497,
      "wrapT": 10497
    }
  ],
  "textures": [
    {
      "source": 0,
      "sampler": 0
    }
  ],
  "images": [
    {
      "name": "holiday_bits_texture",
      "mimeType": "image/png",
      "uri": "holiday_bits_texture.png"
    }
  ],
  "buffers": [
    {
      "uri": "gingerbread_man.bin",
      "byteLength": 10216
    },
    {
      "byteLength": 17936,
      "extensions": {
        "EXT_meshopt_compression": {
          "fallback": true
        }
      }
    }
  ],
  "materials": [
    {
      "name": "holiday",
      "pbrMetallicRoughness": {
        "roughnessFactor": 0.5,
        "metallicFactor": 0,
        "baseColorTexture": {
          "index": 0
        }
      }
    }
  ],
  "meshes": [
    {
      "name": "gingerbread_man",
      "primitives": [
        {
          "attributes": {
            "POSITION": 1,
            "TEXCOORD_0": 2,
            "NORMAL": 3
          },
          "mode": 4,
          "material": 0,
          "indices": 0
        }
      ]
    }
  ],
  "nodes": [
    {
      "name": "gingerbread_man",
      "translation": [
        0,
        0.05647735456131642,
        -0.030408889055252075
      ],
      "scale": [
        0.3673783242702484,
        0.3673783242702484,
        0.3673783242702484
      ],
      "mesh": 0
    }
  ],
  "scenes": [
    {
      "name": "Scene",
      "nodes": [
        0
      ]
    }
  ],
  "scene": 0,
  "extensionsUsed": [
    "EXT_meshopt_compression",
    "KHR_mesh_quantization"
  ],
  "extensionsRequired": [
    "EXT_meshopt_compression",
    "KHR_mesh_quantization"
  ]
}