{
  "asset": {
    "generator": "glTF-Transform v4.5.1",
    "version": "2.0"
  },
  "accessors": [
    {
      "type": "SCALAR",
      "componentType": 5123,
      "count": 5448,
      "normalized": false,
      "byteOffset": 0,
      "bufferView": 0
    },
    {
      "type": "SCALAR",
      "componentType": 5123,
      "count": 48,
      "normalized": false,
      "byteOffset": 10896,
      "bufferView": 0
    },
    {
      "type": "VEC3",
      "componentType": 5122,
      "count": 2451,
      "max": [
        16518,
        24779,
        32767
      ],
      "min": [
        -16518,
        -24779,
        -32767
      ],
      "normalized": true,
      "byteOffset": 0,
      "bufferView": 1
    },
    {
      "type": "VEC2",
      "componentType": 5123,
      "count": 2451,
      "normalized": true,
      "byteOffset": 0,
      "bufferView": 2
    },
    {
      "type": "VEC3",
      "componentType": 5122,
      "count": 2451,
      "normalized": true,
      "byteOffset": 0,
      "bufferView": 3
    },
    {
      "type": "VEC3",
      "componentType": 5122,
      "count": 31,
      "max": [
        3624,
        -604,
        24206
      ],
      "min": [
        -3624,
        -7856,
        24206
      ],
      "normalized": true,
      "byteOffset": 0,
      "bufferView": 4
    },
    {
      "type": "VEC2",
      "componentType": 5123,
      "count": 31,
      "normalized": true,
      "byteOffset": 0,
      "bufferView": 5
    },
    {
      "type": "VEC3",
      "componentType": 5122,
      "count": 31,
      "normalized": true,
      "byteOffset": 0,
      "bufferView": 6
    }
  ],
  "bufferViews": [
    {
      "buffer": 1,
      "byteOffset": 0,
      "byteLength": 10992,
      "target": 34963,
      "extensions": {
        "EXT_meshopt_compression": {
          "buffer": 0,
          "byteOffset": 0,
          "byteLength": 1988,
          "mode": "TRIANGLES",
          "byteStride": 2,
          "count": 5496
        }
      }
    },
    {
      "buffer": 1,
      "byteOffset": 10992,
      "byteLength": 19608,
      "target": 34962,
      "byteStride": 8,
      "extensions": {
        "EXT_meshopt_compression": {
          "buffer": 0,
          "byteOffset": 1988,
          "byteLength": 11933,
          "mode": "ATTRIBUTES",
          "byteStride": 8,
          "count": 2451
        }
      }
    },
    {
      "buffer": 1,
      "byteOffset": 30600,
      "byteLength": 9804,
      "target": 34962,
      "byteStride": 4,
      "extensions": {
        "EXT_meshopt_compression": {
          "buffer": 0,
          "byteOffset": 13924,
          "byteLength": 6019,
          "mode": "ATTRIBUTES",
          "byteStride": 4,
          "count": 2451
        }
      }
    },
    {
      "buffer": 1,
      "byteOffset": 40404,
      "byteLength": 19608,
      "target": 34962,
      "byteStride": 8,
      "extensions": {
        "EXT_meshopt_compression": {
          "buffer": 0,
          "byteOffset": 19944,
          "byteLength": 6966,
          "mode": "ATTRIBUTES",
          "byteStride": 8,
          "count": 2451
        }
      }
    },
    {
      "buffer": 1,
      "byteOffset": 60012,
      "byteLength": 248,
      "target": 34962,
      "byteStride": 8,
      "extensions": {
        "EXT_meshopt_compression": {
          "buffer": 0,
          "byteOffset": 26912,
          "byteLength": 169,
          "mode": "ATTRIBUTES",
          "byteStride": 8,
          "count": 31
        }
      }
    },
    {
      "buffer": 1,
      "byteOffset": 60260,
      "byteLength": 124,
      "target": 34962,
      "byteStride": 4,
      "extensions": {
        "EXT_meshopt_compression": {
          "buffer": 0,
          "byteOffset": 27084,
          "byteLength": 101,
          "mode": "ATTRIBUTES",
          "byteStride": 4,
          "count": 31
        }
      }
    },
    {
      "buffer": 1,
      "byteOffset": 60384,
      "byteLength": 248,
      "target": 34962,
      "byteStride": 8,
      "extensions": {
        "EXT_meshopt_compression": {
          "buffer": 0,
          "byteOffset": 27188,
          "byteLength": 41,
          "mode": "ATTRIBUTES",
          "byteStride": 8,
          "count": 31
        }
      }
    }
  ],
  "samplers": [
    {
      "magFilter": 9729,
      "minFilter": 9987,
      "wrapS": 10497,
      "wrapT": 10497
    }
  ],
  "textures": [
    {
      "source": 0,
      "sampler": 0
    }
  ],
  "images": [
    {
      "name": "holiday_bits_texture",
      "mimeType": "image/png",
      "uri": "holiday_bits_texture.png"
    }
  ],
  "buffers": [
    {
      "uri": "train_locomotive.bin",
      "byteLength": 27232
    },
    {
      "byteLength": 60632,
      "extensions": {
        "EXT_meshopt_compression": {
          "fallback": true
        }
      }
    }
  ],
  "materials": [
    {
      "name": "holiday",
      "pbrMetallicRoughness": {
        "roughnessFactor": 0.5,
        "metallicFactor": 0,
        "baseColorTexture": {
          "index": 0
        }
      }
    },
    {
      "name": "holiday_glow",
      "pbrMetallicRoughness": {
        "roughnessFactor": 0.5,
        "metallicFactor": 0,
        "baseColorTexture": {
          "index": 0
        }
      },
      "emissiveFactor": [
        1,
        1,
        1
      ],
      "emissiveTexture": {
        "index": 0
      },
      "extensions": {
        "KHR_materials_emissive_strength": {
          "emissiveStrength": 4
        }
      }
    }
  ],
  "meshes": [
    {
      "name": "train_locomotive",
      "primitives": [
        {
          "attributes": {
            "POSITION": 2,
            "TEXCOORD_0": 3,
            "NORMAL": 4
          },
          "mode": 4,
          "material": 0,
          "indices": 0
        },
        {
          "attributes": {
            "POSITION": 5,
            "TEXCOORD_0": 6,
            "NORMAL": 7
          },
          "mode": 4,
          "material": 1,
          "indices": 1
        }
      ]
    }
  ],
  "nodes": [
    {
      "name": "train_locomotive",
      "translation": [
        0.0000022202730178833008,
        0.32441041564015904,
        0.046589747071266174
      ],
      "scale": [
        0.42888782918453217,
        0.42888782918453217,
        0.42888782918453217
      ],
      "mesh": 0
    }
  ],
  "scenes": [
    {
      "name": "Scene",
      "nodes": [
        0
      ]
    }
  ],
  "scene": 0,
  "extensionsUsed": [
    "EXT_meshopt_compression",
    "KHR_materials_emissive_strength",
    "KHR_mesh_quantization"
  ],
  "extensionsRequired": [
    "EXT_meshopt_compression",
    "KHR_mesh_quantization"
  ]
}