{
  "asset": {
    "generator": "glTF-Transform v4.5.1",
    "version": "2.0"
  },
  "accessors": [
    {
      "type": "SCALAR",
      "componentType": 5126,
      "count": 2,
      "max": [
        0.10000000149011612
      ],
      "min": [
        0
      ],
      "normalized": false,
      "byteOffset": 0,
      "bufferView": 0
    },
    {
      "type": "VEC3",
      "componentType": 5126,
      "count": 2,
      "normalized": false,
      "byteOffset": 0,
      "bufferView": 1
    },
    {
      "type": "VEC4",
      "componentType": 5126,
      "count": 2,
      "normalized": false,
      "byteOffset": 0,
      "bufferView": 2
    },
    {
      "type": "VEC3",
      "componentType": 5126,
      "count": 2,
      "normalized": false,
      "byteOffset": 24,
      "bufferView": 1
    },
    {
      "type": "VEC3",
      "componentType": 5126,
      "count": 2,
      "normalized": false,
      "byteOffset": 48,
      "bufferView": 1
    },
    {
      "type": "VEC3",
      "componentType": 5126,
      "count": 2,
      "normalized": false,
      "byteOffset": 72,
      "bufferView": 1
    },
    {
      "type": "VEC3",
      "componentType": 5126,
      "count": 2,
      "normalized": false,
      "byteOffset": 96,
      "bufferView": 1
    },
    {
      "type": "VEC3",
      "componentType": 5126,
      "count": 2,
      "normalized": false,
      "byteOffset": 120,
      "bufferView": 1
    },
    {
      "type": "VEC3",
      "componentType": 5126,
      "count": 2,
      "normalized": false,
      "byteOffset": 144,
      "bufferView": 1
    },
    {
      "type": "VEC3",
      "componentType": 5126,
      "count": 2,
      "normalized": false,
      "byteOffset": 168,
      "bufferView": 1
    },
    {
      "type": "VEC3",
      "componentType": 5126,
      "count": 2,
      "normalized": false,
      "byteOffset": 192,
      "bufferView": 1
    },
    {
      "type": "SCALAR",
      "componentType": 5126,
      "count": 40,
      "max": [
        1.3333333730697632
      ],
      "min": [
        0
      ],
      "normalized": false,
      "byteOffset": 8,
      "bufferView": 0
    },
    {
      "type": "VEC4",
      "componentType": 5126,
      "count": 40,
      "normalized": false,
      "byteOffset": 32,
      "bufferView": 2
    },
    {
      "type": "VEC4",
      "componentType": 5126,
      "count": 40,
      "normalized": false,
      "byteOffset": 672,
      "bufferView": 2
    },
    {
      "type": "VEC4",
      "componentType": 5126,
      "count": 40,
      "normalized": false,
      "byteOffset": 1312,
      "bufferView": 2
    },
    {
      "type": "SCALAR",
      "componentType": 5126,
      "count": 20,
      "max": [
        0.6666666865348816
      ],
      "min": [
        0
      ],
      "normalized": false,
      "byteOffset": 168,
      "bufferView": 0
    },
    {
      "type": "VEC3",
      "componentType": 5126,
      "count": 20,
      "normalized": false,
      "byteOffset": 216,
      "bufferView": 1
    },
    {
      "type": "VEC4",
      "componentType": 5126,
      "count": 20,
      "normalized": false,
      "byteOffset": 1952,
      "bufferView": 2
    },
    {
      "type": "VEC4",
      "componentType": 5126,
      "count": 20,
      "normalized": false,
      "byteOffset": 2272,
      "bufferView": 2
    },
    {
      "type": "VEC4",
      "componentType": 5126,
      "count": 20,
      "normalized": false,
      "byteOffset": 2592,
      "bufferView": 2
    },
    {
      "type": "VEC4",
      "componentType": 5126,
      "count": 20,
      "normalized": false,
      "byteOffset": 2912,
      "bufferView": 2
    },
    {
      "type": "VEC4",
      "componentType": 5126,
      "count": 20,
      "normalized": false,
      "byteOffset": 3232,
      "bufferView": 2
    },
    {
      "type": "SCALAR",
      "componentType": 5126,
      "count": 15,
      "max": [
        0.5
      ],
      "min": [
        0
      ],
      "normalized": false,
      "byteOffset": 248,
      "bufferView": 0
    },
    {
      "type": "VEC3",
      "componentType": 5126,
      "count": 15,
      "normalized": false,
      "byteOffset": 456,
      "bufferView": 1
    },
    {
      "type": "VEC4",
      "componentType": 5126,
      "count": 15,
      "normalized": false,
      "byteOffset": 3552,
      "bufferView": 2
    },
    {
      "type": "VEC4",
      "componentType": 5126,
      "count": 15,
      "normalized": false,
      "byteOffset": 3792,
      "bufferView": 2
    },
    {
      "type": "VEC4",
      "componentType": 5126,
      "count": 15,
      "normalized": false,
      "byteOffset": 4032,
      "bufferView": 2
    },
    {
      "type": "VEC4",
      "componentType": 5126,
      "count": 15,
      "normalized": false,
      "byteOffset": 4272,
      "bufferView": 2
    },
    {
      "type": "VEC4",
      "componentType": 5126,
      "count": 15,
      "normalized": false,
      "byteOffset": 4512,
      "bufferView": 2
    },
    {
      "type": "VEC4",
      "componentType": 5126,
      "count": 15,
      "normalized": false,
      "byteOffset": 4752,
      "bufferView": 2
    },
    {
      "type": "SCALAR",
      "componentType": 5126,
      "count": 2,
      "max": [
        0.1666666716337204
      ],
      "min": [
        0
      ],
      "normalized": false,
      "byteOffset": 308,
      "bufferView": 0
    },
    {
      "type": "VEC3",
      "componentType": 5126,
      "count": 2,
      "normalized": false,
      "byteOffset": 636,
      "bufferView": 1
    },
    {
      "type": "VEC4",
      "componentType": 5126,
      "count": 2,
      "normalized": false,
      "byteOffset": 4992,
      "bufferView": 2
    },
    {
      "type": "VEC4",
      "componentType": 5126,
      "count": 2,
      "normalized": false,
      "byteOffset": 5024,
      "bufferView": 2
    },
    {
      "type": "SCALAR",
      "componentType": 5126,
      "count": 10,
      "max": [
        0.3333333432674408
      ],
      "min": [
        0
      ],
      "normalized": false,
      "byteOffset": 316,
      "bufferView": 0
    },
    {
      "type": "VEC3",
      "componentType": 5126,
      "count": 10,
      "normalized": false,
      "byteOffset": 660,
      "bufferView": 1
    },
    {
      "type": "SCALAR",
      "componentType": 5126,
      "count": 9,
      "max": [
        0.3333333432674408
      ],
      "min": [
        0
      ],
      "normalized": false,
      "byteOffset": 356,
      "bufferView": 0
    },
    {
      "type": "VEC4",
      "componentType": 5126,
      "count": 9,
      "normalized": false,
      "byteOffset": 5056,
      "bufferView": 2
    },
    {
      "type": "VEC4",
      "componentType": 5126,
      "count": 10,
      "normalized": false,
      "byteOffset": 5200,
      "bufferView": 2
    },
    {
      "type": "VEC4",
      "componentType": 5126,
      "count": 10,
      "normalized": false,
      "byteOffset": 5360,
      "bufferView": 2
    },
    {
      "type": "VEC4",
      "componentType": 5126,
      "count": 10,
      "normalized": false,
      "byteOffset": 5520,
      "bufferView": 2
    },
    {
      "type": "VEC4",
      "componentType": 5126,
      "count": 10,
      "normalized": false,
      "byteOffset": 5680,
      "bufferView": 2
    },
    {
      "type": "VEC4",
      "componentType": 5126,
      "count": 10,
      "normalized": false,
      "byteOffset": 5840,
      "bufferView": 2
    },
    {
      "type": "VEC4",
      "componentType": 5126,
      "count": 10,
      "normalized": false,
      "byteOffset": 6000,
      "bufferView": 2
    },
    {
      "type": "SCALAR",
      "componentType": 5126,
      "count": 6,
      "max": [
        0.3333333432674408
      ],
      "min": [
        0
      ],
      "normalized": false,
      "byteOffset": 392,
      "bufferView": 0
    },
    {
      "type": "VEC4",
      "componentType": 5126,
      "count": 6,
      "normalized": false,
      "byteOffset": 6160,
      "bufferView": 2
    },
    {
      "type": "VEC4",
      "componentType": 5126,
      "count": 20,
      "normalized": false,
      "byteOffset": 6256,
      "bufferView": 2
    },
    {
      "type": "VEC4",
      "componentType": 5126,
      "count": 20,
      "normalized": false,
      "byteOffset": 6576,
      "bufferView": 2
    },
    {
      "type": "VEC4",
      "componentType": 5126,
      "count": 20,
      "normalized": false,
      "byteOffset": 6896,
      "bufferView": 2
    },
    {
      "type": "VEC4",
      "componentType": 5126,
      "count": 20,
      "normalized": false,
      "byteOffset": 7216,
      "bufferView": 2
    },
    {
      "type": "SCALAR",
      "componentType": 5126,
      "count": 6,
      "max": [
        0.20000000298023224
      ],
      "min": [
        0
      ],
      "normalized": false,
      "byteOffset": 416,
      "bufferView": 0
    },
    {
      "type": "VEC4",
      "componentType": 5126,
      "count": 6,
      "normalized": false,
      "byteOffset": 7536,
      "bufferView": 2
    },
    {
      "type": "VEC4",
      "componentType": 5126,
      "count": 6,
      "normalized": false,
      "byteOffset": 7632,
      "bufferView": 2
    },
    {
      "type": "VEC4",
      "componentType": 5126,
      "count": 6,
      "normalized": false,
      "byteOffset": 7728,
      "bufferView": 2
    },
    {
      "type": "SCALAR",
      "componentType": 5126,
      "count": 13,
      "max": [
        0.4166666567325592
      ],
      "min": [
        0
      ],
      "normalized": false,
      "byteOffset": 440,
      "bufferView": 0
    },
    {
      "type": "VEC3",
      "componentType": 5126,
      "count": 13,
      "normalized": false,
      "byteOffset": 780,
      "bufferView": 1
    },
    {
      "type": "SCALAR",
      "componentType": 5126,
      "count": 10,
      "max": [
        0.4166666567325592
      ],
      "min": [
        0
      ],
      "normalized": false,
      "byteOffset": 492,
      "bufferView": 0
    },
    {
      "type": "VEC4",
      "componentType": 5126,
      "count": 10,
      "normalized": false,
      "byteOffset": 7824,
      "bufferView": 2
    },
    {
      "type": "VEC4",
      "componentType": 5126,
      "count": 13,
      "normalized": false,
      "byteOffset": 7984,
      "bufferView": 2
    },
    {
      "type": "VEC4",
      "componentType": 5126,
      "count": 10,
      "normalized": false,
      "byteOffset": 8192,
      "bufferView": 2
    },
    {
      "type": "VEC4",
      "componentType": 5126,
      "count": 13,
      "normalized": false,
      "byteOffset": 8352,
      "bufferView": 2
    },
    {
      "type": "VEC4",
      "componentType": 5126,
      "count": 13,
      "normalized": false,
      "byteOffset": 8560,
      "bufferView": 2
    },
    {
      "type": "VEC4",
      "componentType": 5126,
      "count": 13,
      "normalized": false,
      "byteOffset": 8768,
      "bufferView": 2
    },
    {
      "type": "SCALAR",
      "componentType": 5126,
      "count": 18,
      "max": [
        0.5833333134651184
      ],
      "min": [
        0
      ],
      "normalized": false,
      "byteOffset": 532,
      "bufferView": 0
    },
    {
      "type": "VEC4",
      "componentType": 5126,
      "count": 18,
      "normalized": false,
      "byteOffset": 8976,
      "bufferView": 2
    },
    {
      "type": "VEC4",
      "componentType": 5126,
      "count": 18,
      "normalized": false,
      "byteOffset": 9264,
      "bufferView": 2
    },
    {
      "type": "VEC4",
      "componentType": 5126,
      "count": 18,
      "normalized": false,
      "byteOffset": 9552,
      "bufferView": 2
    },
    {
      "type": "VEC4",
      "componentType": 5126,
      "count": 18,
      "normalized": false,
      "byteOffset": 9840,
      "bufferView": 2
    },
    {
      "type": "VEC3",
      "componentType": 5126,
      "count": 18,
      "normalized": false,
      "byteOffset": 936,
      "bufferView": 1
    },
    {
      "type": "VEC4",
      "componentType": 5126,
      "count": 18,
      "normalized": false,
      "byteOffset": 10128,
      "bufferView": 2
    },
    {
      "type": "VEC4",
      "componentType": 5126,
      "count": 18,
      "normalized": false,
      "byteOffset": 10416,
      "bufferView": 2
    },
    {
      "type": "SCALAR",
      "componentType": 5126,
      "count": 10,
      "max": [
        0.6666666865348816
      ],
      "min": [
        0
      ],
      "normalized": false,
      "byteOffset": 604,
      "bufferView": 0
    },
    {
      "type": "VEC4",
      "componentType": 5126,
      "count": 10,
      "normalized": false,
      "byteOffset": 10704,
      "bufferView": 2
    },
    {
      "type": "SCALAR",
      "componentType": 5126,
      "count": 13,
      "max": [
        0.6666666865348816
      ],
      "min": [
        0
      ],
      "normalized": false,
      "byteOffset": 644,
      "bufferView": 0
    },
    {
      "type": "VEC4",
      "componentType": 5126,
      "count": 13,
      "normalized": false,
      "byteOffset": 10864,
      "bufferView": 2
    },
    {
      "type": "SCALAR",
      "componentType": 5126,
      "count": 14,
      "max": [
        0.6666666865348816
      ],
      "min": [
        0
      ],
      "normalized": false,
      "byteOffset": 696,
      "bufferView": 0
    },
    {
      "type": "VEC4",
      "componentType": 5126,
      "count": 14,
      "normalized": false,
      "byteOffset": 11072,
      "bufferView": 2
    },
    {
      "type": "SCALAR",
      "componentType": 5126,
      "count": 18,
      "max": [
        0.6666666865348816
      ],
      "min": [
        0
      ],
      "normalized": false,
      "byteOffset": 752,
      "bufferView": 0
    },
    {
      "type": "VEC4",
      "componentType": 5126,
      "count": 18,
      "normalized": false,
      "byteOffset": 11296,
      "bufferView": 2
    },
    {
      "type": "VEC4",
      "componentType": 5126,
      "count": 2,
      "normalized": false,
      "byteOffset": 11584,
      "bufferView": 2
    },
    {
      "type": "SCALAR",
      "componentType": 5126,
      "count": 2,
      "max": [
        0.5
      ],
      "min": [
        0
      ],
      "normalized": false,
      "byteOffset": 824,
      "bufferView": 0
    },
    {
      "type": "VEC4",
      "componentType": 5126,
      "count": 15,
      "normalized": false,
      "byteOffset": 11616,
      "bufferView": 2
    },
    {
      "type": "VEC4",
      "componentType": 5126,
      "count": 15,
      "normalized": false,
      "byteOffset": 11856,
      "bufferView": 2
    },
    {
      "type": "VEC4",
      "componentType": 5126,
      "count": 15,
      "normalized": false,
      "byteOffset": 12096,
      "bufferView": 2
    },
    {
      "type": "VEC4",
      "componentType": 5126,
      "count": 15,
      "normalized": false,
      "byteOffset": 12336,
      "bufferView": 2
    },
    {
      "type": "VEC4",
      "componentType": 5126,
      "count": 15,
      "normalized": false,
      "byteOffset": 12576,
      "bufferView": 2
    },
    {
      "type": "VEC4",
      "componentType": 5126,
      "count": 15,
      "normalized": false,
      "byteOffset": 12816,
      "bufferView": 2
    },
    {
      "type": "VEC4",
      "componentType": 5126,
      "count": 15,
      "normalized": false,
      "byteOffset": 13056,
      "bufferView": 2
    },
    {
      "type": "VEC4",
      "componentType": 5126,
      "count": 15,
      "normalized": false,
      "byteOffset": 13296,
      "bufferView": 2
    },
    {
      "type": "VEC4",
      "componentType": 5126,
      "count": 15,
      "normalized": false,
      "byteOffset": 13536,
      "bufferView": 2
    },
    {
      "type": "VEC4",
      "componentType": 5126,
      "count": 15,
      "normalized": false,
      "byteOffset": 13776,
      "bufferView": 2
    },
    {
      "type": "SCALAR",
      "componentType": 5123,
      "count": 36,
      "normalized": false,
      "byteOffset": 0,
      "bufferView": 3
    },
    {
      "type": "VEC2",
      "componentType": 5126,
      "count": 24,
      "normalized": false,
      "byteOffset": 0,
      "bufferView": 4
    },
    {
      "type": "VEC2",
      "componentType": 5126,
      "count": 24,
      "normalized": false,
      "byteOffset": 0,
      "bufferView": 5
    },
    {
      "type": "VEC2",
      "componentType": 5126,
      "count": 24,
      "normalized": false,
      "byteOffset": 0,
      "bufferView": 6
    },
    {
      "type": "VEC2",
      "componentType": 5126,
      "count": 24,
      "normalized": false,
      "byteOffset": 0,
      "bufferView": 7
    },
    {
      "type": "VEC2",
      "componentType": 5126,
      "count": 24,
      "normalized": false,
      "byteOffset": 0,
      "bufferView": 8
    },
    {
      "type": "SCALAR",
      "componentType": 5123,
      "count": 36,
      "normalized": false,
      "byteOffset": 72,
      "bufferView": 3
    },
    {
      "type": "VEC2",
      "componentType": 5126,
      "count": 23,
      "normalized": false,
      "byteOffset": 0,
      "bufferView": 9
    },
    {
      "type": "VEC3",
      "componentType": 5122,
      "count": 24,
      "max": [
        13105,
        32767,
        13105
      ],
      "min": [
        -13105,
        -32767,
        -13105
      ],
      "normalized": true,
      "byteOffset": 0,
      "bufferView": 10
    },
    {
      "type": "VEC3",
      "componentType": 5122,
      "count": 24,
      "max": [
        29127,
        32767,
        21846
      ],
      "min": [
        -29127,
        -32767,
        -21846
      ],
      "normalized": true,
      "byteOffset": 0,
      "bufferView": 11
    },
    {
      "type": "VEC3",
      "componentType": 5122,
      "count": 24,
      "max": [
        11917,
        32767,
        11917
      ],
      "min": [
        -11917,
        -32767,
        -11917
      ],
      "normalized": true,
      "byteOffset": 0,
      "bufferView": 12
    },
    {
      "type": "VEC3",
      "componentType": 5122,
      "count": 24,
      "max": [
        11917,
        32767,
        11917
      ],
      "min": [
        -11917,
        -32767,
        -11917
      ],
      "normalized": true,
      "byteOffset": 0,
      "bufferView": 13
    },
    {
      "type": "VEC3",
      "componentType": 5122,
      "count": 23,
      "max": [
        32767,
        32767,
        32767
      ],
      "min": [
        -32767,
        -32767,
        -32767
      ],
      "normalized": true,
      "byteOffset": 0,
      "bufferView": 14
    }
  ],
  "bufferViews": [
    {
      "buffer": 1,
      "byteOffset": 0,
      "byteLength": 832,
      "extensions": {
        "EXT_meshopt_compression": {
          "buffer": 0,
          "byteOffset": 0,
          "byteLength": 758,
          "mode": "ATTRIBUTES",
          "byteStride": 4,
          "count": 208
        }
      }
    },
    {
      "buffer": 1,
      "byteOffset": 832,
      "byteLength": 1152,
      "extensions": {
        "EXT_meshopt_compression": {
          "buffer": 0,
          "byteOffset": 760,
          "byteLength": 545,
          "mode": "ATTRIBUTES",
          "byteStride": 12,
          "count": 96
        }
      }
    },
    {
      "buffer": 1,
      "byteOffset": 1984,
      "byteLength": 14016,
      "extensions": {
        "EXT_meshopt_compression": {
          "buffer": 0,
          "byteOffset": 1308,
          "byteLength": 5982,
          "mode": "ATTRIBUTES",
          "byteStride": 16,
          "count": 876
        }
      }
    },
    {
      "buffer": 1,
      "byteOffset": 16000,
      "byteLength": 144,
      "target": 34963,
      "extensions": {
        "EXT_meshopt_compression": {
          "buffer": 0,
          "byteOffset": 7292,
          "byteLength": 42,
          "mode": "TRIANGLES",
          "byteStride": 2,
          "count": 72
        }
      }
    },
    {
      "buffer": 1,
      "byteOffset": 16144,
      "byteLength": 192,
      "target": 34962,
      "byteStride": 8,
      "extensions": {
        "EXT_meshopt_compression": {
          "buffer": 0,
          "byteOffset": 7336,
          "byteLength": 207,
          "mode": "ATTRIBUTES",
          "byteStride": 8,
          "count": 24
        }
      }
    },
    {
      "buffer": 1,
      "byteOffset": 16336,
      "byteLength": 192,
      "target": 34962,
      "byteStride": 8,
      "extensions": {
        "EXT_meshopt_compression": {
          "buffer": 0,
          "byteOffset": 7544,
          "byteLength": 205,
          "mode": "ATTRIBUTES",
          "byteStride": 8,
          "count": 24
        }
      }
    },
    {
      "buffer": 1,
      "byteOffset": 16528,
      "byteLength": 192,
      "target": 34962,
      "byteStride": 8,
      "extensions": {
        "EXT_meshopt_compression": {
          "buffer": 0,
          "byteOffset": 7752,
          "byteLength": 213,
          "mode": "ATTRIBUTES",
          "byteStride": 8,
          "count": 24
        }
      }
    },
    {
      "buffer": 1,
      "byteOffset": 16720,
      "byteLength": 192,
      "target": 34962,
      "byteStride": 8,
      "extensions": {
        "EXT_meshopt_compression": {
          "buffer": 0,
          "byteOffset": 7968,
          "byteLength": 199,
          "mode": "ATTRIBUTES",
          "byteStride": 8,
          "count": 24
        }
      }
    },
    {
      "buffer": 1,
      "byteOffset": 16912,
      "byteLength": 192,
      "target": 34962,
      "byteStride": 8,
      "extensions": {
        "EXT_meshopt_compression": {
          "buffer": 0,
          "byteOffset": 8168,
          "byteLength": 207,
          "mode": "ATTRIBUTES",
          "byteStride": 8,
          "count": 24
        }
      }
    },
    {
      "buffer": 1,
      "byteOffset": 17104,
      "byteLength": 184,
      "target": 34962,
      "byteStride": 8,
      "extensions": {
        "EXT_meshopt_compression": {
          "buffer": 0,
          "byteOffset": 8376,
          "byteLength": 198,
          "mode": "ATTRIBUTES",
          "byteStride": 8,
          "count": 23
        }
      }
    },
    {
      "buffer": 1,
      "byteOffset": 17288,
      "byteLength": 192,
      "target": 34962,
      "byteStride": 8,
      "extensions": {
        "EXT_meshopt_compression": {
          "buffer": 0,
          "byteOffset": 8576,
          "byteLength": 149,
          "mode": "ATTRIBUTES",
          "byteStride": 8,
          "count": 24
        }
      }
    },
    {
      "buffer": 1,
      "byteOffset": 17480,
      "byteLength": 192,
      "target": 34962,
      "byteStride": 8,
      "extensions": {
        "EXT_meshopt_compression": {
          "buffer": 0,
          "byteOffset": 8728,
          "byteLength": 146,
          "mode": "ATTRIBUTES",
          "byteStride": 8,
          "count": 24
        }
      }
    },
    {
      "buffer": 1,
      "byteOffset": 17672,
      "byteLength": 192,
      "target": 34962,
      "byteStride": 8,
      "extensions": {
        "EXT_meshopt_compression": {
          "buffer": 0,
          "byteOffset": 8876,
          "byteLength": 146,
          "mode": "ATTRIBUTES",
          "byteStride": 8,
          "count": 24
        }
      }
    },
    {
      "buffer": 1,
      "byteOffset": 17864,
      "byteLength": 192,
      "target": 34962,
      "byteStride": 8,
      "extensions": {
        "EXT_meshopt_compression": {
          "buffer": 0,
          "byteOffset": 9024,
          "byteLength": 147,
          "mode": "ATTRIBUTES",
          "byteStride": 8,
          "count": 24
        }
      }
    },
    {
      "buffer": 1,
      "byteOffset": 18056,
      "byteLength": 184,
      "target": 34962,
      "byteStride": 8,
      "extensions": {
        "EXT_meshopt_compression": {
          "buffer": 0,
          "byteOffset": 9172,
          "byteLength": 111,
          "mode": "ATTRIBUTES",
          "byteStride": 8,
          "count": 23
        }
      }
    }
  ],
  "samplers": [
    {
      "minFilter": 9729,
      "wrapS": 10497,
      "wrapT": 10497
    }
  ],
  "textures": [
    {
      "source": 0,
      "sampler": 0
    }
  ],
  "images": [
    {
      "name": "texture-n",
      "mimeType": "image/png",
      "uri": "Textures/texture-n.png"
    }
  ],
  "buffers": [
    {
      "uri": "character-n.bin",
      "byteLength": 9284
    },
    {
      "byteLength": 18240,
      "extensions": {
        "EXT_meshopt_compression": {
          "fallback": true
        }
      }
    }
  ],
  "materials": [
    {
      "name": "texture-n",
      "pbrMetallicRoughness": {
        "baseColorTexture": {
          "index": 0,
          "extensions": {
            "KHR_texture_transform": {
              "texCoord": 0
            }
          }
        }
      },
      "extensions": {
        "KHR_materials_unlit": {}
      }
    }
  ],
  "meshes": [
    {
      "name": "leg-left",
      "primitives": [
        {
          "attributes": {
            "TEXCOORD_0": 92,
            "POSITION": 99
          },
          "mode": 4,
          "material": 0,
          "indices": 91
        }
      ]
    },
    {
      "name": "leg-right",
      "primitives": [
        {
          "attributes": {
            "TEXCOORD_0": 93,
            "POSITION": 99
          },
          "mode": 4,
          "material": 0,
          "indices": 91
        }
      ]
    },
    {
      "name": "torso",
      "primitives": [
        {
          "attributes": {
            "TEXCOORD_0": 94,
            "POSITION": 100
          },
          "mode": 4,
          "material": 0,
          "indices": 91
        }
      ]
    },
    {
      "name": "arm-left",
      "primitives": [
        {
          "attributes": {
            "TEXCOORD_0": 95,
            "POSITION": 101
          },
          "mode": 4,
          "material": 0,
          "indices": 91
        }
      ]
    },
    {
      "name": "arm-right",
      "primitives": [
        {
          "attributes": {
            "TEXCOORD_0": 96,
            "POSITION": 102
          },
          "mode": 4,
          "material": 0,
          "indices": 91
        }
      ]
    },
    {
      "name": "head",
      "primitives": [
        {
          "attributes": {
            "TEXCOORD_0": 98,
            "POSITION": 103
          },
          "mode": 4,
          "material": 0,
          "indices": 97
        }
      ]
    }
  ],
  "nodes": [
    {
      "name": "character-n",
      "children": [
        1
      ]
    },
    {
      "name": "root",
      "children": [
        2,
        3,
        4
      ]
    },
    {
      "name": "leg-left",
      "translation": [
        0.2,
        1,
        2.03488773e-14
      ],
      "children": [
        8
      ]
    },
    {
      "name": "leg-right",
      "translation": [
        -0.2,
        1,
        2.183782e-14
      ],
      "children": [
        9
      ]
    },
    {
      "name": "torso",
      "translation": [
        0,
        0.7,
        0
      ],
      "children": [
        5,
        6,
        7,
        10
      ]
    },
    {
      "name": "arm-left",
      "translation": [
        0.4000001,
        1.1,
        -0.0999999046
      ],
      "children": [
        11
      ]
    },
    {
      "name": "arm-right",
      "translation": [
        -0.399999857,
        1.1,
        -0.0999999046
      ],
      "children": [
        12
      ]
    },
    {
      "name": "head",
      "translation": [
        0,
        1.2,
        0
      ],
      "scale": [
        0.1,
        0.1,
        0.1
      ],
      "children": [
        13
      ]
    },
    {
      "translation": [
        0,
        -0.5,
        0
      ],
      "scale": [
        0.5,
        0.5,
        0.5
      ],
      "mesh": 0
    },
    {
      "translation": [
        0,
        -0.5,
        0
      ],
      "scale": [
        0.5,
        0.5,
        0.5
      ],
      "mesh": 1
    },
    {
      "translation": [
        0,
        0.7500000298023224,
        0
      ],
      "scale": [
        0.45000001788139343,
        0.45000001788139343,
        0.45000001788139343
      ],
      "mesh": 2
    },
    {
      "translation": [
        0.19999999478452946,
        -0.44999999925494194,
        0
      ],
      "scale": [
        0.5500000007450581,
        0.5500000007450581,
        0.5500000007450581
      ],
      "mesh": 3
    },
    {
      "translation": [
        -0.20000001788139235,
        -0.44999999925494194,
        0
      ],
      "scale": [
        0.5500000007450581,
        0.5500000007450581,
        0.5500000007450581
      ],
      "mesh": 4
    },
    {
      "translation": [
        0,
        4,
        0
      ],
      "scale": [
        4,
        4,
        4
      ],
      "mesh": 5
    }
  ],
  "animations": [
    {
      "name": "static",
      "samplers": [
        {
          "input": 0,
          "output": 1,
          "interpolation": "LINEAR"
        },
        {
          "input": 0,
          "output": 2,
          "interpolation": "LINEAR"
        },
        {
          "input": 0,
          "output": 3,
          "interpolation": "LINEAR"
        },
        {
          "input": 0,
          "output": 4,
          "interpolation": "LINEAR"
        },
        {
          "input": 0,
          "output": 2,
          "interpolation": "LINEAR"
        },
        {
          "input": 0,
          "output": 3,
          "interpolation": "LINEAR"
        },
        {
          "input": 0,
          "output": 5,
          "interpolation": "LINEAR"
        },
        {
          "input": 0,
          "output": 2,
          "interpolation": "LINEAR"
        },
        {
          "input": 0,
          "output": 3,
          "interpolation": "LINEAR"
        },
        {
          "input": 0,
          "output": 6,
          "interpolation": "LINEAR"
        },
        {
          "input": 0,
          "output": 2,
          "interpolation": "LINEAR"
        },
        {
          "input": 0,
          "output": 3,
          "interpolation": "LINEAR"
        },
        {
          "input": 0,
          "output": 7,
          "interpolation": "LINEAR"
        },
        {
          "input": 0,
          "output": 2,
          "interpolation": "LINEAR"
        },
        {
          "input": 0,
          "output": 3,
          "interpolation": "LINEAR"
        },
        {
          "input": 0,
          "output": 8,
          "interpolation": "LINEAR"
        },
        {
          "input": 0,
          "output": 2,
          "interpolation": "LINEAR"
        },
        {
          "input": 0,
          "output": 3,
          "interpolation": "LINEAR"
        },
        {
          "input": 0,
          "output": 9,
          "interpolation": "LINEAR"
        },
        {
          "input": 0,
          "output": 2,
          "interpolation": "LINEAR"
        },
        {
          "input": 0,
          "output": 10,
          "interpolation": "LINEAR"
        }
      ],
      "channels": [
        {
          "sampler": 0,
          "target": {
            "node": 1,
            "path": "translation"
          }
        },
        {
          "sampler": 1,
          "target": {
            "node": 1,
            "path": "rotation"
          }
        },
        {
          "sampler": 2,
          "target": {
            "node": 1,
            "path": "scale"
          }
        },
        {
          "sampler": 3,
          "target": {
            "node": 2,
            "path": "translation"
          }
        },
        {
          "sampler": 4,
          "target": {
            "node": 2,
            "path": "rotation"
          }
        },
        {
          "sampler": 5,
          "target": {
            "node": 2,
            "path": "scale"
          }
        },
        {
          "sampler": 6,
          "target": {
            "node": 3,
            "path": "translation"
          }
        },
        {
          "sampler": 7,
          "target": {
            "node": 3,
            "path": "rotation"
          }
        },
        {
          "sampler": 8,
          "target": {
            "node": 3,
            "path": "scale"
          }
        },
        {
          "sampler": 9,
          "target": {
            "node": 4,
            "path": "translation"
          }
        },
        {
          "sampler": 10,
          "target": {
            "node": 4,
            "path": "rotation"
          }
        },
        {
          "sampler": 11,
          "target": {
            "node": 4,
            "path": "scale"
          }
        },
        {
          "sampler": 12,
          "target": {
            "node": 5,
            "path": "translation"
          }
        },
        {
          "sampler": 13,
          "target": {
            "node": 5,
            "path": "rotation"
          }
        },
        {
          "sampler": 14,
          "target": {
            "node": 5,
            "path": "scale"
          }
        },
        {
          "sampler": 15,
          "target": {
            "node": 6,
            "path": "translation"
          }
        },
        {
          "sampler": 16,
          "target": {
            "node": 6,
            "path": "rotation"
          }
        },
        {
          "sampler": 17,
          "target": {
            "node": 6,
            "path": "scale"
          }
        },
        {
          "sampler": 18,
          "target": {
            "node": 7,
            "path": "translation"
          }
        },
        {
          "sampler": 19,
          "target": {
            "node": 7,
            "path": "rotation"
          }
        },
        {
          "sampler": 20,
          "target": {
            "node": 7,
            "path": "scale"
          }
        }
      ]
    },
    {
      "name": "idle",
      "samplers": [
        {
          "input": 11,
          "output": 12,
          "interpolation": "LINEAR"
        },
        {
          "input": 11,
          "output": 13,
          "interpolation": "LINEAR"
        },
        {
          "input": 11,
          "output": 13,
          "interpolation": "LINEAR"
        },
        {
          "input": 11,
          "output": 14,
          "interpolation": "LINEAR"
        }
      ],
      "channels": [
        {
          "sampler": 0,
          "target": {
            "node": 4,
            "path": "rotation"
          }
        },
        {
          "sampler": 1,
          "target": {
            "node": 5,
            "path": "rotation"
          }
        },
        {
          "sampler": 2,
          "target": {
            "node": 6,
            "path": "rotation"
          }
        },
        {
          "sampler": 3,
          "target": {
            "node": 7,
            "path": "rotation"
          }
        }
      ]
    },
    {
      "name": "walk",
      "samplers": [
        {
          "input": 15,
          "output": 16,
          "interpolation": "LINEAR"
        },
        {
          "input": 15,
          "output": 17,
          "interpolation": "LINEAR"
        },
        {
          "input": 15,
          "output": 18,
          "interpolation": "LINEAR"
        },
        {
          "input": 15,
          "output": 19,
          "interpolation": "LINEAR"
        },
        {
          "input": 15,
          "output": 20,
          "interpolation": "LINEAR"
        },
        {
          "input": 15,
          "output": 21,
          "interpolation": "LINEAR"
        }
      ],
      "channels": [
        {
          "sampler": 0,
          "target": {
            "node": 1,
            "path": "translation"
          }
        },
        {
          "sampler": 1,
          "target": {
            "node": 2,
            "path": "rotation"
          }
        },
        {
          "sampler": 2,
          "target": {
            "node": 3,
            "path": "rotation"
          }
        },
        {
          "sampler": 3,
          "target": {
            "node": 5,
            "path": "rotation"
          }
        },
        {
          "sampler": 4,
          "target": {
            "node": 6,
            "path": "rotation"
          }
        },
        {
          "sampler": 5,
          "target": {
            "node": 7,
            "path": "rotation"
          }
        }
      ]
    },
    {
      "name": "sprint",
      "samplers": [
        {
          "input": 22,
          "output": 23,
          "interpolation": "LINEAR"
        },
        {
          "input": 22,
          "output": 24,
          "interpolation": "LINEAR"
        },
        {
          "input": 22,
          "output": 25,
          "interpolation": "LINEAR"
        },
        {
          "input": 22,
          "output": 26,
          "interpolation": "LINEAR"
        },
        {
          "input": 22,
          "output": 27,
          "interpolation": "LINEAR"
        },
        {
          "input": 22,
          "output": 28,
          "interpolation": "LINEAR"
        },
        {
          "input": 22,
          "output": 29,
          "interpolation": "LINEAR"
        }
      ],
      "channels": [
        {
          "sampler": 0,
          "target": {
            "node": 1,
            "path": "translation"
          }
        },
        {
          "sampler": 1,
          "target": {
            "node": 2,
            "path": "rotation"
          }
        },
        {
          "sampler": 2,
          "target": {
            "node": 3,
            "path": "rotation"
          }
        },
        {
          "sampler": 3,
          "target": {
            "node": 4,
            "path": "rotation"
          }
        },
        {
          "sampler": 4,
          "target": {
            "node": 7,
            "path": "rotation"
          }
        },
        {
          "sampler": 5,
          "target": {
            "node": 6,
            "path": "rotation"
          }
        },
        {
          "sampler": 6,
          "target": {
            "node": 5,
            "path": "rotation"
          }
        }
      ]
    },
    {
      "name": "sit",
      "samplers": [
        {
          "input": 30,
          "output": 31,
          "interpolation": "LINEAR"
        },
        {
          "input": 30,
          "output": 32,
          "interpolation": "LINEAR"
        },
        {
          "input": 30,
          "output": 32,
          "interpolation": "LINEAR"
        }
      ],
      "channels": [
        {
          "sampler": 0,
          "target": {
            "node": 1,
            "path": "translation"
          }
        },
        {
          "sampler": 1,
          "target": {
            "node": 2,
            "path": "rotation"
          }
        },
        {
          "sampler": 2,
          "target": {
            "node": 3,
            "path": "rotation"
          }
        }
      ]
    },
    {
      "name": "drive",
      "samplers": [
        {
          "input": 30,
          "output": 31,
          "interpolation": "LINEAR"
        },
        {
          "input": 30,
          "output": 32,
          "interpolation": "LINEAR"
        },
        {
          "input": 30,
          "output": 32,
          "interpolation": "LINEAR"
        },
        {
          "input": 30,
          "output": 33,
          "interpolation": "LINEAR"
        },
        {
          "input": 30,
          "output": 33,
          "interpolation": "LINEAR"
        }
      ],
      "channels": [
        {
          "sampler": 0,
          "target": {
            "node": 1,
            "path": "translation"
          }
        },
        {
          "sampler": 1,
          "target": {
            "node": 2,
            "path": "rotation"
          }
        },
        {
          "sampler": 2,
          "target": {
            "node": 3,
            "path": "rotation"
          }
        },
        {
          "sampler": 3,
          "target": {
            "node": 5,
            "path": "rotation"
          }
        },
        {
          "sampler": 4,
          "target": {
            "node": 6,
            "path": "rotation"
          }
        }
      ]
    },
    {
      "name": "die",
      "samplers": [
        {
          "input": 34,
          "output": 35,
          "interpolation": "LINEAR"
        },
        {
          "input": 36,
          "output": 37,
          "interpolation": "LINEAR"
        },
        {
          "input": 34,
          "output": 38,
          "interpolation": "LINEAR"
        },
        {
          "input": 34,
          "output": 38,
          "interpolation": "LINEAR"
        },
        {
          "input": 34,
          "output": 39,
          "interpolation": "LINEAR"
        },
        {
          "input": 34,
          "output": 40,
          "interpolation": "LINEAR"
        },
        {
          "input": 34,
          "output": 40,
          "interpolation": "LINEAR"
        },
        {
          "input": 34,
          "output": 41,
          "interpolation": "LINEAR"
        }
      ],
      "channels": [
        {
          "sampler": 0,
          "target": {
            "node": 1,
            "path": "translation"
          }
        },
        {
          "sampler": 1,
          "target": {
            "node": 1,
            "path": "rotation"
          }
        },
        {
          "sampler": 2,
          "target": {
            "node": 2,
            "path": "rotation"
          }
        },
        {
          "sampler": 3,
          "target": {
            "node": 3,
            "path": "rotation"
          }
        },
        {
          "sampler": 4,
          "target": {
            "node": 4,
            "path": "rotation"
          }
        },
        {
          "sampler": 5,
          "target": {
            "node": 5,
            "path": "rotation"
          }
        },
        {
          "sampler": 6,
          "target": {
            "node": 6,
            "path": "rotation"
          }
        },
        {
          "sampler": 7,
          "target": {
            "node": 7,
            "path": "rotation"
          }
        }
      ]
    },
    {
      "name": "pick-up",
      "samplers": [
        {
          "input": 34,
          "output": 42,
          "interpolation": "LINEAR"
        },
        {
          "input": 34,
          "output": 43,
          "interpolation": "LINEAR"
        },
        {
          "input": 34,
          "output": 43,
          "interpolation": "LINEAR"
        },
        {
          "input": 44,
          "output": 45,
          "interpolation": "LINEAR"
        }
      ],
      "channels": [
        {
          "sampler": 0,
          "target": {
            "node": 4,
            "path": "rotation"
          }
        },
        {
          "sampler": 1,
          "target": {
            "node": 5,
            "path": "rotation"
          }
        },
        {
          "sampler": 2,
          "target": {
            "node": 6,
            "path": "rotation"
          }
        },
        {
          "sampler": 3,
          "target": {
            "node": 7,
            "path": "rotation"
          }
        }
      ]
    },
    {
      "name": "emote-yes",
      "samplers": [
        {
          "input": 15,
          "output": 46,
          "interpolation": "LINEAR"
        },
        {
          "input": 15,
          "output": 47,
          "interpolation": "LINEAR"
        },
        {
          "input": 15,
          "output": 48,
          "interpolation": "LINEAR"
        },
        {
          "input": 15,
          "output": 48,
          "interpolation": "LINEAR"
        }
      ],
      "channels": [
        {
          "sampler": 0,
          "target": {
            "node": 7,
            "path": "rotation"
          }
        },
        {
          "sampler": 1,
          "target": {
            "node": 4,
            "path": "rotation"
          }
        },
        {
          "sampler": 2,
          "target": {
            "node": 6,
            "path": "rotation"
          }
        },
        {
          "sampler": 3,
          "target": {
            "node": 5,
            "path": "rotation"
          }
        }
      ]
    },
    {
      "name": "emote-no",
      "samplers": [
        {
          "input": 15,
          "output": 47,
          "interpolation": "LINEAR"
        },
        {
          "input": 15,
          "output": 48,
          "interpolation": "LINEAR"
        },
        {
          "input": 15,
          "output": 48,
          "interpolation": "LINEAR"
        },
        {
          "input": 15,
          "output": 49,
          "interpolation": "LINEAR"
        }
      ],
      "channels": [
        {
          "sampler": 0,
          "target": {
            "node": 4,
            "path": "rotation"
          }
        },
        {
          "sampler": 1,
          "target": {
            "node": 6,
            "path": "rotation"
          }
        },
        {
          "sampler": 2,
          "target": {
            "node": 5,
            "path": "rotation"
          }
        },
        {
          "sampler": 3,
          "target": {
            "node": 7,
            "path": "rotation"
          }
        }
      ]
    },
    {
      "name": "holding-right",
      "samplers": [
        {
          "input": 30,
          "output": 32,
          "interpolation": "LINEAR"
        }
      ],
      "channels": [
        {
          "sampler": 0,
          "target": {
            "node": 6,
            "path": "rotation"
          }
        }
      ]
    },
    {
      "name": "holding-left",
      "samplers": [
        {
          "input": 30,
          "output": 32,
          "interpolation": "LINEAR"
        }
      ],
      "channels": [
        {
          "sampler": 0,
          "target": {
            "node": 5,
            "path": "rotation"
          }
        }
      ]
    },
    {
      "name": "holding-both",
      "samplers": [
        {
          "input": 30,
          "output": 32,
          "interpolation": "LINEAR"
        },
        {
          "input": 30,
          "output": 32,
          "interpolation": "LINEAR"
        }
      ],
      "channels": [
        {
          "sampler": 0,
          "target": {
            "node": 5,
            "path": "rotation"
          }
        },
        {
          "sampler": 1,
          "target": {
            "node": 6,
            "path": "rotation"
          }
        }
      ]
    },
    {
      "name": "holding-right-shoot",
      "samplers": [
        {
          "input": 50,
          "output": 51,
          "interpolation": "LINEAR"
        },
        {
          "input": 50,
          "output": 52,
          "interpolation": "LINEAR"
        },
        {
          "input": 50,
          "output": 53,
          "interpolation": "LINEAR"
        }
      ],
      "channels": [
        {
          "sampler": 0,
          "target": {
            "node": 4,
            "path": "rotation"
          }
        },
        {
          "sampler": 1,
          "target": {
            "node": 6,
            "path": "rotation"
          }
        },
        {
          "sampler": 2,
          "target": {
            "node": 7,
            "path": "rotation"
          }
        }
      ]
    },
    {
      "name": "holding-left-shoot",
      "samplers": [
        {
          "input": 50,
          "output": 51,
          "interpolation": "LINEAR"
        },
        {
          "input": 50,
          "output": 53,
          "interpolation": "LINEAR"
        },
        {
          "input": 50,
          "output": 52,
          "interpolation": "LINEAR"
        }
      ],
      "channels": [
        {
          "sampler": 0,
          "target": {
            "node": 4,
            "path": "rotation"
          }
        },
        {
          "sampler": 1,
          "target": {
            "node": 7,
            "path": "rotation"
          }
        },
        {
          "sampler": 2,
          "target": {
            "node": 5,
            "path": "rotation"
          }
        }
      ]
    },
    {
      "name": "holding-both-shoot",
      "samplers": [
        {
          "input": 50,
          "output": 51,
          "interpolation": "LINEAR"
        },
        {
          "input": 50,
          "output": 52,
          "interpolation": "LINEAR"
        },
        {
          "input": 50,
          "output": 53,
          "interpolation": "LINEAR"
        },
        {
          "input": 50,
          "output": 52,
          "interpolation": "LINEAR"
        }
      ],
      "channels": [
        {
          "sampler": 0,
          "target": {
            "node": 4,
            "path": "rotation"
          }
        },
        {
          "sampler": 1,
          "target": {
            "node": 6,
            "path": "rotation"
          }
        },
        {
          "sampler": 2,
          "target": {
            "node": 7,
            "path": "rotation"
          }
        },
        {
          "sampler": 3,
          "target": {
            "node": 5,
            "path": "rotation"
          }
        }
      ]
    },
    {
      "name": "attack-melee-right",
      "samplers": [
        {
          "input": 54,
          "output": 55,
          "interpolation": "LINEAR"
        },
        {
          "input": 56,
          "output": 57,
          "interpolation": "LINEAR"
        },
        {
          "input": 54,
          "output": 58,
          "interpolation": "LINEAR"
        },
        {
          "input": 56,
          "output": 59,
          "interpolation": "LINEAR"
        },
        {
          "input": 54,
          "output": 60,
          "interpolation": "LINEAR"
        },
        {
          "input": 54,
          "output": 61,
          "interpolation": "LINEAR"
        },
        {
          "input": 54,
          "output": 62,
          "interpolation": "LINEAR"
        }
      ],
      "channels": [
        {
          "sampler": 0,
          "target": {
            "node": 1,
            "path": "translation"
          }
        },
        {
          "sampler": 1,
          "target": {
            "node": 3,
            "path": "rotation"
          }
        },
        {
          "sampler": 2,
          "target": {
            "node": 4,
            "path": "rotation"
          }
        },
        {
          "sampler": 3,
          "target": {
            "node": 2,
            "path": "rotation"
          }
        },
        {
          "sampler": 4,
          "target": {
            "node": 5,
            "path": "rotation"
          }
        },
        {
          "sampler": 5,
          "target": {
            "node": 6,
            "path": "rotation"
          }
        },
        {
          "sampler": 6,
          "target": {
            "node": 7,
            "path": "rotation"
          }
        }
      ]
    },
    {
      "name": "attack-melee-left",
      "samplers": [
        {
          "input": 54,
          "output": 55,
          "interpolation": "LINEAR"
        },
        {
          "input": 54,
          "output": 58,
          "interpolation": "LINEAR"
        },
        {
          "input": 54,
          "output": 62,
          "interpolation": "LINEAR"
        },
        {
          "input": 54,
          "output": 61,
          "interpolation": "LINEAR"
        },
        {
          "input": 54,
          "output": 60,
          "interpolation": "LINEAR"
        },
        {
          "input": 56,
          "output": 57,
          "interpolation": "LINEAR"
        },
        {
          "input": 56,
          "output": 59,
          "interpolation": "LINEAR"
        }
      ],
      "channels": [
        {
          "sampler": 0,
          "target": {
            "node": 1,
            "path": "translation"
          }
        },
        {
          "sampler": 1,
          "target": {
            "node": 4,
            "path": "rotation"
          }
        },
        {
          "sampler": 2,
          "target": {
            "node": 7,
            "path": "rotation"
          }
        },
        {
          "sampler": 3,
          "target": {
            "node": 5,
            "path": "rotation"
          }
        },
        {
          "sampler": 4,
          "target": {
            "node": 6,
            "path": "rotation"
          }
        },
        {
          "sampler": 5,
          "target": {
            "node": 2,
            "path": "rotation"
          }
        },
        {
          "sampler": 6,
          "target": {
            "node": 3,
            "path": "rotation"
          }
        }
      ]
    },
    {
      "name": "attack-kick-right",
      "samplers": [
        {
          "input": 63,
          "output": 64,
          "interpolation": "LINEAR"
        },
        {
          "input": 63,
          "output": 65,
          "interpolation": "LINEAR"
        },
        {
          "input": 63,
          "output": 66,
          "interpolation": "LINEAR"
        },
        {
          "input": 63,
          "output": 67,
          "interpolation": "LINEAR"
        },
        {
          "input": 63,
          "output": 68,
          "interpolation": "LINEAR"
        },
        {
          "input": 63,
          "output": 69,
          "interpolation": "LINEAR"
        },
        {
          "input": 63,
          "output": 70,
          "interpolation": "LINEAR"
        }
      ],
      "channels": [
        {
          "sampler": 0,
          "target": {
            "node": 4,
            "path": "rotation"
          }
        },
        {
          "sampler": 1,
          "target": {
            "node": 3,
            "path": "rotation"
          }
        },
        {
          "sampler": 2,
          "target": {
            "node": 5,
            "path": "rotation"
          }
        },
        {
          "sampler": 3,
          "target": {
            "node": 6,
            "path": "rotation"
          }
        },
        {
          "sampler": 4,
          "target": {
            "node": 1,
            "path": "translation"
          }
        },
        {
          "sampler": 5,
          "target": {
            "node": 2,
            "path": "rotation"
          }
        },
        {
          "sampler": 6,
          "target": {
            "node": 7,
            "path": "rotation"
          }
        }
      ]
    },
    {
      "name": "attack-kick-left",
      "samplers": [
        {
          "input": 63,
          "output": 64,
          "interpolation": "LINEAR"
        },
        {
          "input": 63,
          "output": 68,
          "interpolation": "LINEAR"
        },
        {
          "input": 63,
          "output": 70,
          "interpolation": "LINEAR"
        },
        {
          "input": 63,
          "output": 67,
          "interpolation": "LINEAR"
        },
        {
          "input": 63,
          "output": 66,
          "interpolation": "LINEAR"
        },
        {
          "input": 63,
          "output": 65,
          "interpolation": "LINEAR"
        },
        {
          "input": 63,
          "output": 69,
          "interpolation": "LINEAR"
        }
      ],
      "channels": [
        {
          "sampler": 0,
          "target": {
            "node": 4,
            "path": "rotation"
          }
        },
        {
          "sampler": 1,
          "target": {
            "node": 1,
            "path": "translation"
          }
        },
        {
          "sampler": 2,
          "target": {
            "node": 7,
            "path": "rotation"
          }
        },
        {
          "sampler": 3,
          "target": {
            "node": 5,
            "path": "rotation"
          }
        },
        {
          "sampler": 4,
          "target": {
            "node": 6,
            "path": "rotation"
          }
        },
        {
          "sampler": 5,
          "target": {
            "node": 2,
            "path": "rotation"
          }
        },
        {
          "sampler": 6,
          "target": {
            "node": 3,
            "path": "rotation"
          }
        }
      ]
    },
    {
      "name": "interact-right",
      "samplers": [
        {
          "input": 71,
          "output": 72,
          "interpolation": "LINEAR"
        },
        {
          "input": 73,
          "output": 74,
          "interpolation": "LINEAR"
        },
        {
          "input": 75,
          "output": 76,
          "interpolation": "LINEAR"
        },
        {
          "input": 77,
          "output": 78,
          "interpolation": "LINEAR"
        }
      ],
      "channels": [
        {
          "sampler": 0,
          "target": {
            "node": 4,
            "path": "rotation"
          }
        },
        {
          "sampler": 1,
          "target": {
            "node": 7,
            "path": "rotation"
          }
        },
        {
          "sampler": 2,
          "target": {
            "node": 5,
            "path": "rotation"
          }
        },
        {
          "sampler": 3,
          "target": {
            "node": 6,
            "path": "rotation"
          }
        }
      ]
    },
    {
      "name": "interact-left",
      "samplers": [
        {
          "input": 71,
          "output": 72,
          "interpolation": "LINEAR"
        },
        {
          "input": 73,
          "output": 74,
          "interpolation": "LINEAR"
        },
        {
          "input": 77,
          "output": 78,
          "interpolation": "LINEAR"
        },
        {
          "input": 75,
          "output": 76,
          "interpolation": "LINEAR"
        }
      ],
      "channels": [
        {
          "sampler": 0,
          "target": {
            "node": 4,
            "path": "rotation"
          }
        },
        {
          "sampler": 1,
          "target": {
            "node": 7,
            "path": "rotation"
          }
        },
        {
          "sampler": 2,
          "target": {
            "node": 5,
            "path": "rotation"
          }
        },
        {
          "sampler": 3,
          "target": {
            "node": 6,
            "path": "rotation"
          }
        }
      ]
    },
    {
      "name": "wheelchair-sit",
      "samplers": [
        {
          "input": 30,
          "output": 33,
          "interpolation": "LINEAR"
        },
        {
          "input": 30,
          "output": 33,
          "interpolation": "LINEAR"
        },
        {
          "input": 30,
          "output": 79,
          "interpolation": "LINEAR"
        },
        {
          "input": 30,
          "output": 79,
          "interpolation": "LINEAR"
        }
      ],
      "channels": [
        {
          "sampler": 0,
          "target": {
            "node": 2,
            "path": "rotation"
          }
        },
        {
          "sampler": 1,
          "target": {
            "node": 3,
            "path": "rotation"
          }
        },
        {
          "sampler": 2,
          "target": {
            "node": 5,
            "path": "rotation"
          }
        },
        {
          "sampler": 3,
          "target": {
            "node": 6,
            "path": "rotation"
          }
        }
      ]
    },
    {
      "name": "wheelchair-move-forward",
      "samplers": [
        {
          "input": 80,
          "output": 33,
          "interpolation": "LINEAR"
        },
        {
          "input": 80,
          "output": 33,
          "interpolation": "LINEAR"
        },
        {
          "input": 22,
          "output": 81,
          "interpolation": "LINEAR"
        },
        {
          "input": 22,
          "output": 82,
          "interpolation": "LINEAR"
        },
        {
          "input": 22,
          "output": 83,
          "interpolation": "LINEAR"
        },
        {
          "input": 22,
          "output": 83,
          "interpolation": "LINEAR"
        }
      ],
      "channels": [
        {
          "sampler": 0,
          "target": {
            "node": 2,
            "path": "rotation"
          }
        },
        {
          "sampler": 1,
          "target": {
            "node": 3,
            "path": "rotation"
          }
        },
        {
          "sampler": 2,
          "target": {
            "node": 4,
            "path": "rotation"
          }
        },
        {
          "sampler": 3,
          "target": {
            "node": 7,
            "path": "rotation"
          }
        },
        {
          "sampler": 4,
          "target": {
            "node": 5,
            "path": "rotation"
          }
        },
        {
          "sampler": 5,
          "target": {
            "node": 6,
            "path": "rotation"
          }
        }
      ]
    },
    {
      "name": "wheelchair-move-back",
      "samplers": [
        {
          "input": 80,
          "output": 33,
          "interpolation": "LINEAR"
        },
        {
          "input": 80,
          "output": 33,
          "interpolation": "LINEAR"
        },
        {
          "input": 22,
          "output": 84,
          "interpolation": "LINEAR"
        },
        {
          "input": 22,
          "output": 85,
          "interpolation": "LINEAR"
        },
        {
          "input": 22,
          "output": 85,
          "interpolation": "LINEAR"
        },
        {
          "input": 22,
          "output": 86,
          "interpolation": "LINEAR"
        }
      ],
      "channels": [
        {
          "sampler": 0,
          "target": {
            "node": 2,
            "path": "rotation"
          }
        },
        {
          "sampler": 1,
          "target": {
            "node": 3,
            "path": "rotation"
          }
        },
        {
          "sampler": 2,
          "target": {
            "node": 4,
            "path": "rotation"
          }
        },
        {
          "sampler": 3,
          "target": {
            "node": 5,
            "path": "rotation"
          }
        },
        {
          "sampler": 4,
          "target": {
            "node": 6,
            "path": "rotation"
          }
        },
        {
          "sampler": 5,
          "target": {
            "node": 7,
            "path": "rotation"
          }
        }
      ]
    },
    {
      "name": "wheelchair-move-left",
      "samplers": [
        {
          "input": 80,
          "output": 33,
          "interpolation": "LINEAR"
        },
        {
          "input": 80,
          "output": 33,
          "interpolation": "LINEAR"
        },
        {
          "input": 22,
          "output": 81,
          "interpolation": "LINEAR"
        },
        {
          "input": 22,
          "output": 83,
          "interpolation": "LINEAR"
        },
        {
          "input": 22,
          "output": 87,
          "interpolation": "LINEAR"
        },
        {
          "input": 22,
          "output": 88,
          "interpolation": "LINEAR"
        }
      ],
      "channels": [
        {
          "sampler": 0,
          "target": {
            "node": 2,
            "path": "rotation"
          }
        },
        {
          "sampler": 1,
          "target": {
            "node": 3,
            "path": "rotation"
          }
        },
        {
          "sampler": 2,
          "target": {
            "node": 4,
            "path": "rotation"
          }
        },
        {
          "sampler": 3,
          "target": {
            "node": 6,
            "path": "rotation"
          }
        },
        {
          "sampler": 4,
          "target": {
            "node": 5,
            "path": "rotation"
          }
        },
        {
          "sampler": 5,
          "target": {
            "node": 7,
            "path": "rotation"
          }
        }
      ]
    },
    {
      "name": "wheelchair-move-right",
      "samplers": [
        {
          "input": 80,
          "output": 33,
          "interpolation": "LINEAR"
        },
        {
          "input": 80,
          "output": 33,
          "interpolation": "LINEAR"
        },
        {
          "input": 22,
          "output": 81,
          "interpolation": "LINEAR"
        },
        {
          "input": 22,
          "output": 83,
          "interpolation": "LINEAR"
        },
        {
          "input": 22,
          "output": 89,
          "interpolation": "LINEAR"
        },
        {
          "input": 22,
          "output": 90,
          "interpolation": "LINEAR"
        }
      ],
      "channels": [
        {
          "sampler": 0,
          "target": {
            "node": 2,
            "path": "rotation"
          }
        },
        {
          "sampler": 1,
          "target": {
            "node": 3,
            "path": "rotation"
          }
        },
        {
          "sampler": 2,
          "target": {
            "node": 4,
            "path": "rotation"
          }
        },
        {
          "sampler": 3,
          "target": {
            "node": 5,
            "path": "rotation"
          }
        },
        {
          "sampler": 4,
          "target": {
            "node": 6,
            "path": "rotation"
          }
        },
        {
          "sampler": 5,
          "target": {
            "node": 7,
            "path": "rotation"
          }
        }
      ]
    }
  ],
  "scenes": [
    {
      "name": "character-n",
      "nodes": [
        0
      ]
    }
  ],
  "scene": 0,
  "extensionsUsed": [
    "EXT_meshopt_compression",
    "KHR_materials_unlit",
    "KHR_mesh_quantization",
    "KHR_texture_transform"
  ],
  "extensionsRequired": [
    "EXT_meshopt_compression",
    "KHR_materials_unlit",
    "KHR_mesh_quantization"
  ]
}