{
  "asset": {
    "generator": "glTF-Transform v4.5.1",
    "version": "2.0"
  },
  "accessors": [
    {
      "type": "SCALAR",
      "componentType": 5126,
      "count": 2,
      "max": [
        0.10000000149011612
      ],
      "min": [
        0
      ],
      "normalized": false,
      "byteOffset": 0,
      "bufferView": 0
    },
    {
      "type": "VEC3",
      "componentType": 5126,
      "count": 2,
      "normalized": false,
      "byteOffset": 0,
      "bufferView": 1
    },
    {
      "type": "VEC4",
      "componentType": 5126,
      "count": 2,
      "normalized": false,
      "byteOffset": 0,
      "bufferView": 2
    },
    {
      "type": "VEC3",
      "componentType": 5126,
      "count": 2,
      "normalized": false,
      "byteOffset": 24,
      "bufferView": 1
    },
    {
      "type": "VEC3",
      "componentType": 5126,
      "count": 2,
      "normalized": false,
      "byteOffset": 48,
      "bufferView": 1
    },
    {
      "type": "VEC3",
      "componentType": 5126,
      "count": 2,
      "normalized": false,
      "byteOffset": 72,
      "bufferView": 1
    },
    {
      "type": "VEC3",
      "componentType": 5126,
      "count": 2,
      "normalized": false,
      "byteOffset": 96,
      "bufferView": 1
    },
    {
      "type": "VEC3",
      "componentType": 5126,
      "count": 2,
      "normalized": false,
      "byteOffset": 120,
      "bufferView": 1
    },
    {
      "type": "VEC3",
      "componentType": 5126,
      "count": 2,
      "normalized": false,
      "byteOffset": 144,
      "bufferView": 1
    },
    {
      "type": "VEC3",
      "componentType": 5126,
      "count": 2,
      "normalized": false,
      "byteOffset": 168,
      "bufferView": 1
    },
    {
      "type": "SCALAR",
      "componentType": 5126,
      "count": 2,
      "max": [
        1
      ],
      "min": [
        0
      ],
      "normalized": false,
      "byteOffset": 8,
      "bufferView": 0
    },
    {
      "type": "SCALAR",
      "componentType": 5126,
      "count": 30,
      "max": [
        1
      ],
      "min": [
        0
      ],
      "normalized": false,
      "byteOffset": 16,
      "bufferView": 0
    },
    {
      "type": "VEC4",
      "componentType": 5126,
      "count": 30,
      "normalized": false,
      "byteOffset": 32,
      "bufferView": 2
    },
    {
      "type": "SCALAR",
      "componentType": 5126,
      "count": 15,
      "max": [
        0.5
      ],
      "min": [
        0
      ],
      "normalized": false,
      "byteOffset": 136,
      "bufferView": 0
    },
    {
      "type": "VEC3",
      "componentType": 5126,
      "count": 15,
      "normalized": false,
      "byteOffset": 192,
      "bufferView": 1
    },
    {
      "type": "SCALAR",
      "componentType": 5126,
      "count": 2,
      "max": [
        0.5
      ],
      "min": [
        0
      ],
      "normalized": false,
      "byteOffset": 196,
      "bufferView": 0
    },
    {
      "type": "VEC4",
      "componentType": 5126,
      "count": 15,
      "normalized": false,
      "byteOffset": 512,
      "bufferView": 2
    },
    {
      "type": "VEC4",
      "componentType": 5126,
      "count": 15,
      "normalized": false,
      "byteOffset": 752,
      "bufferView": 2
    },
    {
      "type": "VEC4",
      "componentType": 5126,
      "count": 15,
      "normalized": false,
      "byteOffset": 992,
      "bufferView": 2
    },
    {
      "type": "SCALAR",
      "componentType": 5126,
      "count": 8,
      "max": [
        0.25
      ],
      "min": [
        0
      ],
      "normalized": false,
      "byteOffset": 204,
      "bufferView": 0
    },
    {
      "type": "VEC3",
      "componentType": 5126,
      "count": 8,
      "normalized": false,
      "byteOffset": 372,
      "bufferView": 1
    },
    {
      "type": "SCALAR",
      "componentType": 5126,
      "count": 2,
      "max": [
        0.25
      ],
      "min": [
        0
      ],
      "normalized": false,
      "byteOffset": 236,
      "bufferView": 0
    },
    {
      "type": "VEC4",
      "componentType": 5126,
      "count": 8,
      "normalized": false,
      "byteOffset": 1232,
      "bufferView": 2
    },
    {
      "type": "VEC4",
      "componentType": 5126,
      "count": 8,
      "normalized": false,
      "byteOffset": 1360,
      "bufferView": 2
    },
    {
      "type": "VEC4",
      "componentType": 5126,
      "count": 8,
      "normalized": false,
      "byteOffset": 1488,
      "bufferView": 2
    },
    {
      "type": "VEC4",
      "componentType": 5126,
      "count": 15,
      "normalized": false,
      "byteOffset": 1616,
      "bufferView": 2
    },
    {
      "type": "VEC3",
      "componentType": 5126,
      "count": 15,
      "normalized": false,
      "byteOffset": 468,
      "bufferView": 1
    },
    {
      "type": "VEC4",
      "componentType": 5126,
      "count": 15,
      "normalized": false,
      "byteOffset": 1856,
      "bufferView": 2
    },
    {
      "type": "VEC4",
      "componentType": 5126,
      "count": 8,
      "normalized": false,
      "byteOffset": 2096,
      "bufferView": 2
    },
    {
      "type": "VEC4",
      "componentType": 5126,
      "count": 8,
      "normalized": false,
      "byteOffset": 2224,
      "bufferView": 2
    },
    {
      "type": "SCALAR",
      "componentType": 5123,
      "count": 132,
      "normalized": false,
      "byteOffset": 0,
      "bufferView": 3
    },
    {
      "type": "SCALAR",
      "componentType": 5123,
      "count": 1320,
      "normalized": false,
      "byteOffset": 264,
      "bufferView": 3
    },
    {
      "type": "SCALAR",
      "componentType": 5123,
      "count": 180,
      "normalized": false,
      "byteOffset": 2904,
      "bufferView": 3
    },
    {
      "type": "SCALAR",
      "componentType": 5123,
      "count": 132,
      "normalized": false,
      "byteOffset": 3264,
      "bufferView": 3
    },
    {
      "type": "SCALAR",
      "componentType": 5123,
      "count": 132,
      "normalized": false,
      "byteOffset": 3528,
      "bufferView": 3
    },
    {
      "type": "SCALAR",
      "componentType": 5123,
      "count": 132,
      "normalized": false,
      "byteOffset": 3792,
      "bufferView": 3
    },
    {
      "type": "VEC3",
      "componentType": 5122,
      "count": 75,
      "max": [
        32767,
        26759,
        32767
      ],
      "min": [
        -32767,
        -26759,
        -32767
      ],
      "normalized": true,
      "byteOffset": 0,
      "bufferView": 4
    },
    {
      "type": "VEC3",
      "componentType": 5122,
      "count": 75,
      "normalized": true,
      "byteOffset": 0,
      "bufferView": 5
    },
    {
      "type": "VEC2",
      "componentType": 5123,
      "count": 75,
      "normalized": true,
      "byteOffset": 0,
      "bufferView": 6
    },
    {
      "type": "VEC3",
      "componentType": 5122,
      "count": 757,
      "max": [
        32767,
        12817,
        18902
      ],
      "min": [
        -32767,
        -12817,
        -18902
      ],
      "normalized": true,
      "byteOffset": 0,
      "bufferView": 7
    },
    {
      "type": "VEC3",
      "componentType": 5122,
      "count": 757,
      "normalized": true,
      "byteOffset": 0,
      "bufferView": 8
    },
    {
      "type": "VEC2",
      "componentType": 5123,
      "count": 757,
      "normalized": true,
      "byteOffset": 0,
      "bufferView": 9
    },
    {
      "type": "VEC3",
      "componentType": 5122,
      "count": 115,
      "max": [
        32767,
        32767,
        32767
      ],
      "min": [
        -32767,
        -32767,
        -32767
      ],
      "normalized": true,
      "byteOffset": 0,
      "bufferView": 10
    },
    {
      "type": "VEC3",
      "componentType": 5122,
      "count": 115,
      "normalized": true,
      "byteOffset": 0,
      "bufferView": 11
    },
    {
      "type": "VEC2",
      "componentType": 5123,
      "count": 115,
      "normalized": true,
      "byteOffset": 0,
      "bufferView": 12
    },
    {
      "type": "VEC3",
      "componentType": 5122,
      "count": 74,
      "max": [
        32767,
        26759,
        32767
      ],
      "min": [
        -32767,
        -26759,
        -32767
      ],
      "normalized": true,
      "byteOffset": 0,
      "bufferView": 13
    },
    {
      "type": "VEC3",
      "componentType": 5122,
      "count": 74,
      "normalized": true,
      "byteOffset": 0,
      "bufferView": 14
    },
    {
      "type": "VEC2",
      "componentType": 5123,
      "count": 74,
      "normalized": true,
      "byteOffset": 0,
      "bufferView": 15
    },
    {
      "type": "VEC3",
      "componentType": 5122,
      "count": 75,
      "max": [
        32767,
        26759,
        32767
      ],
      "min": [
        -32767,
        -26759,
        -32767
      ],
      "normalized": true,
      "byteOffset": 0,
      "bufferView": 16
    },
    {
      "type": "VEC3",
      "componentType": 5122,
      "count": 75,
      "normalized": true,
      "byteOffset": 0,
      "bufferView": 17
    },
    {
      "type": "VEC2",
      "componentType": 5123,
      "count": 75,
      "normalized": true,
      "byteOffset": 0,
      "bufferView": 18
    },
    {
      "type": "VEC3",
      "componentType": 5122,
      "count": 74,
      "max": [
        32767,
        26759,
        32767
      ],
      "min": [
        -32767,
        -26759,
        -32767
      ],
      "normalized": true,
      "byteOffset": 0,
      "bufferView": 19
    },
    {
      "type": "VEC3",
      "componentType": 5122,
      "count": 74,
      "normalized": true,
      "byteOffset": 0,
      "bufferView": 20
    },
    {
      "type": "VEC2",
      "componentType": 5123,
      "count": 74,
      "normalized": true,
      "byteOffset": 0,
      "bufferView": 21
    }
  ],
  "bufferViews": [
    {
      "buffer": 1,
      "byteOffset": 0,
      "byteLength": 244,
      "extensions": {
        "EXT_meshopt_compression": {
          "buffer": 0,
          "byteOffset": 0,
          "byteLength": 233,
          "mode": "ATTRIBUTES",
          "byteStride": 4,
          "count": 61
        }
      }
    },
    {
      "buffer": 1,
      "byteOffset": 244,
      "byteLength": 648,
      "extensions": {
        "EXT_meshopt_compression": {
          "buffer": 0,
          "byteOffset": 236,
          "byteLength": 339,
          "mode": "ATTRIBUTES",
          "byteStride": 12,
          "count": 54
        }
      }
    },
    {
      "buffer": 1,
      "byteOffset": 892,
      "byteLength": 2352,
      "extensions": {
        "EXT_meshopt_compression": {
          "buffer": 0,
          "byteOffset": 576,
          "byteLength": 1556,
          "mode": "ATTRIBUTES",
          "byteStride": 16,
          "count": 147
        }
      }
    },
    {
      "buffer": 1,
      "byteOffset": 3244,
      "byteLength": 4056,
      "target": 34963,
      "extensions": {
        "EXT_meshopt_compression": {
          "buffer": 0,
          "byteOffset": 2132,
          "byteLength": 723,
          "mode": "TRIANGLES",
          "byteStride": 2,
          "count": 2028
        }
      }
    },
    {
      "buffer": 1,
      "byteOffset": 7300,
      "byteLength": 600,
      "target": 34962,
      "byteStride": 8,
      "extensions": {
        "EXT_meshopt_compression": {
          "buffer": 0,
          "byteOffset": 2856,
          "byteLength": 480,
          "mode": "ATTRIBUTES",
          "byteStride": 8,
          "count": 75
        }
      }
    },
    {
      "buffer": 1,
      "byteOffset": 7900,
      "byteLength": 600,
      "target": 34962,
      "byteStride": 8,
      "extensions": {
        "EXT_meshopt_compression": {
          "buffer": 0,
          "byteOffset": 3336,
          "byteLength": 465,
          "mode": "ATTRIBUTES",
          "byteStride": 8,
          "count": 75
        }
      }
    },
    {
      "buffer": 1,
      "byteOffset": 8500,
      "byteLength": 300,
      "target": 34962,
      "byteStride": 4,
      "extensions": {
        "EXT_meshopt_compression": {
          "buffer": 0,
          "byteOffset": 3804,
          "byteLength": 167,
          "mode": "ATTRIBUTES",
          "byteStride": 4,
          "count": 75
        }
      }
    },
    {
      "buffer": 1,
      "byteOffset": 8800,
      "byteLength": 6056,
      "target": 34962,
      "byteStride": 8,
      "extensions": {
        "EXT_meshopt_compression": {
          "buffer": 0,
          "byteOffset": 3972,
          "byteLength": 4296,
          "mode": "ATTRIBUTES",
          "byteStride": 8,
          "count": 757
        }
      }
    },
    {
      "buffer": 1,
      "byteOffset": 14856,
      "byteLength": 6056,
      "target": 34962,
      "byteStride": 8,
      "extensions": {
        "EXT_meshopt_compression": {
          "buffer": 0,
          "byteOffset": 8268,
          "byteLength": 3898,
          "mode": "ATTRIBUTES",
          "byteStride": 8,
          "count": 757
        }
      }
    },
    {
      "buffer": 1,
      "byteOffset": 20912,
      "byteLength": 3028,
      "target": 34962,
      "byteStride": 4,
      "extensions": {
        "EXT_meshopt_compression": {
          "buffer": 0,
          "byteOffset": 12168,
          "byteLength": 1479,
          "mode": "ATTRIBUTES",
          "byteStride": 4,
          "count": 757
        }
      }
    },
    {
      "buffer": 1,
      "byteOffset": 23940,
      "byteLength": 920,
      "target": 34962,
      "byteStride": 8,
      "extensions": {
        "EXT_meshopt_compression": {
          "buffer": 0,
          "byteOffset": 13648,
          "byteLength": 717,
          "mode": "ATTRIBUTES",
          "byteStride": 8,
          "count": 115
        }
      }
    },
    {
      "buffer": 1,
      "byteOffset": 24860,
      "byteLength": 920,
      "target": 34962,
      "byteStride": 8,
      "extensions": {
        "EXT_meshopt_compression": {
          "buffer": 0,
          "byteOffset": 14368,
          "byteLength": 737,
          "mode": "ATTRIBUTES",
          "byteStride": 8,
          "count": 115
        }
      }
    },
    {
      "buffer": 1,
      "byteOffset": 25780,
      "byteLength": 460,
      "target": 34962,
      "byteStride": 4,
      "extensions": {
        "EXT_meshopt_compression": {
          "buffer": 0,
          "byteOffset": 15108,
          "byteLength": 269,
          "mode": "ATTRIBUTES",
          "byteStride": 4,
          "count": 115
        }
      }
    },
    {
      "buffer": 1,
      "byteOffset": 26240,
      "byteLength": 592,
      "target": 34962,
      "byteStride": 8,
      "extensions": {
        "EXT_meshopt_compression": {
          "buffer": 0,
          "byteOffset": 15380,
          "byteLength": 472,
          "mode": "ATTRIBUTES",
          "byteStride": 8,
          "count": 74
        }
      }
    },
    {
      "buffer": 1,
      "byteOffset": 26832,
      "byteLength": 592,
      "target": 34962,
      "byteStride": 8,
      "extensions": {
        "EXT_meshopt_compression": {
          "buffer": 0,
          "byteOffset": 15852,
          "byteLength": 474,
          "mode": "ATTRIBUTES",
          "byteStride": 8,
          "count": 74
        }
      }
    },
    {
      "buffer": 1,
      "byteOffset": 27424,
      "byteLength": 296,
      "target": 34962,
      "byteStride": 4,
      "extensions": {
        "EXT_meshopt_compression": {
          "buffer": 0,
          "byteOffset": 16328,
          "byteLength": 167,
          "mode": "ATTRIBUTES",
          "byteStride": 4,
          "count": 74
        }
      }
    },
    {
      "buffer": 1,
      "byteOffset": 27720,
      "byteLength": 600,
      "target": 34962,
      "byteStride": 8,
      "extensions": {
        "EXT_meshopt_compression": {
          "buffer": 0,
          "byteOffset": 16496,
          "byteLength": 492,
          "mode": "ATTRIBUTES",
          "byteStride": 8,
          "count": 75
        }
      }
    },
    {
      "buffer": 1,
      "byteOffset": 28320,
      "byteLength": 600,
      "target": 34962,
      "byteStride": 8,
      "extensions": {
        "EXT_meshopt_compression": {
          "buffer": 0,
          "byteOffset": 16988,
          "byteLength": 492,
          "mode": "ATTRIBUTES",
          "byteStride": 8,
          "count": 75
        }
      }
    },
    {
      "buffer": 1,
      "byteOffset": 28920,
      "byteLength": 300,
      "target": 34962,
      "byteStride": 4,
      "extensions": {
        "EXT_meshopt_compression": {
          "buffer": 0,
          "byteOffset": 17480,
          "byteLength": 177,
          "mode": "ATTRIBUTES",
          "byteStride": 4,
          "count": 75
        }
      }
    },
    {
      "buffer": 1,
      "byteOffset": 29220,
      "byteLength": 592,
      "target": 34962,
      "byteStride": 8,
      "extensions": {
        "EXT_meshopt_compression": {
          "buffer": 0,
          "byteOffset": 17660,
          "byteLength": 490,
          "mode": "ATTRIBUTES",
          "byteStride": 8,
          "count": 74
        }
      }
    },
    {
      "buffer": 1,
      "byteOffset": 29812,
      "byteLength": 592,
      "target": 34962,
      "byteStride": 8,
      "extensions": {
        "EXT_meshopt_compression": {
          "buffer": 0,
          "byteOffset": 18152,
          "byteLength": 484,
          "mode": "ATTRIBUTES",
          "byteStride": 8,
          "count": 74
        }
      }
    },
    {
      "buffer": 1,
      "byteOffset": 30404,
      "byteLength": 296,
      "target": 34962,
      "byteStride": 4,
      "extensions": {
        "EXT_meshopt_compression": {
          "buffer": 0,
          "byteOffset": 18636,
          "byteLength": 179,
          "mode": "ATTRIBUTES",
          "byteStride": 4,
          "count": 74
        }
      }
    }
  ],
  "samplers": [
    {
      "minFilter": 9987,
      "wrapS": 10497,
      "wrapT": 10497
    }
  ],
  "textures": [
    {
      "source": 0,
      "sampler": 0
    }
  ],
  "images": [
    {
      "name": "colormap",
      "mimeType": "image/png",
      "uri": "Textures/colormap.png"
    }
  ],
  "buffers": [
    {
      "uri": "animal-crab.bin",
      "byteLength": 18816
    },
    {
      "byteLength": 30700,
      "extensions": {
        "EXT_meshopt_compression": {
          "fallback": true
        }
      }
    }
  ],
  "materials": [
    {
      "name": "colormap",
      "doubleSided": true,
      "pbrMetallicRoughness": {
        "metallicFactor": 0,
        "baseColorTexture": {
          "index": 0,
          "extensions": {
            "KHR_texture_transform": {
              "texCoord": 0
            }
          }
        }
      }
    }
  ],
  "meshes": [
    {
      "name": "leg-back-left",
      "primitives": [
        {
          "attributes": {
            "POSITION": 36,
            "NORMAL": 37,
            "TEXCOORD_0": 38
          },
          "mode": 4,
          "material": 0,
          "indices": 30
        }
      ]
    },
    {
      "name": "body",
      "primitives": [
        {
          "attributes": {
            "POSITION": 39,
            "NORMAL": 40,
            "TEXCOORD_0": 41
          },
          "mode": 4,
          "material": 0,
          "indices": 31
        }
      ]
    },
    {
      "name": "Group",
      "primitives": [
        {
          "attributes": {
            "POSITION": 42,
            "NORMAL": 43,
            "TEXCOORD_0": 44
          },
          "mode": 4,
          "material": 0,
          "indices": 32
        }
      ]
    },
    {
      "name": "leg-front-left",
      "primitives": [
        {
          "attributes": {
            "POSITION": 45,
            "NORMAL": 46,
            "TEXCOORD_0": 47
          },
          "mode": 4,
          "material": 0,
          "indices": 33
        }
      ]
    },
    {
      "name": "leg-back-right",
      "primitives": [
        {
          "attributes": {
            "POSITION": 48,
            "NORMAL": 49,
            "TEXCOORD_0": 50
          },
          "mode": 4,
          "material": 0,
          "indices": 34
        }
      ]
    },
    {
      "name": "leg-front-right",
      "primitives": [
        {
          "attributes": {
            "POSITION": 51,
            "NORMAL": 52,
            "TEXCOORD_0": 53
          },
          "mode": 4,
          "material": 0,
          "indices": 35
        }
      ]
    }
  ],
  "nodes": [
    {
      "name": "animal-crab",
      "children": [
        1
      ]
    },
    {
      "name": "root",
      "children": [
        2,
        3,
        5,
        6,
        7
      ]
    },
    {
      "name": "leg-back-left",
      "translation": [
        0.25,
        0.3,
        -0.25
      ],
      "children": [
        8
      ]
    },
    {
      "name": "body",
      "translation": [
        1.573182e-8,
        0.181249976,
        -3.80835026e-8
      ],
      "children": [
        4,
        9
      ]
    },
    {
      "name": "Group",
      "translation": [
        0.625,
        0,
        -0.625
      ],
      "children": [
        10
      ]
    },
    {
      "name": "leg-front-left",
      "translation": [
        0.25,
        0.3,
        0.25
      ],
      "children": [
        11
      ]
    },
    {
      "name": "leg-back-right",
      "translation": [
        -0.25,
        0.3,
        -0.25
      ],
      "children": [
        12
      ]
    },
    {
      "name": "leg-front-right",
      "translation": [
        -0.25,
        0.3,
        0.25
      ],
      "children": [
        13
      ]
    },
    {
      "translation": [
        0,
        -0.14687500894069672,
        0
      ],
      "scale": [
        0.18750004470348358,
        0.18750004470348358,
        0.18750004470348358
      ],
      "mesh": 0
    },
    {
      "translation": [
        0,
        0.5965328514575958,
        -1.4901161193847656e-7
      ],
      "scale": [
        1.1678905487060547,
        1.1678905487060547,
        1.1678905487060547
      ],
      "mesh": 1
    },
    {
      "translation": [
        -0.625,
        0.625,
        0.625
      ],
      "scale": [
        0.625,
        0.625,
        0.625
      ],
      "mesh": 2
    },
    {
      "translation": [
        0,
        -0.14687500894069672,
        0
      ],
      "scale": [
        0.18750004470348358,
        0.18750004470348358,
        0.18750004470348358
      ],
      "mesh": 3
    },
    {
      "translation": [
        0,
        -0.14687500894069672,
        0
      ],
      "scale": [
        0.18750004470348358,
        0.18750004470348358,
        0.18750004470348358
      ],
      "mesh": 4
    },
    {
      "translation": [
        0,
        -0.14687500894069672,
        0
      ],
      "scale": [
        0.18750004470348358,
        0.18750004470348358,
        0.18750004470348358
      ],
      "mesh": 5
    }
  ],
  "animations": [
    {
      "name": "static",
      "samplers": [
        {
          "input": 0,
          "output": 1,
          "interpolation": "LINEAR"
        },
        {
          "input": 0,
          "output": 2,
          "interpolation": "LINEAR"
        },
        {
          "input": 0,
          "output": 3,
          "interpolation": "LINEAR"
        },
        {
          "input": 0,
          "output": 4,
          "interpolation": "LINEAR"
        },
        {
          "input": 0,
          "output": 2,
          "interpolation": "LINEAR"
        },
        {
          "input": 0,
          "output": 3,
          "interpolation": "LINEAR"
        },
        {
          "input": 0,
          "output": 5,
          "interpolation": "LINEAR"
        },
        {
          "input": 0,
          "output": 2,
          "interpolation": "LINEAR"
        },
        {
          "input": 0,
          "output": 3,
          "interpolation": "LINEAR"
        },
        {
          "input": 0,
          "output": 6,
          "interpolation": "LINEAR"
        },
        {
          "input": 0,
          "output": 2,
          "interpolation": "LINEAR"
        },
        {
          "input": 0,
          "output": 3,
          "interpolation": "LINEAR"
        },
        {
          "input": 0,
          "output": 7,
          "interpolation": "LINEAR"
        },
        {
          "input": 0,
          "output": 2,
          "interpolation": "LINEAR"
        },
        {
          "input": 0,
          "output": 3,
          "interpolation": "LINEAR"
        },
        {
          "input": 0,
          "output": 8,
          "interpolation": "LINEAR"
        },
        {
          "input": 0,
          "output": 2,
          "interpolation": "LINEAR"
        },
        {
          "input": 0,
          "output": 3,
          "interpolation": "LINEAR"
        },
        {
          "input": 0,
          "output": 9,
          "interpolation": "LINEAR"
        },
        {
          "input": 0,
          "output": 2,
          "interpolation": "LINEAR"
        },
        {
          "input": 0,
          "output": 3,
          "interpolation": "LINEAR"
        }
      ],
      "channels": [
        {
          "sampler": 0,
          "target": {
            "node": 1,
            "path": "translation"
          }
        },
        {
          "sampler": 1,
          "target": {
            "node": 1,
            "path": "rotation"
          }
        },
        {
          "sampler": 2,
          "target": {
            "node": 1,
            "path": "scale"
          }
        },
        {
          "sampler": 3,
          "target": {
            "node": 2,
            "path": "translation"
          }
        },
        {
          "sampler": 4,
          "target": {
            "node": 2,
            "path": "rotation"
          }
        },
        {
          "sampler": 5,
          "target": {
            "node": 2,
            "path": "scale"
          }
        },
        {
          "sampler": 6,
          "target": {
            "node": 3,
            "path": "translation"
          }
        },
        {
          "sampler": 7,
          "target": {
            "node": 3,
            "path": "rotation"
          }
        },
        {
          "sampler": 8,
          "target": {
            "node": 3,
            "path": "scale"
          }
        },
        {
          "sampler": 9,
          "target": {
            "node": 4,
            "path": "translation"
          }
        },
        {
          "sampler": 10,
          "target": {
            "node": 4,
            "path": "rotation"
          }
        },
        {
          "sampler": 11,
          "target": {
            "node": 4,
            "path": "scale"
          }
        },
        {
          "sampler": 12,
          "target": {
            "node": 5,
            "path": "translation"
          }
        },
        {
          "sampler": 13,
          "target": {
            "node": 5,
            "path": "rotation"
          }
        },
        {
          "sampler": 14,
          "target": {
            "node": 5,
            "path": "scale"
          }
        },
        {
          "sampler": 15,
          "target": {
            "node": 6,
            "path": "translation"
          }
        },
        {
          "sampler": 16,
          "target": {
            "node": 6,
            "path": "rotation"
          }
        },
        {
          "sampler": 17,
          "target": {
            "node": 6,
            "path": "scale"
          }
        },
        {
          "sampler": 18,
          "target": {
            "node": 7,
            "path": "translation"
          }
        },
        {
          "sampler": 19,
          "target": {
            "node": 7,
            "path": "rotation"
          }
        },
        {
          "sampler": 20,
          "target": {
            "node": 7,
            "path": "scale"
          }
        }
      ]
    },
    {
      "name": "idle",
      "samplers": [
        {
          "input": 10,
          "output": 1,
          "interpolation": "LINEAR"
        },
        {
          "input": 10,
          "output": 2,
          "interpolation": "LINEAR"
        },
        {
          "input": 10,
          "output": 3,
          "interpolation": "LINEAR"
        },
        {
          "input": 10,
          "output": 4,
          "interpolation": "LINEAR"
        },
        {
          "input": 10,
          "output": 2,
          "interpolation": "LINEAR"
        },
        {
          "input": 10,
          "output": 3,
          "interpolation": "LINEAR"
        },
        {
          "input": 10,
          "output": 5,
          "interpolation": "LINEAR"
        },
        {
          "input": 11,
          "output": 12,
          "interpolation": "LINEAR"
        },
        {
          "input": 10,
          "output": 3,
          "interpolation": "LINEAR"
        },
        {
          "input": 10,
          "output": 6,
          "interpolation": "LINEAR"
        },
        {
          "input": 10,
          "output": 2,
          "interpolation": "LINEAR"
        },
        {
          "input": 10,
          "output": 3,
          "interpolation": "LINEAR"
        },
        {
          "input": 10,
          "output": 7,
          "interpolation": "LINEAR"
        },
        {
          "input": 10,
          "output": 2,
          "interpolation": "LINEAR"
        },
        {
          "input": 10,
          "output": 3,
          "interpolation": "LINEAR"
        },
        {
          "input": 10,
          "output": 8,
          "interpolation": "LINEAR"
        },
        {
          "input": 10,
          "output": 2,
          "interpolation": "LINEAR"
        },
        {
          "input": 10,
          "output": 3,
          "interpolation": "LINEAR"
        },
        {
          "input": 10,
          "output": 9,
          "interpolation": "LINEAR"
        },
        {
          "input": 10,
          "output": 2,
          "interpolation": "LINEAR"
        },
        {
          "input": 10,
          "output": 3,
          "interpolation": "LINEAR"
        }
      ],
      "channels": [
        {
          "sampler": 0,
          "target": {
            "node": 1,
            "path": "translation"
          }
        },
        {
          "sampler": 1,
          "target": {
            "node": 1,
            "path": "rotation"
          }
        },
        {
          "sampler": 2,
          "target": {
            "node": 1,
            "path": "scale"
          }
        },
        {
          "sampler": 3,
          "target": {
            "node": 2,
            "path": "translation"
          }
        },
        {
          "sampler": 4,
          "target": {
            "node": 2,
            "path": "rotation"
          }
        },
        {
          "sampler": 5,
          "target": {
            "node": 2,
            "path": "scale"
          }
        },
        {
          "sampler": 6,
          "target": {
            "node": 3,
            "path": "translation"
          }
        },
        {
          "sampler": 7,
          "target": {
            "node": 3,
            "path": "rotation"
          }
        },
        {
          "sampler": 8,
          "target": {
            "node": 3,
            "path": "scale"
          }
        },
        {
          "sampler": 9,
          "target": {
            "node": 4,
            "path": "translation"
          }
        },
        {
          "sampler": 10,
          "target": {
            "node": 4,
            "path": "rotation"
          }
        },
        {
          "sampler": 11,
          "target": {
            "node": 4,
            "path": "scale"
          }
        },
        {
          "sampler": 12,
          "target": {
            "node": 5,
            "path": "translation"
          }
        },
        {
          "sampler": 13,
          "target": {
            "node": 5,
            "path": "rotation"
          }
        },
        {
          "sampler": 14,
          "target": {
            "node": 5,
            "path": "scale"
          }
        },
        {
          "sampler": 15,
          "target": {
            "node": 6,
            "path": "translation"
          }
        },
        {
          "sampler": 16,
          "target": {
            "node": 6,
            "path": "rotation"
          }
        },
        {
          "sampler": 17,
          "target": {
            "node": 6,
            "path": "scale"
          }
        },
        {
          "sampler": 18,
          "target": {
            "node": 7,
            "path": "translation"
          }
        },
        {
          "sampler": 19,
          "target": {
            "node": 7,
            "path": "rotation"
          }
        },
        {
          "sampler": 20,
          "target": {
            "node": 7,
            "path": "scale"
          }
        }
      ]
    },
    {
      "name": "walk",
      "samplers": [
        {
          "input": 13,
          "output": 14,
          "interpolation": "LINEAR"
        },
        {
          "input": 15,
          "output": 2,
          "interpolation": "LINEAR"
        },
        {
          "input": 15,
          "output": 3,
          "interpolation": "LINEAR"
        },
        {
          "input": 15,
          "output": 4,
          "interpolation": "LINEAR"
        },
        {
          "input": 13,
          "output": 16,
          "interpolation": "LINEAR"
        },
        {
          "input": 15,
          "output": 3,
          "interpolation": "LINEAR"
        },
        {
          "input": 15,
          "output": 5,
          "interpolation": "LINEAR"
        },
        {
          "input": 13,
          "output": 17,
          "interpolation": "LINEAR"
        },
        {
          "input": 15,
          "output": 3,
          "interpolation": "LINEAR"
        },
        {
          "input": 15,
          "output": 6,
          "interpolation": "LINEAR"
        },
        {
          "input": 15,
          "output": 2,
          "interpolation": "LINEAR"
        },
        {
          "input": 15,
          "output": 3,
          "interpolation": "LINEAR"
        },
        {
          "input": 15,
          "output": 7,
          "interpolation": "LINEAR"
        },
        {
          "input": 13,
          "output": 18,
          "interpolation": "LINEAR"
        },
        {
          "input": 15,
          "output": 3,
          "interpolation": "LINEAR"
        },
        {
          "input": 15,
          "output": 8,
          "interpolation": "LINEAR"
        },
        {
          "input": 13,
          "output": 18,
          "interpolation": "LINEAR"
        },
        {
          "input": 15,
          "output": 3,
          "interpolation": "LINEAR"
        },
        {
          "input": 15,
          "output": 9,
          "interpolation": "LINEAR"
        },
        {
          "input": 13,
          "output": 16,
          "interpolation": "LINEAR"
        },
        {
          "input": 15,
          "output": 3,
          "interpolation": "LINEAR"
        }
      ],
      "channels": [
        {
          "sampler": 0,
          "target": {
            "node": 1,
            "path": "translation"
          }
        },
        {
          "sampler": 1,
          "target": {
            "node": 1,
            "path": "rotation"
          }
        },
        {
          "sampler": 2,
          "target": {
            "node": 1,
            "path": "scale"
          }
        },
        {
          "sampler": 3,
          "target": {
            "node": 2,
            "path": "translation"
          }
        },
        {
          "sampler": 4,
          "target": {
            "node": 2,
            "path": "rotation"
          }
        },
        {
          "sampler": 5,
          "target": {
            "node": 2,
            "path": "scale"
          }
        },
        {
          "sampler": 6,
          "target": {
            "node": 3,
            "path": "translation"
          }
        },
        {
          "sampler": 7,
          "target": {
            "node": 3,
            "path": "rotation"
          }
        },
        {
          "sampler": 8,
          "target": {
            "node": 3,
            "path": "scale"
          }
        },
        {
          "sampler": 9,
          "target": {
            "node": 4,
            "path": "translation"
          }
        },
        {
          "sampler": 10,
          "target": {
            "node": 4,
            "path": "rotation"
          }
        },
        {
          "sampler": 11,
          "target": {
            "node": 4,
            "path": "scale"
          }
        },
        {
          "sampler": 12,
          "target": {
            "node": 5,
            "path": "translation"
          }
        },
        {
          "sampler": 13,
          "target": {
            "node": 5,
            "path": "rotation"
          }
        },
        {
          "sampler": 14,
          "target": {
            "node": 5,
            "path": "scale"
          }
        },
        {
          "sampler": 15,
          "target": {
            "node": 6,
            "path": "translation"
          }
        },
        {
          "sampler": 16,
          "target": {
            "node": 6,
            "path": "rotation"
          }
        },
        {
          "sampler": 17,
          "target": {
            "node": 6,
            "path": "scale"
          }
        },
        {
          "sampler": 18,
          "target": {
            "node": 7,
            "path": "translation"
          }
        },
        {
          "sampler": 19,
          "target": {
            "node": 7,
            "path": "rotation"
          }
        },
        {
          "sampler": 20,
          "target": {
            "node": 7,
            "path": "scale"
          }
        }
      ]
    },
    {
      "name": "run",
      "samplers": [
        {
          "input": 19,
          "output": 20,
          "interpolation": "LINEAR"
        },
        {
          "input": 21,
          "output": 2,
          "interpolation": "LINEAR"
        },
        {
          "input": 21,
          "output": 3,
          "interpolation": "LINEAR"
        },
        {
          "input": 21,
          "output": 4,
          "interpolation": "LINEAR"
        },
        {
          "input": 19,
          "output": 22,
          "interpolation": "LINEAR"
        },
        {
          "input": 21,
          "output": 3,
          "interpolation": "LINEAR"
        },
        {
          "input": 21,
          "output": 5,
          "interpolation": "LINEAR"
        },
        {
          "input": 19,
          "output": 23,
          "interpolation": "LINEAR"
        },
        {
          "input": 21,
          "output": 3,
          "interpolation": "LINEAR"
        },
        {
          "input": 21,
          "output": 6,
          "interpolation": "LINEAR"
        },
        {
          "input": 21,
          "output": 2,
          "interpolation": "LINEAR"
        },
        {
          "input": 21,
          "output": 3,
          "interpolation": "LINEAR"
        },
        {
          "input": 21,
          "output": 7,
          "interpolation": "LINEAR"
        },
        {
          "input": 19,
          "output": 24,
          "interpolation": "LINEAR"
        },
        {
          "input": 21,
          "output": 3,
          "interpolation": "LINEAR"
        },
        {
          "input": 21,
          "output": 8,
          "interpolation": "LINEAR"
        },
        {
          "input": 19,
          "output": 22,
          "interpolation": "LINEAR"
        },
        {
          "input": 21,
          "output": 3,
          "interpolation": "LINEAR"
        },
        {
          "input": 21,
          "output": 9,
          "interpolation": "LINEAR"
        },
        {
          "input": 19,
          "output": 24,
          "interpolation": "LINEAR"
        },
        {
          "input": 21,
          "output": 3,
          "interpolation": "LINEAR"
        }
      ],
      "channels": [
        {
          "sampler": 0,
          "target": {
            "node": 1,
            "path": "translation"
          }
        },
        {
          "sampler": 1,
          "target": {
            "node": 1,
            "path": "rotation"
          }
        },
        {
          "sampler": 2,
          "target": {
            "node": 1,
            "path": "scale"
          }
        },
        {
          "sampler": 3,
          "target": {
            "node": 2,
            "path": "translation"
          }
        },
        {
          "sampler": 4,
          "target": {
            "node": 2,
            "path": "rotation"
          }
        },
        {
          "sampler": 5,
          "target": {
            "node": 2,
            "path": "scale"
          }
        },
        {
          "sampler": 6,
          "target": {
            "node": 3,
            "path": "translation"
          }
        },
        {
          "sampler": 7,
          "target": {
            "node": 3,
            "path": "rotation"
          }
        },
        {
          "sampler": 8,
          "target": {
            "node": 3,
            "path": "scale"
          }
        },
        {
          "sampler": 9,
          "target": {
            "node": 4,
            "path": "translation"
          }
        },
        {
          "sampler": 10,
          "target": {
            "node": 4,
            "path": "rotation"
          }
        },
        {
          "sampler": 11,
          "target": {
            "node": 4,
            "path": "scale"
          }
        },
        {
          "sampler": 12,
          "target": {
            "node": 5,
            "path": "translation"
          }
        },
        {
          "sampler": 13,
          "target": {
            "node": 5,
            "path": "rotation"
          }
        },
        {
          "sampler": 14,
          "target": {
            "node": 5,
            "path": "scale"
          }
        },
        {
          "sampler": 15,
          "target": {
            "node": 6,
            "path": "translation"
          }
        },
        {
          "sampler": 16,
          "target": {
            "node": 6,
            "path": "rotation"
          }
        },
        {
          "sampler": 17,
          "target": {
            "node": 6,
            "path": "scale"
          }
        },
        {
          "sampler": 18,
          "target": {
            "node": 7,
            "path": "translation"
          }
        },
        {
          "sampler": 19,
          "target": {
            "node": 7,
            "path": "rotation"
          }
        },
        {
          "sampler": 20,
          "target": {
            "node": 7,
            "path": "scale"
          }
        }
      ]
    },
    {
      "name": "eat",
      "samplers": [
        {
          "input": 15,
          "output": 1,
          "interpolation": "LINEAR"
        },
        {
          "input": 15,
          "output": 2,
          "interpolation": "LINEAR"
        },
        {
          "input": 15,
          "output": 3,
          "interpolation": "LINEAR"
        },
        {
          "input": 15,
          "output": 4,
          "interpolation": "LINEAR"
        },
        {
          "input": 15,
          "output": 2,
          "interpolation": "LINEAR"
        },
        {
          "input": 15,
          "output": 3,
          "interpolation": "LINEAR"
        },
        {
          "input": 15,
          "output": 5,
          "interpolation": "LINEAR"
        },
        {
          "input": 13,
          "output": 25,
          "interpolation": "LINEAR"
        },
        {
          "input": 15,
          "output": 3,
          "interpolation": "LINEAR"
        },
        {
          "input": 15,
          "output": 6,
          "interpolation": "LINEAR"
        },
        {
          "input": 15,
          "output": 2,
          "interpolation": "LINEAR"
        },
        {
          "input": 15,
          "output": 3,
          "interpolation": "LINEAR"
        },
        {
          "input": 15,
          "output": 7,
          "interpolation": "LINEAR"
        },
        {
          "input": 15,
          "output": 2,
          "interpolation": "LINEAR"
        },
        {
          "input": 15,
          "output": 3,
          "interpolation": "LINEAR"
        },
        {
          "input": 15,
          "output": 8,
          "interpolation": "LINEAR"
        },
        {
          "input": 15,
          "output": 2,
          "interpolation": "LINEAR"
        },
        {
          "input": 15,
          "output": 3,
          "interpolation": "LINEAR"
        },
        {
          "input": 15,
          "output": 9,
          "interpolation": "LINEAR"
        },
        {
          "input": 15,
          "output": 2,
          "interpolation": "LINEAR"
        },
        {
          "input": 15,
          "output": 3,
          "interpolation": "LINEAR"
        }
      ],
      "channels": [
        {
          "sampler": 0,
          "target": {
            "node": 1,
            "path": "translation"
          }
        },
        {
          "sampler": 1,
          "target": {
            "node": 1,
            "path": "rotation"
          }
        },
        {
          "sampler": 2,
          "target": {
            "node": 1,
            "path": "scale"
          }
        },
        {
          "sampler": 3,
          "target": {
            "node": 2,
            "path": "translation"
          }
        },
        {
          "sampler": 4,
          "target": {
            "node": 2,
            "path": "rotation"
          }
        },
        {
          "sampler": 5,
          "target": {
            "node": 2,
            "path": "scale"
          }
        },
        {
          "sampler": 6,
          "target": {
            "node": 3,
            "path": "translation"
          }
        },
        {
          "sampler": 7,
          "target": {
            "node": 3,
            "path": "rotation"
          }
        },
        {
          "sampler": 8,
          "target": {
            "node": 3,
            "path": "scale"
          }
        },
        {
          "sampler": 9,
          "target": {
            "node": 4,
            "path": "translation"
          }
        },
        {
          "sampler": 10,
          "target": {
            "node": 4,
            "path": "rotation"
          }
        },
        {
          "sampler": 11,
          "target": {
            "node": 4,
            "path": "scale"
          }
        },
        {
          "sampler": 12,
          "target": {
            "node": 5,
            "path": "translation"
          }
        },
        {
          "sampler": 13,
          "target": {
            "node": 5,
            "path": "rotation"
          }
        },
        {
          "sampler": 14,
          "target": {
            "node": 5,
            "path": "scale"
          }
        },
        {
          "sampler": 15,
          "target": {
            "node": 6,
            "path": "translation"
          }
        },
        {
          "sampler": 16,
          "target": {
            "node": 6,
            "path": "rotation"
          }
        },
        {
          "sampler": 17,
          "target": {
            "node": 6,
            "path": "scale"
          }
        },
        {
          "sampler": 18,
          "target": {
            "node": 7,
            "path": "translation"
          }
        },
        {
          "sampler": 19,
          "target": {
            "node": 7,
            "path": "rotation"
          }
        },
        {
          "sampler": 20,
          "target": {
            "node": 7,
            "path": "scale"
          }
        }
      ]
    },
    {
      "name": "dance",
      "samplers": [
        {
          "input": 15,
          "output": 1,
          "interpolation": "LINEAR"
        },
        {
          "input": 15,
          "output": 2,
          "interpolation": "LINEAR"
        },
        {
          "input": 15,
          "output": 3,
          "interpolation": "LINEAR"
        },
        {
          "input": 15,
          "output": 4,
          "interpolation": "LINEAR"
        },
        {
          "input": 15,
          "output": 2,
          "interpolation": "LINEAR"
        },
        {
          "input": 15,
          "output": 3,
          "interpolation": "LINEAR"
        },
        {
          "input": 13,
          "output": 26,
          "interpolation": "LINEAR"
        },
        {
          "input": 13,
          "output": 27,
          "interpolation": "LINEAR"
        },
        {
          "input": 15,
          "output": 3,
          "interpolation": "LINEAR"
        },
        {
          "input": 15,
          "output": 6,
          "interpolation": "LINEAR"
        },
        {
          "input": 15,
          "output": 2,
          "interpolation": "LINEAR"
        },
        {
          "input": 15,
          "output": 3,
          "interpolation": "LINEAR"
        },
        {
          "input": 15,
          "output": 7,
          "interpolation": "LINEAR"
        },
        {
          "input": 15,
          "output": 2,
          "interpolation": "LINEAR"
        },
        {
          "input": 15,
          "output": 3,
          "interpolation": "LINEAR"
        },
        {
          "input": 15,
          "output": 8,
          "interpolation": "LINEAR"
        },
        {
          "input": 15,
          "output": 2,
          "interpolation": "LINEAR"
        },
        {
          "input": 15,
          "output": 3,
          "interpolation": "LINEAR"
        },
        {
          "input": 15,
          "output": 9,
          "interpolation": "LINEAR"
        },
        {
          "input": 15,
          "output": 2,
          "interpolation": "LINEAR"
        },
        {
          "input": 15,
          "output": 3,
          "interpolation": "LINEAR"
        }
      ],
      "channels": [
        {
          "sampler": 0,
          "target": {
            "node": 1,
            "path": "translation"
          }
        },
        {
          "sampler": 1,
          "target": {
            "node": 1,
            "path": "rotation"
          }
        },
        {
          "sampler": 2,
          "target": {
            "node": 1,
            "path": "scale"
          }
        },
        {
          "sampler": 3,
          "target": {
            "node": 2,
            "path": "translation"
          }
        },
        {
          "sampler": 4,
          "target": {
            "node": 2,
            "path": "rotation"
          }
        },
        {
          "sampler": 5,
          "target": {
            "node": 2,
            "path": "scale"
          }
        },
        {
          "sampler": 6,
          "target": {
            "node": 3,
            "path": "translation"
          }
        },
        {
          "sampler": 7,
          "target": {
            "node": 3,
            "path": "rotation"
          }
        },
        {
          "sampler": 8,
          "target": {
            "node": 3,
            "path": "scale"
          }
        },
        {
          "sampler": 9,
          "target": {
            "node": 4,
            "path": "translation"
          }
        },
        {
          "sampler": 10,
          "target": {
            "node": 4,
            "path": "rotation"
          }
        },
        {
          "sampler": 11,
          "target": {
            "node": 4,
            "path": "scale"
          }
        },
        {
          "sampler": 12,
          "target": {
            "node": 5,
            "path": "translation"
          }
        },
        {
          "sampler": 13,
          "target": {
            "node": 5,
            "path": "rotation"
          }
        },
        {
          "sampler": 14,
          "target": {
            "node": 5,
            "path": "scale"
          }
        },
        {
          "sampler": 15,
          "target": {
            "node": 6,
            "path": "translation"
          }
        },
        {
          "sampler": 16,
          "target": {
            "node": 6,
            "path": "rotation"
          }
        },
        {
          "sampler": 17,
          "target": {
            "node": 6,
            "path": "scale"
          }
        },
        {
          "sampler": 18,
          "target": {
            "node": 7,
            "path": "translation"
          }
        },
        {
          "sampler": 19,
          "target": {
            "node": 7,
            "path": "rotation"
          }
        },
        {
          "sampler": 20,
          "target": {
            "node": 7,
            "path": "scale"
          }
        }
      ]
    },
    {
      "name": "gesture-positive",
      "samplers": [
        {
          "input": 21,
          "output": 1,
          "interpolation": "LINEAR"
        },
        {
          "input": 21,
          "output": 2,
          "interpolation": "LINEAR"
        },
        {
          "input": 21,
          "output": 3,
          "interpolation": "LINEAR"
        },
        {
          "input": 21,
          "output": 4,
          "interpolation": "LINEAR"
        },
        {
          "input": 21,
          "output": 2,
          "interpolation": "LINEAR"
        },
        {
          "input": 21,
          "output": 3,
          "interpolation": "LINEAR"
        },
        {
          "input": 21,
          "output": 5,
          "interpolation": "LINEAR"
        },
        {
          "input": 19,
          "output": 28,
          "interpolation": "LINEAR"
        },
        {
          "input": 21,
          "output": 3,
          "interpolation": "LINEAR"
        },
        {
          "input": 21,
          "output": 6,
          "interpolation": "LINEAR"
        },
        {
          "input": 21,
          "output": 2,
          "interpolation": "LINEAR"
        },
        {
          "input": 21,
          "output": 3,
          "interpolation": "LINEAR"
        },
        {
          "input": 21,
          "output": 7,
          "interpolation": "LINEAR"
        },
        {
          "input": 21,
          "output": 2,
          "interpolation": "LINEAR"
        },
        {
          "input": 21,
          "output": 3,
          "interpolation": "LINEAR"
        },
        {
          "input": 21,
          "output": 8,
          "interpolation": "LINEAR"
        },
        {
          "input": 21,
          "output": 2,
          "interpolation": "LINEAR"
        },
        {
          "input": 21,
          "output": 3,
          "interpolation": "LINEAR"
        },
        {
          "input": 21,
          "output": 9,
          "interpolation": "LINEAR"
        },
        {
          "input": 21,
          "output": 2,
          "interpolation": "LINEAR"
        },
        {
          "input": 21,
          "output": 3,
          "interpolation": "LINEAR"
        }
      ],
      "channels": [
        {
          "sampler": 0,
          "target": {
            "node": 1,
            "path": "translation"
          }
        },
        {
          "sampler": 1,
          "target": {
            "node": 1,
            "path": "rotation"
          }
        },
        {
          "sampler": 2,
          "target": {
            "node": 1,
            "path": "scale"
          }
        },
        {
          "sampler": 3,
          "target": {
            "node": 2,
            "path": "translation"
          }
        },
        {
          "sampler": 4,
          "target": {
            "node": 2,
            "path": "rotation"
          }
        },
        {
          "sampler": 5,
          "target": {
            "node": 2,
            "path": "scale"
          }
        },
        {
          "sampler": 6,
          "target": {
            "node": 3,
            "path": "translation"
          }
        },
        {
          "sampler": 7,
          "target": {
            "node": 3,
            "path": "rotation"
          }
        },
        {
          "sampler": 8,
          "target": {
            "node": 3,
            "path": "scale"
          }
        },
        {
          "sampler": 9,
          "target": {
            "node": 4,
            "path": "translation"
          }
        },
        {
          "sampler": 10,
          "target": {
            "node": 4,
            "path": "rotation"
          }
        },
        {
          "sampler": 11,
          "target": {
            "node": 4,
            "path": "scale"
          }
        },
        {
          "sampler": 12,
          "target": {
            "node": 5,
            "path": "translation"
          }
        },
        {
          "sampler": 13,
          "target": {
            "node": 5,
            "path": "rotation"
          }
        },
        {
          "sampler": 14,
          "target": {
            "node": 5,
            "path": "scale"
          }
        },
        {
          "sampler": 15,
          "target": {
            "node": 6,
            "path": "translation"
          }
        },
        {
          "sampler": 16,
          "target": {
            "node": 6,
            "path": "rotation"
          }
        },
        {
          "sampler": 17,
          "target": {
            "node": 6,
            "path": "scale"
          }
        },
        {
          "sampler": 18,
          "target": {
            "node": 7,
            "path": "translation"
          }
        },
        {
          "sampler": 19,
          "target": {
            "node": 7,
            "path": "rotation"
          }
        },
        {
          "sampler": 20,
          "target": {
            "node": 7,
            "path": "scale"
          }
        }
      ]
    },
    {
      "name": "gesture-negative",
      "samplers": [
        {
          "input": 21,
          "output": 1,
          "interpolation": "LINEAR"
        },
        {
          "input": 21,
          "output": 2,
          "interpolation": "LINEAR"
        },
        {
          "input": 21,
          "output": 3,
          "interpolation": "LINEAR"
        },
        {
          "input": 21,
          "output": 4,
          "interpolation": "LINEAR"
        },
        {
          "input": 21,
          "output": 2,
          "interpolation": "LINEAR"
        },
        {
          "input": 21,
          "output": 3,
          "interpolation": "LINEAR"
        },
        {
          "input": 21,
          "output": 5,
          "interpolation": "LINEAR"
        },
        {
          "input": 19,
          "output": 29,
          "interpolation": "LINEAR"
        },
        {
          "input": 21,
          "output": 3,
          "interpolation": "LINEAR"
        },
        {
          "input": 21,
          "output": 6,
          "interpolation": "LINEAR"
        },
        {
          "input": 21,
          "output": 2,
          "interpolation": "LINEAR"
        },
        {
          "input": 21,
          "output": 3,
          "interpolation": "LINEAR"
        },
        {
          "input": 21,
          "output": 7,
          "interpolation": "LINEAR"
        },
        {
          "input": 21,
          "output": 2,
          "interpolation": "LINEAR"
        },
        {
          "input": 21,
          "output": 3,
          "interpolation": "LINEAR"
        },
        {
          "input": 21,
          "output": 8,
          "interpolation": "LINEAR"
        },
        {
          "input": 21,
          "output": 2,
          "interpolation": "LINEAR"
        },
        {
          "input": 21,
          "output": 3,
          "interpolation": "LINEAR"
        },
        {
          "input": 21,
          "output": 9,
          "interpolation": "LINEAR"
        },
        {
          "input": 21,
          "output": 2,
          "interpolation": "LINEAR"
        },
        {
          "input": 21,
          "output": 3,
          "interpolation": "LINEAR"
        }
      ],
      "channels": [
        {
          "sampler": 0,
          "target": {
            "node": 1,
            "path": "translation"
          }
        },
        {
          "sampler": 1,
          "target": {
            "node": 1,
            "path": "rotation"
          }
        },
        {
          "sampler": 2,
          "target": {
            "node": 1,
            "path": "scale"
          }
        },
        {
          "sampler": 3,
          "target": {
            "node": 2,
            "path": "translation"
          }
        },
        {
          "sampler": 4,
          "target": {
            "node": 2,
            "path": "rotation"
          }
        },
        {
          "sampler": 5,
          "target": {
            "node": 2,
            "path": "scale"
          }
        },
        {
          "sampler": 6,
          "target": {
            "node": 3,
            "path": "translation"
          }
        },
        {
          "sampler": 7,
          "target": {
            "node": 3,
            "path": "rotation"
          }
        },
        {
          "sampler": 8,
          "target": {
            "node": 3,
            "path": "scale"
          }
        },
        {
          "sampler": 9,
          "target": {
            "node": 4,
            "path": "translation"
          }
        },
        {
          "sampler": 10,
          "target": {
            "node": 4,
            "path": "rotation"
          }
        },
        {
          "sampler": 11,
          "target": {
            "node": 4,
            "path": "scale"
          }
        },
        {
          "sampler": 12,
          "target": {
            "node": 5,
            "path": "translation"
          }
        },
        {
          "sampler": 13,
          "target": {
            "node": 5,
            "path": "rotation"
          }
        },
        {
          "sampler": 14,
          "target": {
            "node": 5,
            "path": "scale"
          }
        },
        {
          "sampler": 15,
          "target": {
            "node": 6,
            "path": "translation"
          }
        },
        {
          "sampler": 16,
          "target": {
            "node": 6,
            "path": "rotation"
          }
        },
        {
          "sampler": 17,
          "target": {
            "node": 6,
            "path": "scale"
          }
        },
        {
          "sampler": 18,
          "target": {
            "node": 7,
            "path": "translation"
          }
        },
        {
          "sampler": 19,
          "target": {
            "node": 7,
            "path": "rotation"
          }
        },
        {
          "sampler": 20,
          "target": {
            "node": 7,
            "path": "scale"
          }
        }
      ]
    }
  ],
  "scenes": [
    {
      "name": "animal-crab",
      "nodes": [
        0
      ]
    }
  ],
  "scene": 0,
  "extensionsUsed": [
    "EXT_meshopt_compression",
    "KHR_mesh_quantization",
    "KHR_texture_transform"
  ],
  "extensionsRequired": [
    "EXT_meshopt_compression",
    "KHR_mesh_quantization"
  ]
}