{
  "asset": {
    "generator": "glTF-Transform v4.5.1",
    "version": "2.0"
  },
  "accessors": [
    {
      "type": "SCALAR",
      "componentType": 5126,
      "count": 2,
      "max": [
        0.10000000149011612
      ],
      "min": [
        0
      ],
      "normalized": false,
      "byteOffset": 0,
      "bufferView": 0
    },
    {
      "type": "VEC3",
      "componentType": 5126,
      "count": 2,
      "normalized": false,
      "byteOffset": 0,
      "bufferView": 1
    },
    {
      "type": "VEC4",
      "componentType": 5126,
      "count": 2,
      "normalized": false,
      "byteOffset": 0,
      "bufferView": 2
    },
    {
      "type": "VEC3",
      "componentType": 5126,
      "count": 2,
      "normalized": false,
      "byteOffset": 24,
      "bufferView": 1
    },
    {
      "type": "VEC3",
      "componentType": 5126,
      "count": 2,
      "normalized": false,
      "byteOffset": 48,
      "bufferView": 1
    },
    {
      "type": "VEC3",
      "componentType": 5126,
      "count": 2,
      "normalized": false,
      "byteOffset": 72,
      "bufferView": 1
    },
    {
      "type": "VEC3",
      "componentType": 5126,
      "count": 2,
      "normalized": false,
      "byteOffset": 96,
      "bufferView": 1
    },
    {
      "type": "VEC3",
      "componentType": 5126,
      "count": 2,
      "normalized": false,
      "byteOffset": 120,
      "bufferView": 1
    },
    {
      "type": "VEC3",
      "componentType": 5126,
      "count": 2,
      "normalized": false,
      "byteOffset": 144,
      "bufferView": 1
    },
    {
      "type": "SCALAR",
      "componentType": 5126,
      "count": 2,
      "max": [
        1
      ],
      "min": [
        0
      ],
      "normalized": false,
      "byteOffset": 8,
      "bufferView": 0
    },
    {
      "type": "SCALAR",
      "componentType": 5126,
      "count": 30,
      "max": [
        1
      ],
      "min": [
        0
      ],
      "normalized": false,
      "byteOffset": 16,
      "bufferView": 0
    },
    {
      "type": "VEC4",
      "componentType": 5126,
      "count": 30,
      "normalized": false,
      "byteOffset": 32,
      "bufferView": 2
    },
    {
      "type": "SCALAR",
      "componentType": 5126,
      "count": 15,
      "max": [
        0.5
      ],
      "min": [
        0
      ],
      "normalized": false,
      "byteOffset": 136,
      "bufferView": 0
    },
    {
      "type": "VEC3",
      "componentType": 5126,
      "count": 15,
      "normalized": false,
      "byteOffset": 168,
      "bufferView": 1
    },
    {
      "type": "SCALAR",
      "componentType": 5126,
      "count": 2,
      "max": [
        0.5
      ],
      "min": [
        0
      ],
      "normalized": false,
      "byteOffset": 196,
      "bufferView": 0
    },
    {
      "type": "VEC4",
      "componentType": 5126,
      "count": 15,
      "normalized": false,
      "byteOffset": 512,
      "bufferView": 2
    },
    {
      "type": "VEC4",
      "componentType": 5126,
      "count": 15,
      "normalized": false,
      "byteOffset": 752,
      "bufferView": 2
    },
    {
      "type": "VEC4",
      "componentType": 5126,
      "count": 15,
      "normalized": false,
      "byteOffset": 992,
      "bufferView": 2
    },
    {
      "type": "SCALAR",
      "componentType": 5126,
      "count": 8,
      "max": [
        0.25
      ],
      "min": [
        0
      ],
      "normalized": false,
      "byteOffset": 204,
      "bufferView": 0
    },
    {
      "type": "VEC3",
      "componentType": 5126,
      "count": 8,
      "normalized": false,
      "byteOffset": 348,
      "bufferView": 1
    },
    {
      "type": "SCALAR",
      "componentType": 5126,
      "count": 2,
      "max": [
        0.25
      ],
      "min": [
        0
      ],
      "normalized": false,
      "byteOffset": 236,
      "bufferView": 0
    },
    {
      "type": "VEC4",
      "componentType": 5126,
      "count": 8,
      "normalized": false,
      "byteOffset": 1232,
      "bufferView": 2
    },
    {
      "type": "VEC4",
      "componentType": 5126,
      "count": 8,
      "normalized": false,
      "byteOffset": 1360,
      "bufferView": 2
    },
    {
      "type": "VEC4",
      "componentType": 5126,
      "count": 8,
      "normalized": false,
      "byteOffset": 1488,
      "bufferView": 2
    },
    {
      "type": "VEC4",
      "componentType": 5126,
      "count": 15,
      "normalized": false,
      "byteOffset": 1616,
      "bufferView": 2
    },
    {
      "type": "VEC3",
      "componentType": 5126,
      "count": 15,
      "normalized": false,
      "byteOffset": 444,
      "bufferView": 1
    },
    {
      "type": "VEC4",
      "componentType": 5126,
      "count": 15,
      "normalized": false,
      "byteOffset": 1856,
      "bufferView": 2
    },
    {
      "type": "VEC4",
      "componentType": 5126,
      "count": 8,
      "normalized": false,
      "byteOffset": 2096,
      "bufferView": 2
    },
    {
      "type": "VEC4",
      "componentType": 5126,
      "count": 8,
      "normalized": false,
      "byteOffset": 2224,
      "bufferView": 2
    },
    {
      "type": "SCALAR",
      "componentType": 5123,
      "count": 138,
      "normalized": false,
      "byteOffset": 0,
      "bufferView": 3
    },
    {
      "type": "SCALAR",
      "componentType": 5123,
      "count": 1740,
      "normalized": false,
      "byteOffset": 276,
      "bufferView": 3
    },
    {
      "type": "SCALAR",
      "componentType": 5123,
      "count": 138,
      "normalized": false,
      "byteOffset": 3756,
      "bufferView": 3
    },
    {
      "type": "SCALAR",
      "componentType": 5123,
      "count": 132,
      "normalized": false,
      "byteOffset": 4032,
      "bufferView": 3
    },
    {
      "type": "SCALAR",
      "componentType": 5123,
      "count": 132,
      "normalized": false,
      "byteOffset": 4296,
      "bufferView": 3
    },
    {
      "type": "VEC3",
      "componentType": 5122,
      "count": 83,
      "max": [
        32767,
        26759,
        32767
      ],
      "min": [
        -32767,
        -26759,
        -32767
      ],
      "normalized": true,
      "byteOffset": 0,
      "bufferView": 4
    },
    {
      "type": "VEC3",
      "componentType": 5122,
      "count": 83,
      "normalized": true,
      "byteOffset": 0,
      "bufferView": 5
    },
    {
      "type": "VEC2",
      "componentType": 5123,
      "count": 83,
      "normalized": true,
      "byteOffset": 0,
      "bufferView": 6
    },
    {
      "type": "VEC3",
      "componentType": 5122,
      "count": 1026,
      "max": [
        27847,
        32767,
        28211
      ],
      "min": [
        -27847,
        -32767,
        -28211
      ],
      "normalized": true,
      "byteOffset": 0,
      "bufferView": 7
    },
    {
      "type": "VEC3",
      "componentType": 5122,
      "count": 1026,
      "normalized": true,
      "byteOffset": 0,
      "bufferView": 8
    },
    {
      "type": "VEC2",
      "componentType": 5123,
      "count": 1026,
      "normalized": true,
      "byteOffset": 0,
      "bufferView": 9
    },
    {
      "type": "VEC3",
      "componentType": 5122,
      "count": 82,
      "max": [
        32767,
        26759,
        32767
      ],
      "min": [
        -32767,
        -26759,
        -32767
      ],
      "normalized": true,
      "byteOffset": 0,
      "bufferView": 10
    },
    {
      "type": "VEC3",
      "componentType": 5122,
      "count": 82,
      "normalized": true,
      "byteOffset": 0,
      "bufferView": 11
    },
    {
      "type": "VEC2",
      "componentType": 5123,
      "count": 82,
      "normalized": true,
      "byteOffset": 0,
      "bufferView": 12
    },
    {
      "type": "VEC3",
      "componentType": 5122,
      "count": 79,
      "max": [
        32767,
        26759,
        32767
      ],
      "min": [
        -32767,
        -26759,
        -32767
      ],
      "normalized": true,
      "byteOffset": 0,
      "bufferView": 13
    },
    {
      "type": "VEC3",
      "componentType": 5122,
      "count": 79,
      "normalized": true,
      "byteOffset": 0,
      "bufferView": 14
    },
    {
      "type": "VEC2",
      "componentType": 5123,
      "count": 79,
      "normalized": true,
      "byteOffset": 0,
      "bufferView": 15
    },
    {
      "type": "VEC3",
      "componentType": 5122,
      "count": 78,
      "max": [
        32767,
        26759,
        32767
      ],
      "min": [
        -32767,
        -26759,
        -32767
      ],
      "normalized": true,
      "byteOffset": 0,
      "bufferView": 16
    },
    {
      "type": "VEC3",
      "componentType": 5122,
      "count": 78,
      "normalized": true,
      "byteOffset": 0,
      "bufferView": 17
    },
    {
      "type": "VEC2",
      "componentType": 5123,
      "count": 78,
      "normalized": true,
      "byteOffset": 0,
      "bufferView": 18
    }
  ],
  "bufferViews": [
    {
      "buffer": 1,
      "byteOffset": 0,
      "byteLength": 244,
      "extensions": {
        "EXT_meshopt_compression": {
          "buffer": 0,
          "byteOffset": 0,
          "byteLength": 233,
          "mode": "ATTRIBUTES",
          "byteStride": 4,
          "count": 61
        }
      }
    },
    {
      "buffer": 1,
      "byteOffset": 244,
      "byteLength": 624,
      "extensions": {
        "EXT_meshopt_compression": {
          "buffer": 0,
          "byteOffset": 236,
          "byteLength": 314,
          "mode": "ATTRIBUTES",
          "byteStride": 12,
          "count": 52
        }
      }
    },
    {
      "buffer": 1,
      "byteOffset": 868,
      "byteLength": 2352,
      "extensions": {
        "EXT_meshopt_compression": {
          "buffer": 0,
          "byteOffset": 552,
          "byteLength": 1556,
          "mode": "ATTRIBUTES",
          "byteStride": 16,
          "count": 147
        }
      }
    },
    {
      "buffer": 1,
      "byteOffset": 3220,
      "byteLength": 4560,
      "target": 34963,
      "extensions": {
        "EXT_meshopt_compression": {
          "buffer": 0,
          "byteOffset": 2108,
          "byteLength": 817,
          "mode": "TRIANGLES",
          "byteStride": 2,
          "count": 2280
        }
      }
    },
    {
      "buffer": 1,
      "byteOffset": 7780,
      "byteLength": 664,
      "target": 34962,
      "byteStride": 8,
      "extensions": {
        "EXT_meshopt_compression": {
          "buffer": 0,
          "byteOffset": 2928,
          "byteLength": 519,
          "mode": "ATTRIBUTES",
          "byteStride": 8,
          "count": 83
        }
      }
    },
    {
      "buffer": 1,
      "byteOffset": 8444,
      "byteLength": 664,
      "target": 34962,
      "byteStride": 8,
      "extensions": {
        "EXT_meshopt_compression": {
          "buffer": 0,
          "byteOffset": 3448,
          "byteLength": 531,
          "mode": "ATTRIBUTES",
          "byteStride": 8,
          "count": 83
        }
      }
    },
    {
      "buffer": 1,
      "byteOffset": 9108,
      "byteLength": 332,
      "target": 34962,
      "byteStride": 4,
      "extensions": {
        "EXT_meshopt_compression": {
          "buffer": 0,
          "byteOffset": 3980,
          "byteLength": 189,
          "mode": "ATTRIBUTES",
          "byteStride": 4,
          "count": 83
        }
      }
    },
    {
      "buffer": 1,
      "byteOffset": 9440,
      "byteLength": 8208,
      "target": 34962,
      "byteStride": 8,
      "extensions": {
        "EXT_meshopt_compression": {
          "buffer": 0,
          "byteOffset": 4172,
          "byteLength": 5912,
          "mode": "ATTRIBUTES",
          "byteStride": 8,
          "count": 1026
        }
      }
    },
    {
      "buffer": 1,
      "byteOffset": 17648,
      "byteLength": 8208,
      "target": 34962,
      "byteStride": 8,
      "extensions": {
        "EXT_meshopt_compression": {
          "buffer": 0,
          "byteOffset": 10084,
          "byteLength": 5902,
          "mode": "ATTRIBUTES",
          "byteStride": 8,
          "count": 1026
        }
      }
    },
    {
      "buffer": 1,
      "byteOffset": 25856,
      "byteLength": 4104,
      "target": 34962,
      "byteStride": 4,
      "extensions": {
        "EXT_meshopt_compression": {
          "buffer": 0,
          "byteOffset": 15988,
          "byteLength": 2081,
          "mode": "ATTRIBUTES",
          "byteStride": 4,
          "count": 1026
        }
      }
    },
    {
      "buffer": 1,
      "byteOffset": 29960,
      "byteLength": 656,
      "target": 34962,
      "byteStride": 8,
      "extensions": {
        "EXT_meshopt_compression": {
          "buffer": 0,
          "byteOffset": 18072,
          "byteLength": 521,
          "mode": "ATTRIBUTES",
          "byteStride": 8,
          "count": 82
        }
      }
    },
    {
      "buffer": 1,
      "byteOffset": 30616,
      "byteLength": 656,
      "target": 34962,
      "byteStride": 8,
      "extensions": {
        "EXT_meshopt_compression": {
          "buffer": 0,
          "byteOffset": 18596,
          "byteLength": 518,
          "mode": "ATTRIBUTES",
          "byteStride": 8,
          "count": 82
        }
      }
    },
    {
      "buffer": 1,
      "byteOffset": 31272,
      "byteLength": 328,
      "target": 34962,
      "byteStride": 4,
      "extensions": {
        "EXT_meshopt_compression": {
          "buffer": 0,
          "byteOffset": 19116,
          "byteLength": 189,
          "mode": "ATTRIBUTES",
          "byteStride": 4,
          "count": 82
        }
      }
    },
    {
      "buffer": 1,
      "byteOffset": 31600,
      "byteLength": 632,
      "target": 34962,
      "byteStride": 8,
      "extensions": {
        "EXT_meshopt_compression": {
          "buffer": 0,
          "byteOffset": 19308,
          "byteLength": 489,
          "mode": "ATTRIBUTES",
          "byteStride": 8,
          "count": 79
        }
      }
    },
    {
      "buffer": 1,
      "byteOffset": 32232,
      "byteLength": 632,
      "target": 34962,
      "byteStride": 8,
      "extensions": {
        "EXT_meshopt_compression": {
          "buffer": 0,
          "byteOffset": 19800,
          "byteLength": 496,
          "mode": "ATTRIBUTES",
          "byteStride": 8,
          "count": 79
        }
      }
    },
    {
      "buffer": 1,
      "byteOffset": 32864,
      "byteLength": 316,
      "target": 34962,
      "byteStride": 4,
      "extensions": {
        "EXT_meshopt_compression": {
          "buffer": 0,
          "byteOffset": 20296,
          "byteLength": 179,
          "mode": "ATTRIBUTES",
          "byteStride": 4,
          "count": 79
        }
      }
    },
    {
      "buffer": 1,
      "byteOffset": 33180,
      "byteLength": 624,
      "target": 34962,
      "byteStride": 8,
      "extensions": {
        "EXT_meshopt_compression": {
          "buffer": 0,
          "byteOffset": 20476,
          "byteLength": 488,
          "mode": "ATTRIBUTES",
          "byteStride": 8,
          "count": 78
        }
      }
    },
    {
      "buffer": 1,
      "byteOffset": 33804,
      "byteLength": 624,
      "target": 34962,
      "byteStride": 8,
      "extensions": {
        "EXT_meshopt_compression": {
          "buffer": 0,
          "byteOffset": 20964,
          "byteLength": 491,
          "mode": "ATTRIBUTES",
          "byteStride": 8,
          "count": 78
        }
      }
    },
    {
      "buffer": 1,
      "byteOffset": 34428,
      "byteLength": 312,
      "target": 34962,
      "byteStride": 4,
      "extensions": {
        "EXT_meshopt_compression": {
          "buffer": 0,
          "byteOffset": 21456,
          "byteLength": 187,
          "mode": "ATTRIBUTES",
          "byteStride": 4,
          "count": 78
        }
      }
    }
  ],
  "samplers": [
    {
      "minFilter": 9987,
      "wrapS": 10497,
      "wrapT": 10497
    }
  ],
  "textures": [
    {
      "source": 0,
      "sampler": 0
    }
  ],
  "images": [
    {
      "name": "colormap",
      "mimeType": "image/png",
      "uri": "Textures/colormap.png"
    }
  ],
  "buffers": [
    {
      "uri": "animal-deer.bin",
      "byteLength": 21644
    },
    {
      "byteLength": 34740,
      "extensions": {
        "EXT_meshopt_compression": {
          "fallback": true
        }
      }
    }
  ],
  "materials": [
    {
      "name": "colormap",
      "doubleSided": true,
      "pbrMetallicRoughness": {
        "metallicFactor": 0,
        "baseColorTexture": {
          "index": 0,
          "extensions": {
            "KHR_texture_transform": {
              "texCoord": 0
            }
          }
        }
      }
    }
  ],
  "meshes": [
    {
      "name": "leg-back-left",
      "primitives": [
        {
          "attributes": {
            "POSITION": 34,
            "NORMAL": 35,
            "TEXCOORD_0": 36
          },
          "mode": 4,
          "material": 0,
          "indices": 29
        }
      ]
    },
    {
      "name": "body",
      "primitives": [
        {
          "attributes": {
            "POSITION": 37,
            "NORMAL": 38,
            "TEXCOORD_0": 39
          },
          "mode": 4,
          "material": 0,
          "indices": 30
        }
      ]
    },
    {
      "name": "leg-back-right",
      "primitives": [
        {
          "attributes": {
            "POSITION": 40,
            "NORMAL": 41,
            "TEXCOORD_0": 42
          },
          "mode": 4,
          "material": 0,
          "indices": 31
        }
      ]
    },
    {
      "name": "leg-front-left",
      "primitives": [
        {
          "attributes": {
            "POSITION": 43,
            "NORMAL": 44,
            "TEXCOORD_0": 45
          },
          "mode": 4,
          "material": 0,
          "indices": 32
        }
      ]
    },
    {
      "name": "leg-front-right",
      "primitives": [
        {
          "attributes": {
            "POSITION": 46,
            "NORMAL": 47,
            "TEXCOORD_0": 48
          },
          "mode": 4,
          "material": 0,
          "indices": 33
        }
      ]
    }
  ],
  "nodes": [
    {
      "name": "animal-deer",
      "children": [
        1
      ]
    },
    {
      "name": "root",
      "children": [
        2,
        3,
        4,
        5,
        6
      ]
    },
    {
      "name": "leg-back-left",
      "translation": [
        0.25,
        0.3,
        -0.25
      ],
      "children": [
        7
      ]
    },
    {
      "name": "body",
      "translation": [
        1.573182e-8,
        0.181249976,
        -3.80835026e-8
      ],
      "children": [
        8
      ]
    },
    {
      "name": "leg-back-right",
      "translation": [
        -0.25,
        0.3,
        -0.25
      ],
      "children": [
        9
      ]
    },
    {
      "name": "leg-front-left",
      "translation": [
        0.25,
        0.3,
        0.25
      ],
      "children": [
        10
      ]
    },
    {
      "name": "leg-front-right",
      "translation": [
        -0.25,
        0.3,
        0.25
      ],
      "children": [
        11
      ]
    },
    {
      "translation": [
        0,
        -0.14687500894069672,
        0
      ],
      "scale": [
        0.18750004470348358,
        0.18750004470348358,
        0.18750004470348358
      ],
      "mesh": 0
    },
    {
      "translation": [
        0,
        0.9057681560516357,
        0.15482506155967712
      ],
      "scale": [
        0.9057681560516357,
        0.9057681560516357,
        0.9057681560516357
      ],
      "mesh": 1
    },
    {
      "translation": [
        0,
        -0.14687500894069672,
        0
      ],
      "scale": [
        0.18750004470348358,
        0.18750004470348358,
        0.18750004470348358
      ],
      "mesh": 2
    },
    {
      "translation": [
        0,
        -0.14687500894069672,
        0
      ],
      "scale": [
        0.18750004470348358,
        0.18750004470348358,
        0.18750004470348358
      ],
      "mesh": 3
    },
    {
      "translation": [
        0,
        -0.14687500894069672,
        0
      ],
      "scale": [
        0.18750004470348358,
        0.18750004470348358,
        0.18750004470348358
      ],
      "mesh": 4
    }
  ],
  "animations": [
    {
      "name": "static",
      "samplers": [
        {
          "input": 0,
          "output": 1,
          "interpolation": "LINEAR"
        },
        {
          "input": 0,
          "output": 2,
          "interpolation": "LINEAR"
        },
        {
          "input": 0,
          "output": 3,
          "interpolation": "LINEAR"
        },
        {
          "input": 0,
          "output": 4,
          "interpolation": "LINEAR"
        },
        {
          "input": 0,
          "output": 2,
          "interpolation": "LINEAR"
        },
        {
          "input": 0,
          "output": 3,
          "interpolation": "LINEAR"
        },
        {
          "input": 0,
          "output": 5,
          "interpolation": "LINEAR"
        },
        {
          "input": 0,
          "output": 2,
          "interpolation": "LINEAR"
        },
        {
          "input": 0,
          "output": 3,
          "interpolation": "LINEAR"
        },
        {
          "input": 0,
          "output": 6,
          "interpolation": "LINEAR"
        },
        {
          "input": 0,
          "output": 2,
          "interpolation": "LINEAR"
        },
        {
          "input": 0,
          "output": 3,
          "interpolation": "LINEAR"
        },
        {
          "input": 0,
          "output": 7,
          "interpolation": "LINEAR"
        },
        {
          "input": 0,
          "output": 2,
          "interpolation": "LINEAR"
        },
        {
          "input": 0,
          "output": 3,
          "interpolation": "LINEAR"
        },
        {
          "input": 0,
          "output": 8,
          "interpolation": "LINEAR"
        },
        {
          "input": 0,
          "output": 2,
          "interpolation": "LINEAR"
        },
        {
          "input": 0,
          "output": 3,
          "interpolation": "LINEAR"
        }
      ],
      "channels": [
        {
          "sampler": 0,
          "target": {
            "node": 1,
            "path": "translation"
          }
        },
        {
          "sampler": 1,
          "target": {
            "node": 1,
            "path": "rotation"
          }
        },
        {
          "sampler": 2,
          "target": {
            "node": 1,
            "path": "scale"
          }
        },
        {
          "sampler": 3,
          "target": {
            "node": 2,
            "path": "translation"
          }
        },
        {
          "sampler": 4,
          "target": {
            "node": 2,
            "path": "rotation"
          }
        },
        {
          "sampler": 5,
          "target": {
            "node": 2,
            "path": "scale"
          }
        },
        {
          "sampler": 6,
          "target": {
            "node": 3,
            "path": "translation"
          }
        },
        {
          "sampler": 7,
          "target": {
            "node": 3,
            "path": "rotation"
          }
        },
        {
          "sampler": 8,
          "target": {
            "node": 3,
            "path": "scale"
          }
        },
        {
          "sampler": 9,
          "target": {
            "node": 4,
            "path": "translation"
          }
        },
        {
          "sampler": 10,
          "target": {
            "node": 4,
            "path": "rotation"
          }
        },
        {
          "sampler": 11,
          "target": {
            "node": 4,
            "path": "scale"
          }
        },
        {
          "sampler": 12,
          "target": {
            "node": 5,
            "path": "translation"
          }
        },
        {
          "sampler": 13,
          "target": {
            "node": 5,
            "path": "rotation"
          }
        },
        {
          "sampler": 14,
          "target": {
            "node": 5,
            "path": "scale"
          }
        },
        {
          "sampler": 15,
          "target": {
            "node": 6,
            "path": "translation"
          }
        },
        {
          "sampler": 16,
          "target": {
            "node": 6,
            "path": "rotation"
          }
        },
        {
          "sampler": 17,
          "target": {
            "node": 6,
            "path": "scale"
          }
        }
      ]
    },
    {
      "name": "idle",
      "samplers": [
        {
          "input": 9,
          "output": 1,
          "interpolation": "LINEAR"
        },
        {
          "input": 9,
          "output": 2,
          "interpolation": "LINEAR"
        },
        {
          "input": 9,
          "output": 3,
          "interpolation": "LINEAR"
        },
        {
          "input": 9,
          "output": 4,
          "interpolation": "LINEAR"
        },
        {
          "input": 9,
          "output": 2,
          "interpolation": "LINEAR"
        },
        {
          "input": 9,
          "output": 3,
          "interpolation": "LINEAR"
        },
        {
          "input": 9,
          "output": 5,
          "interpolation": "LINEAR"
        },
        {
          "input": 10,
          "output": 11,
          "interpolation": "LINEAR"
        },
        {
          "input": 9,
          "output": 3,
          "interpolation": "LINEAR"
        },
        {
          "input": 9,
          "output": 6,
          "interpolation": "LINEAR"
        },
        {
          "input": 9,
          "output": 2,
          "interpolation": "LINEAR"
        },
        {
          "input": 9,
          "output": 3,
          "interpolation": "LINEAR"
        },
        {
          "input": 9,
          "output": 7,
          "interpolation": "LINEAR"
        },
        {
          "input": 9,
          "output": 2,
          "interpolation": "LINEAR"
        },
        {
          "input": 9,
          "output": 3,
          "interpolation": "LINEAR"
        },
        {
          "input": 9,
          "output": 8,
          "interpolation": "LINEAR"
        },
        {
          "input": 9,
          "output": 2,
          "interpolation": "LINEAR"
        },
        {
          "input": 9,
          "output": 3,
          "interpolation": "LINEAR"
        }
      ],
      "channels": [
        {
          "sampler": 0,
          "target": {
            "node": 1,
            "path": "translation"
          }
        },
        {
          "sampler": 1,
          "target": {
            "node": 1,
            "path": "rotation"
          }
        },
        {
          "sampler": 2,
          "target": {
            "node": 1,
            "path": "scale"
          }
        },
        {
          "sampler": 3,
          "target": {
            "node": 2,
            "path": "translation"
          }
        },
        {
          "sampler": 4,
          "target": {
            "node": 2,
            "path": "rotation"
          }
        },
        {
          "sampler": 5,
          "target": {
            "node": 2,
            "path": "scale"
          }
        },
        {
          "sampler": 6,
          "target": {
            "node": 3,
            "path": "translation"
          }
        },
        {
          "sampler": 7,
          "target": {
            "node": 3,
            "path": "rotation"
          }
        },
        {
          "sampler": 8,
          "target": {
            "node": 3,
            "path": "scale"
          }
        },
        {
          "sampler": 9,
          "target": {
            "node": 4,
            "path": "translation"
          }
        },
        {
          "sampler": 10,
          "target": {
            "node": 4,
            "path": "rotation"
          }
        },
        {
          "sampler": 11,
          "target": {
            "node": 4,
            "path": "scale"
          }
        },
        {
          "sampler": 12,
          "target": {
            "node": 5,
            "path": "translation"
          }
        },
        {
          "sampler": 13,
          "target": {
            "node": 5,
            "path": "rotation"
          }
        },
        {
          "sampler": 14,
          "target": {
            "node": 5,
            "path": "scale"
          }
        },
        {
          "sampler": 15,
          "target": {
            "node": 6,
            "path": "translation"
          }
        },
        {
          "sampler": 16,
          "target": {
            "node": 6,
            "path": "rotation"
          }
        },
        {
          "sampler": 17,
          "target": {
            "node": 6,
            "path": "scale"
          }
        }
      ]
    },
    {
      "name": "walk",
      "samplers": [
        {
          "input": 12,
          "output": 13,
          "interpolation": "LINEAR"
        },
        {
          "input": 14,
          "output": 2,
          "interpolation": "LINEAR"
        },
        {
          "input": 14,
          "output": 3,
          "interpolation": "LINEAR"
        },
        {
          "input": 14,
          "output": 4,
          "interpolation": "LINEAR"
        },
        {
          "input": 12,
          "output": 15,
          "interpolation": "LINEAR"
        },
        {
          "input": 14,
          "output": 3,
          "interpolation": "LINEAR"
        },
        {
          "input": 14,
          "output": 5,
          "interpolation": "LINEAR"
        },
        {
          "input": 12,
          "output": 16,
          "interpolation": "LINEAR"
        },
        {
          "input": 14,
          "output": 3,
          "interpolation": "LINEAR"
        },
        {
          "input": 14,
          "output": 6,
          "interpolation": "LINEAR"
        },
        {
          "input": 12,
          "output": 17,
          "interpolation": "LINEAR"
        },
        {
          "input": 14,
          "output": 3,
          "interpolation": "LINEAR"
        },
        {
          "input": 14,
          "output": 7,
          "interpolation": "LINEAR"
        },
        {
          "input": 12,
          "output": 17,
          "interpolation": "LINEAR"
        },
        {
          "input": 14,
          "output": 3,
          "interpolation": "LINEAR"
        },
        {
          "input": 14,
          "output": 8,
          "interpolation": "LINEAR"
        },
        {
          "input": 12,
          "output": 15,
          "interpolation": "LINEAR"
        },
        {
          "input": 14,
          "output": 3,
          "interpolation": "LINEAR"
        }
      ],
      "channels": [
        {
          "sampler": 0,
          "target": {
            "node": 1,
            "path": "translation"
          }
        },
        {
          "sampler": 1,
          "target": {
            "node": 1,
            "path": "rotation"
          }
        },
        {
          "sampler": 2,
          "target": {
            "node": 1,
            "path": "scale"
          }
        },
        {
          "sampler": 3,
          "target": {
            "node": 2,
            "path": "translation"
          }
        },
        {
          "sampler": 4,
          "target": {
            "node": 2,
            "path": "rotation"
          }
        },
        {
          "sampler": 5,
          "target": {
            "node": 2,
            "path": "scale"
          }
        },
        {
          "sampler": 6,
          "target": {
            "node": 3,
            "path": "translation"
          }
        },
        {
          "sampler": 7,
          "target": {
            "node": 3,
            "path": "rotation"
          }
        },
        {
          "sampler": 8,
          "target": {
            "node": 3,
            "path": "scale"
          }
        },
        {
          "sampler": 9,
          "target": {
            "node": 4,
            "path": "translation"
          }
        },
        {
          "sampler": 10,
          "target": {
            "node": 4,
            "path": "rotation"
          }
        },
        {
          "sampler": 11,
          "target": {
            "node": 4,
            "path": "scale"
          }
        },
        {
          "sampler": 12,
          "target": {
            "node": 5,
            "path": "translation"
          }
        },
        {
          "sampler": 13,
          "target": {
            "node": 5,
            "path": "rotation"
          }
        },
        {
          "sampler": 14,
          "target": {
            "node": 5,
            "path": "scale"
          }
        },
        {
          "sampler": 15,
          "target": {
            "node": 6,
            "path": "translation"
          }
        },
        {
          "sampler": 16,
          "target": {
            "node": 6,
            "path": "rotation"
          }
        },
        {
          "sampler": 17,
          "target": {
            "node": 6,
            "path": "scale"
          }
        }
      ]
    },
    {
      "name": "run",
      "samplers": [
        {
          "input": 18,
          "output": 19,
          "interpolation": "LINEAR"
        },
        {
          "input": 20,
          "output": 2,
          "interpolation": "LINEAR"
        },
        {
          "input": 20,
          "output": 3,
          "interpolation": "LINEAR"
        },
        {
          "input": 20,
          "output": 4,
          "interpolation": "LINEAR"
        },
        {
          "input": 18,
          "output": 21,
          "interpolation": "LINEAR"
        },
        {
          "input": 20,
          "output": 3,
          "interpolation": "LINEAR"
        },
        {
          "input": 20,
          "output": 5,
          "interpolation": "LINEAR"
        },
        {
          "input": 18,
          "output": 22,
          "interpolation": "LINEAR"
        },
        {
          "input": 20,
          "output": 3,
          "interpolation": "LINEAR"
        },
        {
          "input": 20,
          "output": 6,
          "interpolation": "LINEAR"
        },
        {
          "input": 18,
          "output": 21,
          "interpolation": "LINEAR"
        },
        {
          "input": 20,
          "output": 3,
          "interpolation": "LINEAR"
        },
        {
          "input": 20,
          "output": 7,
          "interpolation": "LINEAR"
        },
        {
          "input": 18,
          "output": 23,
          "interpolation": "LINEAR"
        },
        {
          "input": 20,
          "output": 3,
          "interpolation": "LINEAR"
        },
        {
          "input": 20,
          "output": 8,
          "interpolation": "LINEAR"
        },
        {
          "input": 18,
          "output": 23,
          "interpolation": "LINEAR"
        },
        {
          "input": 20,
          "output": 3,
          "interpolation": "LINEAR"
        }
      ],
      "channels": [
        {
          "sampler": 0,
          "target": {
            "node": 1,
            "path": "translation"
          }
        },
        {
          "sampler": 1,
          "target": {
            "node": 1,
            "path": "rotation"
          }
        },
        {
          "sampler": 2,
          "target": {
            "node": 1,
            "path": "scale"
          }
        },
        {
          "sampler": 3,
          "target": {
            "node": 2,
            "path": "translation"
          }
        },
        {
          "sampler": 4,
          "target": {
            "node": 2,
            "path": "rotation"
          }
        },
        {
          "sampler": 5,
          "target": {
            "node": 2,
            "path": "scale"
          }
        },
        {
          "sampler": 6,
          "target": {
            "node": 3,
            "path": "translation"
          }
        },
        {
          "sampler": 7,
          "target": {
            "node": 3,
            "path": "rotation"
          }
        },
        {
          "sampler": 8,
          "target": {
            "node": 3,
            "path": "scale"
          }
        },
        {
          "sampler": 9,
          "target": {
            "node": 4,
            "path": "translation"
          }
        },
        {
          "sampler": 10,
          "target": {
            "node": 4,
            "path": "rotation"
          }
        },
        {
          "sampler": 11,
          "target": {
            "node": 4,
            "path": "scale"
          }
        },
        {
          "sampler": 12,
          "target": {
            "node": 5,
            "path": "translation"
          }
        },
        {
          "sampler": 13,
          "target": {
            "node": 5,
            "path": "rotation"
          }
        },
        {
          "sampler": 14,
          "target": {
            "node": 5,
            "path": "scale"
          }
        },
        {
          "sampler": 15,
          "target": {
            "node": 6,
            "path": "translation"
          }
        },
        {
          "sampler": 16,
          "target": {
            "node": 6,
            "path": "rotation"
          }
        },
        {
          "sampler": 17,
          "target": {
            "node": 6,
            "path": "scale"
          }
        }
      ]
    },
    {
      "name": "eat",
      "samplers": [
        {
          "input": 14,
          "output": 1,
          "interpolation": "LINEAR"
        },
        {
          "input": 14,
          "output": 2,
          "interpolation": "LINEAR"
        },
        {
          "input": 14,
          "output": 3,
          "interpolation": "LINEAR"
        },
        {
          "input": 14,
          "output": 4,
          "interpolation": "LINEAR"
        },
        {
          "input": 14,
          "output": 2,
          "interpolation": "LINEAR"
        },
        {
          "input": 14,
          "output": 3,
          "interpolation": "LINEAR"
        },
        {
          "input": 14,
          "output": 5,
          "interpolation": "LINEAR"
        },
        {
          "input": 12,
          "output": 24,
          "interpolation": "LINEAR"
        },
        {
          "input": 14,
          "output": 3,
          "interpolation": "LINEAR"
        },
        {
          "input": 14,
          "output": 6,
          "interpolation": "LINEAR"
        },
        {
          "input": 14,
          "output": 2,
          "interpolation": "LINEAR"
        },
        {
          "input": 14,
          "output": 3,
          "interpolation": "LINEAR"
        },
        {
          "input": 14,
          "output": 7,
          "interpolation": "LINEAR"
        },
        {
          "input": 14,
          "output": 2,
          "interpolation": "LINEAR"
        },
        {
          "input": 14,
          "output": 3,
          "interpolation": "LINEAR"
        },
        {
          "input": 14,
          "output": 8,
          "interpolation": "LINEAR"
        },
        {
          "input": 14,
          "output": 2,
          "interpolation": "LINEAR"
        },
        {
          "input": 14,
          "output": 3,
          "interpolation": "LINEAR"
        }
      ],
      "channels": [
        {
          "sampler": 0,
          "target": {
            "node": 1,
            "path": "translation"
          }
        },
        {
          "sampler": 1,
          "target": {
            "node": 1,
            "path": "rotation"
          }
        },
        {
          "sampler": 2,
          "target": {
            "node": 1,
            "path": "scale"
          }
        },
        {
          "sampler": 3,
          "target": {
            "node": 2,
            "path": "translation"
          }
        },
        {
          "sampler": 4,
          "target": {
            "node": 2,
            "path": "rotation"
          }
        },
        {
          "sampler": 5,
          "target": {
            "node": 2,
            "path": "scale"
          }
        },
        {
          "sampler": 6,
          "target": {
            "node": 3,
            "path": "translation"
          }
        },
        {
          "sampler": 7,
          "target": {
            "node": 3,
            "path": "rotation"
          }
        },
        {
          "sampler": 8,
          "target": {
            "node": 3,
            "path": "scale"
          }
        },
        {
          "sampler": 9,
          "target": {
            "node": 4,
            "path": "translation"
          }
        },
        {
          "sampler": 10,
          "target": {
            "node": 4,
            "path": "rotation"
          }
        },
        {
          "sampler": 11,
          "target": {
            "node": 4,
            "path": "scale"
          }
        },
        {
          "sampler": 12,
          "target": {
            "node": 5,
            "path": "translation"
          }
        },
        {
          "sampler": 13,
          "target": {
            "node": 5,
            "path": "rotation"
          }
        },
        {
          "sampler": 14,
          "target": {
            "node": 5,
            "path": "scale"
          }
        },
        {
          "sampler": 15,
          "target": {
            "node": 6,
            "path": "translation"
          }
        },
        {
          "sampler": 16,
          "target": {
            "node": 6,
            "path": "rotation"
          }
        },
        {
          "sampler": 17,
          "target": {
            "node": 6,
            "path": "scale"
          }
        }
      ]
    },
    {
      "name": "dance",
      "samplers": [
        {
          "input": 14,
          "output": 1,
          "interpolation": "LINEAR"
        },
        {
          "input": 14,
          "output": 2,
          "interpolation": "LINEAR"
        },
        {
          "input": 14,
          "output": 3,
          "interpolation": "LINEAR"
        },
        {
          "input": 14,
          "output": 4,
          "interpolation": "LINEAR"
        },
        {
          "input": 14,
          "output": 2,
          "interpolation": "LINEAR"
        },
        {
          "input": 14,
          "output": 3,
          "interpolation": "LINEAR"
        },
        {
          "input": 12,
          "output": 25,
          "interpolation": "LINEAR"
        },
        {
          "input": 12,
          "output": 26,
          "interpolation": "LINEAR"
        },
        {
          "input": 14,
          "output": 3,
          "interpolation": "LINEAR"
        },
        {
          "input": 14,
          "output": 6,
          "interpolation": "LINEAR"
        },
        {
          "input": 14,
          "output": 2,
          "interpolation": "LINEAR"
        },
        {
          "input": 14,
          "output": 3,
          "interpolation": "LINEAR"
        },
        {
          "input": 14,
          "output": 7,
          "interpolation": "LINEAR"
        },
        {
          "input": 14,
          "output": 2,
          "interpolation": "LINEAR"
        },
        {
          "input": 14,
          "output": 3,
          "interpolation": "LINEAR"
        },
        {
          "input": 14,
          "output": 8,
          "interpolation": "LINEAR"
        },
        {
          "input": 14,
          "output": 2,
          "interpolation": "LINEAR"
        },
        {
          "input": 14,
          "output": 3,
          "interpolation": "LINEAR"
        }
      ],
      "channels": [
        {
          "sampler": 0,
          "target": {
            "node": 1,
            "path": "translation"
          }
        },
        {
          "sampler": 1,
          "target": {
            "node": 1,
            "path": "rotation"
          }
        },
        {
          "sampler": 2,
          "target": {
            "node": 1,
            "path": "scale"
          }
        },
        {
          "sampler": 3,
          "target": {
            "node": 2,
            "path": "translation"
          }
        },
        {
          "sampler": 4,
          "target": {
            "node": 2,
            "path": "rotation"
          }
        },
        {
          "sampler": 5,
          "target": {
            "node": 2,
            "path": "scale"
          }
        },
        {
          "sampler": 6,
          "target": {
            "node": 3,
            "path": "translation"
          }
        },
        {
          "sampler": 7,
          "target": {
            "node": 3,
            "path": "rotation"
          }
        },
        {
          "sampler": 8,
          "target": {
            "node": 3,
            "path": "scale"
          }
        },
        {
          "sampler": 9,
          "target": {
            "node": 4,
            "path": "translation"
          }
        },
        {
          "sampler": 10,
          "target": {
            "node": 4,
            "path": "rotation"
          }
        },
        {
          "sampler": 11,
          "target": {
            "node": 4,
            "path": "scale"
          }
        },
        {
          "sampler": 12,
          "target": {
            "node": 5,
            "path": "translation"
          }
        },
        {
          "sampler": 13,
          "target": {
            "node": 5,
            "path": "rotation"
          }
        },
        {
          "sampler": 14,
          "target": {
            "node": 5,
            "path": "scale"
          }
        },
        {
          "sampler": 15,
          "target": {
            "node": 6,
            "path": "translation"
          }
        },
        {
          "sampler": 16,
          "target": {
            "node": 6,
            "path": "rotation"
          }
        },
        {
          "sampler": 17,
          "target": {
            "node": 6,
            "path": "scale"
          }
        }
      ]
    },
    {
      "name": "gesture-positive",
      "samplers": [
        {
          "input": 20,
          "output": 1,
          "interpolation": "LINEAR"
        },
        {
          "input": 20,
          "output": 2,
          "interpolation": "LINEAR"
        },
        {
          "input": 20,
          "output": 3,
          "interpolation": "LINEAR"
        },
        {
          "input": 20,
          "output": 4,
          "interpolation": "LINEAR"
        },
        {
          "input": 20,
          "output": 2,
          "interpolation": "LINEAR"
        },
        {
          "input": 20,
          "output": 3,
          "interpolation": "LINEAR"
        },
        {
          "input": 20,
          "output": 5,
          "interpolation": "LINEAR"
        },
        {
          "input": 18,
          "output": 27,
          "interpolation": "LINEAR"
        },
        {
          "input": 20,
          "output": 3,
          "interpolation": "LINEAR"
        },
        {
          "input": 20,
          "output": 6,
          "interpolation": "LINEAR"
        },
        {
          "input": 20,
          "output": 2,
          "interpolation": "LINEAR"
        },
        {
          "input": 20,
          "output": 3,
          "interpolation": "LINEAR"
        },
        {
          "input": 20,
          "output": 7,
          "interpolation": "LINEAR"
        },
        {
          "input": 20,
          "output": 2,
          "interpolation": "LINEAR"
        },
        {
          "input": 20,
          "output": 3,
          "interpolation": "LINEAR"
        },
        {
          "input": 20,
          "output": 8,
          "interpolation": "LINEAR"
        },
        {
          "input": 20,
          "output": 2,
          "interpolation": "LINEAR"
        },
        {
          "input": 20,
          "output": 3,
          "interpolation": "LINEAR"
        }
      ],
      "channels": [
        {
          "sampler": 0,
          "target": {
            "node": 1,
            "path": "translation"
          }
        },
        {
          "sampler": 1,
          "target": {
            "node": 1,
            "path": "rotation"
          }
        },
        {
          "sampler": 2,
          "target": {
            "node": 1,
            "path": "scale"
          }
        },
        {
          "sampler": 3,
          "target": {
            "node": 2,
            "path": "translation"
          }
        },
        {
          "sampler": 4,
          "target": {
            "node": 2,
            "path": "rotation"
          }
        },
        {
          "sampler": 5,
          "target": {
            "node": 2,
            "path": "scale"
          }
        },
        {
          "sampler": 6,
          "target": {
            "node": 3,
            "path": "translation"
          }
        },
        {
          "sampler": 7,
          "target": {
            "node": 3,
            "path": "rotation"
          }
        },
        {
          "sampler": 8,
          "target": {
            "node": 3,
            "path": "scale"
          }
        },
        {
          "sampler": 9,
          "target": {
            "node": 4,
            "path": "translation"
          }
        },
        {
          "sampler": 10,
          "target": {
            "node": 4,
            "path": "rotation"
          }
        },
        {
          "sampler": 11,
          "target": {
            "node": 4,
            "path": "scale"
          }
        },
        {
          "sampler": 12,
          "target": {
            "node": 5,
            "path": "translation"
          }
        },
        {
          "sampler": 13,
          "target": {
            "node": 5,
            "path": "rotation"
          }
        },
        {
          "sampler": 14,
          "target": {
            "node": 5,
            "path": "scale"
          }
        },
        {
          "sampler": 15,
          "target": {
            "node": 6,
            "path": "translation"
          }
        },
        {
          "sampler": 16,
          "target": {
            "node": 6,
            "path": "rotation"
          }
        },
        {
          "sampler": 17,
          "target": {
            "node": 6,
            "path": "scale"
          }
        }
      ]
    },
    {
      "name": "gesture-negative",
      "samplers": [
        {
          "input": 20,
          "output": 1,
          "interpolation": "LINEAR"
        },
        {
          "input": 20,
          "output": 2,
          "interpolation": "LINEAR"
        },
        {
          "input": 20,
          "output": 3,
          "interpolation": "LINEAR"
        },
        {
          "input": 20,
          "output": 4,
          "interpolation": "LINEAR"
        },
        {
          "input": 20,
          "output": 2,
          "interpolation": "LINEAR"
        },
        {
          "input": 20,
          "output": 3,
          "interpolation": "LINEAR"
        },
        {
          "input": 20,
          "output": 5,
          "interpolation": "LINEAR"
        },
        {
          "input": 18,
          "output": 28,
          "interpolation": "LINEAR"
        },
        {
          "input": 20,
          "output": 3,
          "interpolation": "LINEAR"
        },
        {
          "input": 20,
          "output": 6,
          "interpolation": "LINEAR"
        },
        {
          "input": 20,
          "output": 2,
          "interpolation": "LINEAR"
        },
        {
          "input": 20,
          "output": 3,
          "interpolation": "LINEAR"
        },
        {
          "input": 20,
          "output": 7,
          "interpolation": "LINEAR"
        },
        {
          "input": 20,
          "output": 2,
          "interpolation": "LINEAR"
        },
        {
          "input": 20,
          "output": 3,
          "interpolation": "LINEAR"
        },
        {
          "input": 20,
          "output": 8,
          "interpolation": "LINEAR"
        },
        {
          "input": 20,
          "output": 2,
          "interpolation": "LINEAR"
        },
        {
          "input": 20,
          "output": 3,
          "interpolation": "LINEAR"
        }
      ],
      "channels": [
        {
          "sampler": 0,
          "target": {
            "node": 1,
            "path": "translation"
          }
        },
        {
          "sampler": 1,
          "target": {
            "node": 1,
            "path": "rotation"
          }
        },
        {
          "sampler": 2,
          "target": {
            "node": 1,
            "path": "scale"
          }
        },
        {
          "sampler": 3,
          "target": {
            "node": 2,
            "path": "translation"
          }
        },
        {
          "sampler": 4,
          "target": {
            "node": 2,
            "path": "rotation"
          }
        },
        {
          "sampler": 5,
          "target": {
            "node": 2,
            "path": "scale"
          }
        },
        {
          "sampler": 6,
          "target": {
            "node": 3,
            "path": "translation"
          }
        },
        {
          "sampler": 7,
          "target": {
            "node": 3,
            "path": "rotation"
          }
        },
        {
          "sampler": 8,
          "target": {
            "node": 3,
            "path": "scale"
          }
        },
        {
          "sampler": 9,
          "target": {
            "node": 4,
            "path": "translation"
          }
        },
        {
          "sampler": 10,
          "target": {
            "node": 4,
            "path": "rotation"
          }
        },
        {
          "sampler": 11,
          "target": {
            "node": 4,
            "path": "scale"
          }
        },
        {
          "sampler": 12,
          "target": {
            "node": 5,
            "path": "translation"
          }
        },
        {
          "sampler": 13,
          "target": {
            "node": 5,
            "path": "rotation"
          }
        },
        {
          "sampler": 14,
          "target": {
            "node": 5,
            "path": "scale"
          }
        },
        {
          "sampler": 15,
          "target": {
            "node": 6,
            "path": "translation"
          }
        },
        {
          "sampler": 16,
          "target": {
            "node": 6,
            "path": "rotation"
          }
        },
        {
          "sampler": 17,
          "target": {
            "node": 6,
            "path": "scale"
          }
        }
      ]
    }
  ],
  "scenes": [
    {
      "name": "animal-deer",
      "nodes": [
        0
      ]
    }
  ],
  "scene": 0,
  "extensionsUsed": [
    "EXT_meshopt_compression",
    "KHR_mesh_quantization",
    "KHR_texture_transform"
  ],
  "extensionsRequired": [
    "EXT_meshopt_compression",
    "KHR_mesh_quantization"
  ]
}