{
  "asset": {
    "generator": "glTF-Transform v4.5.1",
    "version": "2.0"
  },
  "accessors": [
    {
      "type": "SCALAR",
      "componentType": 5126,
      "count": 2,
      "max": [
        0.10000000149011612
      ],
      "min": [
        0
      ],
      "normalized": false,
      "byteOffset": 0,
      "bufferView": 0
    },
    {
      "type": "VEC3",
      "componentType": 5126,
      "count": 2,
      "normalized": false,
      "byteOffset": 0,
      "bufferView": 1
    },
    {
      "type": "VEC4",
      "componentType": 5126,
      "count": 2,
      "normalized": false,
      "byteOffset": 0,
      "bufferView": 2
    },
    {
      "type": "VEC3",
      "componentType": 5126,
      "count": 2,
      "normalized": false,
      "byteOffset": 24,
      "bufferView": 1
    },
    {
      "type": "VEC3",
      "componentType": 5126,
      "count": 2,
      "normalized": false,
      "byteOffset": 48,
      "bufferView": 1
    },
    {
      "type": "VEC3",
      "componentType": 5126,
      "count": 2,
      "normalized": false,
      "byteOffset": 72,
      "bufferView": 1
    },
    {
      "type": "VEC3",
      "componentType": 5126,
      "count": 2,
      "normalized": false,
      "byteOffset": 96,
      "bufferView": 1
    },
    {
      "type": "SCALAR",
      "componentType": 5126,
      "count": 2,
      "max": [
        1
      ],
      "min": [
        0
      ],
      "normalized": false,
      "byteOffset": 8,
      "bufferView": 0
    },
    {
      "type": "SCALAR",
      "componentType": 5126,
      "count": 30,
      "max": [
        1
      ],
      "min": [
        0
      ],
      "normalized": false,
      "byteOffset": 16,
      "bufferView": 0
    },
    {
      "type": "VEC4",
      "componentType": 5126,
      "count": 30,
      "normalized": false,
      "byteOffset": 32,
      "bufferView": 2
    },
    {
      "type": "VEC4",
      "componentType": 5126,
      "count": 30,
      "normalized": false,
      "byteOffset": 512,
      "bufferView": 2
    },
    {
      "type": "VEC4",
      "componentType": 5126,
      "count": 30,
      "normalized": false,
      "byteOffset": 992,
      "bufferView": 2
    },
    {
      "type": "SCALAR",
      "componentType": 5126,
      "count": 15,
      "max": [
        0.5
      ],
      "min": [
        0
      ],
      "normalized": false,
      "byteOffset": 136,
      "bufferView": 0
    },
    {
      "type": "VEC3",
      "componentType": 5126,
      "count": 15,
      "normalized": false,
      "byteOffset": 120,
      "bufferView": 1
    },
    {
      "type": "SCALAR",
      "componentType": 5126,
      "count": 2,
      "max": [
        0.5
      ],
      "min": [
        0
      ],
      "normalized": false,
      "byteOffset": 196,
      "bufferView": 0
    },
    {
      "type": "VEC4",
      "componentType": 5126,
      "count": 15,
      "normalized": false,
      "byteOffset": 1472,
      "bufferView": 2
    },
    {
      "type": "VEC4",
      "componentType": 5126,
      "count": 15,
      "normalized": false,
      "byteOffset": 1712,
      "bufferView": 2
    },
    {
      "type": "VEC4",
      "componentType": 5126,
      "count": 15,
      "normalized": false,
      "byteOffset": 1952,
      "bufferView": 2
    },
    {
      "type": "SCALAR",
      "componentType": 5126,
      "count": 8,
      "max": [
        0.25
      ],
      "min": [
        0
      ],
      "normalized": false,
      "byteOffset": 204,
      "bufferView": 0
    },
    {
      "type": "VEC3",
      "componentType": 5126,
      "count": 8,
      "normalized": false,
      "byteOffset": 300,
      "bufferView": 1
    },
    {
      "type": "SCALAR",
      "componentType": 5126,
      "count": 2,
      "max": [
        0.25
      ],
      "min": [
        0
      ],
      "normalized": false,
      "byteOffset": 236,
      "bufferView": 0
    },
    {
      "type": "VEC4",
      "componentType": 5126,
      "count": 8,
      "normalized": false,
      "byteOffset": 2192,
      "bufferView": 2
    },
    {
      "type": "VEC4",
      "componentType": 5126,
      "count": 8,
      "normalized": false,
      "byteOffset": 2320,
      "bufferView": 2
    },
    {
      "type": "VEC4",
      "componentType": 5126,
      "count": 8,
      "normalized": false,
      "byteOffset": 2448,
      "bufferView": 2
    },
    {
      "type": "VEC4",
      "componentType": 5126,
      "count": 15,
      "normalized": false,
      "byteOffset": 2576,
      "bufferView": 2
    },
    {
      "type": "VEC4",
      "componentType": 5126,
      "count": 15,
      "normalized": false,
      "byteOffset": 2816,
      "bufferView": 2
    },
    {
      "type": "VEC4",
      "componentType": 5126,
      "count": 15,
      "normalized": false,
      "byteOffset": 3056,
      "bufferView": 2
    },
    {
      "type": "VEC3",
      "componentType": 5126,
      "count": 15,
      "normalized": false,
      "byteOffset": 396,
      "bufferView": 1
    },
    {
      "type": "VEC4",
      "componentType": 5126,
      "count": 15,
      "normalized": false,
      "byteOffset": 3296,
      "bufferView": 2
    },
    {
      "type": "VEC4",
      "componentType": 5126,
      "count": 8,
      "normalized": false,
      "byteOffset": 3536,
      "bufferView": 2
    },
    {
      "type": "VEC4",
      "componentType": 5126,
      "count": 8,
      "normalized": false,
      "byteOffset": 3664,
      "bufferView": 2
    },
    {
      "type": "VEC4",
      "componentType": 5126,
      "count": 8,
      "normalized": false,
      "byteOffset": 3792,
      "bufferView": 2
    },
    {
      "type": "VEC4",
      "componentType": 5126,
      "count": 8,
      "normalized": false,
      "byteOffset": 3920,
      "bufferView": 2
    },
    {
      "type": "SCALAR",
      "componentType": 5123,
      "count": 858,
      "normalized": false,
      "byteOffset": 0,
      "bufferView": 3
    },
    {
      "type": "SCALAR",
      "componentType": 5123,
      "count": 204,
      "normalized": false,
      "byteOffset": 1716,
      "bufferView": 3
    },
    {
      "type": "SCALAR",
      "componentType": 5123,
      "count": 204,
      "normalized": false,
      "byteOffset": 2124,
      "bufferView": 3
    },
    {
      "type": "VEC3",
      "componentType": 5122,
      "count": 431,
      "max": [
        28259,
        32767,
        25363
      ],
      "min": [
        -28259,
        -32767,
        -25363
      ],
      "normalized": true,
      "byteOffset": 0,
      "bufferView": 4
    },
    {
      "type": "VEC3",
      "componentType": 5122,
      "count": 431,
      "normalized": true,
      "byteOffset": 0,
      "bufferView": 5
    },
    {
      "type": "VEC2",
      "componentType": 5123,
      "count": 431,
      "normalized": true,
      "byteOffset": 0,
      "bufferView": 6
    },
    {
      "type": "VEC3",
      "componentType": 5122,
      "count": 112,
      "max": [
        26387,
        32767,
        26387
      ],
      "min": [
        -26387,
        -32767,
        -26387
      ],
      "normalized": true,
      "byteOffset": 0,
      "bufferView": 7
    },
    {
      "type": "VEC3",
      "componentType": 5122,
      "count": 112,
      "normalized": true,
      "byteOffset": 0,
      "bufferView": 8
    },
    {
      "type": "VEC2",
      "componentType": 5123,
      "count": 112,
      "normalized": true,
      "byteOffset": 0,
      "bufferView": 9
    },
    {
      "type": "VEC3",
      "componentType": 5122,
      "count": 109,
      "max": [
        26387,
        32767,
        26387
      ],
      "min": [
        -26387,
        -32767,
        -26387
      ],
      "normalized": true,
      "byteOffset": 0,
      "bufferView": 10
    },
    {
      "type": "VEC3",
      "componentType": 5122,
      "count": 109,
      "normalized": true,
      "byteOffset": 0,
      "bufferView": 11
    },
    {
      "type": "VEC2",
      "componentType": 5123,
      "count": 109,
      "normalized": true,
      "byteOffset": 0,
      "bufferView": 12
    }
  ],
  "bufferViews": [
    {
      "buffer": 1,
      "byteOffset": 0,
      "byteLength": 244,
      "extensions": {
        "EXT_meshopt_compression": {
          "buffer": 0,
          "byteOffset": 0,
          "byteLength": 233,
          "mode": "ATTRIBUTES",
          "byteStride": 4,
          "count": 61
        }
      }
    },
    {
      "buffer": 1,
      "byteOffset": 244,
      "byteLength": 576,
      "extensions": {
        "EXT_meshopt_compression": {
          "buffer": 0,
          "byteOffset": 236,
          "byteLength": 300,
          "mode": "ATTRIBUTES",
          "byteStride": 12,
          "count": 48
        }
      }
    },
    {
      "buffer": 1,
      "byteOffset": 820,
      "byteLength": 4048,
      "extensions": {
        "EXT_meshopt_compression": {
          "buffer": 0,
          "byteOffset": 536,
          "byteLength": 2281,
          "mode": "ATTRIBUTES",
          "byteStride": 16,
          "count": 253
        }
      }
    },
    {
      "buffer": 1,
      "byteOffset": 4868,
      "byteLength": 2532,
      "target": 34963,
      "extensions": {
        "EXT_meshopt_compression": {
          "buffer": 0,
          "byteOffset": 2820,
          "byteLength": 455,
          "mode": "TRIANGLES",
          "byteStride": 2,
          "count": 1266
        }
      }
    },
    {
      "buffer": 1,
      "byteOffset": 7400,
      "byteLength": 3448,
      "target": 34962,
      "byteStride": 8,
      "extensions": {
        "EXT_meshopt_compression": {
          "buffer": 0,
          "byteOffset": 3276,
          "byteLength": 2394,
          "mode": "ATTRIBUTES",
          "byteStride": 8,
          "count": 431
        }
      }
    },
    {
      "buffer": 1,
      "byteOffset": 10848,
      "byteLength": 3448,
      "target": 34962,
      "byteStride": 8,
      "extensions": {
        "EXT_meshopt_compression": {
          "buffer": 0,
          "byteOffset": 5672,
          "byteLength": 2143,
          "mode": "ATTRIBUTES",
          "byteStride": 8,
          "count": 431
        }
      }
    },
    {
      "buffer": 1,
      "byteOffset": 14296,
      "byteLength": 1724,
      "target": 34962,
      "byteStride": 4,
      "extensions": {
        "EXT_meshopt_compression": {
          "buffer": 0,
          "byteOffset": 7816,
          "byteLength": 852,
          "mode": "ATTRIBUTES",
          "byteStride": 4,
          "count": 431
        }
      }
    },
    {
      "buffer": 1,
      "byteOffset": 16020,
      "byteLength": 896,
      "target": 34962,
      "byteStride": 8,
      "extensions": {
        "EXT_meshopt_compression": {
          "buffer": 0,
          "byteOffset": 8668,
          "byteLength": 710,
          "mode": "ATTRIBUTES",
          "byteStride": 8,
          "count": 112
        }
      }
    },
    {
      "buffer": 1,
      "byteOffset": 16916,
      "byteLength": 896,
      "target": 34962,
      "byteStride": 8,
      "extensions": {
        "EXT_meshopt_compression": {
          "buffer": 0,
          "byteOffset": 9380,
          "byteLength": 718,
          "mode": "ATTRIBUTES",
          "byteStride": 8,
          "count": 112
        }
      }
    },
    {
      "buffer": 1,
      "byteOffset": 17812,
      "byteLength": 448,
      "target": 34962,
      "byteStride": 4,
      "extensions": {
        "EXT_meshopt_compression": {
          "buffer": 0,
          "byteOffset": 10100,
          "byteLength": 266,
          "mode": "ATTRIBUTES",
          "byteStride": 4,
          "count": 112
        }
      }
    },
    {
      "buffer": 1,
      "byteOffset": 18260,
      "byteLength": 872,
      "target": 34962,
      "byteStride": 8,
      "extensions": {
        "EXT_meshopt_compression": {
          "buffer": 0,
          "byteOffset": 10368,
          "byteLength": 714,
          "mode": "ATTRIBUTES",
          "byteStride": 8,
          "count": 109
        }
      }
    },
    {
      "buffer": 1,
      "byteOffset": 19132,
      "byteLength": 872,
      "target": 34962,
      "byteStride": 8,
      "extensions": {
        "EXT_meshopt_compression": {
          "buffer": 0,
          "byteOffset": 11084,
          "byteLength": 718,
          "mode": "ATTRIBUTES",
          "byteStride": 8,
          "count": 109
        }
      }
    },
    {
      "buffer": 1,
      "byteOffset": 20004,
      "byteLength": 436,
      "target": 34962,
      "byteStride": 4,
      "extensions": {
        "EXT_meshopt_compression": {
          "buffer": 0,
          "byteOffset": 11804,
          "byteLength": 263,
          "mode": "ATTRIBUTES",
          "byteStride": 4,
          "count": 109
        }
      }
    }
  ],
  "samplers": [
    {
      "minFilter": 9987,
      "wrapS": 10497,
      "wrapT": 10497
    }
  ],
  "textures": [
    {
      "source": 0,
      "sampler": 0
    }
  ],
  "images": [
    {
      "name": "colormap",
      "mimeType": "image/png",
      "uri": "Textures/colormap.png"
    }
  ],
  "buffers": [
    {
      "uri": "animal-fish.bin",
      "byteLength": 12068
    },
    {
      "byteLength": 20440,
      "extensions": {
        "EXT_meshopt_compression": {
          "fallback": true
        }
      }
    }
  ],
  "materials": [
    {
      "name": "colormap",
      "doubleSided": true,
      "pbrMetallicRoughness": {
        "metallicFactor": 0,
        "baseColorTexture": {
          "index": 0,
          "extensions": {
            "KHR_texture_transform": {
              "texCoord": 0
            }
          }
        }
      }
    }
  ],
  "meshes": [
    {
      "name": "body",
      "primitives": [
        {
          "attributes": {
            "POSITION": 36,
            "NORMAL": 37,
            "TEXCOORD_0": 38
          },
          "mode": 4,
          "material": 0,
          "indices": 33
        }
      ]
    },
    {
      "name": "wing-right",
      "primitives": [
        {
          "attributes": {
            "POSITION": 39,
            "NORMAL": 40,
            "TEXCOORD_0": 41
          },
          "mode": 4,
          "material": 0,
          "indices": 34
        }
      ]
    },
    {
      "name": "wing-left",
      "primitives": [
        {
          "attributes": {
            "POSITION": 42,
            "NORMAL": 43,
            "TEXCOORD_0": 44
          },
          "mode": 4,
          "material": 0,
          "indices": 35
        }
      ]
    }
  ],
  "nodes": [
    {
      "name": "animal-fish",
      "children": [
        1
      ]
    },
    {
      "name": "root",
      "children": [
        2
      ]
    },
    {
      "name": "body",
      "translation": [
        1.57318176e-8,
        0.181249976,
        -3.80835026e-8
      ],
      "children": [
        3,
        4,
        5
      ]
    },
    {
      "name": "wing-right",
      "translation": [
        -0.625,
        0.412500024,
        0.2125001
      ],
      "children": [
        6
      ]
    },
    {
      "name": "wing-left",
      "translation": [
        0.625,
        0.412500024,
        0.2125001
      ],
      "children": [
        7
      ]
    },
    {
      "translation": [
        0,
        0.7369661554694176,
        0.004999876022338867
      ],
      "scale": [
        0.8139661327004433,
        0.8139661327004433,
        0.8139661327004433
      ],
      "mesh": 0
    },
    {
      "translation": [
        -0.1355290412902832,
        1.4901161193847656e-8,
        -0.27695034444332123
      ],
      "scale": [
        0.22500000894069672,
        0.22500000894069672,
        0.22500000894069672
      ],
      "mesh": 1
    },
    {
      "translation": [
        0.135528564453125,
        1.4901161193847656e-8,
        -0.2769503593444824
      ],
      "scale": [
        0.22500000894069672,
        0.22500000894069672,
        0.22500000894069672
      ],
      "mesh": 2
    }
  ],
  "animations": [
    {
      "name": "static",
      "samplers": [
        {
          "input": 0,
          "output": 1,
          "interpolation": "LINEAR"
        },
        {
          "input": 0,
          "output": 2,
          "interpolation": "LINEAR"
        },
        {
          "input": 0,
          "output": 3,
          "interpolation": "LINEAR"
        },
        {
          "input": 0,
          "output": 4,
          "interpolation": "LINEAR"
        },
        {
          "input": 0,
          "output": 2,
          "interpolation": "LINEAR"
        },
        {
          "input": 0,
          "output": 3,
          "interpolation": "LINEAR"
        },
        {
          "input": 0,
          "output": 5,
          "interpolation": "LINEAR"
        },
        {
          "input": 0,
          "output": 2,
          "interpolation": "LINEAR"
        },
        {
          "input": 0,
          "output": 3,
          "interpolation": "LINEAR"
        },
        {
          "input": 0,
          "output": 6,
          "interpolation": "LINEAR"
        },
        {
          "input": 0,
          "output": 2,
          "interpolation": "LINEAR"
        },
        {
          "input": 0,
          "output": 3,
          "interpolation": "LINEAR"
        }
      ],
      "channels": [
        {
          "sampler": 0,
          "target": {
            "node": 1,
            "path": "translation"
          }
        },
        {
          "sampler": 1,
          "target": {
            "node": 1,
            "path": "rotation"
          }
        },
        {
          "sampler": 2,
          "target": {
            "node": 1,
            "path": "scale"
          }
        },
        {
          "sampler": 3,
          "target": {
            "node": 2,
            "path": "translation"
          }
        },
        {
          "sampler": 4,
          "target": {
            "node": 2,
            "path": "rotation"
          }
        },
        {
          "sampler": 5,
          "target": {
            "node": 2,
            "path": "scale"
          }
        },
        {
          "sampler": 6,
          "target": {
            "node": 3,
            "path": "translation"
          }
        },
        {
          "sampler": 7,
          "target": {
            "node": 3,
            "path": "rotation"
          }
        },
        {
          "sampler": 8,
          "target": {
            "node": 3,
            "path": "scale"
          }
        },
        {
          "sampler": 9,
          "target": {
            "node": 4,
            "path": "translation"
          }
        },
        {
          "sampler": 10,
          "target": {
            "node": 4,
            "path": "rotation"
          }
        },
        {
          "sampler": 11,
          "target": {
            "node": 4,
            "path": "scale"
          }
        }
      ]
    },
    {
      "name": "idle",
      "samplers": [
        {
          "input": 7,
          "output": 1,
          "interpolation": "LINEAR"
        },
        {
          "input": 7,
          "output": 2,
          "interpolation": "LINEAR"
        },
        {
          "input": 7,
          "output": 3,
          "interpolation": "LINEAR"
        },
        {
          "input": 7,
          "output": 4,
          "interpolation": "LINEAR"
        },
        {
          "input": 8,
          "output": 9,
          "interpolation": "LINEAR"
        },
        {
          "input": 7,
          "output": 3,
          "interpolation": "LINEAR"
        },
        {
          "input": 7,
          "output": 5,
          "interpolation": "LINEAR"
        },
        {
          "input": 8,
          "output": 10,
          "interpolation": "LINEAR"
        },
        {
          "input": 7,
          "output": 3,
          "interpolation": "LINEAR"
        },
        {
          "input": 7,
          "output": 6,
          "interpolation": "LINEAR"
        },
        {
          "input": 8,
          "output": 11,
          "interpolation": "LINEAR"
        },
        {
          "input": 7,
          "output": 3,
          "interpolation": "LINEAR"
        }
      ],
      "channels": [
        {
          "sampler": 0,
          "target": {
            "node": 1,
            "path": "translation"
          }
        },
        {
          "sampler": 1,
          "target": {
            "node": 1,
            "path": "rotation"
          }
        },
        {
          "sampler": 2,
          "target": {
            "node": 1,
            "path": "scale"
          }
        },
        {
          "sampler": 3,
          "target": {
            "node": 2,
            "path": "translation"
          }
        },
        {
          "sampler": 4,
          "target": {
            "node": 2,
            "path": "rotation"
          }
        },
        {
          "sampler": 5,
          "target": {
            "node": 2,
            "path": "scale"
          }
        },
        {
          "sampler": 6,
          "target": {
            "node": 3,
            "path": "translation"
          }
        },
        {
          "sampler": 7,
          "target": {
            "node": 3,
            "path": "rotation"
          }
        },
        {
          "sampler": 8,
          "target": {
            "node": 3,
            "path": "scale"
          }
        },
        {
          "sampler": 9,
          "target": {
            "node": 4,
            "path": "translation"
          }
        },
        {
          "sampler": 10,
          "target": {
            "node": 4,
            "path": "rotation"
          }
        },
        {
          "sampler": 11,
          "target": {
            "node": 4,
            "path": "scale"
          }
        }
      ]
    },
    {
      "name": "walk",
      "samplers": [
        {
          "input": 12,
          "output": 13,
          "interpolation": "LINEAR"
        },
        {
          "input": 14,
          "output": 2,
          "interpolation": "LINEAR"
        },
        {
          "input": 14,
          "output": 3,
          "interpolation": "LINEAR"
        },
        {
          "input": 14,
          "output": 4,
          "interpolation": "LINEAR"
        },
        {
          "input": 12,
          "output": 15,
          "interpolation": "LINEAR"
        },
        {
          "input": 14,
          "output": 3,
          "interpolation": "LINEAR"
        },
        {
          "input": 14,
          "output": 5,
          "interpolation": "LINEAR"
        },
        {
          "input": 12,
          "output": 16,
          "interpolation": "LINEAR"
        },
        {
          "input": 14,
          "output": 3,
          "interpolation": "LINEAR"
        },
        {
          "input": 14,
          "output": 6,
          "interpolation": "LINEAR"
        },
        {
          "input": 12,
          "output": 17,
          "interpolation": "LINEAR"
        },
        {
          "input": 14,
          "output": 3,
          "interpolation": "LINEAR"
        }
      ],
      "channels": [
        {
          "sampler": 0,
          "target": {
            "node": 1,
            "path": "translation"
          }
        },
        {
          "sampler": 1,
          "target": {
            "node": 1,
            "path": "rotation"
          }
        },
        {
          "sampler": 2,
          "target": {
            "node": 1,
            "path": "scale"
          }
        },
        {
          "sampler": 3,
          "target": {
            "node": 2,
            "path": "translation"
          }
        },
        {
          "sampler": 4,
          "target": {
            "node": 2,
            "path": "rotation"
          }
        },
        {
          "sampler": 5,
          "target": {
            "node": 2,
            "path": "scale"
          }
        },
        {
          "sampler": 6,
          "target": {
            "node": 3,
            "path": "translation"
          }
        },
        {
          "sampler": 7,
          "target": {
            "node": 3,
            "path": "rotation"
          }
        },
        {
          "sampler": 8,
          "target": {
            "node": 3,
            "path": "scale"
          }
        },
        {
          "sampler": 9,
          "target": {
            "node": 4,
            "path": "translation"
          }
        },
        {
          "sampler": 10,
          "target": {
            "node": 4,
            "path": "rotation"
          }
        },
        {
          "sampler": 11,
          "target": {
            "node": 4,
            "path": "scale"
          }
        }
      ]
    },
    {
      "name": "run",
      "samplers": [
        {
          "input": 18,
          "output": 19,
          "interpolation": "LINEAR"
        },
        {
          "input": 20,
          "output": 2,
          "interpolation": "LINEAR"
        },
        {
          "input": 20,
          "output": 3,
          "interpolation": "LINEAR"
        },
        {
          "input": 20,
          "output": 4,
          "interpolation": "LINEAR"
        },
        {
          "input": 18,
          "output": 21,
          "interpolation": "LINEAR"
        },
        {
          "input": 20,
          "output": 3,
          "interpolation": "LINEAR"
        },
        {
          "input": 20,
          "output": 5,
          "interpolation": "LINEAR"
        },
        {
          "input": 18,
          "output": 22,
          "interpolation": "LINEAR"
        },
        {
          "input": 20,
          "output": 3,
          "interpolation": "LINEAR"
        },
        {
          "input": 20,
          "output": 6,
          "interpolation": "LINEAR"
        },
        {
          "input": 18,
          "output": 23,
          "interpolation": "LINEAR"
        },
        {
          "input": 20,
          "output": 3,
          "interpolation": "LINEAR"
        }
      ],
      "channels": [
        {
          "sampler": 0,
          "target": {
            "node": 1,
            "path": "translation"
          }
        },
        {
          "sampler": 1,
          "target": {
            "node": 1,
            "path": "rotation"
          }
        },
        {
          "sampler": 2,
          "target": {
            "node": 1,
            "path": "scale"
          }
        },
        {
          "sampler": 3,
          "target": {
            "node": 2,
            "path": "translation"
          }
        },
        {
          "sampler": 4,
          "target": {
            "node": 2,
            "path": "rotation"
          }
        },
        {
          "sampler": 5,
          "target": {
            "node": 2,
            "path": "scale"
          }
        },
        {
          "sampler": 6,
          "target": {
            "node": 3,
            "path": "translation"
          }
        },
        {
          "sampler": 7,
          "target": {
            "node": 3,
            "path": "rotation"
          }
        },
        {
          "sampler": 8,
          "target": {
            "node": 3,
            "path": "scale"
          }
        },
        {
          "sampler": 9,
          "target": {
            "node": 4,
            "path": "translation"
          }
        },
        {
          "sampler": 10,
          "target": {
            "node": 4,
            "path": "rotation"
          }
        },
        {
          "sampler": 11,
          "target": {
            "node": 4,
            "path": "scale"
          }
        }
      ]
    },
    {
      "name": "eat",
      "samplers": [
        {
          "input": 14,
          "output": 1,
          "interpolation": "LINEAR"
        },
        {
          "input": 14,
          "output": 2,
          "interpolation": "LINEAR"
        },
        {
          "input": 14,
          "output": 3,
          "interpolation": "LINEAR"
        },
        {
          "input": 14,
          "output": 4,
          "interpolation": "LINEAR"
        },
        {
          "input": 12,
          "output": 24,
          "interpolation": "LINEAR"
        },
        {
          "input": 14,
          "output": 3,
          "interpolation": "LINEAR"
        },
        {
          "input": 14,
          "output": 5,
          "interpolation": "LINEAR"
        },
        {
          "input": 12,
          "output": 25,
          "interpolation": "LINEAR"
        },
        {
          "input": 14,
          "output": 3,
          "interpolation": "LINEAR"
        },
        {
          "input": 14,
          "output": 6,
          "interpolation": "LINEAR"
        },
        {
          "input": 12,
          "output": 26,
          "interpolation": "LINEAR"
        },
        {
          "input": 14,
          "output": 3,
          "interpolation": "LINEAR"
        }
      ],
      "channels": [
        {
          "sampler": 0,
          "target": {
            "node": 1,
            "path": "translation"
          }
        },
        {
          "sampler": 1,
          "target": {
            "node": 1,
            "path": "rotation"
          }
        },
        {
          "sampler": 2,
          "target": {
            "node": 1,
            "path": "scale"
          }
        },
        {
          "sampler": 3,
          "target": {
            "node": 2,
            "path": "translation"
          }
        },
        {
          "sampler": 4,
          "target": {
            "node": 2,
            "path": "rotation"
          }
        },
        {
          "sampler": 5,
          "target": {
            "node": 2,
            "path": "scale"
          }
        },
        {
          "sampler": 6,
          "target": {
            "node": 3,
            "path": "translation"
          }
        },
        {
          "sampler": 7,
          "target": {
            "node": 3,
            "path": "rotation"
          }
        },
        {
          "sampler": 8,
          "target": {
            "node": 3,
            "path": "scale"
          }
        },
        {
          "sampler": 9,
          "target": {
            "node": 4,
            "path": "translation"
          }
        },
        {
          "sampler": 10,
          "target": {
            "node": 4,
            "path": "rotation"
          }
        },
        {
          "sampler": 11,
          "target": {
            "node": 4,
            "path": "scale"
          }
        }
      ]
    },
    {
      "name": "dance",
      "samplers": [
        {
          "input": 14,
          "output": 1,
          "interpolation": "LINEAR"
        },
        {
          "input": 14,
          "output": 2,
          "interpolation": "LINEAR"
        },
        {
          "input": 14,
          "output": 3,
          "interpolation": "LINEAR"
        },
        {
          "input": 12,
          "output": 27,
          "interpolation": "LINEAR"
        },
        {
          "input": 12,
          "output": 28,
          "interpolation": "LINEAR"
        },
        {
          "input": 14,
          "output": 3,
          "interpolation": "LINEAR"
        },
        {
          "input": 14,
          "output": 5,
          "interpolation": "LINEAR"
        },
        {
          "input": 12,
          "output": 25,
          "interpolation": "LINEAR"
        },
        {
          "input": 14,
          "output": 3,
          "interpolation": "LINEAR"
        },
        {
          "input": 14,
          "output": 6,
          "interpolation": "LINEAR"
        },
        {
          "input": 12,
          "output": 26,
          "interpolation": "LINEAR"
        },
        {
          "input": 14,
          "output": 3,
          "interpolation": "LINEAR"
        }
      ],
      "channels": [
        {
          "sampler": 0,
          "target": {
            "node": 1,
            "path": "translation"
          }
        },
        {
          "sampler": 1,
          "target": {
            "node": 1,
            "path": "rotation"
          }
        },
        {
          "sampler": 2,
          "target": {
            "node": 1,
            "path": "scale"
          }
        },
        {
          "sampler": 3,
          "target": {
            "node": 2,
            "path": "translation"
          }
        },
        {
          "sampler": 4,
          "target": {
            "node": 2,
            "path": "rotation"
          }
        },
        {
          "sampler": 5,
          "target": {
            "node": 2,
            "path": "scale"
          }
        },
        {
          "sampler": 6,
          "target": {
            "node": 3,
            "path": "translation"
          }
        },
        {
          "sampler": 7,
          "target": {
            "node": 3,
            "path": "rotation"
          }
        },
        {
          "sampler": 8,
          "target": {
            "node": 3,
            "path": "scale"
          }
        },
        {
          "sampler": 9,
          "target": {
            "node": 4,
            "path": "translation"
          }
        },
        {
          "sampler": 10,
          "target": {
            "node": 4,
            "path": "rotation"
          }
        },
        {
          "sampler": 11,
          "target": {
            "node": 4,
            "path": "scale"
          }
        }
      ]
    },
    {
      "name": "gesture-positive",
      "samplers": [
        {
          "input": 20,
          "output": 1,
          "interpolation": "LINEAR"
        },
        {
          "input": 20,
          "output": 2,
          "interpolation": "LINEAR"
        },
        {
          "input": 20,
          "output": 3,
          "interpolation": "LINEAR"
        },
        {
          "input": 20,
          "output": 4,
          "interpolation": "LINEAR"
        },
        {
          "input": 18,
          "output": 29,
          "interpolation": "LINEAR"
        },
        {
          "input": 20,
          "output": 3,
          "interpolation": "LINEAR"
        },
        {
          "input": 20,
          "output": 5,
          "interpolation": "LINEAR"
        },
        {
          "input": 18,
          "output": 30,
          "interpolation": "LINEAR"
        },
        {
          "input": 20,
          "output": 3,
          "interpolation": "LINEAR"
        },
        {
          "input": 20,
          "output": 6,
          "interpolation": "LINEAR"
        },
        {
          "input": 18,
          "output": 31,
          "interpolation": "LINEAR"
        },
        {
          "input": 20,
          "output": 3,
          "interpolation": "LINEAR"
        }
      ],
      "channels": [
        {
          "sampler": 0,
          "target": {
            "node": 1,
            "path": "translation"
          }
        },
        {
          "sampler": 1,
          "target": {
            "node": 1,
            "path": "rotation"
          }
        },
        {
          "sampler": 2,
          "target": {
            "node": 1,
            "path": "scale"
          }
        },
        {
          "sampler": 3,
          "target": {
            "node": 2,
            "path": "translation"
          }
        },
        {
          "sampler": 4,
          "target": {
            "node": 2,
            "path": "rotation"
          }
        },
        {
          "sampler": 5,
          "target": {
            "node": 2,
            "path": "scale"
          }
        },
        {
          "sampler": 6,
          "target": {
            "node": 3,
            "path": "translation"
          }
        },
        {
          "sampler": 7,
          "target": {
            "node": 3,
            "path": "rotation"
          }
        },
        {
          "sampler": 8,
          "target": {
            "node": 3,
            "path": "scale"
          }
        },
        {
          "sampler": 9,
          "target": {
            "node": 4,
            "path": "translation"
          }
        },
        {
          "sampler": 10,
          "target": {
            "node": 4,
            "path": "rotation"
          }
        },
        {
          "sampler": 11,
          "target": {
            "node": 4,
            "path": "scale"
          }
        }
      ]
    },
    {
      "name": "gesture-negative",
      "samplers": [
        {
          "input": 20,
          "output": 1,
          "interpolation": "LINEAR"
        },
        {
          "input": 20,
          "output": 2,
          "interpolation": "LINEAR"
        },
        {
          "input": 20,
          "output": 3,
          "interpolation": "LINEAR"
        },
        {
          "input": 20,
          "output": 4,
          "interpolation": "LINEAR"
        },
        {
          "input": 18,
          "output": 32,
          "interpolation": "LINEAR"
        },
        {
          "input": 20,
          "output": 3,
          "interpolation": "LINEAR"
        },
        {
          "input": 20,
          "output": 5,
          "interpolation": "LINEAR"
        },
        {
          "input": 18,
          "output": 30,
          "interpolation": "LINEAR"
        },
        {
          "input": 20,
          "output": 3,
          "interpolation": "LINEAR"
        },
        {
          "input": 20,
          "output": 6,
          "interpolation": "LINEAR"
        },
        {
          "input": 18,
          "output": 31,
          "interpolation": "LINEAR"
        },
        {
          "input": 20,
          "output": 3,
          "interpolation": "LINEAR"
        }
      ],
      "channels": [
        {
          "sampler": 0,
          "target": {
            "node": 1,
            "path": "translation"
          }
        },
        {
          "sampler": 1,
          "target": {
            "node": 1,
            "path": "rotation"
          }
        },
        {
          "sampler": 2,
          "target": {
            "node": 1,
            "path": "scale"
          }
        },
        {
          "sampler": 3,
          "target": {
            "node": 2,
            "path": "translation"
          }
        },
        {
          "sampler": 4,
          "target": {
            "node": 2,
            "path": "rotation"
          }
        },
        {
          "sampler": 5,
          "target": {
            "node": 2,
            "path": "scale"
          }
        },
        {
          "sampler": 6,
          "target": {
            "node": 3,
            "path": "translation"
          }
        },
        {
          "sampler": 7,
          "target": {
            "node": 3,
            "path": "rotation"
          }
        },
        {
          "sampler": 8,
          "target": {
            "node": 3,
            "path": "scale"
          }
        },
        {
          "sampler": 9,
          "target": {
            "node": 4,
            "path": "translation"
          }
        },
        {
          "sampler": 10,
          "target": {
            "node": 4,
            "path": "rotation"
          }
        },
        {
          "sampler": 11,
          "target": {
            "node": 4,
            "path": "scale"
          }
        }
      ]
    }
  ],
  "scenes": [
    {
      "name": "animal-fish",
      "nodes": [
        0
      ]
    }
  ],
  "scene": 0,
  "extensionsUsed": [
    "EXT_meshopt_compression",
    "KHR_mesh_quantization",
    "KHR_texture_transform"
  ],
  "extensionsRequired": [
    "EXT_meshopt_compression",
    "KHR_mesh_quantization"
  ]
}