{
  "asset": {
    "generator": "glTF-Transform v4.5.1",
    "version": "2.0"
  },
  "accessors": [
    {
      "type": "SCALAR",
      "componentType": 5126,
      "count": 2,
      "max": [
        0.10000000149011612
      ],
      "min": [
        0
      ],
      "normalized": false,
      "byteOffset": 0,
      "bufferView": 0
    },
    {
      "type": "VEC3",
      "componentType": 5126,
      "count": 2,
      "normalized": false,
      "byteOffset": 0,
      "bufferView": 1
    },
    {
      "type": "VEC4",
      "componentType": 5126,
      "count": 2,
      "normalized": false,
      "byteOffset": 0,
      "bufferView": 2
    },
    {
      "type": "VEC3",
      "componentType": 5126,
      "count": 2,
      "normalized": false,
      "byteOffset": 24,
      "bufferView": 1
    },
    {
      "type": "VEC3",
      "componentType": 5126,
      "count": 2,
      "normalized": false,
      "byteOffset": 48,
      "bufferView": 1
    },
    {
      "type": "VEC3",
      "componentType": 5126,
      "count": 2,
      "normalized": false,
      "byteOffset": 72,
      "bufferView": 1
    },
    {
      "type": "VEC3",
      "componentType": 5126,
      "count": 2,
      "normalized": false,
      "byteOffset": 96,
      "bufferView": 1
    },
    {
      "type": "VEC3",
      "componentType": 5126,
      "count": 2,
      "normalized": false,
      "byteOffset": 120,
      "bufferView": 1
    },
    {
      "type": "VEC3",
      "componentType": 5126,
      "count": 2,
      "normalized": false,
      "byteOffset": 144,
      "bufferView": 1
    },
    {
      "type": "SCALAR",
      "componentType": 5126,
      "count": 2,
      "max": [
        1
      ],
      "min": [
        0
      ],
      "normalized": false,
      "byteOffset": 8,
      "bufferView": 0
    },
    {
      "type": "SCALAR",
      "componentType": 5126,
      "count": 30,
      "max": [
        1
      ],
      "min": [
        0
      ],
      "normalized": false,
      "byteOffset": 16,
      "bufferView": 0
    },
    {
      "type": "VEC4",
      "componentType": 5126,
      "count": 30,
      "normalized": false,
      "byteOffset": 32,
      "bufferView": 2
    },
    {
      "type": "SCALAR",
      "componentType": 5126,
      "count": 15,
      "max": [
        0.5
      ],
      "min": [
        0
      ],
      "normalized": false,
      "byteOffset": 136,
      "bufferView": 0
    },
    {
      "type": "VEC3",
      "componentType": 5126,
      "count": 15,
      "normalized": false,
      "byteOffset": 168,
      "bufferView": 1
    },
    {
      "type": "SCALAR",
      "componentType": 5126,
      "count": 2,
      "max": [
        0.5
      ],
      "min": [
        0
      ],
      "normalized": false,
      "byteOffset": 196,
      "bufferView": 0
    },
    {
      "type": "VEC4",
      "componentType": 5126,
      "count": 15,
      "normalized": false,
      "byteOffset": 512,
      "bufferView": 2
    },
    {
      "type": "VEC4",
      "componentType": 5126,
      "count": 15,
      "normalized": false,
      "byteOffset": 752,
      "bufferView": 2
    },
    {
      "type": "VEC4",
      "componentType": 5126,
      "count": 15,
      "normalized": false,
      "byteOffset": 992,
      "bufferView": 2
    },
    {
      "type": "SCALAR",
      "componentType": 5126,
      "count": 8,
      "max": [
        0.25
      ],
      "min": [
        0
      ],
      "normalized": false,
      "byteOffset": 204,
      "bufferView": 0
    },
    {
      "type": "VEC3",
      "componentType": 5126,
      "count": 8,
      "normalized": false,
      "byteOffset": 348,
      "bufferView": 1
    },
    {
      "type": "SCALAR",
      "componentType": 5126,
      "count": 2,
      "max": [
        0.25
      ],
      "min": [
        0
      ],
      "normalized": false,
      "byteOffset": 236,
      "bufferView": 0
    },
    {
      "type": "VEC4",
      "componentType": 5126,
      "count": 8,
      "normalized": false,
      "byteOffset": 1232,
      "bufferView": 2
    },
    {
      "type": "VEC4",
      "componentType": 5126,
      "count": 8,
      "normalized": false,
      "byteOffset": 1360,
      "bufferView": 2
    },
    {
      "type": "VEC4",
      "componentType": 5126,
      "count": 8,
      "normalized": false,
      "byteOffset": 1488,
      "bufferView": 2
    },
    {
      "type": "VEC4",
      "componentType": 5126,
      "count": 15,
      "normalized": false,
      "byteOffset": 1616,
      "bufferView": 2
    },
    {
      "type": "VEC3",
      "componentType": 5126,
      "count": 15,
      "normalized": false,
      "byteOffset": 444,
      "bufferView": 1
    },
    {
      "type": "VEC4",
      "componentType": 5126,
      "count": 15,
      "normalized": false,
      "byteOffset": 1856,
      "bufferView": 2
    },
    {
      "type": "VEC4",
      "componentType": 5126,
      "count": 8,
      "normalized": false,
      "byteOffset": 2096,
      "bufferView": 2
    },
    {
      "type": "VEC4",
      "componentType": 5126,
      "count": 8,
      "normalized": false,
      "byteOffset": 2224,
      "bufferView": 2
    },
    {
      "type": "SCALAR",
      "componentType": 5123,
      "count": 1254,
      "normalized": false,
      "byteOffset": 0,
      "bufferView": 3
    },
    {
      "type": "SCALAR",
      "componentType": 5123,
      "count": 132,
      "normalized": false,
      "byteOffset": 2508,
      "bufferView": 3
    },
    {
      "type": "SCALAR",
      "componentType": 5123,
      "count": 132,
      "normalized": false,
      "byteOffset": 2772,
      "bufferView": 3
    },
    {
      "type": "SCALAR",
      "componentType": 5123,
      "count": 132,
      "normalized": false,
      "byteOffset": 3036,
      "bufferView": 3
    },
    {
      "type": "SCALAR",
      "componentType": 5123,
      "count": 132,
      "normalized": false,
      "byteOffset": 3300,
      "bufferView": 3
    },
    {
      "type": "VEC3",
      "componentType": 5122,
      "count": 683,
      "max": [
        32767,
        21618,
        23430
      ],
      "min": [
        -32767,
        -21618,
        -23430
      ],
      "normalized": true,
      "byteOffset": 0,
      "bufferView": 4
    },
    {
      "type": "VEC3",
      "componentType": 5122,
      "count": 683,
      "normalized": true,
      "byteOffset": 0,
      "bufferView": 5
    },
    {
      "type": "VEC2",
      "componentType": 5123,
      "count": 683,
      "normalized": true,
      "byteOffset": 0,
      "bufferView": 6
    },
    {
      "type": "VEC3",
      "componentType": 5122,
      "count": 76,
      "max": [
        32767,
        26759,
        32767
      ],
      "min": [
        -32767,
        -26759,
        -32767
      ],
      "normalized": true,
      "byteOffset": 0,
      "bufferView": 7
    },
    {
      "type": "VEC3",
      "componentType": 5122,
      "count": 76,
      "normalized": true,
      "byteOffset": 0,
      "bufferView": 8
    },
    {
      "type": "VEC2",
      "componentType": 5123,
      "count": 76,
      "normalized": true,
      "byteOffset": 0,
      "bufferView": 9
    },
    {
      "type": "VEC3",
      "componentType": 5122,
      "count": 76,
      "max": [
        32767,
        26759,
        32767
      ],
      "min": [
        -32767,
        -26759,
        -32767
      ],
      "normalized": true,
      "byteOffset": 0,
      "bufferView": 10
    },
    {
      "type": "VEC3",
      "componentType": 5122,
      "count": 76,
      "normalized": true,
      "byteOffset": 0,
      "bufferView": 11
    },
    {
      "type": "VEC2",
      "componentType": 5123,
      "count": 76,
      "normalized": true,
      "byteOffset": 0,
      "bufferView": 12
    },
    {
      "type": "VEC3",
      "componentType": 5122,
      "count": 76,
      "max": [
        32767,
        26759,
        32767
      ],
      "min": [
        -32767,
        -26759,
        -32767
      ],
      "normalized": true,
      "byteOffset": 0,
      "bufferView": 13
    },
    {
      "type": "VEC3",
      "componentType": 5122,
      "count": 76,
      "normalized": true,
      "byteOffset": 0,
      "bufferView": 14
    },
    {
      "type": "VEC2",
      "componentType": 5123,
      "count": 76,
      "normalized": true,
      "byteOffset": 0,
      "bufferView": 15
    },
    {
      "type": "VEC3",
      "componentType": 5122,
      "count": 76,
      "max": [
        32767,
        26759,
        32767
      ],
      "min": [
        -32767,
        -26759,
        -32767
      ],
      "normalized": true,
      "byteOffset": 0,
      "bufferView": 16
    },
    {
      "type": "VEC3",
      "componentType": 5122,
      "count": 76,
      "normalized": true,
      "byteOffset": 0,
      "bufferView": 17
    },
    {
      "type": "VEC2",
      "componentType": 5123,
      "count": 76,
      "normalized": true,
      "byteOffset": 0,
      "bufferView": 18
    }
  ],
  "bufferViews": [
    {
      "buffer": 1,
      "byteOffset": 0,
      "byteLength": 244,
      "extensions": {
        "EXT_meshopt_compression": {
          "buffer": 0,
          "byteOffset": 0,
          "byteLength": 233,
          "mode": "ATTRIBUTES",
          "byteStride": 4,
          "count": 61
        }
      }
    },
    {
      "buffer": 1,
      "byteOffset": 244,
      "byteLength": 624,
      "extensions": {
        "EXT_meshopt_compression": {
          "buffer": 0,
          "byteOffset": 236,
          "byteLength": 312,
          "mode": "ATTRIBUTES",
          "byteStride": 12,
          "count": 52
        }
      }
    },
    {
      "buffer": 1,
      "byteOffset": 868,
      "byteLength": 2352,
      "extensions": {
        "EXT_meshopt_compression": {
          "buffer": 0,
          "byteOffset": 548,
          "byteLength": 1507,
          "mode": "ATTRIBUTES",
          "byteStride": 16,
          "count": 147
        }
      }
    },
    {
      "buffer": 1,
      "byteOffset": 3220,
      "byteLength": 3564,
      "target": 34963,
      "extensions": {
        "EXT_meshopt_compression": {
          "buffer": 0,
          "byteOffset": 2056,
          "byteLength": 651,
          "mode": "TRIANGLES",
          "byteStride": 2,
          "count": 1782
        }
      }
    },
    {
      "buffer": 1,
      "byteOffset": 6784,
      "byteLength": 5464,
      "target": 34962,
      "byteStride": 8,
      "extensions": {
        "EXT_meshopt_compression": {
          "buffer": 0,
          "byteOffset": 2708,
          "byteLength": 3930,
          "mode": "ATTRIBUTES",
          "byteStride": 8,
          "count": 683
        }
      }
    },
    {
      "buffer": 1,
      "byteOffset": 12248,
      "byteLength": 5464,
      "target": 34962,
      "byteStride": 8,
      "extensions": {
        "EXT_meshopt_compression": {
          "buffer": 0,
          "byteOffset": 6640,
          "byteLength": 3776,
          "mode": "ATTRIBUTES",
          "byteStride": 8,
          "count": 683
        }
      }
    },
    {
      "buffer": 1,
      "byteOffset": 17712,
      "byteLength": 2732,
      "target": 34962,
      "byteStride": 4,
      "extensions": {
        "EXT_meshopt_compression": {
          "buffer": 0,
          "byteOffset": 10416,
          "byteLength": 1324,
          "mode": "ATTRIBUTES",
          "byteStride": 4,
          "count": 683
        }
      }
    },
    {
      "buffer": 1,
      "byteOffset": 20444,
      "byteLength": 608,
      "target": 34962,
      "byteStride": 8,
      "extensions": {
        "EXT_meshopt_compression": {
          "buffer": 0,
          "byteOffset": 11740,
          "byteLength": 487,
          "mode": "ATTRIBUTES",
          "byteStride": 8,
          "count": 76
        }
      }
    },
    {
      "buffer": 1,
      "byteOffset": 21052,
      "byteLength": 608,
      "target": 34962,
      "byteStride": 8,
      "extensions": {
        "EXT_meshopt_compression": {
          "buffer": 0,
          "byteOffset": 12228,
          "byteLength": 481,
          "mode": "ATTRIBUTES",
          "byteStride": 8,
          "count": 76
        }
      }
    },
    {
      "buffer": 1,
      "byteOffset": 21660,
      "byteLength": 304,
      "target": 34962,
      "byteStride": 4,
      "extensions": {
        "EXT_meshopt_compression": {
          "buffer": 0,
          "byteOffset": 12712,
          "byteLength": 181,
          "mode": "ATTRIBUTES",
          "byteStride": 4,
          "count": 76
        }
      }
    },
    {
      "buffer": 1,
      "byteOffset": 21964,
      "byteLength": 608,
      "target": 34962,
      "byteStride": 8,
      "extensions": {
        "EXT_meshopt_compression": {
          "buffer": 0,
          "byteOffset": 12896,
          "byteLength": 490,
          "mode": "ATTRIBUTES",
          "byteStride": 8,
          "count": 76
        }
      }
    },
    {
      "buffer": 1,
      "byteOffset": 22572,
      "byteLength": 608,
      "target": 34962,
      "byteStride": 8,
      "extensions": {
        "EXT_meshopt_compression": {
          "buffer": 0,
          "byteOffset": 13388,
          "byteLength": 483,
          "mode": "ATTRIBUTES",
          "byteStride": 8,
          "count": 76
        }
      }
    },
    {
      "buffer": 1,
      "byteOffset": 23180,
      "byteLength": 304,
      "target": 34962,
      "byteStride": 4,
      "extensions": {
        "EXT_meshopt_compression": {
          "buffer": 0,
          "byteOffset": 13872,
          "byteLength": 185,
          "mode": "ATTRIBUTES",
          "byteStride": 4,
          "count": 76
        }
      }
    },
    {
      "buffer": 1,
      "byteOffset": 23484,
      "byteLength": 608,
      "target": 34962,
      "byteStride": 8,
      "extensions": {
        "EXT_meshopt_compression": {
          "buffer": 0,
          "byteOffset": 14060,
          "byteLength": 484,
          "mode": "ATTRIBUTES",
          "byteStride": 8,
          "count": 76
        }
      }
    },
    {
      "buffer": 1,
      "byteOffset": 24092,
      "byteLength": 608,
      "target": 34962,
      "byteStride": 8,
      "extensions": {
        "EXT_meshopt_compression": {
          "buffer": 0,
          "byteOffset": 14544,
          "byteLength": 486,
          "mode": "ATTRIBUTES",
          "byteStride": 8,
          "count": 76
        }
      }
    },
    {
      "buffer": 1,
      "byteOffset": 24700,
      "byteLength": 304,
      "target": 34962,
      "byteStride": 4,
      "extensions": {
        "EXT_meshopt_compression": {
          "buffer": 0,
          "byteOffset": 15032,
          "byteLength": 181,
          "mode": "ATTRIBUTES",
          "byteStride": 4,
          "count": 76
        }
      }
    },
    {
      "buffer": 1,
      "byteOffset": 25004,
      "byteLength": 608,
      "target": 34962,
      "byteStride": 8,
      "extensions": {
        "EXT_meshopt_compression": {
          "buffer": 0,
          "byteOffset": 15216,
          "byteLength": 485,
          "mode": "ATTRIBUTES",
          "byteStride": 8,
          "count": 76
        }
      }
    },
    {
      "buffer": 1,
      "byteOffset": 25612,
      "byteLength": 608,
      "target": 34962,
      "byteStride": 8,
      "extensions": {
        "EXT_meshopt_compression": {
          "buffer": 0,
          "byteOffset": 15704,
          "byteLength": 482,
          "mode": "ATTRIBUTES",
          "byteStride": 8,
          "count": 76
        }
      }
    },
    {
      "buffer": 1,
      "byteOffset": 26220,
      "byteLength": 304,
      "target": 34962,
      "byteStride": 4,
      "extensions": {
        "EXT_meshopt_compression": {
          "buffer": 0,
          "byteOffset": 16188,
          "byteLength": 185,
          "mode": "ATTRIBUTES",
          "byteStride": 4,
          "count": 76
        }
      }
    }
  ],
  "samplers": [
    {
      "minFilter": 9987,
      "wrapS": 10497,
      "wrapT": 10497
    }
  ],
  "textures": [
    {
      "source": 0,
      "sampler": 0
    }
  ],
  "images": [
    {
      "name": "colormap",
      "mimeType": "image/png",
      "uri": "Textures/colormap.png"
    }
  ],
  "buffers": [
    {
      "uri": "animal-koala.bin",
      "byteLength": 16376
    },
    {
      "byteLength": 26524,
      "extensions": {
        "EXT_meshopt_compression": {
          "fallback": true
        }
      }
    }
  ],
  "materials": [
    {
      "name": "colormap",
      "doubleSided": true,
      "pbrMetallicRoughness": {
        "metallicFactor": 0,
        "baseColorTexture": {
          "index": 0,
          "extensions": {
            "KHR_texture_transform": {
              "texCoord": 0
            }
          }
        }
      }
    }
  ],
  "meshes": [
    {
      "name": "body",
      "primitives": [
        {
          "attributes": {
            "POSITION": 34,
            "NORMAL": 35,
            "TEXCOORD_0": 36
          },
          "mode": 4,
          "material": 0,
          "indices": 29
        }
      ]
    },
    {
      "name": "leg-back-left",
      "primitives": [
        {
          "attributes": {
            "POSITION": 37,
            "NORMAL": 38,
            "TEXCOORD_0": 39
          },
          "mode": 4,
          "material": 0,
          "indices": 30
        }
      ]
    },
    {
      "name": "leg-back-right",
      "primitives": [
        {
          "attributes": {
            "POSITION": 40,
            "NORMAL": 41,
            "TEXCOORD_0": 42
          },
          "mode": 4,
          "material": 0,
          "indices": 31
        }
      ]
    },
    {
      "name": "leg-front-left",
      "primitives": [
        {
          "attributes": {
            "POSITION": 43,
            "NORMAL": 44,
            "TEXCOORD_0": 45
          },
          "mode": 4,
          "material": 0,
          "indices": 32
        }
      ]
    },
    {
      "name": "leg-front-right",
      "primitives": [
        {
          "attributes": {
            "POSITION": 46,
            "NORMAL": 47,
            "TEXCOORD_0": 48
          },
          "mode": 4,
          "material": 0,
          "indices": 33
        }
      ]
    }
  ],
  "nodes": [
    {
      "name": "animal-koala",
      "children": [
        1
      ]
    },
    {
      "name": "root",
      "children": [
        2,
        3,
        4,
        5,
        6
      ]
    },
    {
      "name": "body",
      "translation": [
        1.57318212e-8,
        0.181249976,
        -3.80835026e-8
      ],
      "children": [
        7
      ]
    },
    {
      "name": "leg-back-left",
      "translation": [
        0.25,
        0.3,
        -0.25
      ],
      "children": [
        8
      ]
    },
    {
      "name": "leg-back-right",
      "translation": [
        -0.25,
        0.3,
        -0.25
      ],
      "children": [
        9
      ]
    },
    {
      "name": "leg-front-left",
      "translation": [
        0.25,
        0.3,
        0.25
      ],
      "children": [
        10
      ]
    },
    {
      "name": "leg-front-right",
      "translation": [
        -0.25,
        0.3,
        0.25
      ],
      "children": [
        11
      ]
    },
    {
      "translation": [
        0,
        0.6407824754714966,
        0.06949996948242188
      ],
      "scale": [
        0.9713376760482788,
        0.9713376760482788,
        0.9713376760482788
      ],
      "mesh": 0
    },
    {
      "translation": [
        0,
        -0.14687500894069672,
        0
      ],
      "scale": [
        0.18750004470348358,
        0.18750004470348358,
        0.18750004470348358
      ],
      "mesh": 1
    },
    {
      "translation": [
        0,
        -0.14687500894069672,
        0
      ],
      "scale": [
        0.18750004470348358,
        0.18750004470348358,
        0.18750004470348358
      ],
      "mesh": 2
    },
    {
      "translation": [
        0,
        -0.14687500894069672,
        0
      ],
      "scale": [
        0.18750004470348358,
        0.18750004470348358,
        0.18750004470348358
      ],
      "mesh": 3
    },
    {
      "translation": [
        0,
        -0.14687500894069672,
        0
      ],
      "scale": [
        0.18750004470348358,
        0.18750004470348358,
        0.18750004470348358
      ],
      "mesh": 4
    }
  ],
  "animations": [
    {
      "name": "static",
      "samplers": [
        {
          "input": 0,
          "output": 1,
          "interpolation": "LINEAR"
        },
        {
          "input": 0,
          "output": 2,
          "interpolation": "LINEAR"
        },
        {
          "input": 0,
          "output": 3,
          "interpolation": "LINEAR"
        },
        {
          "input": 0,
          "output": 4,
          "interpolation": "LINEAR"
        },
        {
          "input": 0,
          "output": 2,
          "interpolation": "LINEAR"
        },
        {
          "input": 0,
          "output": 3,
          "interpolation": "LINEAR"
        },
        {
          "input": 0,
          "output": 5,
          "interpolation": "LINEAR"
        },
        {
          "input": 0,
          "output": 2,
          "interpolation": "LINEAR"
        },
        {
          "input": 0,
          "output": 3,
          "interpolation": "LINEAR"
        },
        {
          "input": 0,
          "output": 6,
          "interpolation": "LINEAR"
        },
        {
          "input": 0,
          "output": 2,
          "interpolation": "LINEAR"
        },
        {
          "input": 0,
          "output": 3,
          "interpolation": "LINEAR"
        },
        {
          "input": 0,
          "output": 7,
          "interpolation": "LINEAR"
        },
        {
          "input": 0,
          "output": 2,
          "interpolation": "LINEAR"
        },
        {
          "input": 0,
          "output": 3,
          "interpolation": "LINEAR"
        },
        {
          "input": 0,
          "output": 8,
          "interpolation": "LINEAR"
        },
        {
          "input": 0,
          "output": 2,
          "interpolation": "LINEAR"
        },
        {
          "input": 0,
          "output": 3,
          "interpolation": "LINEAR"
        }
      ],
      "channels": [
        {
          "sampler": 0,
          "target": {
            "node": 1,
            "path": "translation"
          }
        },
        {
          "sampler": 1,
          "target": {
            "node": 1,
            "path": "rotation"
          }
        },
        {
          "sampler": 2,
          "target": {
            "node": 1,
            "path": "scale"
          }
        },
        {
          "sampler": 3,
          "target": {
            "node": 2,
            "path": "translation"
          }
        },
        {
          "sampler": 4,
          "target": {
            "node": 2,
            "path": "rotation"
          }
        },
        {
          "sampler": 5,
          "target": {
            "node": 2,
            "path": "scale"
          }
        },
        {
          "sampler": 6,
          "target": {
            "node": 3,
            "path": "translation"
          }
        },
        {
          "sampler": 7,
          "target": {
            "node": 3,
            "path": "rotation"
          }
        },
        {
          "sampler": 8,
          "target": {
            "node": 3,
            "path": "scale"
          }
        },
        {
          "sampler": 9,
          "target": {
            "node": 4,
            "path": "translation"
          }
        },
        {
          "sampler": 10,
          "target": {
            "node": 4,
            "path": "rotation"
          }
        },
        {
          "sampler": 11,
          "target": {
            "node": 4,
            "path": "scale"
          }
        },
        {
          "sampler": 12,
          "target": {
            "node": 5,
            "path": "translation"
          }
        },
        {
          "sampler": 13,
          "target": {
            "node": 5,
            "path": "rotation"
          }
        },
        {
          "sampler": 14,
          "target": {
            "node": 5,
            "path": "scale"
          }
        },
        {
          "sampler": 15,
          "target": {
            "node": 6,
            "path": "translation"
          }
        },
        {
          "sampler": 16,
          "target": {
            "node": 6,
            "path": "rotation"
          }
        },
        {
          "sampler": 17,
          "target": {
            "node": 6,
            "path": "scale"
          }
        }
      ]
    },
    {
      "name": "idle",
      "samplers": [
        {
          "input": 9,
          "output": 1,
          "interpolation": "LINEAR"
        },
        {
          "input": 9,
          "output": 2,
          "interpolation": "LINEAR"
        },
        {
          "input": 9,
          "output": 3,
          "interpolation": "LINEAR"
        },
        {
          "input": 9,
          "output": 4,
          "interpolation": "LINEAR"
        },
        {
          "input": 10,
          "output": 11,
          "interpolation": "LINEAR"
        },
        {
          "input": 9,
          "output": 3,
          "interpolation": "LINEAR"
        },
        {
          "input": 9,
          "output": 5,
          "interpolation": "LINEAR"
        },
        {
          "input": 9,
          "output": 2,
          "interpolation": "LINEAR"
        },
        {
          "input": 9,
          "output": 3,
          "interpolation": "LINEAR"
        },
        {
          "input": 9,
          "output": 6,
          "interpolation": "LINEAR"
        },
        {
          "input": 9,
          "output": 2,
          "interpolation": "LINEAR"
        },
        {
          "input": 9,
          "output": 3,
          "interpolation": "LINEAR"
        },
        {
          "input": 9,
          "output": 7,
          "interpolation": "LINEAR"
        },
        {
          "input": 9,
          "output": 2,
          "interpolation": "LINEAR"
        },
        {
          "input": 9,
          "output": 3,
          "interpolation": "LINEAR"
        },
        {
          "input": 9,
          "output": 8,
          "interpolation": "LINEAR"
        },
        {
          "input": 9,
          "output": 2,
          "interpolation": "LINEAR"
        },
        {
          "input": 9,
          "output": 3,
          "interpolation": "LINEAR"
        }
      ],
      "channels": [
        {
          "sampler": 0,
          "target": {
            "node": 1,
            "path": "translation"
          }
        },
        {
          "sampler": 1,
          "target": {
            "node": 1,
            "path": "rotation"
          }
        },
        {
          "sampler": 2,
          "target": {
            "node": 1,
            "path": "scale"
          }
        },
        {
          "sampler": 3,
          "target": {
            "node": 2,
            "path": "translation"
          }
        },
        {
          "sampler": 4,
          "target": {
            "node": 2,
            "path": "rotation"
          }
        },
        {
          "sampler": 5,
          "target": {
            "node": 2,
            "path": "scale"
          }
        },
        {
          "sampler": 6,
          "target": {
            "node": 3,
            "path": "translation"
          }
        },
        {
          "sampler": 7,
          "target": {
            "node": 3,
            "path": "rotation"
          }
        },
        {
          "sampler": 8,
          "target": {
            "node": 3,
            "path": "scale"
          }
        },
        {
          "sampler": 9,
          "target": {
            "node": 4,
            "path": "translation"
          }
        },
        {
          "sampler": 10,
          "target": {
            "node": 4,
            "path": "rotation"
          }
        },
        {
          "sampler": 11,
          "target": {
            "node": 4,
            "path": "scale"
          }
        },
        {
          "sampler": 12,
          "target": {
            "node": 5,
            "path": "translation"
          }
        },
        {
          "sampler": 13,
          "target": {
            "node": 5,
            "path": "rotation"
          }
        },
        {
          "sampler": 14,
          "target": {
            "node": 5,
            "path": "scale"
          }
        },
        {
          "sampler": 15,
          "target": {
            "node": 6,
            "path": "translation"
          }
        },
        {
          "sampler": 16,
          "target": {
            "node": 6,
            "path": "rotation"
          }
        },
        {
          "sampler": 17,
          "target": {
            "node": 6,
            "path": "scale"
          }
        }
      ]
    },
    {
      "name": "walk",
      "samplers": [
        {
          "input": 12,
          "output": 13,
          "interpolation": "LINEAR"
        },
        {
          "input": 14,
          "output": 2,
          "interpolation": "LINEAR"
        },
        {
          "input": 14,
          "output": 3,
          "interpolation": "LINEAR"
        },
        {
          "input": 14,
          "output": 4,
          "interpolation": "LINEAR"
        },
        {
          "input": 12,
          "output": 15,
          "interpolation": "LINEAR"
        },
        {
          "input": 14,
          "output": 3,
          "interpolation": "LINEAR"
        },
        {
          "input": 14,
          "output": 5,
          "interpolation": "LINEAR"
        },
        {
          "input": 12,
          "output": 16,
          "interpolation": "LINEAR"
        },
        {
          "input": 14,
          "output": 3,
          "interpolation": "LINEAR"
        },
        {
          "input": 14,
          "output": 6,
          "interpolation": "LINEAR"
        },
        {
          "input": 12,
          "output": 17,
          "interpolation": "LINEAR"
        },
        {
          "input": 14,
          "output": 3,
          "interpolation": "LINEAR"
        },
        {
          "input": 14,
          "output": 7,
          "interpolation": "LINEAR"
        },
        {
          "input": 12,
          "output": 17,
          "interpolation": "LINEAR"
        },
        {
          "input": 14,
          "output": 3,
          "interpolation": "LINEAR"
        },
        {
          "input": 14,
          "output": 8,
          "interpolation": "LINEAR"
        },
        {
          "input": 12,
          "output": 16,
          "interpolation": "LINEAR"
        },
        {
          "input": 14,
          "output": 3,
          "interpolation": "LINEAR"
        }
      ],
      "channels": [
        {
          "sampler": 0,
          "target": {
            "node": 1,
            "path": "translation"
          }
        },
        {
          "sampler": 1,
          "target": {
            "node": 1,
            "path": "rotation"
          }
        },
        {
          "sampler": 2,
          "target": {
            "node": 1,
            "path": "scale"
          }
        },
        {
          "sampler": 3,
          "target": {
            "node": 2,
            "path": "translation"
          }
        },
        {
          "sampler": 4,
          "target": {
            "node": 2,
            "path": "rotation"
          }
        },
        {
          "sampler": 5,
          "target": {
            "node": 2,
            "path": "scale"
          }
        },
        {
          "sampler": 6,
          "target": {
            "node": 3,
            "path": "translation"
          }
        },
        {
          "sampler": 7,
          "target": {
            "node": 3,
            "path": "rotation"
          }
        },
        {
          "sampler": 8,
          "target": {
            "node": 3,
            "path": "scale"
          }
        },
        {
          "sampler": 9,
          "target": {
            "node": 4,
            "path": "translation"
          }
        },
        {
          "sampler": 10,
          "target": {
            "node": 4,
            "path": "rotation"
          }
        },
        {
          "sampler": 11,
          "target": {
            "node": 4,
            "path": "scale"
          }
        },
        {
          "sampler": 12,
          "target": {
            "node": 5,
            "path": "translation"
          }
        },
        {
          "sampler": 13,
          "target": {
            "node": 5,
            "path": "rotation"
          }
        },
        {
          "sampler": 14,
          "target": {
            "node": 5,
            "path": "scale"
          }
        },
        {
          "sampler": 15,
          "target": {
            "node": 6,
            "path": "translation"
          }
        },
        {
          "sampler": 16,
          "target": {
            "node": 6,
            "path": "rotation"
          }
        },
        {
          "sampler": 17,
          "target": {
            "node": 6,
            "path": "scale"
          }
        }
      ]
    },
    {
      "name": "run",
      "samplers": [
        {
          "input": 18,
          "output": 19,
          "interpolation": "LINEAR"
        },
        {
          "input": 20,
          "output": 2,
          "interpolation": "LINEAR"
        },
        {
          "input": 20,
          "output": 3,
          "interpolation": "LINEAR"
        },
        {
          "input": 20,
          "output": 4,
          "interpolation": "LINEAR"
        },
        {
          "input": 18,
          "output": 21,
          "interpolation": "LINEAR"
        },
        {
          "input": 20,
          "output": 3,
          "interpolation": "LINEAR"
        },
        {
          "input": 20,
          "output": 5,
          "interpolation": "LINEAR"
        },
        {
          "input": 18,
          "output": 22,
          "interpolation": "LINEAR"
        },
        {
          "input": 20,
          "output": 3,
          "interpolation": "LINEAR"
        },
        {
          "input": 20,
          "output": 6,
          "interpolation": "LINEAR"
        },
        {
          "input": 18,
          "output": 22,
          "interpolation": "LINEAR"
        },
        {
          "input": 20,
          "output": 3,
          "interpolation": "LINEAR"
        },
        {
          "input": 20,
          "output": 7,
          "interpolation": "LINEAR"
        },
        {
          "input": 18,
          "output": 23,
          "interpolation": "LINEAR"
        },
        {
          "input": 20,
          "output": 3,
          "interpolation": "LINEAR"
        },
        {
          "input": 20,
          "output": 8,
          "interpolation": "LINEAR"
        },
        {
          "input": 18,
          "output": 23,
          "interpolation": "LINEAR"
        },
        {
          "input": 20,
          "output": 3,
          "interpolation": "LINEAR"
        }
      ],
      "channels": [
        {
          "sampler": 0,
          "target": {
            "node": 1,
            "path": "translation"
          }
        },
        {
          "sampler": 1,
          "target": {
            "node": 1,
            "path": "rotation"
          }
        },
        {
          "sampler": 2,
          "target": {
            "node": 1,
            "path": "scale"
          }
        },
        {
          "sampler": 3,
          "target": {
            "node": 2,
            "path": "translation"
          }
        },
        {
          "sampler": 4,
          "target": {
            "node": 2,
            "path": "rotation"
          }
        },
        {
          "sampler": 5,
          "target": {
            "node": 2,
            "path": "scale"
          }
        },
        {
          "sampler": 6,
          "target": {
            "node": 3,
            "path": "translation"
          }
        },
        {
          "sampler": 7,
          "target": {
            "node": 3,
            "path": "rotation"
          }
        },
        {
          "sampler": 8,
          "target": {
            "node": 3,
            "path": "scale"
          }
        },
        {
          "sampler": 9,
          "target": {
            "node": 4,
            "path": "translation"
          }
        },
        {
          "sampler": 10,
          "target": {
            "node": 4,
            "path": "rotation"
          }
        },
        {
          "sampler": 11,
          "target": {
            "node": 4,
            "path": "scale"
          }
        },
        {
          "sampler": 12,
          "target": {
            "node": 5,
            "path": "translation"
          }
        },
        {
          "sampler": 13,
          "target": {
            "node": 5,
            "path": "rotation"
          }
        },
        {
          "sampler": 14,
          "target": {
            "node": 5,
            "path": "scale"
          }
        },
        {
          "sampler": 15,
          "target": {
            "node": 6,
            "path": "translation"
          }
        },
        {
          "sampler": 16,
          "target": {
            "node": 6,
            "path": "rotation"
          }
        },
        {
          "sampler": 17,
          "target": {
            "node": 6,
            "path": "scale"
          }
        }
      ]
    },
    {
      "name": "eat",
      "samplers": [
        {
          "input": 14,
          "output": 1,
          "interpolation": "LINEAR"
        },
        {
          "input": 14,
          "output": 2,
          "interpolation": "LINEAR"
        },
        {
          "input": 14,
          "output": 3,
          "interpolation": "LINEAR"
        },
        {
          "input": 14,
          "output": 4,
          "interpolation": "LINEAR"
        },
        {
          "input": 12,
          "output": 24,
          "interpolation": "LINEAR"
        },
        {
          "input": 14,
          "output": 3,
          "interpolation": "LINEAR"
        },
        {
          "input": 14,
          "output": 5,
          "interpolation": "LINEAR"
        },
        {
          "input": 14,
          "output": 2,
          "interpolation": "LINEAR"
        },
        {
          "input": 14,
          "output": 3,
          "interpolation": "LINEAR"
        },
        {
          "input": 14,
          "output": 6,
          "interpolation": "LINEAR"
        },
        {
          "input": 14,
          "output": 2,
          "interpolation": "LINEAR"
        },
        {
          "input": 14,
          "output": 3,
          "interpolation": "LINEAR"
        },
        {
          "input": 14,
          "output": 7,
          "interpolation": "LINEAR"
        },
        {
          "input": 14,
          "output": 2,
          "interpolation": "LINEAR"
        },
        {
          "input": 14,
          "output": 3,
          "interpolation": "LINEAR"
        },
        {
          "input": 14,
          "output": 8,
          "interpolation": "LINEAR"
        },
        {
          "input": 14,
          "output": 2,
          "interpolation": "LINEAR"
        },
        {
          "input": 14,
          "output": 3,
          "interpolation": "LINEAR"
        }
      ],
      "channels": [
        {
          "sampler": 0,
          "target": {
            "node": 1,
            "path": "translation"
          }
        },
        {
          "sampler": 1,
          "target": {
            "node": 1,
            "path": "rotation"
          }
        },
        {
          "sampler": 2,
          "target": {
            "node": 1,
            "path": "scale"
          }
        },
        {
          "sampler": 3,
          "target": {
            "node": 2,
            "path": "translation"
          }
        },
        {
          "sampler": 4,
          "target": {
            "node": 2,
            "path": "rotation"
          }
        },
        {
          "sampler": 5,
          "target": {
            "node": 2,
            "path": "scale"
          }
        },
        {
          "sampler": 6,
          "target": {
            "node": 3,
            "path": "translation"
          }
        },
        {
          "sampler": 7,
          "target": {
            "node": 3,
            "path": "rotation"
          }
        },
        {
          "sampler": 8,
          "target": {
            "node": 3,
            "path": "scale"
          }
        },
        {
          "sampler": 9,
          "target": {
            "node": 4,
            "path": "translation"
          }
        },
        {
          "sampler": 10,
          "target": {
            "node": 4,
            "path": "rotation"
          }
        },
        {
          "sampler": 11,
          "target": {
            "node": 4,
            "path": "scale"
          }
        },
        {
          "sampler": 12,
          "target": {
            "node": 5,
            "path": "translation"
          }
        },
        {
          "sampler": 13,
          "target": {
            "node": 5,
            "path": "rotation"
          }
        },
        {
          "sampler": 14,
          "target": {
            "node": 5,
            "path": "scale"
          }
        },
        {
          "sampler": 15,
          "target": {
            "node": 6,
            "path": "translation"
          }
        },
        {
          "sampler": 16,
          "target": {
            "node": 6,
            "path": "rotation"
          }
        },
        {
          "sampler": 17,
          "target": {
            "node": 6,
            "path": "scale"
          }
        }
      ]
    },
    {
      "name": "dance",
      "samplers": [
        {
          "input": 14,
          "output": 1,
          "interpolation": "LINEAR"
        },
        {
          "input": 14,
          "output": 2,
          "interpolation": "LINEAR"
        },
        {
          "input": 14,
          "output": 3,
          "interpolation": "LINEAR"
        },
        {
          "input": 12,
          "output": 25,
          "interpolation": "LINEAR"
        },
        {
          "input": 12,
          "output": 26,
          "interpolation": "LINEAR"
        },
        {
          "input": 14,
          "output": 3,
          "interpolation": "LINEAR"
        },
        {
          "input": 14,
          "output": 5,
          "interpolation": "LINEAR"
        },
        {
          "input": 14,
          "output": 2,
          "interpolation": "LINEAR"
        },
        {
          "input": 14,
          "output": 3,
          "interpolation": "LINEAR"
        },
        {
          "input": 14,
          "output": 6,
          "interpolation": "LINEAR"
        },
        {
          "input": 14,
          "output": 2,
          "interpolation": "LINEAR"
        },
        {
          "input": 14,
          "output": 3,
          "interpolation": "LINEAR"
        },
        {
          "input": 14,
          "output": 7,
          "interpolation": "LINEAR"
        },
        {
          "input": 14,
          "output": 2,
          "interpolation": "LINEAR"
        },
        {
          "input": 14,
          "output": 3,
          "interpolation": "LINEAR"
        },
        {
          "input": 14,
          "output": 8,
          "interpolation": "LINEAR"
        },
        {
          "input": 14,
          "output": 2,
          "interpolation": "LINEAR"
        },
        {
          "input": 14,
          "output": 3,
          "interpolation": "LINEAR"
        }
      ],
      "channels": [
        {
          "sampler": 0,
          "target": {
            "node": 1,
            "path": "translation"
          }
        },
        {
          "sampler": 1,
          "target": {
            "node": 1,
            "path": "rotation"
          }
        },
        {
          "sampler": 2,
          "target": {
            "node": 1,
            "path": "scale"
          }
        },
        {
          "sampler": 3,
          "target": {
            "node": 2,
            "path": "translation"
          }
        },
        {
          "sampler": 4,
          "target": {
            "node": 2,
            "path": "rotation"
          }
        },
        {
          "sampler": 5,
          "target": {
            "node": 2,
            "path": "scale"
          }
        },
        {
          "sampler": 6,
          "target": {
            "node": 3,
            "path": "translation"
          }
        },
        {
          "sampler": 7,
          "target": {
            "node": 3,
            "path": "rotation"
          }
        },
        {
          "sampler": 8,
          "target": {
            "node": 3,
            "path": "scale"
          }
        },
        {
          "sampler": 9,
          "target": {
            "node": 4,
            "path": "translation"
          }
        },
        {
          "sampler": 10,
          "target": {
            "node": 4,
            "path": "rotation"
          }
        },
        {
          "sampler": 11,
          "target": {
            "node": 4,
            "path": "scale"
          }
        },
        {
          "sampler": 12,
          "target": {
            "node": 5,
            "path": "translation"
          }
        },
        {
          "sampler": 13,
          "target": {
            "node": 5,
            "path": "rotation"
          }
        },
        {
          "sampler": 14,
          "target": {
            "node": 5,
            "path": "scale"
          }
        },
        {
          "sampler": 15,
          "target": {
            "node": 6,
            "path": "translation"
          }
        },
        {
          "sampler": 16,
          "target": {
            "node": 6,
            "path": "rotation"
          }
        },
        {
          "sampler": 17,
          "target": {
            "node": 6,
            "path": "scale"
          }
        }
      ]
    },
    {
      "name": "gesture-positive",
      "samplers": [
        {
          "input": 20,
          "output": 1,
          "interpolation": "LINEAR"
        },
        {
          "input": 20,
          "output": 2,
          "interpolation": "LINEAR"
        },
        {
          "input": 20,
          "output": 3,
          "interpolation": "LINEAR"
        },
        {
          "input": 20,
          "output": 4,
          "interpolation": "LINEAR"
        },
        {
          "input": 18,
          "output": 27,
          "interpolation": "LINEAR"
        },
        {
          "input": 20,
          "output": 3,
          "interpolation": "LINEAR"
        },
        {
          "input": 20,
          "output": 5,
          "interpolation": "LINEAR"
        },
        {
          "input": 20,
          "output": 2,
          "interpolation": "LINEAR"
        },
        {
          "input": 20,
          "output": 3,
          "interpolation": "LINEAR"
        },
        {
          "input": 20,
          "output": 6,
          "interpolation": "LINEAR"
        },
        {
          "input": 20,
          "output": 2,
          "interpolation": "LINEAR"
        },
        {
          "input": 20,
          "output": 3,
          "interpolation": "LINEAR"
        },
        {
          "input": 20,
          "output": 7,
          "interpolation": "LINEAR"
        },
        {
          "input": 20,
          "output": 2,
          "interpolation": "LINEAR"
        },
        {
          "input": 20,
          "output": 3,
          "interpolation": "LINEAR"
        },
        {
          "input": 20,
          "output": 8,
          "interpolation": "LINEAR"
        },
        {
          "input": 20,
          "output": 2,
          "interpolation": "LINEAR"
        },
        {
          "input": 20,
          "output": 3,
          "interpolation": "LINEAR"
        }
      ],
      "channels": [
        {
          "sampler": 0,
          "target": {
            "node": 1,
            "path": "translation"
          }
        },
        {
          "sampler": 1,
          "target": {
            "node": 1,
            "path": "rotation"
          }
        },
        {
          "sampler": 2,
          "target": {
            "node": 1,
            "path": "scale"
          }
        },
        {
          "sampler": 3,
          "target": {
            "node": 2,
            "path": "translation"
          }
        },
        {
          "sampler": 4,
          "target": {
            "node": 2,
            "path": "rotation"
          }
        },
        {
          "sampler": 5,
          "target": {
            "node": 2,
            "path": "scale"
          }
        },
        {
          "sampler": 6,
          "target": {
            "node": 3,
            "path": "translation"
          }
        },
        {
          "sampler": 7,
          "target": {
            "node": 3,
            "path": "rotation"
          }
        },
        {
          "sampler": 8,
          "target": {
            "node": 3,
            "path": "scale"
          }
        },
        {
          "sampler": 9,
          "target": {
            "node": 4,
            "path": "translation"
          }
        },
        {
          "sampler": 10,
          "target": {
            "node": 4,
            "path": "rotation"
          }
        },
        {
          "sampler": 11,
          "target": {
            "node": 4,
            "path": "scale"
          }
        },
        {
          "sampler": 12,
          "target": {
            "node": 5,
            "path": "translation"
          }
        },
        {
          "sampler": 13,
          "target": {
            "node": 5,
            "path": "rotation"
          }
        },
        {
          "sampler": 14,
          "target": {
            "node": 5,
            "path": "scale"
          }
        },
        {
          "sampler": 15,
          "target": {
            "node": 6,
            "path": "translation"
          }
        },
        {
          "sampler": 16,
          "target": {
            "node": 6,
            "path": "rotation"
          }
        },
        {
          "sampler": 17,
          "target": {
            "node": 6,
            "path": "scale"
          }
        }
      ]
    },
    {
      "name": "gesture-negative",
      "samplers": [
        {
          "input": 20,
          "output": 1,
          "interpolation": "LINEAR"
        },
        {
          "input": 20,
          "output": 2,
          "interpolation": "LINEAR"
        },
        {
          "input": 20,
          "output": 3,
          "interpolation": "LINEAR"
        },
        {
          "input": 20,
          "output": 4,
          "interpolation": "LINEAR"
        },
        {
          "input": 18,
          "output": 28,
          "interpolation": "LINEAR"
        },
        {
          "input": 20,
          "output": 3,
          "interpolation": "LINEAR"
        },
        {
          "input": 20,
          "output": 5,
          "interpolation": "LINEAR"
        },
        {
          "input": 20,
          "output": 2,
          "interpolation": "LINEAR"
        },
        {
          "input": 20,
          "output": 3,
          "interpolation": "LINEAR"
        },
        {
          "input": 20,
          "output": 6,
          "interpolation": "LINEAR"
        },
        {
          "input": 20,
          "output": 2,
          "interpolation": "LINEAR"
        },
        {
          "input": 20,
          "output": 3,
          "interpolation": "LINEAR"
        },
        {
          "input": 20,
          "output": 7,
          "interpolation": "LINEAR"
        },
        {
          "input": 20,
          "output": 2,
          "interpolation": "LINEAR"
        },
        {
          "input": 20,
          "output": 3,
          "interpolation": "LINEAR"
        },
        {
          "input": 20,
          "output": 8,
          "interpolation": "LINEAR"
        },
        {
          "input": 20,
          "output": 2,
          "interpolation": "LINEAR"
        },
        {
          "input": 20,
          "output": 3,
          "interpolation": "LINEAR"
        }
      ],
      "channels": [
        {
          "sampler": 0,
          "target": {
            "node": 1,
            "path": "translation"
          }
        },
        {
          "sampler": 1,
          "target": {
            "node": 1,
            "path": "rotation"
          }
        },
        {
          "sampler": 2,
          "target": {
            "node": 1,
            "path": "scale"
          }
        },
        {
          "sampler": 3,
          "target": {
            "node": 2,
            "path": "translation"
          }
        },
        {
          "sampler": 4,
          "target": {
            "node": 2,
            "path": "rotation"
          }
        },
        {
          "sampler": 5,
          "target": {
            "node": 2,
            "path": "scale"
          }
        },
        {
          "sampler": 6,
          "target": {
            "node": 3,
            "path": "translation"
          }
        },
        {
          "sampler": 7,
          "target": {
            "node": 3,
            "path": "rotation"
          }
        },
        {
          "sampler": 8,
          "target": {
            "node": 3,
            "path": "scale"
          }
        },
        {
          "sampler": 9,
          "target": {
            "node": 4,
            "path": "translation"
          }
        },
        {
          "sampler": 10,
          "target": {
            "node": 4,
            "path": "rotation"
          }
        },
        {
          "sampler": 11,
          "target": {
            "node": 4,
            "path": "scale"
          }
        },
        {
          "sampler": 12,
          "target": {
            "node": 5,
            "path": "translation"
          }
        },
        {
          "sampler": 13,
          "target": {
            "node": 5,
            "path": "rotation"
          }
        },
        {
          "sampler": 14,
          "target": {
            "node": 5,
            "path": "scale"
          }
        },
        {
          "sampler": 15,
          "target": {
            "node": 6,
            "path": "translation"
          }
        },
        {
          "sampler": 16,
          "target": {
            "node": 6,
            "path": "rotation"
          }
        },
        {
          "sampler": 17,
          "target": {
            "node": 6,
            "path": "scale"
          }
        }
      ]
    }
  ],
  "scenes": [
    {
      "name": "animal-koala",
      "nodes": [
        0
      ]
    }
  ],
  "scene": 0,
  "extensionsUsed": [
    "EXT_meshopt_compression",
    "KHR_mesh_quantization",
    "KHR_texture_transform"
  ],
  "extensionsRequired": [
    "EXT_meshopt_compression",
    "KHR_mesh_quantization"
  ]
}