{
  "asset": {
    "generator": "glTF-Transform v4.5.1",
    "version": "2.0"
  },
  "accessors": [
    {
      "type": "SCALAR",
      "componentType": 5126,
      "count": 2,
      "max": [
        0.10000000149011612
      ],
      "min": [
        0
      ],
      "normalized": false,
      "byteOffset": 0,
      "bufferView": 0
    },
    {
      "type": "VEC3",
      "componentType": 5126,
      "count": 2,
      "normalized": false,
      "byteOffset": 0,
      "bufferView": 1
    },
    {
      "type": "VEC4",
      "componentType": 5126,
      "count": 2,
      "normalized": false,
      "byteOffset": 0,
      "bufferView": 2
    },
    {
      "type": "VEC3",
      "componentType": 5126,
      "count": 2,
      "normalized": false,
      "byteOffset": 24,
      "bufferView": 1
    },
    {
      "type": "VEC3",
      "componentType": 5126,
      "count": 2,
      "normalized": false,
      "byteOffset": 48,
      "bufferView": 1
    },
    {
      "type": "VEC3",
      "componentType": 5126,
      "count": 2,
      "normalized": false,
      "byteOffset": 72,
      "bufferView": 1
    },
    {
      "type": "VEC3",
      "componentType": 5126,
      "count": 2,
      "normalized": false,
      "byteOffset": 96,
      "bufferView": 1
    },
    {
      "type": "VEC3",
      "componentType": 5126,
      "count": 2,
      "normalized": false,
      "byteOffset": 120,
      "bufferView": 1
    },
    {
      "type": "VEC3",
      "componentType": 5126,
      "count": 2,
      "normalized": false,
      "byteOffset": 144,
      "bufferView": 1
    },
    {
      "type": "VEC3",
      "componentType": 5126,
      "count": 2,
      "normalized": false,
      "byteOffset": 168,
      "bufferView": 1
    },
    {
      "type": "VEC3",
      "componentType": 5126,
      "count": 2,
      "normalized": false,
      "byteOffset": 192,
      "bufferView": 1
    },
    {
      "type": "SCALAR",
      "componentType": 5126,
      "count": 2,
      "max": [
        1
      ],
      "min": [
        0
      ],
      "normalized": false,
      "byteOffset": 8,
      "bufferView": 0
    },
    {
      "type": "SCALAR",
      "componentType": 5126,
      "count": 30,
      "max": [
        1
      ],
      "min": [
        0
      ],
      "normalized": false,
      "byteOffset": 16,
      "bufferView": 0
    },
    {
      "type": "VEC4",
      "componentType": 5126,
      "count": 30,
      "normalized": false,
      "byteOffset": 32,
      "bufferView": 2
    },
    {
      "type": "VEC4",
      "componentType": 5126,
      "count": 30,
      "normalized": false,
      "byteOffset": 512,
      "bufferView": 2
    },
    {
      "type": "SCALAR",
      "componentType": 5126,
      "count": 15,
      "max": [
        0.5
      ],
      "min": [
        0
      ],
      "normalized": false,
      "byteOffset": 136,
      "bufferView": 0
    },
    {
      "type": "VEC3",
      "componentType": 5126,
      "count": 15,
      "normalized": false,
      "byteOffset": 216,
      "bufferView": 1
    },
    {
      "type": "SCALAR",
      "componentType": 5126,
      "count": 2,
      "max": [
        0.5
      ],
      "min": [
        0
      ],
      "normalized": false,
      "byteOffset": 196,
      "bufferView": 0
    },
    {
      "type": "VEC4",
      "componentType": 5126,
      "count": 15,
      "normalized": false,
      "byteOffset": 992,
      "bufferView": 2
    },
    {
      "type": "VEC4",
      "componentType": 5126,
      "count": 15,
      "normalized": false,
      "byteOffset": 1232,
      "bufferView": 2
    },
    {
      "type": "VEC4",
      "componentType": 5126,
      "count": 15,
      "normalized": false,
      "byteOffset": 1472,
      "bufferView": 2
    },
    {
      "type": "VEC4",
      "componentType": 5126,
      "count": 15,
      "normalized": false,
      "byteOffset": 1712,
      "bufferView": 2
    },
    {
      "type": "SCALAR",
      "componentType": 5126,
      "count": 8,
      "max": [
        0.25
      ],
      "min": [
        0
      ],
      "normalized": false,
      "byteOffset": 204,
      "bufferView": 0
    },
    {
      "type": "VEC3",
      "componentType": 5126,
      "count": 8,
      "normalized": false,
      "byteOffset": 396,
      "bufferView": 1
    },
    {
      "type": "SCALAR",
      "componentType": 5126,
      "count": 2,
      "max": [
        0.25
      ],
      "min": [
        0
      ],
      "normalized": false,
      "byteOffset": 236,
      "bufferView": 0
    },
    {
      "type": "VEC4",
      "componentType": 5126,
      "count": 8,
      "normalized": false,
      "byteOffset": 1952,
      "bufferView": 2
    },
    {
      "type": "VEC4",
      "componentType": 5126,
      "count": 8,
      "normalized": false,
      "byteOffset": 2080,
      "bufferView": 2
    },
    {
      "type": "VEC4",
      "componentType": 5126,
      "count": 8,
      "normalized": false,
      "byteOffset": 2208,
      "bufferView": 2
    },
    {
      "type": "VEC4",
      "componentType": 5126,
      "count": 8,
      "normalized": false,
      "byteOffset": 2336,
      "bufferView": 2
    },
    {
      "type": "VEC4",
      "componentType": 5126,
      "count": 15,
      "normalized": false,
      "byteOffset": 2464,
      "bufferView": 2
    },
    {
      "type": "VEC4",
      "componentType": 5126,
      "count": 15,
      "normalized": false,
      "byteOffset": 2704,
      "bufferView": 2
    },
    {
      "type": "VEC3",
      "componentType": 5126,
      "count": 15,
      "normalized": false,
      "byteOffset": 492,
      "bufferView": 1
    },
    {
      "type": "VEC4",
      "componentType": 5126,
      "count": 15,
      "normalized": false,
      "byteOffset": 2944,
      "bufferView": 2
    },
    {
      "type": "VEC4",
      "componentType": 5126,
      "count": 15,
      "normalized": false,
      "byteOffset": 3184,
      "bufferView": 2
    },
    {
      "type": "VEC4",
      "componentType": 5126,
      "count": 8,
      "normalized": false,
      "byteOffset": 3424,
      "bufferView": 2
    },
    {
      "type": "SCALAR",
      "componentType": 5126,
      "count": 7,
      "max": [
        0.25
      ],
      "min": [
        0
      ],
      "normalized": false,
      "byteOffset": 244,
      "bufferView": 0
    },
    {
      "type": "VEC4",
      "componentType": 5126,
      "count": 7,
      "normalized": false,
      "byteOffset": 3552,
      "bufferView": 2
    },
    {
      "type": "VEC4",
      "componentType": 5126,
      "count": 8,
      "normalized": false,
      "byteOffset": 3664,
      "bufferView": 2
    },
    {
      "type": "VEC4",
      "componentType": 5126,
      "count": 8,
      "normalized": false,
      "byteOffset": 3792,
      "bufferView": 2
    },
    {
      "type": "SCALAR",
      "componentType": 5123,
      "count": 825,
      "normalized": false,
      "byteOffset": 0,
      "bufferView": 3
    },
    {
      "type": "SCALAR",
      "componentType": 5123,
      "count": 63,
      "normalized": false,
      "byteOffset": 1650,
      "bufferView": 3
    },
    {
      "type": "SCALAR",
      "componentType": 5123,
      "count": 636,
      "normalized": false,
      "byteOffset": 1776,
      "bufferView": 3
    },
    {
      "type": "SCALAR",
      "componentType": 5123,
      "count": 132,
      "normalized": false,
      "byteOffset": 3048,
      "bufferView": 3
    },
    {
      "type": "SCALAR",
      "componentType": 5123,
      "count": 132,
      "normalized": false,
      "byteOffset": 3312,
      "bufferView": 3
    },
    {
      "type": "SCALAR",
      "componentType": 5123,
      "count": 132,
      "normalized": false,
      "byteOffset": 3576,
      "bufferView": 3
    },
    {
      "type": "SCALAR",
      "componentType": 5123,
      "count": 132,
      "normalized": false,
      "byteOffset": 3840,
      "bufferView": 3
    },
    {
      "type": "VEC3",
      "componentType": 5122,
      "count": 433,
      "max": [
        29163,
        32767,
        30971
      ],
      "min": [
        -29163,
        -32767,
        -30971
      ],
      "normalized": true,
      "byteOffset": 0,
      "bufferView": 4
    },
    {
      "type": "VEC3",
      "componentType": 5122,
      "count": 433,
      "normalized": true,
      "byteOffset": 0,
      "bufferView": 5
    },
    {
      "type": "VEC2",
      "componentType": 5123,
      "count": 433,
      "normalized": true,
      "byteOffset": 0,
      "bufferView": 6
    },
    {
      "type": "VEC3",
      "componentType": 5122,
      "count": 23,
      "max": [
        32767,
        8381,
        0
      ],
      "min": [
        -32767,
        -8381,
        0
      ],
      "normalized": true,
      "byteOffset": 0,
      "bufferView": 7
    },
    {
      "type": "VEC3",
      "componentType": 5122,
      "count": 23,
      "normalized": true,
      "byteOffset": 0,
      "bufferView": 8
    },
    {
      "type": "VEC2",
      "componentType": 5123,
      "count": 23,
      "normalized": true,
      "byteOffset": 0,
      "bufferView": 9
    },
    {
      "type": "VEC3",
      "componentType": 5122,
      "count": 375,
      "max": [
        6260,
        32767,
        17382
      ],
      "min": [
        -6260,
        -32767,
        -17382
      ],
      "normalized": true,
      "byteOffset": 0,
      "bufferView": 10
    },
    {
      "type": "VEC3",
      "componentType": 5122,
      "count": 375,
      "normalized": true,
      "byteOffset": 0,
      "bufferView": 11
    },
    {
      "type": "VEC2",
      "componentType": 5123,
      "count": 375,
      "normalized": true,
      "byteOffset": 0,
      "bufferView": 12
    },
    {
      "type": "VEC3",
      "componentType": 5122,
      "count": 76,
      "max": [
        32767,
        26759,
        32767
      ],
      "min": [
        -32767,
        -26759,
        -32767
      ],
      "normalized": true,
      "byteOffset": 0,
      "bufferView": 13
    },
    {
      "type": "VEC3",
      "componentType": 5122,
      "count": 76,
      "normalized": true,
      "byteOffset": 0,
      "bufferView": 14
    },
    {
      "type": "VEC2",
      "componentType": 5123,
      "count": 76,
      "normalized": true,
      "byteOffset": 0,
      "bufferView": 15
    },
    {
      "type": "VEC3",
      "componentType": 5122,
      "count": 76,
      "max": [
        32767,
        26759,
        32767
      ],
      "min": [
        -32767,
        -26759,
        -32767
      ],
      "normalized": true,
      "byteOffset": 0,
      "bufferView": 16
    },
    {
      "type": "VEC3",
      "componentType": 5122,
      "count": 76,
      "normalized": true,
      "byteOffset": 0,
      "bufferView": 17
    },
    {
      "type": "VEC2",
      "componentType": 5123,
      "count": 76,
      "normalized": true,
      "byteOffset": 0,
      "bufferView": 18
    },
    {
      "type": "VEC3",
      "componentType": 5122,
      "count": 76,
      "max": [
        32767,
        26759,
        32767
      ],
      "min": [
        -32767,
        -26759,
        -32767
      ],
      "normalized": true,
      "byteOffset": 0,
      "bufferView": 19
    },
    {
      "type": "VEC3",
      "componentType": 5122,
      "count": 76,
      "normalized": true,
      "byteOffset": 0,
      "bufferView": 20
    },
    {
      "type": "VEC2",
      "componentType": 5123,
      "count": 76,
      "normalized": true,
      "byteOffset": 0,
      "bufferView": 21
    },
    {
      "type": "VEC3",
      "componentType": 5122,
      "count": 76,
      "max": [
        32767,
        26759,
        32767
      ],
      "min": [
        -32767,
        -26759,
        -32767
      ],
      "normalized": true,
      "byteOffset": 0,
      "bufferView": 22
    },
    {
      "type": "VEC3",
      "componentType": 5122,
      "count": 76,
      "normalized": true,
      "byteOffset": 0,
      "bufferView": 23
    },
    {
      "type": "VEC2",
      "componentType": 5123,
      "count": 76,
      "normalized": true,
      "byteOffset": 0,
      "bufferView": 24
    }
  ],
  "bufferViews": [
    {
      "buffer": 1,
      "byteOffset": 0,
      "byteLength": 272,
      "extensions": {
        "EXT_meshopt_compression": {
          "buffer": 0,
          "byteOffset": 0,
          "byteLength": 253,
          "mode": "ATTRIBUTES",
          "byteStride": 4,
          "count": 68
        }
      }
    },
    {
      "buffer": 1,
      "byteOffset": 272,
      "byteLength": 672,
      "extensions": {
        "EXT_meshopt_compression": {
          "buffer": 0,
          "byteOffset": 256,
          "byteLength": 350,
          "mode": "ATTRIBUTES",
          "byteStride": 12,
          "count": 56
        }
      }
    },
    {
      "buffer": 1,
      "byteOffset": 944,
      "byteLength": 3920,
      "extensions": {
        "EXT_meshopt_compression": {
          "buffer": 0,
          "byteOffset": 608,
          "byteLength": 2435,
          "mode": "ATTRIBUTES",
          "byteStride": 16,
          "count": 245
        }
      }
    },
    {
      "buffer": 1,
      "byteOffset": 4864,
      "byteLength": 4104,
      "target": 34963,
      "extensions": {
        "EXT_meshopt_compression": {
          "buffer": 0,
          "byteOffset": 3044,
          "byteLength": 761,
          "mode": "TRIANGLES",
          "byteStride": 2,
          "count": 2052
        }
      }
    },
    {
      "buffer": 1,
      "byteOffset": 8968,
      "byteLength": 3464,
      "target": 34962,
      "byteStride": 8,
      "extensions": {
        "EXT_meshopt_compression": {
          "buffer": 0,
          "byteOffset": 3808,
          "byteLength": 2486,
          "mode": "ATTRIBUTES",
          "byteStride": 8,
          "count": 433
        }
      }
    },
    {
      "buffer": 1,
      "byteOffset": 12432,
      "byteLength": 3464,
      "target": 34962,
      "byteStride": 8,
      "extensions": {
        "EXT_meshopt_compression": {
          "buffer": 0,
          "byteOffset": 6296,
          "byteLength": 2160,
          "mode": "ATTRIBUTES",
          "byteStride": 8,
          "count": 433
        }
      }
    },
    {
      "buffer": 1,
      "byteOffset": 15896,
      "byteLength": 1732,
      "target": 34962,
      "byteStride": 4,
      "extensions": {
        "EXT_meshopt_compression": {
          "buffer": 0,
          "byteOffset": 8456,
          "byteLength": 895,
          "mode": "ATTRIBUTES",
          "byteStride": 4,
          "count": 433
        }
      }
    },
    {
      "buffer": 1,
      "byteOffset": 17628,
      "byteLength": 184,
      "target": 34962,
      "byteStride": 8,
      "extensions": {
        "EXT_meshopt_compression": {
          "buffer": 0,
          "byteOffset": 9352,
          "byteLength": 145,
          "mode": "ATTRIBUTES",
          "byteStride": 8,
          "count": 23
        }
      }
    },
    {
      "buffer": 1,
      "byteOffset": 17812,
      "byteLength": 184,
      "target": 34962,
      "byteStride": 8,
      "extensions": {
        "EXT_meshopt_compression": {
          "buffer": 0,
          "byteOffset": 9500,
          "byteLength": 41,
          "mode": "ATTRIBUTES",
          "byteStride": 8,
          "count": 23
        }
      }
    },
    {
      "buffer": 1,
      "byteOffset": 17996,
      "byteLength": 92,
      "target": 34962,
      "byteStride": 4,
      "extensions": {
        "EXT_meshopt_compression": {
          "buffer": 0,
          "byteOffset": 9544,
          "byteLength": 85,
          "mode": "ATTRIBUTES",
          "byteStride": 4,
          "count": 23
        }
      }
    },
    {
      "buffer": 1,
      "byteOffset": 18088,
      "byteLength": 3000,
      "target": 34962,
      "byteStride": 8,
      "extensions": {
        "EXT_meshopt_compression": {
          "buffer": 0,
          "byteOffset": 9632,
          "byteLength": 2326,
          "mode": "ATTRIBUTES",
          "byteStride": 8,
          "count": 375
        }
      }
    },
    {
      "buffer": 1,
      "byteOffset": 21088,
      "byteLength": 3000,
      "target": 34962,
      "byteStride": 8,
      "extensions": {
        "EXT_meshopt_compression": {
          "buffer": 0,
          "byteOffset": 11960,
          "byteLength": 2338,
          "mode": "ATTRIBUTES",
          "byteStride": 8,
          "count": 375
        }
      }
    },
    {
      "buffer": 1,
      "byteOffset": 24088,
      "byteLength": 1500,
      "target": 34962,
      "byteStride": 4,
      "extensions": {
        "EXT_meshopt_compression": {
          "buffer": 0,
          "byteOffset": 14300,
          "byteLength": 672,
          "mode": "ATTRIBUTES",
          "byteStride": 4,
          "count": 375
        }
      }
    },
    {
      "buffer": 1,
      "byteOffset": 25588,
      "byteLength": 608,
      "target": 34962,
      "byteStride": 8,
      "extensions": {
        "EXT_meshopt_compression": {
          "buffer": 0,
          "byteOffset": 14972,
          "byteLength": 487,
          "mode": "ATTRIBUTES",
          "byteStride": 8,
          "count": 76
        }
      }
    },
    {
      "buffer": 1,
      "byteOffset": 26196,
      "byteLength": 608,
      "target": 34962,
      "byteStride": 8,
      "extensions": {
        "EXT_meshopt_compression": {
          "buffer": 0,
          "byteOffset": 15460,
          "byteLength": 481,
          "mode": "ATTRIBUTES",
          "byteStride": 8,
          "count": 76
        }
      }
    },
    {
      "buffer": 1,
      "byteOffset": 26804,
      "byteLength": 304,
      "target": 34962,
      "byteStride": 4,
      "extensions": {
        "EXT_meshopt_compression": {
          "buffer": 0,
          "byteOffset": 15944,
          "byteLength": 181,
          "mode": "ATTRIBUTES",
          "byteStride": 4,
          "count": 76
        }
      }
    },
    {
      "buffer": 1,
      "byteOffset": 27108,
      "byteLength": 608,
      "target": 34962,
      "byteStride": 8,
      "extensions": {
        "EXT_meshopt_compression": {
          "buffer": 0,
          "byteOffset": 16128,
          "byteLength": 490,
          "mode": "ATTRIBUTES",
          "byteStride": 8,
          "count": 76
        }
      }
    },
    {
      "buffer": 1,
      "byteOffset": 27716,
      "byteLength": 608,
      "target": 34962,
      "byteStride": 8,
      "extensions": {
        "EXT_meshopt_compression": {
          "buffer": 0,
          "byteOffset": 16620,
          "byteLength": 483,
          "mode": "ATTRIBUTES",
          "byteStride": 8,
          "count": 76
        }
      }
    },
    {
      "buffer": 1,
      "byteOffset": 28324,
      "byteLength": 304,
      "target": 34962,
      "byteStride": 4,
      "extensions": {
        "EXT_meshopt_compression": {
          "buffer": 0,
          "byteOffset": 17104,
          "byteLength": 185,
          "mode": "ATTRIBUTES",
          "byteStride": 4,
          "count": 76
        }
      }
    },
    {
      "buffer": 1,
      "byteOffset": 28628,
      "byteLength": 608,
      "target": 34962,
      "byteStride": 8,
      "extensions": {
        "EXT_meshopt_compression": {
          "buffer": 0,
          "byteOffset": 17292,
          "byteLength": 484,
          "mode": "ATTRIBUTES",
          "byteStride": 8,
          "count": 76
        }
      }
    },
    {
      "buffer": 1,
      "byteOffset": 29236,
      "byteLength": 608,
      "target": 34962,
      "byteStride": 8,
      "extensions": {
        "EXT_meshopt_compression": {
          "buffer": 0,
          "byteOffset": 17776,
          "byteLength": 486,
          "mode": "ATTRIBUTES",
          "byteStride": 8,
          "count": 76
        }
      }
    },
    {
      "buffer": 1,
      "byteOffset": 29844,
      "byteLength": 304,
      "target": 34962,
      "byteStride": 4,
      "extensions": {
        "EXT_meshopt_compression": {
          "buffer": 0,
          "byteOffset": 18264,
          "byteLength": 181,
          "mode": "ATTRIBUTES",
          "byteStride": 4,
          "count": 76
        }
      }
    },
    {
      "buffer": 1,
      "byteOffset": 30148,
      "byteLength": 608,
      "target": 34962,
      "byteStride": 8,
      "extensions": {
        "EXT_meshopt_compression": {
          "buffer": 0,
          "byteOffset": 18448,
          "byteLength": 485,
          "mode": "ATTRIBUTES",
          "byteStride": 8,
          "count": 76
        }
      }
    },
    {
      "buffer": 1,
      "byteOffset": 30756,
      "byteLength": 608,
      "target": 34962,
      "byteStride": 8,
      "extensions": {
        "EXT_meshopt_compression": {
          "buffer": 0,
          "byteOffset": 18936,
          "byteLength": 482,
          "mode": "ATTRIBUTES",
          "byteStride": 8,
          "count": 76
        }
      }
    },
    {
      "buffer": 1,
      "byteOffset": 31364,
      "byteLength": 304,
      "target": 34962,
      "byteStride": 4,
      "extensions": {
        "EXT_meshopt_compression": {
          "buffer": 0,
          "byteOffset": 19420,
          "byteLength": 183,
          "mode": "ATTRIBUTES",
          "byteStride": 4,
          "count": 76
        }
      }
    }
  ],
  "samplers": [
    {
      "minFilter": 9987,
      "wrapS": 10497,
      "wrapT": 10497
    }
  ],
  "textures": [
    {
      "source": 0,
      "sampler": 0
    }
  ],
  "images": [
    {
      "name": "colormap",
      "mimeType": "image/png",
      "uri": "Textures/colormap.png"
    }
  ],
  "buffers": [
    {
      "uri": "animal-cat.bin",
      "byteLength": 19604
    },
    {
      "byteLength": 31668,
      "extensions": {
        "EXT_meshopt_compression": {
          "fallback": true
        }
      }
    }
  ],
  "materials": [
    {
      "name": "colormap",
      "doubleSided": true,
      "pbrMetallicRoughness": {
        "metallicFactor": 0,
        "baseColorTexture": {
          "index": 0,
          "extensions": {
            "KHR_texture_transform": {
              "texCoord": 0
            }
          }
        }
      }
    }
  ],
  "meshes": [
    {
      "name": "body",
      "primitives": [
        {
          "attributes": {
            "POSITION": 46,
            "NORMAL": 47,
            "TEXCOORD_0": 48
          },
          "mode": 4,
          "material": 0,
          "indices": 39
        }
      ]
    },
    {
      "name": "Group",
      "primitives": [
        {
          "attributes": {
            "POSITION": 49,
            "NORMAL": 50,
            "TEXCOORD_0": 51
          },
          "mode": 4,
          "material": 0,
          "indices": 40
        }
      ]
    },
    {
      "name": "tail",
      "primitives": [
        {
          "attributes": {
            "POSITION": 52,
            "NORMAL": 53,
            "TEXCOORD_0": 54
          },
          "mode": 4,
          "material": 0,
          "indices": 41
        }
      ]
    },
    {
      "name": "leg-back-left",
      "primitives": [
        {
          "attributes": {
            "POSITION": 55,
            "NORMAL": 56,
            "TEXCOORD_0": 57
          },
          "mode": 4,
          "material": 0,
          "indices": 42
        }
      ]
    },
    {
      "name": "leg-back-right",
      "primitives": [
        {
          "attributes": {
            "POSITION": 58,
            "NORMAL": 59,
            "TEXCOORD_0": 60
          },
          "mode": 4,
          "material": 0,
          "indices": 43
        }
      ]
    },
    {
      "name": "leg-front-left",
      "primitives": [
        {
          "attributes": {
            "POSITION": 61,
            "NORMAL": 62,
            "TEXCOORD_0": 63
          },
          "mode": 4,
          "material": 0,
          "indices": 44
        }
      ]
    },
    {
      "name": "leg-front-right",
      "primitives": [
        {
          "attributes": {
            "POSITION": 64,
            "NORMAL": 65,
            "TEXCOORD_0": 66
          },
          "mode": 4,
          "material": 0,
          "indices": 45
        }
      ]
    }
  ],
  "nodes": [
    {
      "name": "animal-cat",
      "children": [
        1
      ]
    },
    {
      "name": "root",
      "children": [
        2,
        5,
        6,
        7,
        8
      ]
    },
    {
      "name": "body",
      "translation": [
        1.57318212e-8,
        0.181249976,
        -3.80835026e-8
      ],
      "children": [
        3,
        4,
        9
      ]
    },
    {
      "name": "Group",
      "translation": [
        0.180548191,
        0.428176463,
        0.635
      ],
      "children": [
        10
      ]
    },
    {
      "name": "tail",
      "translation": [
        0,
        0.6375,
        -0.5483935
      ],
      "children": [
        11
      ]
    },
    {
      "name": "leg-back-left",
      "translation": [
        0.25,
        0.3,
        -0.25
      ],
      "children": [
        12
      ]
    },
    {
      "name": "leg-back-right",
      "translation": [
        -0.25,
        0.3,
        -0.25
      ],
      "children": [
        13
      ]
    },
    {
      "name": "leg-front-left",
      "translation": [
        0.25,
        0.3,
        0.25
      ],
      "children": [
        14
      ]
    },
    {
      "name": "leg-front-right",
      "translation": [
        -0.25,
        0.3,
        0.25
      ],
      "children": [
        15
      ]
    },
    {
      "translation": [
        0,
        0.7022333145141602,
        0.03870627284049988
      ],
      "scale": [
        0.7022333145141602,
        0.7022333145141602,
        0.7022333145141602
      ],
      "mesh": 0
    },
    {
      "translation": [
        -0.1805482383351773,
        0.04472866654396057,
        4.721773479154923e-9
      ],
      "scale": [
        0.17491693538613617,
        0.17491693538613617,
        0.17491693538613617
      ],
      "mesh": 1
    },
    {
      "translation": [
        0,
        0.3679507449269295,
        -0.2776075005531311
      ],
      "scale": [
        0.5232936665415764,
        0.5232936665415764,
        0.5232936665415764
      ],
      "mesh": 2
    },
    {
      "translation": [
        0,
        -0.14687500894069672,
        0
      ],
      "scale": [
        0.18750004470348358,
        0.18750004470348358,
        0.18750004470348358
      ],
      "mesh": 3
    },
    {
      "translation": [
        0,
        -0.14687500894069672,
        0
      ],
      "scale": [
        0.18750004470348358,
        0.18750004470348358,
        0.18750004470348358
      ],
      "mesh": 4
    },
    {
      "translation": [
        0,
        -0.14687500894069672,
        0
      ],
      "scale": [
        0.18750004470348358,
        0.18750004470348358,
        0.18750004470348358
      ],
      "mesh": 5
    },
    {
      "translation": [
        0,
        -0.14687500894069672,
        0
      ],
      "scale": [
        0.18750004470348358,
        0.18750004470348358,
        0.18750004470348358
      ],
      "mesh": 6
    }
  ],
  "animations": [
    {
      "name": "static",
      "samplers": [
        {
          "input": 0,
          "output": 1,
          "interpolation": "LINEAR"
        },
        {
          "input": 0,
          "output": 2,
          "interpolation": "LINEAR"
        },
        {
          "input": 0,
          "output": 3,
          "interpolation": "LINEAR"
        },
        {
          "input": 0,
          "output": 4,
          "interpolation": "LINEAR"
        },
        {
          "input": 0,
          "output": 2,
          "interpolation": "LINEAR"
        },
        {
          "input": 0,
          "output": 3,
          "interpolation": "LINEAR"
        },
        {
          "input": 0,
          "output": 5,
          "interpolation": "LINEAR"
        },
        {
          "input": 0,
          "output": 2,
          "interpolation": "LINEAR"
        },
        {
          "input": 0,
          "output": 3,
          "interpolation": "LINEAR"
        },
        {
          "input": 0,
          "output": 6,
          "interpolation": "LINEAR"
        },
        {
          "input": 0,
          "output": 2,
          "interpolation": "LINEAR"
        },
        {
          "input": 0,
          "output": 3,
          "interpolation": "LINEAR"
        },
        {
          "input": 0,
          "output": 7,
          "interpolation": "LINEAR"
        },
        {
          "input": 0,
          "output": 2,
          "interpolation": "LINEAR"
        },
        {
          "input": 0,
          "output": 3,
          "interpolation": "LINEAR"
        },
        {
          "input": 0,
          "output": 8,
          "interpolation": "LINEAR"
        },
        {
          "input": 0,
          "output": 2,
          "interpolation": "LINEAR"
        },
        {
          "input": 0,
          "output": 3,
          "interpolation": "LINEAR"
        },
        {
          "input": 0,
          "output": 9,
          "interpolation": "LINEAR"
        },
        {
          "input": 0,
          "output": 2,
          "interpolation": "LINEAR"
        },
        {
          "input": 0,
          "output": 3,
          "interpolation": "LINEAR"
        },
        {
          "input": 0,
          "output": 10,
          "interpolation": "LINEAR"
        },
        {
          "input": 0,
          "output": 2,
          "interpolation": "LINEAR"
        },
        {
          "input": 0,
          "output": 3,
          "interpolation": "LINEAR"
        }
      ],
      "channels": [
        {
          "sampler": 0,
          "target": {
            "node": 1,
            "path": "translation"
          }
        },
        {
          "sampler": 1,
          "target": {
            "node": 1,
            "path": "rotation"
          }
        },
        {
          "sampler": 2,
          "target": {
            "node": 1,
            "path": "scale"
          }
        },
        {
          "sampler": 3,
          "target": {
            "node": 2,
            "path": "translation"
          }
        },
        {
          "sampler": 4,
          "target": {
            "node": 2,
            "path": "rotation"
          }
        },
        {
          "sampler": 5,
          "target": {
            "node": 2,
            "path": "scale"
          }
        },
        {
          "sampler": 6,
          "target": {
            "node": 3,
            "path": "translation"
          }
        },
        {
          "sampler": 7,
          "target": {
            "node": 3,
            "path": "rotation"
          }
        },
        {
          "sampler": 8,
          "target": {
            "node": 3,
            "path": "scale"
          }
        },
        {
          "sampler": 9,
          "target": {
            "node": 4,
            "path": "translation"
          }
        },
        {
          "sampler": 10,
          "target": {
            "node": 4,
            "path": "rotation"
          }
        },
        {
          "sampler": 11,
          "target": {
            "node": 4,
            "path": "scale"
          }
        },
        {
          "sampler": 12,
          "target": {
            "node": 5,
            "path": "translation"
          }
        },
        {
          "sampler": 13,
          "target": {
            "node": 5,
            "path": "rotation"
          }
        },
        {
          "sampler": 14,
          "target": {
            "node": 5,
            "path": "scale"
          }
        },
        {
          "sampler": 15,
          "target": {
            "node": 6,
            "path": "translation"
          }
        },
        {
          "sampler": 16,
          "target": {
            "node": 6,
            "path": "rotation"
          }
        },
        {
          "sampler": 17,
          "target": {
            "node": 6,
            "path": "scale"
          }
        },
        {
          "sampler": 18,
          "target": {
            "node": 7,
            "path": "translation"
          }
        },
        {
          "sampler": 19,
          "target": {
            "node": 7,
            "path": "rotation"
          }
        },
        {
          "sampler": 20,
          "target": {
            "node": 7,
            "path": "scale"
          }
        },
        {
          "sampler": 21,
          "target": {
            "node": 8,
            "path": "translation"
          }
        },
        {
          "sampler": 22,
          "target": {
            "node": 8,
            "path": "rotation"
          }
        },
        {
          "sampler": 23,
          "target": {
            "node": 8,
            "path": "scale"
          }
        }
      ]
    },
    {
      "name": "idle",
      "samplers": [
        {
          "input": 11,
          "output": 1,
          "interpolation": "LINEAR"
        },
        {
          "input": 11,
          "output": 2,
          "interpolation": "LINEAR"
        },
        {
          "input": 11,
          "output": 3,
          "interpolation": "LINEAR"
        },
        {
          "input": 11,
          "output": 4,
          "interpolation": "LINEAR"
        },
        {
          "input": 12,
          "output": 13,
          "interpolation": "LINEAR"
        },
        {
          "input": 11,
          "output": 3,
          "interpolation": "LINEAR"
        },
        {
          "input": 11,
          "output": 5,
          "interpolation": "LINEAR"
        },
        {
          "input": 11,
          "output": 2,
          "interpolation": "LINEAR"
        },
        {
          "input": 11,
          "output": 3,
          "interpolation": "LINEAR"
        },
        {
          "input": 11,
          "output": 6,
          "interpolation": "LINEAR"
        },
        {
          "input": 12,
          "output": 14,
          "interpolation": "LINEAR"
        },
        {
          "input": 11,
          "output": 3,
          "interpolation": "LINEAR"
        },
        {
          "input": 11,
          "output": 7,
          "interpolation": "LINEAR"
        },
        {
          "input": 11,
          "output": 2,
          "interpolation": "LINEAR"
        },
        {
          "input": 11,
          "output": 3,
          "interpolation": "LINEAR"
        },
        {
          "input": 11,
          "output": 8,
          "interpolation": "LINEAR"
        },
        {
          "input": 11,
          "output": 2,
          "interpolation": "LINEAR"
        },
        {
          "input": 11,
          "output": 3,
          "interpolation": "LINEAR"
        },
        {
          "input": 11,
          "output": 9,
          "interpolation": "LINEAR"
        },
        {
          "input": 11,
          "output": 2,
          "interpolation": "LINEAR"
        },
        {
          "input": 11,
          "output": 3,
          "interpolation": "LINEAR"
        },
        {
          "input": 11,
          "output": 10,
          "interpolation": "LINEAR"
        },
        {
          "input": 11,
          "output": 2,
          "interpolation": "LINEAR"
        },
        {
          "input": 11,
          "output": 3,
          "interpolation": "LINEAR"
        }
      ],
      "channels": [
        {
          "sampler": 0,
          "target": {
            "node": 1,
            "path": "translation"
          }
        },
        {
          "sampler": 1,
          "target": {
            "node": 1,
            "path": "rotation"
          }
        },
        {
          "sampler": 2,
          "target": {
            "node": 1,
            "path": "scale"
          }
        },
        {
          "sampler": 3,
          "target": {
            "node": 2,
            "path": "translation"
          }
        },
        {
          "sampler": 4,
          "target": {
            "node": 2,
            "path": "rotation"
          }
        },
        {
          "sampler": 5,
          "target": {
            "node": 2,
            "path": "scale"
          }
        },
        {
          "sampler": 6,
          "target": {
            "node": 3,
            "path": "translation"
          }
        },
        {
          "sampler": 7,
          "target": {
            "node": 3,
            "path": "rotation"
          }
        },
        {
          "sampler": 8,
          "target": {
            "node": 3,
            "path": "scale"
          }
        },
        {
          "sampler": 9,
          "target": {
            "node": 4,
            "path": "translation"
          }
        },
        {
          "sampler": 10,
          "target": {
            "node": 4,
            "path": "rotation"
          }
        },
        {
          "sampler": 11,
          "target": {
            "node": 4,
            "path": "scale"
          }
        },
        {
          "sampler": 12,
          "target": {
            "node": 5,
            "path": "translation"
          }
        },
        {
          "sampler": 13,
          "target": {
            "node": 5,
            "path": "rotation"
          }
        },
        {
          "sampler": 14,
          "target": {
            "node": 5,
            "path": "scale"
          }
        },
        {
          "sampler": 15,
          "target": {
            "node": 6,
            "path": "translation"
          }
        },
        {
          "sampler": 16,
          "target": {
            "node": 6,
            "path": "rotation"
          }
        },
        {
          "sampler": 17,
          "target": {
            "node": 6,
            "path": "scale"
          }
        },
        {
          "sampler": 18,
          "target": {
            "node": 7,
            "path": "translation"
          }
        },
        {
          "sampler": 19,
          "target": {
            "node": 7,
            "path": "rotation"
          }
        },
        {
          "sampler": 20,
          "target": {
            "node": 7,
            "path": "scale"
          }
        },
        {
          "sampler": 21,
          "target": {
            "node": 8,
            "path": "translation"
          }
        },
        {
          "sampler": 22,
          "target": {
            "node": 8,
            "path": "rotation"
          }
        },
        {
          "sampler": 23,
          "target": {
            "node": 8,
            "path": "scale"
          }
        }
      ]
    },
    {
      "name": "walk",
      "samplers": [
        {
          "input": 15,
          "output": 16,
          "interpolation": "LINEAR"
        },
        {
          "input": 17,
          "output": 2,
          "interpolation": "LINEAR"
        },
        {
          "input": 17,
          "output": 3,
          "interpolation": "LINEAR"
        },
        {
          "input": 17,
          "output": 4,
          "interpolation": "LINEAR"
        },
        {
          "input": 15,
          "output": 18,
          "interpolation": "LINEAR"
        },
        {
          "input": 17,
          "output": 3,
          "interpolation": "LINEAR"
        },
        {
          "input": 17,
          "output": 5,
          "interpolation": "LINEAR"
        },
        {
          "input": 17,
          "output": 2,
          "interpolation": "LINEAR"
        },
        {
          "input": 17,
          "output": 3,
          "interpolation": "LINEAR"
        },
        {
          "input": 17,
          "output": 6,
          "interpolation": "LINEAR"
        },
        {
          "input": 15,
          "output": 19,
          "interpolation": "LINEAR"
        },
        {
          "input": 17,
          "output": 3,
          "interpolation": "LINEAR"
        },
        {
          "input": 17,
          "output": 7,
          "interpolation": "LINEAR"
        },
        {
          "input": 15,
          "output": 20,
          "interpolation": "LINEAR"
        },
        {
          "input": 17,
          "output": 3,
          "interpolation": "LINEAR"
        },
        {
          "input": 17,
          "output": 8,
          "interpolation": "LINEAR"
        },
        {
          "input": 15,
          "output": 21,
          "interpolation": "LINEAR"
        },
        {
          "input": 17,
          "output": 3,
          "interpolation": "LINEAR"
        },
        {
          "input": 17,
          "output": 9,
          "interpolation": "LINEAR"
        },
        {
          "input": 15,
          "output": 21,
          "interpolation": "LINEAR"
        },
        {
          "input": 17,
          "output": 3,
          "interpolation": "LINEAR"
        },
        {
          "input": 17,
          "output": 10,
          "interpolation": "LINEAR"
        },
        {
          "input": 15,
          "output": 20,
          "interpolation": "LINEAR"
        },
        {
          "input": 17,
          "output": 3,
          "interpolation": "LINEAR"
        }
      ],
      "channels": [
        {
          "sampler": 0,
          "target": {
            "node": 1,
            "path": "translation"
          }
        },
        {
          "sampler": 1,
          "target": {
            "node": 1,
            "path": "rotation"
          }
        },
        {
          "sampler": 2,
          "target": {
            "node": 1,
            "path": "scale"
          }
        },
        {
          "sampler": 3,
          "target": {
            "node": 2,
            "path": "translation"
          }
        },
        {
          "sampler": 4,
          "target": {
            "node": 2,
            "path": "rotation"
          }
        },
        {
          "sampler": 5,
          "target": {
            "node": 2,
            "path": "scale"
          }
        },
        {
          "sampler": 6,
          "target": {
            "node": 3,
            "path": "translation"
          }
        },
        {
          "sampler": 7,
          "target": {
            "node": 3,
            "path": "rotation"
          }
        },
        {
          "sampler": 8,
          "target": {
            "node": 3,
            "path": "scale"
          }
        },
        {
          "sampler": 9,
          "target": {
            "node": 4,
            "path": "translation"
          }
        },
        {
          "sampler": 10,
          "target": {
            "node": 4,
            "path": "rotation"
          }
        },
        {
          "sampler": 11,
          "target": {
            "node": 4,
            "path": "scale"
          }
        },
        {
          "sampler": 12,
          "target": {
            "node": 5,
            "path": "translation"
          }
        },
        {
          "sampler": 13,
          "target": {
            "node": 5,
            "path": "rotation"
          }
        },
        {
          "sampler": 14,
          "target": {
            "node": 5,
            "path": "scale"
          }
        },
        {
          "sampler": 15,
          "target": {
            "node": 6,
            "path": "translation"
          }
        },
        {
          "sampler": 16,
          "target": {
            "node": 6,
            "path": "rotation"
          }
        },
        {
          "sampler": 17,
          "target": {
            "node": 6,
            "path": "scale"
          }
        },
        {
          "sampler": 18,
          "target": {
            "node": 7,
            "path": "translation"
          }
        },
        {
          "sampler": 19,
          "target": {
            "node": 7,
            "path": "rotation"
          }
        },
        {
          "sampler": 20,
          "target": {
            "node": 7,
            "path": "scale"
          }
        },
        {
          "sampler": 21,
          "target": {
            "node": 8,
            "path": "translation"
          }
        },
        {
          "sampler": 22,
          "target": {
            "node": 8,
            "path": "rotation"
          }
        },
        {
          "sampler": 23,
          "target": {
            "node": 8,
            "path": "scale"
          }
        }
      ]
    },
    {
      "name": "run",
      "samplers": [
        {
          "input": 22,
          "output": 23,
          "interpolation": "LINEAR"
        },
        {
          "input": 24,
          "output": 2,
          "interpolation": "LINEAR"
        },
        {
          "input": 24,
          "output": 3,
          "interpolation": "LINEAR"
        },
        {
          "input": 24,
          "output": 4,
          "interpolation": "LINEAR"
        },
        {
          "input": 22,
          "output": 25,
          "interpolation": "LINEAR"
        },
        {
          "input": 24,
          "output": 3,
          "interpolation": "LINEAR"
        },
        {
          "input": 24,
          "output": 5,
          "interpolation": "LINEAR"
        },
        {
          "input": 24,
          "output": 2,
          "interpolation": "LINEAR"
        },
        {
          "input": 24,
          "output": 3,
          "interpolation": "LINEAR"
        },
        {
          "input": 24,
          "output": 6,
          "interpolation": "LINEAR"
        },
        {
          "input": 22,
          "output": 26,
          "interpolation": "LINEAR"
        },
        {
          "input": 24,
          "output": 3,
          "interpolation": "LINEAR"
        },
        {
          "input": 24,
          "output": 7,
          "interpolation": "LINEAR"
        },
        {
          "input": 22,
          "output": 27,
          "interpolation": "LINEAR"
        },
        {
          "input": 24,
          "output": 3,
          "interpolation": "LINEAR"
        },
        {
          "input": 24,
          "output": 8,
          "interpolation": "LINEAR"
        },
        {
          "input": 22,
          "output": 27,
          "interpolation": "LINEAR"
        },
        {
          "input": 24,
          "output": 3,
          "interpolation": "LINEAR"
        },
        {
          "input": 24,
          "output": 9,
          "interpolation": "LINEAR"
        },
        {
          "input": 22,
          "output": 28,
          "interpolation": "LINEAR"
        },
        {
          "input": 24,
          "output": 3,
          "interpolation": "LINEAR"
        },
        {
          "input": 24,
          "output": 10,
          "interpolation": "LINEAR"
        },
        {
          "input": 22,
          "output": 28,
          "interpolation": "LINEAR"
        },
        {
          "input": 24,
          "output": 3,
          "interpolation": "LINEAR"
        }
      ],
      "channels": [
        {
          "sampler": 0,
          "target": {
            "node": 1,
            "path": "translation"
          }
        },
        {
          "sampler": 1,
          "target": {
            "node": 1,
            "path": "rotation"
          }
        },
        {
          "sampler": 2,
          "target": {
            "node": 1,
            "path": "scale"
          }
        },
        {
          "sampler": 3,
          "target": {
            "node": 2,
            "path": "translation"
          }
        },
        {
          "sampler": 4,
          "target": {
            "node": 2,
            "path": "rotation"
          }
        },
        {
          "sampler": 5,
          "target": {
            "node": 2,
            "path": "scale"
          }
        },
        {
          "sampler": 6,
          "target": {
            "node": 3,
            "path": "translation"
          }
        },
        {
          "sampler": 7,
          "target": {
            "node": 3,
            "path": "rotation"
          }
        },
        {
          "sampler": 8,
          "target": {
            "node": 3,
            "path": "scale"
          }
        },
        {
          "sampler": 9,
          "target": {
            "node": 4,
            "path": "translation"
          }
        },
        {
          "sampler": 10,
          "target": {
            "node": 4,
            "path": "rotation"
          }
        },
        {
          "sampler": 11,
          "target": {
            "node": 4,
            "path": "scale"
          }
        },
        {
          "sampler": 12,
          "target": {
            "node": 5,
            "path": "translation"
          }
        },
        {
          "sampler": 13,
          "target": {
            "node": 5,
            "path": "rotation"
          }
        },
        {
          "sampler": 14,
          "target": {
            "node": 5,
            "path": "scale"
          }
        },
        {
          "sampler": 15,
          "target": {
            "node": 6,
            "path": "translation"
          }
        },
        {
          "sampler": 16,
          "target": {
            "node": 6,
            "path": "rotation"
          }
        },
        {
          "sampler": 17,
          "target": {
            "node": 6,
            "path": "scale"
          }
        },
        {
          "sampler": 18,
          "target": {
            "node": 7,
            "path": "translation"
          }
        },
        {
          "sampler": 19,
          "target": {
            "node": 7,
            "path": "rotation"
          }
        },
        {
          "sampler": 20,
          "target": {
            "node": 7,
            "path": "scale"
          }
        },
        {
          "sampler": 21,
          "target": {
            "node": 8,
            "path": "translation"
          }
        },
        {
          "sampler": 22,
          "target": {
            "node": 8,
            "path": "rotation"
          }
        },
        {
          "sampler": 23,
          "target": {
            "node": 8,
            "path": "scale"
          }
        }
      ]
    },
    {
      "name": "eat",
      "samplers": [
        {
          "input": 17,
          "output": 1,
          "interpolation": "LINEAR"
        },
        {
          "input": 17,
          "output": 2,
          "interpolation": "LINEAR"
        },
        {
          "input": 17,
          "output": 3,
          "interpolation": "LINEAR"
        },
        {
          "input": 17,
          "output": 4,
          "interpolation": "LINEAR"
        },
        {
          "input": 15,
          "output": 29,
          "interpolation": "LINEAR"
        },
        {
          "input": 17,
          "output": 3,
          "interpolation": "LINEAR"
        },
        {
          "input": 17,
          "output": 5,
          "interpolation": "LINEAR"
        },
        {
          "input": 17,
          "output": 2,
          "interpolation": "LINEAR"
        },
        {
          "input": 17,
          "output": 3,
          "interpolation": "LINEAR"
        },
        {
          "input": 17,
          "output": 6,
          "interpolation": "LINEAR"
        },
        {
          "input": 15,
          "output": 30,
          "interpolation": "LINEAR"
        },
        {
          "input": 17,
          "output": 3,
          "interpolation": "LINEAR"
        },
        {
          "input": 17,
          "output": 7,
          "interpolation": "LINEAR"
        },
        {
          "input": 17,
          "output": 2,
          "interpolation": "LINEAR"
        },
        {
          "input": 17,
          "output": 3,
          "interpolation": "LINEAR"
        },
        {
          "input": 17,
          "output": 8,
          "interpolation": "LINEAR"
        },
        {
          "input": 17,
          "output": 2,
          "interpolation": "LINEAR"
        },
        {
          "input": 17,
          "output": 3,
          "interpolation": "LINEAR"
        },
        {
          "input": 17,
          "output": 9,
          "interpolation": "LINEAR"
        },
        {
          "input": 17,
          "output": 2,
          "interpolation": "LINEAR"
        },
        {
          "input": 17,
          "output": 3,
          "interpolation": "LINEAR"
        },
        {
          "input": 17,
          "output": 10,
          "interpolation": "LINEAR"
        },
        {
          "input": 17,
          "output": 2,
          "interpolation": "LINEAR"
        },
        {
          "input": 17,
          "output": 3,
          "interpolation": "LINEAR"
        }
      ],
      "channels": [
        {
          "sampler": 0,
          "target": {
            "node": 1,
            "path": "translation"
          }
        },
        {
          "sampler": 1,
          "target": {
            "node": 1,
            "path": "rotation"
          }
        },
        {
          "sampler": 2,
          "target": {
            "node": 1,
            "path": "scale"
          }
        },
        {
          "sampler": 3,
          "target": {
            "node": 2,
            "path": "translation"
          }
        },
        {
          "sampler": 4,
          "target": {
            "node": 2,
            "path": "rotation"
          }
        },
        {
          "sampler": 5,
          "target": {
            "node": 2,
            "path": "scale"
          }
        },
        {
          "sampler": 6,
          "target": {
            "node": 3,
            "path": "translation"
          }
        },
        {
          "sampler": 7,
          "target": {
            "node": 3,
            "path": "rotation"
          }
        },
        {
          "sampler": 8,
          "target": {
            "node": 3,
            "path": "scale"
          }
        },
        {
          "sampler": 9,
          "target": {
            "node": 4,
            "path": "translation"
          }
        },
        {
          "sampler": 10,
          "target": {
            "node": 4,
            "path": "rotation"
          }
        },
        {
          "sampler": 11,
          "target": {
            "node": 4,
            "path": "scale"
          }
        },
        {
          "sampler": 12,
          "target": {
            "node": 5,
            "path": "translation"
          }
        },
        {
          "sampler": 13,
          "target": {
            "node": 5,
            "path": "rotation"
          }
        },
        {
          "sampler": 14,
          "target": {
            "node": 5,
            "path": "scale"
          }
        },
        {
          "sampler": 15,
          "target": {
            "node": 6,
            "path": "translation"
          }
        },
        {
          "sampler": 16,
          "target": {
            "node": 6,
            "path": "rotation"
          }
        },
        {
          "sampler": 17,
          "target": {
            "node": 6,
            "path": "scale"
          }
        },
        {
          "sampler": 18,
          "target": {
            "node": 7,
            "path": "translation"
          }
        },
        {
          "sampler": 19,
          "target": {
            "node": 7,
            "path": "rotation"
          }
        },
        {
          "sampler": 20,
          "target": {
            "node": 7,
            "path": "scale"
          }
        },
        {
          "sampler": 21,
          "target": {
            "node": 8,
            "path": "translation"
          }
        },
        {
          "sampler": 22,
          "target": {
            "node": 8,
            "path": "rotation"
          }
        },
        {
          "sampler": 23,
          "target": {
            "node": 8,
            "path": "scale"
          }
        }
      ]
    },
    {
      "name": "dance",
      "samplers": [
        {
          "input": 17,
          "output": 1,
          "interpolation": "LINEAR"
        },
        {
          "input": 17,
          "output": 2,
          "interpolation": "LINEAR"
        },
        {
          "input": 17,
          "output": 3,
          "interpolation": "LINEAR"
        },
        {
          "input": 15,
          "output": 31,
          "interpolation": "LINEAR"
        },
        {
          "input": 15,
          "output": 32,
          "interpolation": "LINEAR"
        },
        {
          "input": 17,
          "output": 3,
          "interpolation": "LINEAR"
        },
        {
          "input": 17,
          "output": 5,
          "interpolation": "LINEAR"
        },
        {
          "input": 17,
          "output": 2,
          "interpolation": "LINEAR"
        },
        {
          "input": 17,
          "output": 3,
          "interpolation": "LINEAR"
        },
        {
          "input": 17,
          "output": 6,
          "interpolation": "LINEAR"
        },
        {
          "input": 15,
          "output": 33,
          "interpolation": "LINEAR"
        },
        {
          "input": 17,
          "output": 3,
          "interpolation": "LINEAR"
        },
        {
          "input": 17,
          "output": 7,
          "interpolation": "LINEAR"
        },
        {
          "input": 17,
          "output": 2,
          "interpolation": "LINEAR"
        },
        {
          "input": 17,
          "output": 3,
          "interpolation": "LINEAR"
        },
        {
          "input": 17,
          "output": 8,
          "interpolation": "LINEAR"
        },
        {
          "input": 17,
          "output": 2,
          "interpolation": "LINEAR"
        },
        {
          "input": 17,
          "output": 3,
          "interpolation": "LINEAR"
        },
        {
          "input": 17,
          "output": 9,
          "interpolation": "LINEAR"
        },
        {
          "input": 17,
          "output": 2,
          "interpolation": "LINEAR"
        },
        {
          "input": 17,
          "output": 3,
          "interpolation": "LINEAR"
        },
        {
          "input": 17,
          "output": 10,
          "interpolation": "LINEAR"
        },
        {
          "input": 17,
          "output": 2,
          "interpolation": "LINEAR"
        },
        {
          "input": 17,
          "output": 3,
          "interpolation": "LINEAR"
        }
      ],
      "channels": [
        {
          "sampler": 0,
          "target": {
            "node": 1,
            "path": "translation"
          }
        },
        {
          "sampler": 1,
          "target": {
            "node": 1,
            "path": "rotation"
          }
        },
        {
          "sampler": 2,
          "target": {
            "node": 1,
            "path": "scale"
          }
        },
        {
          "sampler": 3,
          "target": {
            "node": 2,
            "path": "translation"
          }
        },
        {
          "sampler": 4,
          "target": {
            "node": 2,
            "path": "rotation"
          }
        },
        {
          "sampler": 5,
          "target": {
            "node": 2,
            "path": "scale"
          }
        },
        {
          "sampler": 6,
          "target": {
            "node": 3,
            "path": "translation"
          }
        },
        {
          "sampler": 7,
          "target": {
            "node": 3,
            "path": "rotation"
          }
        },
        {
          "sampler": 8,
          "target": {
            "node": 3,
            "path": "scale"
          }
        },
        {
          "sampler": 9,
          "target": {
            "node": 4,
            "path": "translation"
          }
        },
        {
          "sampler": 10,
          "target": {
            "node": 4,
            "path": "rotation"
          }
        },
        {
          "sampler": 11,
          "target": {
            "node": 4,
            "path": "scale"
          }
        },
        {
          "sampler": 12,
          "target": {
            "node": 5,
            "path": "translation"
          }
        },
        {
          "sampler": 13,
          "target": {
            "node": 5,
            "path": "rotation"
          }
        },
        {
          "sampler": 14,
          "target": {
            "node": 5,
            "path": "scale"
          }
        },
        {
          "sampler": 15,
          "target": {
            "node": 6,
            "path": "translation"
          }
        },
        {
          "sampler": 16,
          "target": {
            "node": 6,
            "path": "rotation"
          }
        },
        {
          "sampler": 17,
          "target": {
            "node": 6,
            "path": "scale"
          }
        },
        {
          "sampler": 18,
          "target": {
            "node": 7,
            "path": "translation"
          }
        },
        {
          "sampler": 19,
          "target": {
            "node": 7,
            "path": "rotation"
          }
        },
        {
          "sampler": 20,
          "target": {
            "node": 7,
            "path": "scale"
          }
        },
        {
          "sampler": 21,
          "target": {
            "node": 8,
            "path": "translation"
          }
        },
        {
          "sampler": 22,
          "target": {
            "node": 8,
            "path": "rotation"
          }
        },
        {
          "sampler": 23,
          "target": {
            "node": 8,
            "path": "scale"
          }
        }
      ]
    },
    {
      "name": "gesture-positive",
      "samplers": [
        {
          "input": 24,
          "output": 1,
          "interpolation": "LINEAR"
        },
        {
          "input": 24,
          "output": 2,
          "interpolation": "LINEAR"
        },
        {
          "input": 24,
          "output": 3,
          "interpolation": "LINEAR"
        },
        {
          "input": 24,
          "output": 4,
          "interpolation": "LINEAR"
        },
        {
          "input": 22,
          "output": 34,
          "interpolation": "LINEAR"
        },
        {
          "input": 24,
          "output": 3,
          "interpolation": "LINEAR"
        },
        {
          "input": 24,
          "output": 5,
          "interpolation": "LINEAR"
        },
        {
          "input": 24,
          "output": 2,
          "interpolation": "LINEAR"
        },
        {
          "input": 24,
          "output": 3,
          "interpolation": "LINEAR"
        },
        {
          "input": 24,
          "output": 6,
          "interpolation": "LINEAR"
        },
        {
          "input": 35,
          "output": 36,
          "interpolation": "LINEAR"
        },
        {
          "input": 24,
          "output": 3,
          "interpolation": "LINEAR"
        },
        {
          "input": 24,
          "output": 7,
          "interpolation": "LINEAR"
        },
        {
          "input": 24,
          "output": 2,
          "interpolation": "LINEAR"
        },
        {
          "input": 24,
          "output": 3,
          "interpolation": "LINEAR"
        },
        {
          "input": 24,
          "output": 8,
          "interpolation": "LINEAR"
        },
        {
          "input": 24,
          "output": 2,
          "interpolation": "LINEAR"
        },
        {
          "input": 24,
          "output": 3,
          "interpolation": "LINEAR"
        },
        {
          "input": 24,
          "output": 9,
          "interpolation": "LINEAR"
        },
        {
          "input": 24,
          "output": 2,
          "interpolation": "LINEAR"
        },
        {
          "input": 24,
          "output": 3,
          "interpolation": "LINEAR"
        },
        {
          "input": 24,
          "output": 10,
          "interpolation": "LINEAR"
        },
        {
          "input": 24,
          "output": 2,
          "interpolation": "LINEAR"
        },
        {
          "input": 24,
          "output": 3,
          "interpolation": "LINEAR"
        }
      ],
      "channels": [
        {
          "sampler": 0,
          "target": {
            "node": 1,
            "path": "translation"
          }
        },
        {
          "sampler": 1,
          "target": {
            "node": 1,
            "path": "rotation"
          }
        },
        {
          "sampler": 2,
          "target": {
            "node": 1,
            "path": "scale"
          }
        },
        {
          "sampler": 3,
          "target": {
            "node": 2,
            "path": "translation"
          }
        },
        {
          "sampler": 4,
          "target": {
            "node": 2,
            "path": "rotation"
          }
        },
        {
          "sampler": 5,
          "target": {
            "node": 2,
            "path": "scale"
          }
        },
        {
          "sampler": 6,
          "target": {
            "node": 3,
            "path": "translation"
          }
        },
        {
          "sampler": 7,
          "target": {
            "node": 3,
            "path": "rotation"
          }
        },
        {
          "sampler": 8,
          "target": {
            "node": 3,
            "path": "scale"
          }
        },
        {
          "sampler": 9,
          "target": {
            "node": 4,
            "path": "translation"
          }
        },
        {
          "sampler": 10,
          "target": {
            "node": 4,
            "path": "rotation"
          }
        },
        {
          "sampler": 11,
          "target": {
            "node": 4,
            "path": "scale"
          }
        },
        {
          "sampler": 12,
          "target": {
            "node": 5,
            "path": "translation"
          }
        },
        {
          "sampler": 13,
          "target": {
            "node": 5,
            "path": "rotation"
          }
        },
        {
          "sampler": 14,
          "target": {
            "node": 5,
            "path": "scale"
          }
        },
        {
          "sampler": 15,
          "target": {
            "node": 6,
            "path": "translation"
          }
        },
        {
          "sampler": 16,
          "target": {
            "node": 6,
            "path": "rotation"
          }
        },
        {
          "sampler": 17,
          "target": {
            "node": 6,
            "path": "scale"
          }
        },
        {
          "sampler": 18,
          "target": {
            "node": 7,
            "path": "translation"
          }
        },
        {
          "sampler": 19,
          "target": {
            "node": 7,
            "path": "rotation"
          }
        },
        {
          "sampler": 20,
          "target": {
            "node": 7,
            "path": "scale"
          }
        },
        {
          "sampler": 21,
          "target": {
            "node": 8,
            "path": "translation"
          }
        },
        {
          "sampler": 22,
          "target": {
            "node": 8,
            "path": "rotation"
          }
        },
        {
          "sampler": 23,
          "target": {
            "node": 8,
            "path": "scale"
          }
        }
      ]
    },
    {
      "name": "gesture-negative",
      "samplers": [
        {
          "input": 24,
          "output": 1,
          "interpolation": "LINEAR"
        },
        {
          "input": 24,
          "output": 2,
          "interpolation": "LINEAR"
        },
        {
          "input": 24,
          "output": 3,
          "interpolation": "LINEAR"
        },
        {
          "input": 24,
          "output": 4,
          "interpolation": "LINEAR"
        },
        {
          "input": 22,
          "output": 37,
          "interpolation": "LINEAR"
        },
        {
          "input": 24,
          "output": 3,
          "interpolation": "LINEAR"
        },
        {
          "input": 24,
          "output": 5,
          "interpolation": "LINEAR"
        },
        {
          "input": 24,
          "output": 2,
          "interpolation": "LINEAR"
        },
        {
          "input": 24,
          "output": 3,
          "interpolation": "LINEAR"
        },
        {
          "input": 24,
          "output": 6,
          "interpolation": "LINEAR"
        },
        {
          "input": 22,
          "output": 38,
          "interpolation": "LINEAR"
        },
        {
          "input": 24,
          "output": 3,
          "interpolation": "LINEAR"
        },
        {
          "input": 24,
          "output": 7,
          "interpolation": "LINEAR"
        },
        {
          "input": 24,
          "output": 2,
          "interpolation": "LINEAR"
        },
        {
          "input": 24,
          "output": 3,
          "interpolation": "LINEAR"
        },
        {
          "input": 24,
          "output": 8,
          "interpolation": "LINEAR"
        },
        {
          "input": 24,
          "output": 2,
          "interpolation": "LINEAR"
        },
        {
          "input": 24,
          "output": 3,
          "interpolation": "LINEAR"
        },
        {
          "input": 24,
          "output": 9,
          "interpolation": "LINEAR"
        },
        {
          "input": 24,
          "output": 2,
          "interpolation": "LINEAR"
        },
        {
          "input": 24,
          "output": 3,
          "interpolation": "LINEAR"
        },
        {
          "input": 24,
          "output": 10,
          "interpolation": "LINEAR"
        },
        {
          "input": 24,
          "output": 2,
          "interpolation": "LINEAR"
        },
        {
          "input": 24,
          "output": 3,
          "interpolation": "LINEAR"
        }
      ],
      "channels": [
        {
          "sampler": 0,
          "target": {
            "node": 1,
            "path": "translation"
          }
        },
        {
          "sampler": 1,
          "target": {
            "node": 1,
            "path": "rotation"
          }
        },
        {
          "sampler": 2,
          "target": {
            "node": 1,
            "path": "scale"
          }
        },
        {
          "sampler": 3,
          "target": {
            "node": 2,
            "path": "translation"
          }
        },
        {
          "sampler": 4,
          "target": {
            "node": 2,
            "path": "rotation"
          }
        },
        {
          "sampler": 5,
          "target": {
            "node": 2,
            "path": "scale"
          }
        },
        {
          "sampler": 6,
          "target": {
            "node": 3,
            "path": "translation"
          }
        },
        {
          "sampler": 7,
          "target": {
            "node": 3,
            "path": "rotation"
          }
        },
        {
          "sampler": 8,
          "target": {
            "node": 3,
            "path": "scale"
          }
        },
        {
          "sampler": 9,
          "target": {
            "node": 4,
            "path": "translation"
          }
        },
        {
          "sampler": 10,
          "target": {
            "node": 4,
            "path": "rotation"
          }
        },
        {
          "sampler": 11,
          "target": {
            "node": 4,
            "path": "scale"
          }
        },
        {
          "sampler": 12,
          "target": {
            "node": 5,
            "path": "translation"
          }
        },
        {
          "sampler": 13,
          "target": {
            "node": 5,
            "path": "rotation"
          }
        },
        {
          "sampler": 14,
          "target": {
            "node": 5,
            "path": "scale"
          }
        },
        {
          "sampler": 15,
          "target": {
            "node": 6,
            "path": "translation"
          }
        },
        {
          "sampler": 16,
          "target": {
            "node": 6,
            "path": "rotation"
          }
        },
        {
          "sampler": 17,
          "target": {
            "node": 6,
            "path": "scale"
          }
        },
        {
          "sampler": 18,
          "target": {
            "node": 7,
            "path": "translation"
          }
        },
        {
          "sampler": 19,
          "target": {
            "node": 7,
            "path": "rotation"
          }
        },
        {
          "sampler": 20,
          "target": {
            "node": 7,
            "path": "scale"
          }
        },
        {
          "sampler": 21,
          "target": {
            "node": 8,
            "path": "translation"
          }
        },
        {
          "sampler": 22,
          "target": {
            "node": 8,
            "path": "rotation"
          }
        },
        {
          "sampler": 23,
          "target": {
            "node": 8,
            "path": "scale"
          }
        }
      ]
    }
  ],
  "scenes": [
    {
      "name": "animal-cat",
      "nodes": [
        0
      ]
    }
  ],
  "scene": 0,
  "extensionsUsed": [
    "EXT_meshopt_compression",
    "KHR_mesh_quantization",
    "KHR_texture_transform"
  ],
  "extensionsRequired": [
    "EXT_meshopt_compression",
    "KHR_mesh_quantization"
  ]
}