{
  "asset": {
    "generator": "glTF-Transform v4.5.1",
    "version": "2.0"
  },
  "accessors": [
    {
      "type": "SCALAR",
      "componentType": 5126,
      "count": 2,
      "max": [
        0.10000000149011612
      ],
      "min": [
        0
      ],
      "normalized": false,
      "byteOffset": 0,
      "bufferView": 0
    },
    {
      "type": "VEC3",
      "componentType": 5126,
      "count": 2,
      "normalized": false,
      "byteOffset": 0,
      "bufferView": 1
    },
    {
      "type": "VEC4",
      "componentType": 5126,
      "count": 2,
      "normalized": false,
      "byteOffset": 0,
      "bufferView": 2
    },
    {
      "type": "VEC3",
      "componentType": 5126,
      "count": 2,
      "normalized": false,
      "byteOffset": 24,
      "bufferView": 1
    },
    {
      "type": "VEC3",
      "componentType": 5126,
      "count": 2,
      "normalized": false,
      "byteOffset": 48,
      "bufferView": 1
    },
    {
      "type": "VEC3",
      "componentType": 5126,
      "count": 2,
      "normalized": false,
      "byteOffset": 72,
      "bufferView": 1
    },
    {
      "type": "VEC3",
      "componentType": 5126,
      "count": 2,
      "normalized": false,
      "byteOffset": 96,
      "bufferView": 1
    },
    {
      "type": "VEC3",
      "componentType": 5126,
      "count": 2,
      "normalized": false,
      "byteOffset": 120,
      "bufferView": 1
    },
    {
      "type": "VEC3",
      "componentType": 5126,
      "count": 2,
      "normalized": false,
      "byteOffset": 144,
      "bufferView": 1
    },
    {
      "type": "VEC3",
      "componentType": 5126,
      "count": 2,
      "normalized": false,
      "byteOffset": 168,
      "bufferView": 1
    },
    {
      "type": "SCALAR",
      "componentType": 5126,
      "count": 2,
      "max": [
        1
      ],
      "min": [
        0
      ],
      "normalized": false,
      "byteOffset": 8,
      "bufferView": 0
    },
    {
      "type": "SCALAR",
      "componentType": 5126,
      "count": 30,
      "max": [
        1
      ],
      "min": [
        0
      ],
      "normalized": false,
      "byteOffset": 16,
      "bufferView": 0
    },
    {
      "type": "VEC4",
      "componentType": 5126,
      "count": 30,
      "normalized": false,
      "byteOffset": 32,
      "bufferView": 2
    },
    {
      "type": "VEC4",
      "componentType": 5126,
      "count": 30,
      "normalized": false,
      "byteOffset": 512,
      "bufferView": 2
    },
    {
      "type": "SCALAR",
      "componentType": 5126,
      "count": 15,
      "max": [
        0.5
      ],
      "min": [
        0
      ],
      "normalized": false,
      "byteOffset": 136,
      "bufferView": 0
    },
    {
      "type": "VEC3",
      "componentType": 5126,
      "count": 15,
      "normalized": false,
      "byteOffset": 192,
      "bufferView": 1
    },
    {
      "type": "SCALAR",
      "componentType": 5126,
      "count": 2,
      "max": [
        0.5
      ],
      "min": [
        0
      ],
      "normalized": false,
      "byteOffset": 196,
      "bufferView": 0
    },
    {
      "type": "VEC4",
      "componentType": 5126,
      "count": 15,
      "normalized": false,
      "byteOffset": 992,
      "bufferView": 2
    },
    {
      "type": "VEC4",
      "componentType": 5126,
      "count": 15,
      "normalized": false,
      "byteOffset": 1232,
      "bufferView": 2
    },
    {
      "type": "VEC4",
      "componentType": 5126,
      "count": 15,
      "normalized": false,
      "byteOffset": 1472,
      "bufferView": 2
    },
    {
      "type": "VEC4",
      "componentType": 5126,
      "count": 15,
      "normalized": false,
      "byteOffset": 1712,
      "bufferView": 2
    },
    {
      "type": "SCALAR",
      "componentType": 5126,
      "count": 8,
      "max": [
        0.25
      ],
      "min": [
        0
      ],
      "normalized": false,
      "byteOffset": 204,
      "bufferView": 0
    },
    {
      "type": "VEC3",
      "componentType": 5126,
      "count": 8,
      "normalized": false,
      "byteOffset": 372,
      "bufferView": 1
    },
    {
      "type": "SCALAR",
      "componentType": 5126,
      "count": 2,
      "max": [
        0.25
      ],
      "min": [
        0
      ],
      "normalized": false,
      "byteOffset": 236,
      "bufferView": 0
    },
    {
      "type": "VEC4",
      "componentType": 5126,
      "count": 8,
      "normalized": false,
      "byteOffset": 1952,
      "bufferView": 2
    },
    {
      "type": "VEC4",
      "componentType": 5126,
      "count": 8,
      "normalized": false,
      "byteOffset": 2080,
      "bufferView": 2
    },
    {
      "type": "VEC4",
      "componentType": 5126,
      "count": 8,
      "normalized": false,
      "byteOffset": 2208,
      "bufferView": 2
    },
    {
      "type": "VEC4",
      "componentType": 5126,
      "count": 8,
      "normalized": false,
      "byteOffset": 2336,
      "bufferView": 2
    },
    {
      "type": "VEC4",
      "componentType": 5126,
      "count": 15,
      "normalized": false,
      "byteOffset": 2464,
      "bufferView": 2
    },
    {
      "type": "VEC4",
      "componentType": 5126,
      "count": 15,
      "normalized": false,
      "byteOffset": 2704,
      "bufferView": 2
    },
    {
      "type": "VEC3",
      "componentType": 5126,
      "count": 15,
      "normalized": false,
      "byteOffset": 468,
      "bufferView": 1
    },
    {
      "type": "VEC4",
      "componentType": 5126,
      "count": 15,
      "normalized": false,
      "byteOffset": 2944,
      "bufferView": 2
    },
    {
      "type": "VEC4",
      "componentType": 5126,
      "count": 15,
      "normalized": false,
      "byteOffset": 3184,
      "bufferView": 2
    },
    {
      "type": "VEC4",
      "componentType": 5126,
      "count": 8,
      "normalized": false,
      "byteOffset": 3424,
      "bufferView": 2
    },
    {
      "type": "SCALAR",
      "componentType": 5126,
      "count": 7,
      "max": [
        0.25
      ],
      "min": [
        0
      ],
      "normalized": false,
      "byteOffset": 244,
      "bufferView": 0
    },
    {
      "type": "VEC4",
      "componentType": 5126,
      "count": 7,
      "normalized": false,
      "byteOffset": 3552,
      "bufferView": 2
    },
    {
      "type": "VEC4",
      "componentType": 5126,
      "count": 8,
      "normalized": false,
      "byteOffset": 3664,
      "bufferView": 2
    },
    {
      "type": "VEC4",
      "componentType": 5126,
      "count": 8,
      "normalized": false,
      "byteOffset": 3792,
      "bufferView": 2
    },
    {
      "type": "SCALAR",
      "componentType": 5123,
      "count": 132,
      "normalized": false,
      "byteOffset": 0,
      "bufferView": 3
    },
    {
      "type": "SCALAR",
      "componentType": 5123,
      "count": 1503,
      "normalized": false,
      "byteOffset": 264,
      "bufferView": 3
    },
    {
      "type": "SCALAR",
      "componentType": 5123,
      "count": 636,
      "normalized": false,
      "byteOffset": 3270,
      "bufferView": 3
    },
    {
      "type": "SCALAR",
      "componentType": 5123,
      "count": 132,
      "normalized": false,
      "byteOffset": 4542,
      "bufferView": 3
    },
    {
      "type": "SCALAR",
      "componentType": 5123,
      "count": 132,
      "normalized": false,
      "byteOffset": 4806,
      "bufferView": 3
    },
    {
      "type": "SCALAR",
      "componentType": 5123,
      "count": 132,
      "normalized": false,
      "byteOffset": 5070,
      "bufferView": 3
    },
    {
      "type": "VEC3",
      "componentType": 5122,
      "count": 78,
      "max": [
        32767,
        26759,
        32767
      ],
      "min": [
        -32767,
        -26759,
        -32767
      ],
      "normalized": true,
      "byteOffset": 0,
      "bufferView": 4
    },
    {
      "type": "VEC3",
      "componentType": 5122,
      "count": 78,
      "normalized": true,
      "byteOffset": 0,
      "bufferView": 5
    },
    {
      "type": "VEC2",
      "componentType": 5123,
      "count": 78,
      "normalized": true,
      "byteOffset": 0,
      "bufferView": 6
    },
    {
      "type": "VEC3",
      "componentType": 5122,
      "count": 812,
      "max": [
        32767,
        32767,
        28215
      ],
      "min": [
        -32767,
        -32767,
        -28215
      ],
      "normalized": true,
      "byteOffset": 0,
      "bufferView": 7
    },
    {
      "type": "VEC3",
      "componentType": 5122,
      "count": 812,
      "normalized": true,
      "byteOffset": 0,
      "bufferView": 8
    },
    {
      "type": "VEC2",
      "componentType": 5123,
      "count": 812,
      "normalized": true,
      "byteOffset": 0,
      "bufferView": 9
    },
    {
      "type": "VEC3",
      "componentType": 5122,
      "count": 386,
      "max": [
        8477,
        32767,
        16810
      ],
      "min": [
        -8477,
        -32767,
        -16810
      ],
      "normalized": true,
      "byteOffset": 0,
      "bufferView": 10
    },
    {
      "type": "VEC3",
      "componentType": 5122,
      "count": 386,
      "normalized": true,
      "byteOffset": 0,
      "bufferView": 11
    },
    {
      "type": "VEC2",
      "componentType": 5123,
      "count": 386,
      "normalized": true,
      "byteOffset": 0,
      "bufferView": 12
    },
    {
      "type": "VEC3",
      "componentType": 5122,
      "count": 79,
      "max": [
        32767,
        26759,
        32767
      ],
      "min": [
        -32767,
        -26759,
        -32767
      ],
      "normalized": true,
      "byteOffset": 0,
      "bufferView": 13
    },
    {
      "type": "VEC3",
      "componentType": 5122,
      "count": 79,
      "normalized": true,
      "byteOffset": 0,
      "bufferView": 14
    },
    {
      "type": "VEC2",
      "componentType": 5123,
      "count": 79,
      "normalized": true,
      "byteOffset": 0,
      "bufferView": 15
    },
    {
      "type": "VEC3",
      "componentType": 5122,
      "count": 79,
      "max": [
        32767,
        26759,
        32767
      ],
      "min": [
        -32767,
        -26759,
        -32767
      ],
      "normalized": true,
      "byteOffset": 0,
      "bufferView": 16
    },
    {
      "type": "VEC3",
      "componentType": 5122,
      "count": 79,
      "normalized": true,
      "byteOffset": 0,
      "bufferView": 17
    },
    {
      "type": "VEC2",
      "componentType": 5123,
      "count": 79,
      "normalized": true,
      "byteOffset": 0,
      "bufferView": 18
    },
    {
      "type": "VEC3",
      "componentType": 5122,
      "count": 78,
      "max": [
        32767,
        26759,
        32767
      ],
      "min": [
        -32767,
        -26759,
        -32767
      ],
      "normalized": true,
      "byteOffset": 0,
      "bufferView": 19
    },
    {
      "type": "VEC3",
      "componentType": 5122,
      "count": 78,
      "normalized": true,
      "byteOffset": 0,
      "bufferView": 20
    },
    {
      "type": "VEC2",
      "componentType": 5123,
      "count": 78,
      "normalized": true,
      "byteOffset": 0,
      "bufferView": 21
    }
  ],
  "bufferViews": [
    {
      "buffer": 1,
      "byteOffset": 0,
      "byteLength": 272,
      "extensions": {
        "EXT_meshopt_compression": {
          "buffer": 0,
          "byteOffset": 0,
          "byteLength": 253,
          "mode": "ATTRIBUTES",
          "byteStride": 4,
          "count": 68
        }
      }
    },
    {
      "buffer": 1,
      "byteOffset": 272,
      "byteLength": 648,
      "extensions": {
        "EXT_meshopt_compression": {
          "buffer": 0,
          "byteOffset": 256,
          "byteLength": 339,
          "mode": "ATTRIBUTES",
          "byteStride": 12,
          "count": 54
        }
      }
    },
    {
      "buffer": 1,
      "byteOffset": 920,
      "byteLength": 3920,
      "extensions": {
        "EXT_meshopt_compression": {
          "buffer": 0,
          "byteOffset": 596,
          "byteLength": 2497,
          "mode": "ATTRIBUTES",
          "byteStride": 16,
          "count": 245
        }
      }
    },
    {
      "buffer": 1,
      "byteOffset": 4840,
      "byteLength": 5334,
      "target": 34963,
      "extensions": {
        "EXT_meshopt_compression": {
          "buffer": 0,
          "byteOffset": 3096,
          "byteLength": 960,
          "mode": "TRIANGLES",
          "byteStride": 2,
          "count": 2667
        }
      }
    },
    {
      "buffer": 1,
      "byteOffset": 10176,
      "byteLength": 624,
      "target": 34962,
      "byteStride": 8,
      "extensions": {
        "EXT_meshopt_compression": {
          "buffer": 0,
          "byteOffset": 4056,
          "byteLength": 488,
          "mode": "ATTRIBUTES",
          "byteStride": 8,
          "count": 78
        }
      }
    },
    {
      "buffer": 1,
      "byteOffset": 10800,
      "byteLength": 624,
      "target": 34962,
      "byteStride": 8,
      "extensions": {
        "EXT_meshopt_compression": {
          "buffer": 0,
          "byteOffset": 4544,
          "byteLength": 491,
          "mode": "ATTRIBUTES",
          "byteStride": 8,
          "count": 78
        }
      }
    },
    {
      "buffer": 1,
      "byteOffset": 11424,
      "byteLength": 312,
      "target": 34962,
      "byteStride": 4,
      "extensions": {
        "EXT_meshopt_compression": {
          "buffer": 0,
          "byteOffset": 5036,
          "byteLength": 187,
          "mode": "ATTRIBUTES",
          "byteStride": 4,
          "count": 78
        }
      }
    },
    {
      "buffer": 1,
      "byteOffset": 11736,
      "byteLength": 6496,
      "target": 34962,
      "byteStride": 8,
      "extensions": {
        "EXT_meshopt_compression": {
          "buffer": 0,
          "byteOffset": 5224,
          "byteLength": 4630,
          "mode": "ATTRIBUTES",
          "byteStride": 8,
          "count": 812
        }
      }
    },
    {
      "buffer": 1,
      "byteOffset": 18232,
      "byteLength": 6496,
      "target": 34962,
      "byteStride": 8,
      "extensions": {
        "EXT_meshopt_compression": {
          "buffer": 0,
          "byteOffset": 9856,
          "byteLength": 4421,
          "mode": "ATTRIBUTES",
          "byteStride": 8,
          "count": 812
        }
      }
    },
    {
      "buffer": 1,
      "byteOffset": 24728,
      "byteLength": 3248,
      "target": 34962,
      "byteStride": 4,
      "extensions": {
        "EXT_meshopt_compression": {
          "buffer": 0,
          "byteOffset": 14280,
          "byteLength": 1600,
          "mode": "ATTRIBUTES",
          "byteStride": 4,
          "count": 812
        }
      }
    },
    {
      "buffer": 1,
      "byteOffset": 27976,
      "byteLength": 3088,
      "target": 34962,
      "byteStride": 8,
      "extensions": {
        "EXT_meshopt_compression": {
          "buffer": 0,
          "byteOffset": 15880,
          "byteLength": 2405,
          "mode": "ATTRIBUTES",
          "byteStride": 8,
          "count": 386
        }
      }
    },
    {
      "buffer": 1,
      "byteOffset": 31064,
      "byteLength": 3088,
      "target": 34962,
      "byteStride": 8,
      "extensions": {
        "EXT_meshopt_compression": {
          "buffer": 0,
          "byteOffset": 18288,
          "byteLength": 2407,
          "mode": "ATTRIBUTES",
          "byteStride": 8,
          "count": 386
        }
      }
    },
    {
      "buffer": 1,
      "byteOffset": 34152,
      "byteLength": 1544,
      "target": 34962,
      "byteStride": 4,
      "extensions": {
        "EXT_meshopt_compression": {
          "buffer": 0,
          "byteOffset": 20696,
          "byteLength": 708,
          "mode": "ATTRIBUTES",
          "byteStride": 4,
          "count": 386
        }
      }
    },
    {
      "buffer": 1,
      "byteOffset": 35696,
      "byteLength": 632,
      "target": 34962,
      "byteStride": 8,
      "extensions": {
        "EXT_meshopt_compression": {
          "buffer": 0,
          "byteOffset": 21404,
          "byteLength": 485,
          "mode": "ATTRIBUTES",
          "byteStride": 8,
          "count": 79
        }
      }
    },
    {
      "buffer": 1,
      "byteOffset": 36328,
      "byteLength": 632,
      "target": 34962,
      "byteStride": 8,
      "extensions": {
        "EXT_meshopt_compression": {
          "buffer": 0,
          "byteOffset": 21892,
          "byteLength": 493,
          "mode": "ATTRIBUTES",
          "byteStride": 8,
          "count": 79
        }
      }
    },
    {
      "buffer": 1,
      "byteOffset": 36960,
      "byteLength": 316,
      "target": 34962,
      "byteStride": 4,
      "extensions": {
        "EXT_meshopt_compression": {
          "buffer": 0,
          "byteOffset": 22388,
          "byteLength": 179,
          "mode": "ATTRIBUTES",
          "byteStride": 4,
          "count": 79
        }
      }
    },
    {
      "buffer": 1,
      "byteOffset": 37276,
      "byteLength": 632,
      "target": 34962,
      "byteStride": 8,
      "extensions": {
        "EXT_meshopt_compression": {
          "buffer": 0,
          "byteOffset": 22568,
          "byteLength": 490,
          "mode": "ATTRIBUTES",
          "byteStride": 8,
          "count": 79
        }
      }
    },
    {
      "buffer": 1,
      "byteOffset": 37908,
      "byteLength": 632,
      "target": 34962,
      "byteStride": 8,
      "extensions": {
        "EXT_meshopt_compression": {
          "buffer": 0,
          "byteOffset": 23060,
          "byteLength": 486,
          "mode": "ATTRIBUTES",
          "byteStride": 8,
          "count": 79
        }
      }
    },
    {
      "buffer": 1,
      "byteOffset": 38540,
      "byteLength": 316,
      "target": 34962,
      "byteStride": 4,
      "extensions": {
        "EXT_meshopt_compression": {
          "buffer": 0,
          "byteOffset": 23548,
          "byteLength": 181,
          "mode": "ATTRIBUTES",
          "byteStride": 4,
          "count": 79
        }
      }
    },
    {
      "buffer": 1,
      "byteOffset": 38856,
      "byteLength": 624,
      "target": 34962,
      "byteStride": 8,
      "extensions": {
        "EXT_meshopt_compression": {
          "buffer": 0,
          "byteOffset": 23732,
          "byteLength": 478,
          "mode": "ATTRIBUTES",
          "byteStride": 8,
          "count": 78
        }
      }
    },
    {
      "buffer": 1,
      "byteOffset": 39480,
      "byteLength": 624,
      "target": 34962,
      "byteStride": 8,
      "extensions": {
        "EXT_meshopt_compression": {
          "buffer": 0,
          "byteOffset": 24212,
          "byteLength": 490,
          "mode": "ATTRIBUTES",
          "byteStride": 8,
          "count": 78
        }
      }
    },
    {
      "buffer": 1,
      "byteOffset": 40104,
      "byteLength": 312,
      "target": 34962,
      "byteStride": 4,
      "extensions": {
        "EXT_meshopt_compression": {
          "buffer": 0,
          "byteOffset": 24704,
          "byteLength": 175,
          "mode": "ATTRIBUTES",
          "byteStride": 4,
          "count": 78
        }
      }
    }
  ],
  "samplers": [
    {
      "minFilter": 9987,
      "wrapS": 10497,
      "wrapT": 10497
    }
  ],
  "textures": [
    {
      "source": 0,
      "sampler": 0
    }
  ],
  "images": [
    {
      "name": "colormap",
      "mimeType": "image/png",
      "uri": "Textures/colormap.png"
    }
  ],
  "buffers": [
    {
      "uri": "animal-lion.bin",
      "byteLength": 24880
    },
    {
      "byteLength": 40416,
      "extensions": {
        "EXT_meshopt_compression": {
          "fallback": true
        }
      }
    }
  ],
  "materials": [
    {
      "name": "colormap",
      "doubleSided": true,
      "pbrMetallicRoughness": {
        "metallicFactor": 0,
        "baseColorTexture": {
          "index": 0,
          "extensions": {
            "KHR_texture_transform": {
              "texCoord": 0
            }
          }
        }
      }
    }
  ],
  "meshes": [
    {
      "name": "leg-front-right",
      "primitives": [
        {
          "attributes": {
            "POSITION": 44,
            "NORMAL": 45,
            "TEXCOORD_0": 46
          },
          "mode": 4,
          "material": 0,
          "indices": 38
        }
      ]
    },
    {
      "name": "body",
      "primitives": [
        {
          "attributes": {
            "POSITION": 47,
            "NORMAL": 48,
            "TEXCOORD_0": 49
          },
          "mode": 4,
          "material": 0,
          "indices": 39
        }
      ]
    },
    {
      "name": "tail",
      "primitives": [
        {
          "attributes": {
            "POSITION": 50,
            "NORMAL": 51,
            "TEXCOORD_0": 52
          },
          "mode": 4,
          "material": 0,
          "indices": 40
        }
      ]
    },
    {
      "name": "leg-back-left",
      "primitives": [
        {
          "attributes": {
            "POSITION": 53,
            "NORMAL": 54,
            "TEXCOORD_0": 55
          },
          "mode": 4,
          "material": 0,
          "indices": 41
        }
      ]
    },
    {
      "name": "leg-back-right",
      "primitives": [
        {
          "attributes": {
            "POSITION": 56,
            "NORMAL": 57,
            "TEXCOORD_0": 58
          },
          "mode": 4,
          "material": 0,
          "indices": 42
        }
      ]
    },
    {
      "name": "leg-front-left",
      "primitives": [
        {
          "attributes": {
            "POSITION": 59,
            "NORMAL": 60,
            "TEXCOORD_0": 61
          },
          "mode": 4,
          "material": 0,
          "indices": 43
        }
      ]
    }
  ],
  "nodes": [
    {
      "name": "animal-lion",
      "children": [
        1
      ]
    },
    {
      "name": "root",
      "children": [
        2,
        3,
        5,
        6,
        7
      ]
    },
    {
      "name": "leg-front-right",
      "translation": [
        -0.25,
        0.3,
        0.25
      ],
      "children": [
        8
      ]
    },
    {
      "name": "body",
      "translation": [
        1.573182e-8,
        0.181249976,
        -3.80835026e-8
      ],
      "children": [
        4,
        9
      ]
    },
    {
      "name": "tail",
      "translation": [
        0,
        0.6375,
        -0.548393369
      ],
      "children": [
        10
      ]
    },
    {
      "name": "leg-back-left",
      "translation": [
        0.25,
        0.3,
        -0.25
      ],
      "children": [
        11
      ]
    },
    {
      "name": "leg-back-right",
      "translation": [
        -0.25,
        0.3,
        -0.25
      ],
      "children": [
        12
      ]
    },
    {
      "name": "leg-front-left",
      "translation": [
        0.25,
        0.3,
        0.25
      ],
      "children": [
        13
      ]
    },
    {
      "translation": [
        0,
        -0.14687500894069672,
        0
      ],
      "scale": [
        0.18750004470348358,
        0.18750004470348358,
        0.18750004470348358
      ],
      "mesh": 0
    },
    {
      "translation": [
        0,
        0.7250000350177288,
        0.08535155653953552
      ],
      "scale": [
        0.8250000476837158,
        0.8250000476837158,
        0.8250000476837158
      ],
      "mesh": 1
    },
    {
      "translation": [
        0,
        0.3858572319149971,
        -0.2776075005531311
      ],
      "scale": [
        0.541200153529644,
        0.541200153529644,
        0.541200153529644
      ],
      "mesh": 2
    },
    {
      "translation": [
        0,
        -0.14687500894069672,
        0
      ],
      "scale": [
        0.18750004470348358,
        0.18750004470348358,
        0.18750004470348358
      ],
      "mesh": 3
    },
    {
      "translation": [
        0,
        -0.14687500894069672,
        0
      ],
      "scale": [
        0.18750004470348358,
        0.18750004470348358,
        0.18750004470348358
      ],
      "mesh": 4
    },
    {
      "translation": [
        0,
        -0.14687500894069672,
        0
      ],
      "scale": [
        0.18750004470348358,
        0.18750004470348358,
        0.18750004470348358
      ],
      "mesh": 5
    }
  ],
  "animations": [
    {
      "name": "static",
      "samplers": [
        {
          "input": 0,
          "output": 1,
          "interpolation": "LINEAR"
        },
        {
          "input": 0,
          "output": 2,
          "interpolation": "LINEAR"
        },
        {
          "input": 0,
          "output": 3,
          "interpolation": "LINEAR"
        },
        {
          "input": 0,
          "output": 4,
          "interpolation": "LINEAR"
        },
        {
          "input": 0,
          "output": 2,
          "interpolation": "LINEAR"
        },
        {
          "input": 0,
          "output": 3,
          "interpolation": "LINEAR"
        },
        {
          "input": 0,
          "output": 5,
          "interpolation": "LINEAR"
        },
        {
          "input": 0,
          "output": 2,
          "interpolation": "LINEAR"
        },
        {
          "input": 0,
          "output": 3,
          "interpolation": "LINEAR"
        },
        {
          "input": 0,
          "output": 6,
          "interpolation": "LINEAR"
        },
        {
          "input": 0,
          "output": 2,
          "interpolation": "LINEAR"
        },
        {
          "input": 0,
          "output": 3,
          "interpolation": "LINEAR"
        },
        {
          "input": 0,
          "output": 7,
          "interpolation": "LINEAR"
        },
        {
          "input": 0,
          "output": 2,
          "interpolation": "LINEAR"
        },
        {
          "input": 0,
          "output": 3,
          "interpolation": "LINEAR"
        },
        {
          "input": 0,
          "output": 8,
          "interpolation": "LINEAR"
        },
        {
          "input": 0,
          "output": 2,
          "interpolation": "LINEAR"
        },
        {
          "input": 0,
          "output": 3,
          "interpolation": "LINEAR"
        },
        {
          "input": 0,
          "output": 9,
          "interpolation": "LINEAR"
        },
        {
          "input": 0,
          "output": 2,
          "interpolation": "LINEAR"
        },
        {
          "input": 0,
          "output": 3,
          "interpolation": "LINEAR"
        }
      ],
      "channels": [
        {
          "sampler": 0,
          "target": {
            "node": 1,
            "path": "translation"
          }
        },
        {
          "sampler": 1,
          "target": {
            "node": 1,
            "path": "rotation"
          }
        },
        {
          "sampler": 2,
          "target": {
            "node": 1,
            "path": "scale"
          }
        },
        {
          "sampler": 3,
          "target": {
            "node": 2,
            "path": "translation"
          }
        },
        {
          "sampler": 4,
          "target": {
            "node": 2,
            "path": "rotation"
          }
        },
        {
          "sampler": 5,
          "target": {
            "node": 2,
            "path": "scale"
          }
        },
        {
          "sampler": 6,
          "target": {
            "node": 3,
            "path": "translation"
          }
        },
        {
          "sampler": 7,
          "target": {
            "node": 3,
            "path": "rotation"
          }
        },
        {
          "sampler": 8,
          "target": {
            "node": 3,
            "path": "scale"
          }
        },
        {
          "sampler": 9,
          "target": {
            "node": 4,
            "path": "translation"
          }
        },
        {
          "sampler": 10,
          "target": {
            "node": 4,
            "path": "rotation"
          }
        },
        {
          "sampler": 11,
          "target": {
            "node": 4,
            "path": "scale"
          }
        },
        {
          "sampler": 12,
          "target": {
            "node": 5,
            "path": "translation"
          }
        },
        {
          "sampler": 13,
          "target": {
            "node": 5,
            "path": "rotation"
          }
        },
        {
          "sampler": 14,
          "target": {
            "node": 5,
            "path": "scale"
          }
        },
        {
          "sampler": 15,
          "target": {
            "node": 6,
            "path": "translation"
          }
        },
        {
          "sampler": 16,
          "target": {
            "node": 6,
            "path": "rotation"
          }
        },
        {
          "sampler": 17,
          "target": {
            "node": 6,
            "path": "scale"
          }
        },
        {
          "sampler": 18,
          "target": {
            "node": 7,
            "path": "translation"
          }
        },
        {
          "sampler": 19,
          "target": {
            "node": 7,
            "path": "rotation"
          }
        },
        {
          "sampler": 20,
          "target": {
            "node": 7,
            "path": "scale"
          }
        }
      ]
    },
    {
      "name": "idle",
      "samplers": [
        {
          "input": 10,
          "output": 1,
          "interpolation": "LINEAR"
        },
        {
          "input": 10,
          "output": 2,
          "interpolation": "LINEAR"
        },
        {
          "input": 10,
          "output": 3,
          "interpolation": "LINEAR"
        },
        {
          "input": 10,
          "output": 4,
          "interpolation": "LINEAR"
        },
        {
          "input": 10,
          "output": 2,
          "interpolation": "LINEAR"
        },
        {
          "input": 10,
          "output": 3,
          "interpolation": "LINEAR"
        },
        {
          "input": 10,
          "output": 5,
          "interpolation": "LINEAR"
        },
        {
          "input": 11,
          "output": 12,
          "interpolation": "LINEAR"
        },
        {
          "input": 10,
          "output": 3,
          "interpolation": "LINEAR"
        },
        {
          "input": 10,
          "output": 6,
          "interpolation": "LINEAR"
        },
        {
          "input": 11,
          "output": 13,
          "interpolation": "LINEAR"
        },
        {
          "input": 10,
          "output": 3,
          "interpolation": "LINEAR"
        },
        {
          "input": 10,
          "output": 7,
          "interpolation": "LINEAR"
        },
        {
          "input": 10,
          "output": 2,
          "interpolation": "LINEAR"
        },
        {
          "input": 10,
          "output": 3,
          "interpolation": "LINEAR"
        },
        {
          "input": 10,
          "output": 8,
          "interpolation": "LINEAR"
        },
        {
          "input": 10,
          "output": 2,
          "interpolation": "LINEAR"
        },
        {
          "input": 10,
          "output": 3,
          "interpolation": "LINEAR"
        },
        {
          "input": 10,
          "output": 9,
          "interpolation": "LINEAR"
        },
        {
          "input": 10,
          "output": 2,
          "interpolation": "LINEAR"
        },
        {
          "input": 10,
          "output": 3,
          "interpolation": "LINEAR"
        }
      ],
      "channels": [
        {
          "sampler": 0,
          "target": {
            "node": 1,
            "path": "translation"
          }
        },
        {
          "sampler": 1,
          "target": {
            "node": 1,
            "path": "rotation"
          }
        },
        {
          "sampler": 2,
          "target": {
            "node": 1,
            "path": "scale"
          }
        },
        {
          "sampler": 3,
          "target": {
            "node": 2,
            "path": "translation"
          }
        },
        {
          "sampler": 4,
          "target": {
            "node": 2,
            "path": "rotation"
          }
        },
        {
          "sampler": 5,
          "target": {
            "node": 2,
            "path": "scale"
          }
        },
        {
          "sampler": 6,
          "target": {
            "node": 3,
            "path": "translation"
          }
        },
        {
          "sampler": 7,
          "target": {
            "node": 3,
            "path": "rotation"
          }
        },
        {
          "sampler": 8,
          "target": {
            "node": 3,
            "path": "scale"
          }
        },
        {
          "sampler": 9,
          "target": {
            "node": 4,
            "path": "translation"
          }
        },
        {
          "sampler": 10,
          "target": {
            "node": 4,
            "path": "rotation"
          }
        },
        {
          "sampler": 11,
          "target": {
            "node": 4,
            "path": "scale"
          }
        },
        {
          "sampler": 12,
          "target": {
            "node": 5,
            "path": "translation"
          }
        },
        {
          "sampler": 13,
          "target": {
            "node": 5,
            "path": "rotation"
          }
        },
        {
          "sampler": 14,
          "target": {
            "node": 5,
            "path": "scale"
          }
        },
        {
          "sampler": 15,
          "target": {
            "node": 6,
            "path": "translation"
          }
        },
        {
          "sampler": 16,
          "target": {
            "node": 6,
            "path": "rotation"
          }
        },
        {
          "sampler": 17,
          "target": {
            "node": 6,
            "path": "scale"
          }
        },
        {
          "sampler": 18,
          "target": {
            "node": 7,
            "path": "translation"
          }
        },
        {
          "sampler": 19,
          "target": {
            "node": 7,
            "path": "rotation"
          }
        },
        {
          "sampler": 20,
          "target": {
            "node": 7,
            "path": "scale"
          }
        }
      ]
    },
    {
      "name": "walk",
      "samplers": [
        {
          "input": 14,
          "output": 15,
          "interpolation": "LINEAR"
        },
        {
          "input": 16,
          "output": 2,
          "interpolation": "LINEAR"
        },
        {
          "input": 16,
          "output": 3,
          "interpolation": "LINEAR"
        },
        {
          "input": 16,
          "output": 4,
          "interpolation": "LINEAR"
        },
        {
          "input": 14,
          "output": 17,
          "interpolation": "LINEAR"
        },
        {
          "input": 16,
          "output": 3,
          "interpolation": "LINEAR"
        },
        {
          "input": 16,
          "output": 5,
          "interpolation": "LINEAR"
        },
        {
          "input": 14,
          "output": 18,
          "interpolation": "LINEAR"
        },
        {
          "input": 16,
          "output": 3,
          "interpolation": "LINEAR"
        },
        {
          "input": 16,
          "output": 6,
          "interpolation": "LINEAR"
        },
        {
          "input": 14,
          "output": 19,
          "interpolation": "LINEAR"
        },
        {
          "input": 16,
          "output": 3,
          "interpolation": "LINEAR"
        },
        {
          "input": 16,
          "output": 7,
          "interpolation": "LINEAR"
        },
        {
          "input": 14,
          "output": 17,
          "interpolation": "LINEAR"
        },
        {
          "input": 16,
          "output": 3,
          "interpolation": "LINEAR"
        },
        {
          "input": 16,
          "output": 8,
          "interpolation": "LINEAR"
        },
        {
          "input": 14,
          "output": 20,
          "interpolation": "LINEAR"
        },
        {
          "input": 16,
          "output": 3,
          "interpolation": "LINEAR"
        },
        {
          "input": 16,
          "output": 9,
          "interpolation": "LINEAR"
        },
        {
          "input": 14,
          "output": 20,
          "interpolation": "LINEAR"
        },
        {
          "input": 16,
          "output": 3,
          "interpolation": "LINEAR"
        }
      ],
      "channels": [
        {
          "sampler": 0,
          "target": {
            "node": 1,
            "path": "translation"
          }
        },
        {
          "sampler": 1,
          "target": {
            "node": 1,
            "path": "rotation"
          }
        },
        {
          "sampler": 2,
          "target": {
            "node": 1,
            "path": "scale"
          }
        },
        {
          "sampler": 3,
          "target": {
            "node": 2,
            "path": "translation"
          }
        },
        {
          "sampler": 4,
          "target": {
            "node": 2,
            "path": "rotation"
          }
        },
        {
          "sampler": 5,
          "target": {
            "node": 2,
            "path": "scale"
          }
        },
        {
          "sampler": 6,
          "target": {
            "node": 3,
            "path": "translation"
          }
        },
        {
          "sampler": 7,
          "target": {
            "node": 3,
            "path": "rotation"
          }
        },
        {
          "sampler": 8,
          "target": {
            "node": 3,
            "path": "scale"
          }
        },
        {
          "sampler": 9,
          "target": {
            "node": 4,
            "path": "translation"
          }
        },
        {
          "sampler": 10,
          "target": {
            "node": 4,
            "path": "rotation"
          }
        },
        {
          "sampler": 11,
          "target": {
            "node": 4,
            "path": "scale"
          }
        },
        {
          "sampler": 12,
          "target": {
            "node": 5,
            "path": "translation"
          }
        },
        {
          "sampler": 13,
          "target": {
            "node": 5,
            "path": "rotation"
          }
        },
        {
          "sampler": 14,
          "target": {
            "node": 5,
            "path": "scale"
          }
        },
        {
          "sampler": 15,
          "target": {
            "node": 6,
            "path": "translation"
          }
        },
        {
          "sampler": 16,
          "target": {
            "node": 6,
            "path": "rotation"
          }
        },
        {
          "sampler": 17,
          "target": {
            "node": 6,
            "path": "scale"
          }
        },
        {
          "sampler": 18,
          "target": {
            "node": 7,
            "path": "translation"
          }
        },
        {
          "sampler": 19,
          "target": {
            "node": 7,
            "path": "rotation"
          }
        },
        {
          "sampler": 20,
          "target": {
            "node": 7,
            "path": "scale"
          }
        }
      ]
    },
    {
      "name": "run",
      "samplers": [
        {
          "input": 21,
          "output": 22,
          "interpolation": "LINEAR"
        },
        {
          "input": 23,
          "output": 2,
          "interpolation": "LINEAR"
        },
        {
          "input": 23,
          "output": 3,
          "interpolation": "LINEAR"
        },
        {
          "input": 23,
          "output": 4,
          "interpolation": "LINEAR"
        },
        {
          "input": 21,
          "output": 24,
          "interpolation": "LINEAR"
        },
        {
          "input": 23,
          "output": 3,
          "interpolation": "LINEAR"
        },
        {
          "input": 23,
          "output": 5,
          "interpolation": "LINEAR"
        },
        {
          "input": 21,
          "output": 25,
          "interpolation": "LINEAR"
        },
        {
          "input": 23,
          "output": 3,
          "interpolation": "LINEAR"
        },
        {
          "input": 23,
          "output": 6,
          "interpolation": "LINEAR"
        },
        {
          "input": 21,
          "output": 26,
          "interpolation": "LINEAR"
        },
        {
          "input": 23,
          "output": 3,
          "interpolation": "LINEAR"
        },
        {
          "input": 23,
          "output": 7,
          "interpolation": "LINEAR"
        },
        {
          "input": 21,
          "output": 27,
          "interpolation": "LINEAR"
        },
        {
          "input": 23,
          "output": 3,
          "interpolation": "LINEAR"
        },
        {
          "input": 23,
          "output": 8,
          "interpolation": "LINEAR"
        },
        {
          "input": 21,
          "output": 27,
          "interpolation": "LINEAR"
        },
        {
          "input": 23,
          "output": 3,
          "interpolation": "LINEAR"
        },
        {
          "input": 23,
          "output": 9,
          "interpolation": "LINEAR"
        },
        {
          "input": 21,
          "output": 24,
          "interpolation": "LINEAR"
        },
        {
          "input": 23,
          "output": 3,
          "interpolation": "LINEAR"
        }
      ],
      "channels": [
        {
          "sampler": 0,
          "target": {
            "node": 1,
            "path": "translation"
          }
        },
        {
          "sampler": 1,
          "target": {
            "node": 1,
            "path": "rotation"
          }
        },
        {
          "sampler": 2,
          "target": {
            "node": 1,
            "path": "scale"
          }
        },
        {
          "sampler": 3,
          "target": {
            "node": 2,
            "path": "translation"
          }
        },
        {
          "sampler": 4,
          "target": {
            "node": 2,
            "path": "rotation"
          }
        },
        {
          "sampler": 5,
          "target": {
            "node": 2,
            "path": "scale"
          }
        },
        {
          "sampler": 6,
          "target": {
            "node": 3,
            "path": "translation"
          }
        },
        {
          "sampler": 7,
          "target": {
            "node": 3,
            "path": "rotation"
          }
        },
        {
          "sampler": 8,
          "target": {
            "node": 3,
            "path": "scale"
          }
        },
        {
          "sampler": 9,
          "target": {
            "node": 4,
            "path": "translation"
          }
        },
        {
          "sampler": 10,
          "target": {
            "node": 4,
            "path": "rotation"
          }
        },
        {
          "sampler": 11,
          "target": {
            "node": 4,
            "path": "scale"
          }
        },
        {
          "sampler": 12,
          "target": {
            "node": 5,
            "path": "translation"
          }
        },
        {
          "sampler": 13,
          "target": {
            "node": 5,
            "path": "rotation"
          }
        },
        {
          "sampler": 14,
          "target": {
            "node": 5,
            "path": "scale"
          }
        },
        {
          "sampler": 15,
          "target": {
            "node": 6,
            "path": "translation"
          }
        },
        {
          "sampler": 16,
          "target": {
            "node": 6,
            "path": "rotation"
          }
        },
        {
          "sampler": 17,
          "target": {
            "node": 6,
            "path": "scale"
          }
        },
        {
          "sampler": 18,
          "target": {
            "node": 7,
            "path": "translation"
          }
        },
        {
          "sampler": 19,
          "target": {
            "node": 7,
            "path": "rotation"
          }
        },
        {
          "sampler": 20,
          "target": {
            "node": 7,
            "path": "scale"
          }
        }
      ]
    },
    {
      "name": "eat",
      "samplers": [
        {
          "input": 16,
          "output": 1,
          "interpolation": "LINEAR"
        },
        {
          "input": 16,
          "output": 2,
          "interpolation": "LINEAR"
        },
        {
          "input": 16,
          "output": 3,
          "interpolation": "LINEAR"
        },
        {
          "input": 16,
          "output": 4,
          "interpolation": "LINEAR"
        },
        {
          "input": 16,
          "output": 2,
          "interpolation": "LINEAR"
        },
        {
          "input": 16,
          "output": 3,
          "interpolation": "LINEAR"
        },
        {
          "input": 16,
          "output": 5,
          "interpolation": "LINEAR"
        },
        {
          "input": 14,
          "output": 28,
          "interpolation": "LINEAR"
        },
        {
          "input": 16,
          "output": 3,
          "interpolation": "LINEAR"
        },
        {
          "input": 16,
          "output": 6,
          "interpolation": "LINEAR"
        },
        {
          "input": 14,
          "output": 29,
          "interpolation": "LINEAR"
        },
        {
          "input": 16,
          "output": 3,
          "interpolation": "LINEAR"
        },
        {
          "input": 16,
          "output": 7,
          "interpolation": "LINEAR"
        },
        {
          "input": 16,
          "output": 2,
          "interpolation": "LINEAR"
        },
        {
          "input": 16,
          "output": 3,
          "interpolation": "LINEAR"
        },
        {
          "input": 16,
          "output": 8,
          "interpolation": "LINEAR"
        },
        {
          "input": 16,
          "output": 2,
          "interpolation": "LINEAR"
        },
        {
          "input": 16,
          "output": 3,
          "interpolation": "LINEAR"
        },
        {
          "input": 16,
          "output": 9,
          "interpolation": "LINEAR"
        },
        {
          "input": 16,
          "output": 2,
          "interpolation": "LINEAR"
        },
        {
          "input": 16,
          "output": 3,
          "interpolation": "LINEAR"
        }
      ],
      "channels": [
        {
          "sampler": 0,
          "target": {
            "node": 1,
            "path": "translation"
          }
        },
        {
          "sampler": 1,
          "target": {
            "node": 1,
            "path": "rotation"
          }
        },
        {
          "sampler": 2,
          "target": {
            "node": 1,
            "path": "scale"
          }
        },
        {
          "sampler": 3,
          "target": {
            "node": 2,
            "path": "translation"
          }
        },
        {
          "sampler": 4,
          "target": {
            "node": 2,
            "path": "rotation"
          }
        },
        {
          "sampler": 5,
          "target": {
            "node": 2,
            "path": "scale"
          }
        },
        {
          "sampler": 6,
          "target": {
            "node": 3,
            "path": "translation"
          }
        },
        {
          "sampler": 7,
          "target": {
            "node": 3,
            "path": "rotation"
          }
        },
        {
          "sampler": 8,
          "target": {
            "node": 3,
            "path": "scale"
          }
        },
        {
          "sampler": 9,
          "target": {
            "node": 4,
            "path": "translation"
          }
        },
        {
          "sampler": 10,
          "target": {
            "node": 4,
            "path": "rotation"
          }
        },
        {
          "sampler": 11,
          "target": {
            "node": 4,
            "path": "scale"
          }
        },
        {
          "sampler": 12,
          "target": {
            "node": 5,
            "path": "translation"
          }
        },
        {
          "sampler": 13,
          "target": {
            "node": 5,
            "path": "rotation"
          }
        },
        {
          "sampler": 14,
          "target": {
            "node": 5,
            "path": "scale"
          }
        },
        {
          "sampler": 15,
          "target": {
            "node": 6,
            "path": "translation"
          }
        },
        {
          "sampler": 16,
          "target": {
            "node": 6,
            "path": "rotation"
          }
        },
        {
          "sampler": 17,
          "target": {
            "node": 6,
            "path": "scale"
          }
        },
        {
          "sampler": 18,
          "target": {
            "node": 7,
            "path": "translation"
          }
        },
        {
          "sampler": 19,
          "target": {
            "node": 7,
            "path": "rotation"
          }
        },
        {
          "sampler": 20,
          "target": {
            "node": 7,
            "path": "scale"
          }
        }
      ]
    },
    {
      "name": "dance",
      "samplers": [
        {
          "input": 16,
          "output": 1,
          "interpolation": "LINEAR"
        },
        {
          "input": 16,
          "output": 2,
          "interpolation": "LINEAR"
        },
        {
          "input": 16,
          "output": 3,
          "interpolation": "LINEAR"
        },
        {
          "input": 16,
          "output": 4,
          "interpolation": "LINEAR"
        },
        {
          "input": 16,
          "output": 2,
          "interpolation": "LINEAR"
        },
        {
          "input": 16,
          "output": 3,
          "interpolation": "LINEAR"
        },
        {
          "input": 14,
          "output": 30,
          "interpolation": "LINEAR"
        },
        {
          "input": 14,
          "output": 31,
          "interpolation": "LINEAR"
        },
        {
          "input": 16,
          "output": 3,
          "interpolation": "LINEAR"
        },
        {
          "input": 16,
          "output": 6,
          "interpolation": "LINEAR"
        },
        {
          "input": 14,
          "output": 32,
          "interpolation": "LINEAR"
        },
        {
          "input": 16,
          "output": 3,
          "interpolation": "LINEAR"
        },
        {
          "input": 16,
          "output": 7,
          "interpolation": "LINEAR"
        },
        {
          "input": 16,
          "output": 2,
          "interpolation": "LINEAR"
        },
        {
          "input": 16,
          "output": 3,
          "interpolation": "LINEAR"
        },
        {
          "input": 16,
          "output": 8,
          "interpolation": "LINEAR"
        },
        {
          "input": 16,
          "output": 2,
          "interpolation": "LINEAR"
        },
        {
          "input": 16,
          "output": 3,
          "interpolation": "LINEAR"
        },
        {
          "input": 16,
          "output": 9,
          "interpolation": "LINEAR"
        },
        {
          "input": 16,
          "output": 2,
          "interpolation": "LINEAR"
        },
        {
          "input": 16,
          "output": 3,
          "interpolation": "LINEAR"
        }
      ],
      "channels": [
        {
          "sampler": 0,
          "target": {
            "node": 1,
            "path": "translation"
          }
        },
        {
          "sampler": 1,
          "target": {
            "node": 1,
            "path": "rotation"
          }
        },
        {
          "sampler": 2,
          "target": {
            "node": 1,
            "path": "scale"
          }
        },
        {
          "sampler": 3,
          "target": {
            "node": 2,
            "path": "translation"
          }
        },
        {
          "sampler": 4,
          "target": {
            "node": 2,
            "path": "rotation"
          }
        },
        {
          "sampler": 5,
          "target": {
            "node": 2,
            "path": "scale"
          }
        },
        {
          "sampler": 6,
          "target": {
            "node": 3,
            "path": "translation"
          }
        },
        {
          "sampler": 7,
          "target": {
            "node": 3,
            "path": "rotation"
          }
        },
        {
          "sampler": 8,
          "target": {
            "node": 3,
            "path": "scale"
          }
        },
        {
          "sampler": 9,
          "target": {
            "node": 4,
            "path": "translation"
          }
        },
        {
          "sampler": 10,
          "target": {
            "node": 4,
            "path": "rotation"
          }
        },
        {
          "sampler": 11,
          "target": {
            "node": 4,
            "path": "scale"
          }
        },
        {
          "sampler": 12,
          "target": {
            "node": 5,
            "path": "translation"
          }
        },
        {
          "sampler": 13,
          "target": {
            "node": 5,
            "path": "rotation"
          }
        },
        {
          "sampler": 14,
          "target": {
            "node": 5,
            "path": "scale"
          }
        },
        {
          "sampler": 15,
          "target": {
            "node": 6,
            "path": "translation"
          }
        },
        {
          "sampler": 16,
          "target": {
            "node": 6,
            "path": "rotation"
          }
        },
        {
          "sampler": 17,
          "target": {
            "node": 6,
            "path": "scale"
          }
        },
        {
          "sampler": 18,
          "target": {
            "node": 7,
            "path": "translation"
          }
        },
        {
          "sampler": 19,
          "target": {
            "node": 7,
            "path": "rotation"
          }
        },
        {
          "sampler": 20,
          "target": {
            "node": 7,
            "path": "scale"
          }
        }
      ]
    },
    {
      "name": "gesture-positive",
      "samplers": [
        {
          "input": 23,
          "output": 1,
          "interpolation": "LINEAR"
        },
        {
          "input": 23,
          "output": 2,
          "interpolation": "LINEAR"
        },
        {
          "input": 23,
          "output": 3,
          "interpolation": "LINEAR"
        },
        {
          "input": 23,
          "output": 4,
          "interpolation": "LINEAR"
        },
        {
          "input": 23,
          "output": 2,
          "interpolation": "LINEAR"
        },
        {
          "input": 23,
          "output": 3,
          "interpolation": "LINEAR"
        },
        {
          "input": 23,
          "output": 5,
          "interpolation": "LINEAR"
        },
        {
          "input": 21,
          "output": 33,
          "interpolation": "LINEAR"
        },
        {
          "input": 23,
          "output": 3,
          "interpolation": "LINEAR"
        },
        {
          "input": 23,
          "output": 6,
          "interpolation": "LINEAR"
        },
        {
          "input": 34,
          "output": 35,
          "interpolation": "LINEAR"
        },
        {
          "input": 23,
          "output": 3,
          "interpolation": "LINEAR"
        },
        {
          "input": 23,
          "output": 7,
          "interpolation": "LINEAR"
        },
        {
          "input": 23,
          "output": 2,
          "interpolation": "LINEAR"
        },
        {
          "input": 23,
          "output": 3,
          "interpolation": "LINEAR"
        },
        {
          "input": 23,
          "output": 8,
          "interpolation": "LINEAR"
        },
        {
          "input": 23,
          "output": 2,
          "interpolation": "LINEAR"
        },
        {
          "input": 23,
          "output": 3,
          "interpolation": "LINEAR"
        },
        {
          "input": 23,
          "output": 9,
          "interpolation": "LINEAR"
        },
        {
          "input": 23,
          "output": 2,
          "interpolation": "LINEAR"
        },
        {
          "input": 23,
          "output": 3,
          "interpolation": "LINEAR"
        }
      ],
      "channels": [
        {
          "sampler": 0,
          "target": {
            "node": 1,
            "path": "translation"
          }
        },
        {
          "sampler": 1,
          "target": {
            "node": 1,
            "path": "rotation"
          }
        },
        {
          "sampler": 2,
          "target": {
            "node": 1,
            "path": "scale"
          }
        },
        {
          "sampler": 3,
          "target": {
            "node": 2,
            "path": "translation"
          }
        },
        {
          "sampler": 4,
          "target": {
            "node": 2,
            "path": "rotation"
          }
        },
        {
          "sampler": 5,
          "target": {
            "node": 2,
            "path": "scale"
          }
        },
        {
          "sampler": 6,
          "target": {
            "node": 3,
            "path": "translation"
          }
        },
        {
          "sampler": 7,
          "target": {
            "node": 3,
            "path": "rotation"
          }
        },
        {
          "sampler": 8,
          "target": {
            "node": 3,
            "path": "scale"
          }
        },
        {
          "sampler": 9,
          "target": {
            "node": 4,
            "path": "translation"
          }
        },
        {
          "sampler": 10,
          "target": {
            "node": 4,
            "path": "rotation"
          }
        },
        {
          "sampler": 11,
          "target": {
            "node": 4,
            "path": "scale"
          }
        },
        {
          "sampler": 12,
          "target": {
            "node": 5,
            "path": "translation"
          }
        },
        {
          "sampler": 13,
          "target": {
            "node": 5,
            "path": "rotation"
          }
        },
        {
          "sampler": 14,
          "target": {
            "node": 5,
            "path": "scale"
          }
        },
        {
          "sampler": 15,
          "target": {
            "node": 6,
            "path": "translation"
          }
        },
        {
          "sampler": 16,
          "target": {
            "node": 6,
            "path": "rotation"
          }
        },
        {
          "sampler": 17,
          "target": {
            "node": 6,
            "path": "scale"
          }
        },
        {
          "sampler": 18,
          "target": {
            "node": 7,
            "path": "translation"
          }
        },
        {
          "sampler": 19,
          "target": {
            "node": 7,
            "path": "rotation"
          }
        },
        {
          "sampler": 20,
          "target": {
            "node": 7,
            "path": "scale"
          }
        }
      ]
    },
    {
      "name": "gesture-negative",
      "samplers": [
        {
          "input": 23,
          "output": 1,
          "interpolation": "LINEAR"
        },
        {
          "input": 23,
          "output": 2,
          "interpolation": "LINEAR"
        },
        {
          "input": 23,
          "output": 3,
          "interpolation": "LINEAR"
        },
        {
          "input": 23,
          "output": 4,
          "interpolation": "LINEAR"
        },
        {
          "input": 23,
          "output": 2,
          "interpolation": "LINEAR"
        },
        {
          "input": 23,
          "output": 3,
          "interpolation": "LINEAR"
        },
        {
          "input": 23,
          "output": 5,
          "interpolation": "LINEAR"
        },
        {
          "input": 21,
          "output": 36,
          "interpolation": "LINEAR"
        },
        {
          "input": 23,
          "output": 3,
          "interpolation": "LINEAR"
        },
        {
          "input": 23,
          "output": 6,
          "interpolation": "LINEAR"
        },
        {
          "input": 21,
          "output": 37,
          "interpolation": "LINEAR"
        },
        {
          "input": 23,
          "output": 3,
          "interpolation": "LINEAR"
        },
        {
          "input": 23,
          "output": 7,
          "interpolation": "LINEAR"
        },
        {
          "input": 23,
          "output": 2,
          "interpolation": "LINEAR"
        },
        {
          "input": 23,
          "output": 3,
          "interpolation": "LINEAR"
        },
        {
          "input": 23,
          "output": 8,
          "interpolation": "LINEAR"
        },
        {
          "input": 23,
          "output": 2,
          "interpolation": "LINEAR"
        },
        {
          "input": 23,
          "output": 3,
          "interpolation": "LINEAR"
        },
        {
          "input": 23,
          "output": 9,
          "interpolation": "LINEAR"
        },
        {
          "input": 23,
          "output": 2,
          "interpolation": "LINEAR"
        },
        {
          "input": 23,
          "output": 3,
          "interpolation": "LINEAR"
        }
      ],
      "channels": [
        {
          "sampler": 0,
          "target": {
            "node": 1,
            "path": "translation"
          }
        },
        {
          "sampler": 1,
          "target": {
            "node": 1,
            "path": "rotation"
          }
        },
        {
          "sampler": 2,
          "target": {
            "node": 1,
            "path": "scale"
          }
        },
        {
          "sampler": 3,
          "target": {
            "node": 2,
            "path": "translation"
          }
        },
        {
          "sampler": 4,
          "target": {
            "node": 2,
            "path": "rotation"
          }
        },
        {
          "sampler": 5,
          "target": {
            "node": 2,
            "path": "scale"
          }
        },
        {
          "sampler": 6,
          "target": {
            "node": 3,
            "path": "translation"
          }
        },
        {
          "sampler": 7,
          "target": {
            "node": 3,
            "path": "rotation"
          }
        },
        {
          "sampler": 8,
          "target": {
            "node": 3,
            "path": "scale"
          }
        },
        {
          "sampler": 9,
          "target": {
            "node": 4,
            "path": "translation"
          }
        },
        {
          "sampler": 10,
          "target": {
            "node": 4,
            "path": "rotation"
          }
        },
        {
          "sampler": 11,
          "target": {
            "node": 4,
            "path": "scale"
          }
        },
        {
          "sampler": 12,
          "target": {
            "node": 5,
            "path": "translation"
          }
        },
        {
          "sampler": 13,
          "target": {
            "node": 5,
            "path": "rotation"
          }
        },
        {
          "sampler": 14,
          "target": {
            "node": 5,
            "path": "scale"
          }
        },
        {
          "sampler": 15,
          "target": {
            "node": 6,
            "path": "translation"
          }
        },
        {
          "sampler": 16,
          "target": {
            "node": 6,
            "path": "rotation"
          }
        },
        {
          "sampler": 17,
          "target": {
            "node": 6,
            "path": "scale"
          }
        },
        {
          "sampler": 18,
          "target": {
            "node": 7,
            "path": "translation"
          }
        },
        {
          "sampler": 19,
          "target": {
            "node": 7,
            "path": "rotation"
          }
        },
        {
          "sampler": 20,
          "target": {
            "node": 7,
            "path": "scale"
          }
        }
      ]
    }
  ],
  "scenes": [
    {
      "name": "animal-lion",
      "nodes": [
        0
      ]
    }
  ],
  "scene": 0,
  "extensionsUsed": [
    "EXT_meshopt_compression",
    "KHR_mesh_quantization",
    "KHR_texture_transform"
  ],
  "extensionsRequired": [
    "EXT_meshopt_compression",
    "KHR_mesh_quantization"
  ]
}