{
  "asset": {
    "generator": "glTF-Transform v4.5.1",
    "version": "2.0"
  },
  "accessors": [
    {
      "type": "SCALAR",
      "componentType": 5126,
      "count": 2,
      "max": [
        0.10000000149011612
      ],
      "min": [
        0
      ],
      "normalized": false,
      "byteOffset": 0,
      "bufferView": 0
    },
    {
      "type": "VEC3",
      "componentType": 5126,
      "count": 2,
      "normalized": false,
      "byteOffset": 0,
      "bufferView": 1
    },
    {
      "type": "VEC4",
      "componentType": 5126,
      "count": 2,
      "normalized": false,
      "byteOffset": 0,
      "bufferView": 2
    },
    {
      "type": "VEC3",
      "componentType": 5126,
      "count": 2,
      "normalized": false,
      "byteOffset": 24,
      "bufferView": 1
    },
    {
      "type": "VEC3",
      "componentType": 5126,
      "count": 2,
      "normalized": false,
      "byteOffset": 48,
      "bufferView": 1
    },
    {
      "type": "VEC3",
      "componentType": 5126,
      "count": 2,
      "normalized": false,
      "byteOffset": 72,
      "bufferView": 1
    },
    {
      "type": "VEC3",
      "componentType": 5126,
      "count": 2,
      "normalized": false,
      "byteOffset": 96,
      "bufferView": 1
    },
    {
      "type": "VEC3",
      "componentType": 5126,
      "count": 2,
      "normalized": false,
      "byteOffset": 120,
      "bufferView": 1
    },
    {
      "type": "VEC3",
      "componentType": 5126,
      "count": 2,
      "normalized": false,
      "byteOffset": 144,
      "bufferView": 1
    },
    {
      "type": "SCALAR",
      "componentType": 5126,
      "count": 2,
      "max": [
        1
      ],
      "min": [
        0
      ],
      "normalized": false,
      "byteOffset": 8,
      "bufferView": 0
    },
    {
      "type": "SCALAR",
      "componentType": 5126,
      "count": 30,
      "max": [
        1
      ],
      "min": [
        0
      ],
      "normalized": false,
      "byteOffset": 16,
      "bufferView": 0
    },
    {
      "type": "VEC4",
      "componentType": 5126,
      "count": 30,
      "normalized": false,
      "byteOffset": 32,
      "bufferView": 2
    },
    {
      "type": "VEC4",
      "componentType": 5126,
      "count": 30,
      "normalized": false,
      "byteOffset": 512,
      "bufferView": 2
    },
    {
      "type": "VEC4",
      "componentType": 5126,
      "count": 30,
      "normalized": false,
      "byteOffset": 992,
      "bufferView": 2
    },
    {
      "type": "SCALAR",
      "componentType": 5126,
      "count": 15,
      "max": [
        0.5
      ],
      "min": [
        0
      ],
      "normalized": false,
      "byteOffset": 136,
      "bufferView": 0
    },
    {
      "type": "VEC3",
      "componentType": 5126,
      "count": 15,
      "normalized": false,
      "byteOffset": 168,
      "bufferView": 1
    },
    {
      "type": "SCALAR",
      "componentType": 5126,
      "count": 2,
      "max": [
        0.5
      ],
      "min": [
        0
      ],
      "normalized": false,
      "byteOffset": 196,
      "bufferView": 0
    },
    {
      "type": "VEC4",
      "componentType": 5126,
      "count": 15,
      "normalized": false,
      "byteOffset": 1472,
      "bufferView": 2
    },
    {
      "type": "VEC4",
      "componentType": 5126,
      "count": 15,
      "normalized": false,
      "byteOffset": 1712,
      "bufferView": 2
    },
    {
      "type": "VEC4",
      "componentType": 5126,
      "count": 15,
      "normalized": false,
      "byteOffset": 1952,
      "bufferView": 2
    },
    {
      "type": "VEC4",
      "componentType": 5126,
      "count": 15,
      "normalized": false,
      "byteOffset": 2192,
      "bufferView": 2
    },
    {
      "type": "VEC4",
      "componentType": 5126,
      "count": 15,
      "normalized": false,
      "byteOffset": 2432,
      "bufferView": 2
    },
    {
      "type": "SCALAR",
      "componentType": 5126,
      "count": 8,
      "max": [
        0.25
      ],
      "min": [
        0
      ],
      "normalized": false,
      "byteOffset": 204,
      "bufferView": 0
    },
    {
      "type": "VEC3",
      "componentType": 5126,
      "count": 8,
      "normalized": false,
      "byteOffset": 348,
      "bufferView": 1
    },
    {
      "type": "SCALAR",
      "componentType": 5126,
      "count": 2,
      "max": [
        0.25
      ],
      "min": [
        0
      ],
      "normalized": false,
      "byteOffset": 236,
      "bufferView": 0
    },
    {
      "type": "VEC4",
      "componentType": 5126,
      "count": 8,
      "normalized": false,
      "byteOffset": 2672,
      "bufferView": 2
    },
    {
      "type": "VEC4",
      "componentType": 5126,
      "count": 8,
      "normalized": false,
      "byteOffset": 2800,
      "bufferView": 2
    },
    {
      "type": "VEC4",
      "componentType": 5126,
      "count": 8,
      "normalized": false,
      "byteOffset": 2928,
      "bufferView": 2
    },
    {
      "type": "VEC4",
      "componentType": 5126,
      "count": 8,
      "normalized": false,
      "byteOffset": 3056,
      "bufferView": 2
    },
    {
      "type": "VEC4",
      "componentType": 5126,
      "count": 15,
      "normalized": false,
      "byteOffset": 3184,
      "bufferView": 2
    },
    {
      "type": "VEC4",
      "componentType": 5126,
      "count": 15,
      "normalized": false,
      "byteOffset": 3424,
      "bufferView": 2
    },
    {
      "type": "VEC4",
      "componentType": 5126,
      "count": 15,
      "normalized": false,
      "byteOffset": 3664,
      "bufferView": 2
    },
    {
      "type": "VEC3",
      "componentType": 5126,
      "count": 15,
      "normalized": false,
      "byteOffset": 444,
      "bufferView": 1
    },
    {
      "type": "VEC4",
      "componentType": 5126,
      "count": 15,
      "normalized": false,
      "byteOffset": 3904,
      "bufferView": 2
    },
    {
      "type": "VEC4",
      "componentType": 5126,
      "count": 8,
      "normalized": false,
      "byteOffset": 4144,
      "bufferView": 2
    },
    {
      "type": "VEC4",
      "componentType": 5126,
      "count": 8,
      "normalized": false,
      "byteOffset": 4272,
      "bufferView": 2
    },
    {
      "type": "VEC4",
      "componentType": 5126,
      "count": 8,
      "normalized": false,
      "byteOffset": 4400,
      "bufferView": 2
    },
    {
      "type": "VEC4",
      "componentType": 5126,
      "count": 8,
      "normalized": false,
      "byteOffset": 4528,
      "bufferView": 2
    },
    {
      "type": "SCALAR",
      "componentType": 5123,
      "count": 132,
      "normalized": false,
      "byteOffset": 0,
      "bufferView": 3
    },
    {
      "type": "SCALAR",
      "componentType": 5123,
      "count": 858,
      "normalized": false,
      "byteOffset": 264,
      "bufferView": 3
    },
    {
      "type": "SCALAR",
      "componentType": 5123,
      "count": 276,
      "normalized": false,
      "byteOffset": 1980,
      "bufferView": 3
    },
    {
      "type": "SCALAR",
      "componentType": 5123,
      "count": 132,
      "normalized": false,
      "byteOffset": 2532,
      "bufferView": 3
    },
    {
      "type": "VEC3",
      "componentType": 5122,
      "count": 74,
      "max": [
        32767,
        26759,
        32767
      ],
      "min": [
        -32767,
        -26759,
        -32767
      ],
      "normalized": true,
      "byteOffset": 0,
      "bufferView": 4
    },
    {
      "type": "VEC3",
      "componentType": 5122,
      "count": 74,
      "normalized": true,
      "byteOffset": 0,
      "bufferView": 5
    },
    {
      "type": "VEC2",
      "componentType": 5123,
      "count": 74,
      "normalized": true,
      "byteOffset": 0,
      "bufferView": 6
    },
    {
      "type": "VEC3",
      "componentType": 5122,
      "count": 453,
      "max": [
        28987,
        32767,
        31307
      ],
      "min": [
        -28987,
        -32767,
        -31307
      ],
      "normalized": true,
      "byteOffset": 0,
      "bufferView": 7
    },
    {
      "type": "VEC3",
      "componentType": 5122,
      "count": 453,
      "normalized": true,
      "byteOffset": 0,
      "bufferView": 8
    },
    {
      "type": "VEC2",
      "componentType": 5123,
      "count": 453,
      "normalized": true,
      "byteOffset": 0,
      "bufferView": 9
    },
    {
      "type": "VEC3",
      "componentType": 5122,
      "count": 161,
      "max": [
        32767,
        9457,
        28371
      ],
      "min": [
        -32767,
        -9457,
        -28371
      ],
      "normalized": true,
      "byteOffset": 0,
      "bufferView": 10
    },
    {
      "type": "VEC3",
      "componentType": 5122,
      "count": 161,
      "normalized": true,
      "byteOffset": 0,
      "bufferView": 11
    },
    {
      "type": "VEC2",
      "componentType": 5123,
      "count": 161,
      "normalized": true,
      "byteOffset": 0,
      "bufferView": 12
    },
    {
      "type": "VEC3",
      "componentType": 5122,
      "count": 161,
      "max": [
        32767,
        9457,
        28371
      ],
      "min": [
        -32767,
        -9457,
        -28371
      ],
      "normalized": true,
      "byteOffset": 0,
      "bufferView": 13
    },
    {
      "type": "VEC3",
      "componentType": 5122,
      "count": 161,
      "normalized": true,
      "byteOffset": 0,
      "bufferView": 14
    },
    {
      "type": "VEC3",
      "componentType": 5122,
      "count": 74,
      "max": [
        32767,
        26759,
        32767
      ],
      "min": [
        -32767,
        -26759,
        -32767
      ],
      "normalized": true,
      "byteOffset": 0,
      "bufferView": 15
    },
    {
      "type": "VEC3",
      "componentType": 5122,
      "count": 74,
      "normalized": true,
      "byteOffset": 0,
      "bufferView": 16
    },
    {
      "type": "VEC2",
      "componentType": 5123,
      "count": 74,
      "normalized": true,
      "byteOffset": 0,
      "bufferView": 17
    }
  ],
  "bufferViews": [
    {
      "buffer": 1,
      "byteOffset": 0,
      "byteLength": 244,
      "extensions": {
        "EXT_meshopt_compression": {
          "buffer": 0,
          "byteOffset": 0,
          "byteLength": 233,
          "mode": "ATTRIBUTES",
          "byteStride": 4,
          "count": 61
        }
      }
    },
    {
      "buffer": 1,
      "byteOffset": 244,
      "byteLength": 624,
      "extensions": {
        "EXT_meshopt_compression": {
          "buffer": 0,
          "byteOffset": 236,
          "byteLength": 333,
          "mode": "ATTRIBUTES",
          "byteStride": 12,
          "count": 52
        }
      }
    },
    {
      "buffer": 1,
      "byteOffset": 868,
      "byteLength": 4656,
      "extensions": {
        "EXT_meshopt_compression": {
          "buffer": 0,
          "byteOffset": 572,
          "byteLength": 2623,
          "mode": "ATTRIBUTES",
          "byteStride": 16,
          "count": 291
        }
      }
    },
    {
      "buffer": 1,
      "byteOffset": 5524,
      "byteLength": 2796,
      "target": 34963,
      "extensions": {
        "EXT_meshopt_compression": {
          "buffer": 0,
          "byteOffset": 3196,
          "byteLength": 516,
          "mode": "TRIANGLES",
          "byteStride": 2,
          "count": 1398
        }
      }
    },
    {
      "buffer": 1,
      "byteOffset": 8320,
      "byteLength": 592,
      "target": 34962,
      "byteStride": 8,
      "extensions": {
        "EXT_meshopt_compression": {
          "buffer": 0,
          "byteOffset": 3712,
          "byteLength": 490,
          "mode": "ATTRIBUTES",
          "byteStride": 8,
          "count": 74
        }
      }
    },
    {
      "buffer": 1,
      "byteOffset": 8912,
      "byteLength": 592,
      "target": 34962,
      "byteStride": 8,
      "extensions": {
        "EXT_meshopt_compression": {
          "buffer": 0,
          "byteOffset": 4204,
          "byteLength": 484,
          "mode": "ATTRIBUTES",
          "byteStride": 8,
          "count": 74
        }
      }
    },
    {
      "buffer": 1,
      "byteOffset": 9504,
      "byteLength": 296,
      "target": 34962,
      "byteStride": 4,
      "extensions": {
        "EXT_meshopt_compression": {
          "buffer": 0,
          "byteOffset": 4688,
          "byteLength": 179,
          "mode": "ATTRIBUTES",
          "byteStride": 4,
          "count": 74
        }
      }
    },
    {
      "buffer": 1,
      "byteOffset": 9800,
      "byteLength": 3624,
      "target": 34962,
      "byteStride": 8,
      "extensions": {
        "EXT_meshopt_compression": {
          "buffer": 0,
          "byteOffset": 4868,
          "byteLength": 2610,
          "mode": "ATTRIBUTES",
          "byteStride": 8,
          "count": 453
        }
      }
    },
    {
      "buffer": 1,
      "byteOffset": 13424,
      "byteLength": 3624,
      "target": 34962,
      "byteStride": 8,
      "extensions": {
        "EXT_meshopt_compression": {
          "buffer": 0,
          "byteOffset": 7480,
          "byteLength": 2364,
          "mode": "ATTRIBUTES",
          "byteStride": 8,
          "count": 453
        }
      }
    },
    {
      "buffer": 1,
      "byteOffset": 17048,
      "byteLength": 1812,
      "target": 34962,
      "byteStride": 4,
      "extensions": {
        "EXT_meshopt_compression": {
          "buffer": 0,
          "byteOffset": 9844,
          "byteLength": 820,
          "mode": "ATTRIBUTES",
          "byteStride": 4,
          "count": 453
        }
      }
    },
    {
      "buffer": 1,
      "byteOffset": 18860,
      "byteLength": 1288,
      "target": 34962,
      "byteStride": 8,
      "extensions": {
        "EXT_meshopt_compression": {
          "buffer": 0,
          "byteOffset": 10664,
          "byteLength": 994,
          "mode": "ATTRIBUTES",
          "byteStride": 8,
          "count": 161
        }
      }
    },
    {
      "buffer": 1,
      "byteOffset": 20148,
      "byteLength": 1288,
      "target": 34962,
      "byteStride": 8,
      "extensions": {
        "EXT_meshopt_compression": {
          "buffer": 0,
          "byteOffset": 11660,
          "byteLength": 1018,
          "mode": "ATTRIBUTES",
          "byteStride": 8,
          "count": 161
        }
      }
    },
    {
      "buffer": 1,
      "byteOffset": 21436,
      "byteLength": 644,
      "target": 34962,
      "byteStride": 4,
      "extensions": {
        "EXT_meshopt_compression": {
          "buffer": 0,
          "byteOffset": 12680,
          "byteLength": 329,
          "mode": "ATTRIBUTES",
          "byteStride": 4,
          "count": 161
        }
      }
    },
    {
      "buffer": 1,
      "byteOffset": 22080,
      "byteLength": 1288,
      "target": 34962,
      "byteStride": 8,
      "extensions": {
        "EXT_meshopt_compression": {
          "buffer": 0,
          "byteOffset": 13012,
          "byteLength": 994,
          "mode": "ATTRIBUTES",
          "byteStride": 8,
          "count": 161
        }
      }
    },
    {
      "buffer": 1,
      "byteOffset": 23368,
      "byteLength": 1288,
      "target": 34962,
      "byteStride": 8,
      "extensions": {
        "EXT_meshopt_compression": {
          "buffer": 0,
          "byteOffset": 14008,
          "byteLength": 1018,
          "mode": "ATTRIBUTES",
          "byteStride": 8,
          "count": 161
        }
      }
    },
    {
      "buffer": 1,
      "byteOffset": 24656,
      "byteLength": 592,
      "target": 34962,
      "byteStride": 8,
      "extensions": {
        "EXT_meshopt_compression": {
          "buffer": 0,
          "byteOffset": 15028,
          "byteLength": 472,
          "mode": "ATTRIBUTES",
          "byteStride": 8,
          "count": 74
        }
      }
    },
    {
      "buffer": 1,
      "byteOffset": 25248,
      "byteLength": 592,
      "target": 34962,
      "byteStride": 8,
      "extensions": {
        "EXT_meshopt_compression": {
          "buffer": 0,
          "byteOffset": 15500,
          "byteLength": 474,
          "mode": "ATTRIBUTES",
          "byteStride": 8,
          "count": 74
        }
      }
    },
    {
      "buffer": 1,
      "byteOffset": 25840,
      "byteLength": 296,
      "target": 34962,
      "byteStride": 4,
      "extensions": {
        "EXT_meshopt_compression": {
          "buffer": 0,
          "byteOffset": 15976,
          "byteLength": 167,
          "mode": "ATTRIBUTES",
          "byteStride": 4,
          "count": 74
        }
      }
    }
  ],
  "samplers": [
    {
      "minFilter": 9987,
      "wrapS": 10497,
      "wrapT": 10497
    }
  ],
  "textures": [
    {
      "source": 0,
      "sampler": 0
    }
  ],
  "images": [
    {
      "name": "colormap",
      "mimeType": "image/png",
      "uri": "Textures/colormap.png"
    }
  ],
  "buffers": [
    {
      "uri": "animal-penguin.bin",
      "byteLength": 16144
    },
    {
      "byteLength": 26136,
      "extensions": {
        "EXT_meshopt_compression": {
          "fallback": true
        }
      }
    }
  ],
  "materials": [
    {
      "name": "colormap",
      "doubleSided": true,
      "pbrMetallicRoughness": {
        "metallicFactor": 0,
        "baseColorTexture": {
          "index": 0,
          "extensions": {
            "KHR_texture_transform": {
              "texCoord": 0
            }
          }
        }
      }
    }
  ],
  "meshes": [
    {
      "name": "leg-front-right",
      "primitives": [
        {
          "attributes": {
            "POSITION": 42,
            "NORMAL": 43,
            "TEXCOORD_0": 44
          },
          "mode": 4,
          "material": 0,
          "indices": 38
        }
      ]
    },
    {
      "name": "body",
      "primitives": [
        {
          "attributes": {
            "POSITION": 45,
            "NORMAL": 46,
            "TEXCOORD_0": 47
          },
          "mode": 4,
          "material": 0,
          "indices": 39
        }
      ]
    },
    {
      "name": "wing-left",
      "primitives": [
        {
          "attributes": {
            "POSITION": 48,
            "NORMAL": 49,
            "TEXCOORD_0": 50
          },
          "mode": 4,
          "material": 0,
          "indices": 40
        }
      ]
    },
    {
      "name": "wing-right",
      "primitives": [
        {
          "attributes": {
            "POSITION": 51,
            "NORMAL": 52,
            "TEXCOORD_0": 50
          },
          "mode": 4,
          "material": 0,
          "indices": 40
        }
      ]
    },
    {
      "name": "leg-front-left",
      "primitives": [
        {
          "attributes": {
            "POSITION": 53,
            "NORMAL": 54,
            "TEXCOORD_0": 55
          },
          "mode": 4,
          "material": 0,
          "indices": 41
        }
      ]
    }
  ],
  "nodes": [
    {
      "name": "animal-penguin",
      "children": [
        1
      ]
    },
    {
      "name": "root",
      "children": [
        2,
        3,
        6
      ]
    },
    {
      "name": "leg-front-right",
      "translation": [
        -0.25,
        0.3,
        -1.73258743e-14
      ],
      "children": [
        7
      ]
    },
    {
      "name": "body",
      "translation": [
        1.573182e-8,
        0.181249976,
        -3.80835026e-8
      ],
      "children": [
        4,
        5,
        8
      ]
    },
    {
      "name": "wing-left",
      "translation": [
        0.625,
        0.4625,
        0.0310788155
      ],
      "children": [
        9
      ]
    },
    {
      "name": "wing-right",
      "translation": [
        -0.525,
        0.4625,
        0.0310788155
      ],
      "children": [
        10
      ]
    },
    {
      "name": "leg-front-left",
      "translation": [
        0.25,
        0.3,
        -1.44382282e-15
      ],
      "children": [
        11
      ]
    },
    {
      "translation": [
        0,
        -0.14687500894069672,
        0
      ],
      "scale": [
        0.18750004470348358,
        0.18750004470348358,
        0.18750004470348358
      ],
      "mesh": 0
    },
    {
      "translation": [
        0,
        0.706499995630737,
        0.05000007152557373
      ],
      "scale": [
        0.7064999919714969,
        0.7064999919714969,
        0.7064999919714969
      ],
      "mesh": 1
    },
    {
      "translation": [
        0.12326377630233765,
        -7.450580596923828e-9,
        0.06481486558914185
      ],
      "scale": [
        0.3464999794960022,
        0.3464999794960022,
        0.3464999794960022
      ],
      "mesh": 2
    },
    {
      "translation": [
        -0.2232639193534851,
        0,
        0.06481486558914185
      ],
      "scale": [
        0.3464999794960022,
        0.3464999794960022,
        0.3464999794960022
      ],
      "mesh": 3
    },
    {
      "translation": [
        0,
        -0.14687500894069672,
        0
      ],
      "scale": [
        0.18750004470348358,
        0.18750004470348358,
        0.18750004470348358
      ],
      "mesh": 4
    }
  ],
  "animations": [
    {
      "name": "static",
      "samplers": [
        {
          "input": 0,
          "output": 1,
          "interpolation": "LINEAR"
        },
        {
          "input": 0,
          "output": 2,
          "interpolation": "LINEAR"
        },
        {
          "input": 0,
          "output": 3,
          "interpolation": "LINEAR"
        },
        {
          "input": 0,
          "output": 4,
          "interpolation": "LINEAR"
        },
        {
          "input": 0,
          "output": 2,
          "interpolation": "LINEAR"
        },
        {
          "input": 0,
          "output": 3,
          "interpolation": "LINEAR"
        },
        {
          "input": 0,
          "output": 5,
          "interpolation": "LINEAR"
        },
        {
          "input": 0,
          "output": 2,
          "interpolation": "LINEAR"
        },
        {
          "input": 0,
          "output": 3,
          "interpolation": "LINEAR"
        },
        {
          "input": 0,
          "output": 6,
          "interpolation": "LINEAR"
        },
        {
          "input": 0,
          "output": 2,
          "interpolation": "LINEAR"
        },
        {
          "input": 0,
          "output": 3,
          "interpolation": "LINEAR"
        },
        {
          "input": 0,
          "output": 7,
          "interpolation": "LINEAR"
        },
        {
          "input": 0,
          "output": 2,
          "interpolation": "LINEAR"
        },
        {
          "input": 0,
          "output": 3,
          "interpolation": "LINEAR"
        },
        {
          "input": 0,
          "output": 8,
          "interpolation": "LINEAR"
        },
        {
          "input": 0,
          "output": 2,
          "interpolation": "LINEAR"
        },
        {
          "input": 0,
          "output": 3,
          "interpolation": "LINEAR"
        }
      ],
      "channels": [
        {
          "sampler": 0,
          "target": {
            "node": 1,
            "path": "translation"
          }
        },
        {
          "sampler": 1,
          "target": {
            "node": 1,
            "path": "rotation"
          }
        },
        {
          "sampler": 2,
          "target": {
            "node": 1,
            "path": "scale"
          }
        },
        {
          "sampler": 3,
          "target": {
            "node": 2,
            "path": "translation"
          }
        },
        {
          "sampler": 4,
          "target": {
            "node": 2,
            "path": "rotation"
          }
        },
        {
          "sampler": 5,
          "target": {
            "node": 2,
            "path": "scale"
          }
        },
        {
          "sampler": 6,
          "target": {
            "node": 3,
            "path": "translation"
          }
        },
        {
          "sampler": 7,
          "target": {
            "node": 3,
            "path": "rotation"
          }
        },
        {
          "sampler": 8,
          "target": {
            "node": 3,
            "path": "scale"
          }
        },
        {
          "sampler": 9,
          "target": {
            "node": 4,
            "path": "translation"
          }
        },
        {
          "sampler": 10,
          "target": {
            "node": 4,
            "path": "rotation"
          }
        },
        {
          "sampler": 11,
          "target": {
            "node": 4,
            "path": "scale"
          }
        },
        {
          "sampler": 12,
          "target": {
            "node": 5,
            "path": "translation"
          }
        },
        {
          "sampler": 13,
          "target": {
            "node": 5,
            "path": "rotation"
          }
        },
        {
          "sampler": 14,
          "target": {
            "node": 5,
            "path": "scale"
          }
        },
        {
          "sampler": 15,
          "target": {
            "node": 6,
            "path": "translation"
          }
        },
        {
          "sampler": 16,
          "target": {
            "node": 6,
            "path": "rotation"
          }
        },
        {
          "sampler": 17,
          "target": {
            "node": 6,
            "path": "scale"
          }
        }
      ]
    },
    {
      "name": "idle",
      "samplers": [
        {
          "input": 9,
          "output": 1,
          "interpolation": "LINEAR"
        },
        {
          "input": 9,
          "output": 2,
          "interpolation": "LINEAR"
        },
        {
          "input": 9,
          "output": 3,
          "interpolation": "LINEAR"
        },
        {
          "input": 9,
          "output": 4,
          "interpolation": "LINEAR"
        },
        {
          "input": 9,
          "output": 2,
          "interpolation": "LINEAR"
        },
        {
          "input": 9,
          "output": 3,
          "interpolation": "LINEAR"
        },
        {
          "input": 9,
          "output": 5,
          "interpolation": "LINEAR"
        },
        {
          "input": 10,
          "output": 11,
          "interpolation": "LINEAR"
        },
        {
          "input": 9,
          "output": 3,
          "interpolation": "LINEAR"
        },
        {
          "input": 9,
          "output": 6,
          "interpolation": "LINEAR"
        },
        {
          "input": 10,
          "output": 12,
          "interpolation": "LINEAR"
        },
        {
          "input": 9,
          "output": 3,
          "interpolation": "LINEAR"
        },
        {
          "input": 9,
          "output": 7,
          "interpolation": "LINEAR"
        },
        {
          "input": 10,
          "output": 13,
          "interpolation": "LINEAR"
        },
        {
          "input": 9,
          "output": 3,
          "interpolation": "LINEAR"
        },
        {
          "input": 9,
          "output": 8,
          "interpolation": "LINEAR"
        },
        {
          "input": 9,
          "output": 2,
          "interpolation": "LINEAR"
        },
        {
          "input": 9,
          "output": 3,
          "interpolation": "LINEAR"
        }
      ],
      "channels": [
        {
          "sampler": 0,
          "target": {
            "node": 1,
            "path": "translation"
          }
        },
        {
          "sampler": 1,
          "target": {
            "node": 1,
            "path": "rotation"
          }
        },
        {
          "sampler": 2,
          "target": {
            "node": 1,
            "path": "scale"
          }
        },
        {
          "sampler": 3,
          "target": {
            "node": 2,
            "path": "translation"
          }
        },
        {
          "sampler": 4,
          "target": {
            "node": 2,
            "path": "rotation"
          }
        },
        {
          "sampler": 5,
          "target": {
            "node": 2,
            "path": "scale"
          }
        },
        {
          "sampler": 6,
          "target": {
            "node": 3,
            "path": "translation"
          }
        },
        {
          "sampler": 7,
          "target": {
            "node": 3,
            "path": "rotation"
          }
        },
        {
          "sampler": 8,
          "target": {
            "node": 3,
            "path": "scale"
          }
        },
        {
          "sampler": 9,
          "target": {
            "node": 4,
            "path": "translation"
          }
        },
        {
          "sampler": 10,
          "target": {
            "node": 4,
            "path": "rotation"
          }
        },
        {
          "sampler": 11,
          "target": {
            "node": 4,
            "path": "scale"
          }
        },
        {
          "sampler": 12,
          "target": {
            "node": 5,
            "path": "translation"
          }
        },
        {
          "sampler": 13,
          "target": {
            "node": 5,
            "path": "rotation"
          }
        },
        {
          "sampler": 14,
          "target": {
            "node": 5,
            "path": "scale"
          }
        },
        {
          "sampler": 15,
          "target": {
            "node": 6,
            "path": "translation"
          }
        },
        {
          "sampler": 16,
          "target": {
            "node": 6,
            "path": "rotation"
          }
        },
        {
          "sampler": 17,
          "target": {
            "node": 6,
            "path": "scale"
          }
        }
      ]
    },
    {
      "name": "walk",
      "samplers": [
        {
          "input": 14,
          "output": 15,
          "interpolation": "LINEAR"
        },
        {
          "input": 16,
          "output": 2,
          "interpolation": "LINEAR"
        },
        {
          "input": 16,
          "output": 3,
          "interpolation": "LINEAR"
        },
        {
          "input": 16,
          "output": 4,
          "interpolation": "LINEAR"
        },
        {
          "input": 14,
          "output": 17,
          "interpolation": "LINEAR"
        },
        {
          "input": 16,
          "output": 3,
          "interpolation": "LINEAR"
        },
        {
          "input": 16,
          "output": 5,
          "interpolation": "LINEAR"
        },
        {
          "input": 14,
          "output": 18,
          "interpolation": "LINEAR"
        },
        {
          "input": 16,
          "output": 3,
          "interpolation": "LINEAR"
        },
        {
          "input": 16,
          "output": 6,
          "interpolation": "LINEAR"
        },
        {
          "input": 14,
          "output": 19,
          "interpolation": "LINEAR"
        },
        {
          "input": 16,
          "output": 3,
          "interpolation": "LINEAR"
        },
        {
          "input": 16,
          "output": 7,
          "interpolation": "LINEAR"
        },
        {
          "input": 14,
          "output": 20,
          "interpolation": "LINEAR"
        },
        {
          "input": 16,
          "output": 3,
          "interpolation": "LINEAR"
        },
        {
          "input": 16,
          "output": 8,
          "interpolation": "LINEAR"
        },
        {
          "input": 14,
          "output": 21,
          "interpolation": "LINEAR"
        },
        {
          "input": 16,
          "output": 3,
          "interpolation": "LINEAR"
        }
      ],
      "channels": [
        {
          "sampler": 0,
          "target": {
            "node": 1,
            "path": "translation"
          }
        },
        {
          "sampler": 1,
          "target": {
            "node": 1,
            "path": "rotation"
          }
        },
        {
          "sampler": 2,
          "target": {
            "node": 1,
            "path": "scale"
          }
        },
        {
          "sampler": 3,
          "target": {
            "node": 2,
            "path": "translation"
          }
        },
        {
          "sampler": 4,
          "target": {
            "node": 2,
            "path": "rotation"
          }
        },
        {
          "sampler": 5,
          "target": {
            "node": 2,
            "path": "scale"
          }
        },
        {
          "sampler": 6,
          "target": {
            "node": 3,
            "path": "translation"
          }
        },
        {
          "sampler": 7,
          "target": {
            "node": 3,
            "path": "rotation"
          }
        },
        {
          "sampler": 8,
          "target": {
            "node": 3,
            "path": "scale"
          }
        },
        {
          "sampler": 9,
          "target": {
            "node": 4,
            "path": "translation"
          }
        },
        {
          "sampler": 10,
          "target": {
            "node": 4,
            "path": "rotation"
          }
        },
        {
          "sampler": 11,
          "target": {
            "node": 4,
            "path": "scale"
          }
        },
        {
          "sampler": 12,
          "target": {
            "node": 5,
            "path": "translation"
          }
        },
        {
          "sampler": 13,
          "target": {
            "node": 5,
            "path": "rotation"
          }
        },
        {
          "sampler": 14,
          "target": {
            "node": 5,
            "path": "scale"
          }
        },
        {
          "sampler": 15,
          "target": {
            "node": 6,
            "path": "translation"
          }
        },
        {
          "sampler": 16,
          "target": {
            "node": 6,
            "path": "rotation"
          }
        },
        {
          "sampler": 17,
          "target": {
            "node": 6,
            "path": "scale"
          }
        }
      ]
    },
    {
      "name": "run",
      "samplers": [
        {
          "input": 22,
          "output": 23,
          "interpolation": "LINEAR"
        },
        {
          "input": 24,
          "output": 2,
          "interpolation": "LINEAR"
        },
        {
          "input": 24,
          "output": 3,
          "interpolation": "LINEAR"
        },
        {
          "input": 24,
          "output": 4,
          "interpolation": "LINEAR"
        },
        {
          "input": 22,
          "output": 25,
          "interpolation": "LINEAR"
        },
        {
          "input": 24,
          "output": 3,
          "interpolation": "LINEAR"
        },
        {
          "input": 24,
          "output": 5,
          "interpolation": "LINEAR"
        },
        {
          "input": 22,
          "output": 26,
          "interpolation": "LINEAR"
        },
        {
          "input": 24,
          "output": 3,
          "interpolation": "LINEAR"
        },
        {
          "input": 24,
          "output": 6,
          "interpolation": "LINEAR"
        },
        {
          "input": 22,
          "output": 27,
          "interpolation": "LINEAR"
        },
        {
          "input": 24,
          "output": 3,
          "interpolation": "LINEAR"
        },
        {
          "input": 24,
          "output": 7,
          "interpolation": "LINEAR"
        },
        {
          "input": 22,
          "output": 28,
          "interpolation": "LINEAR"
        },
        {
          "input": 24,
          "output": 3,
          "interpolation": "LINEAR"
        },
        {
          "input": 24,
          "output": 8,
          "interpolation": "LINEAR"
        },
        {
          "input": 22,
          "output": 25,
          "interpolation": "LINEAR"
        },
        {
          "input": 24,
          "output": 3,
          "interpolation": "LINEAR"
        }
      ],
      "channels": [
        {
          "sampler": 0,
          "target": {
            "node": 1,
            "path": "translation"
          }
        },
        {
          "sampler": 1,
          "target": {
            "node": 1,
            "path": "rotation"
          }
        },
        {
          "sampler": 2,
          "target": {
            "node": 1,
            "path": "scale"
          }
        },
        {
          "sampler": 3,
          "target": {
            "node": 2,
            "path": "translation"
          }
        },
        {
          "sampler": 4,
          "target": {
            "node": 2,
            "path": "rotation"
          }
        },
        {
          "sampler": 5,
          "target": {
            "node": 2,
            "path": "scale"
          }
        },
        {
          "sampler": 6,
          "target": {
            "node": 3,
            "path": "translation"
          }
        },
        {
          "sampler": 7,
          "target": {
            "node": 3,
            "path": "rotation"
          }
        },
        {
          "sampler": 8,
          "target": {
            "node": 3,
            "path": "scale"
          }
        },
        {
          "sampler": 9,
          "target": {
            "node": 4,
            "path": "translation"
          }
        },
        {
          "sampler": 10,
          "target": {
            "node": 4,
            "path": "rotation"
          }
        },
        {
          "sampler": 11,
          "target": {
            "node": 4,
            "path": "scale"
          }
        },
        {
          "sampler": 12,
          "target": {
            "node": 5,
            "path": "translation"
          }
        },
        {
          "sampler": 13,
          "target": {
            "node": 5,
            "path": "rotation"
          }
        },
        {
          "sampler": 14,
          "target": {
            "node": 5,
            "path": "scale"
          }
        },
        {
          "sampler": 15,
          "target": {
            "node": 6,
            "path": "translation"
          }
        },
        {
          "sampler": 16,
          "target": {
            "node": 6,
            "path": "rotation"
          }
        },
        {
          "sampler": 17,
          "target": {
            "node": 6,
            "path": "scale"
          }
        }
      ]
    },
    {
      "name": "eat",
      "samplers": [
        {
          "input": 16,
          "output": 1,
          "interpolation": "LINEAR"
        },
        {
          "input": 16,
          "output": 2,
          "interpolation": "LINEAR"
        },
        {
          "input": 16,
          "output": 3,
          "interpolation": "LINEAR"
        },
        {
          "input": 16,
          "output": 4,
          "interpolation": "LINEAR"
        },
        {
          "input": 16,
          "output": 2,
          "interpolation": "LINEAR"
        },
        {
          "input": 16,
          "output": 3,
          "interpolation": "LINEAR"
        },
        {
          "input": 16,
          "output": 5,
          "interpolation": "LINEAR"
        },
        {
          "input": 14,
          "output": 29,
          "interpolation": "LINEAR"
        },
        {
          "input": 16,
          "output": 3,
          "interpolation": "LINEAR"
        },
        {
          "input": 16,
          "output": 6,
          "interpolation": "LINEAR"
        },
        {
          "input": 14,
          "output": 30,
          "interpolation": "LINEAR"
        },
        {
          "input": 16,
          "output": 3,
          "interpolation": "LINEAR"
        },
        {
          "input": 16,
          "output": 7,
          "interpolation": "LINEAR"
        },
        {
          "input": 14,
          "output": 31,
          "interpolation": "LINEAR"
        },
        {
          "input": 16,
          "output": 3,
          "interpolation": "LINEAR"
        },
        {
          "input": 16,
          "output": 8,
          "interpolation": "LINEAR"
        },
        {
          "input": 16,
          "output": 2,
          "interpolation": "LINEAR"
        },
        {
          "input": 16,
          "output": 3,
          "interpolation": "LINEAR"
        }
      ],
      "channels": [
        {
          "sampler": 0,
          "target": {
            "node": 1,
            "path": "translation"
          }
        },
        {
          "sampler": 1,
          "target": {
            "node": 1,
            "path": "rotation"
          }
        },
        {
          "sampler": 2,
          "target": {
            "node": 1,
            "path": "scale"
          }
        },
        {
          "sampler": 3,
          "target": {
            "node": 2,
            "path": "translation"
          }
        },
        {
          "sampler": 4,
          "target": {
            "node": 2,
            "path": "rotation"
          }
        },
        {
          "sampler": 5,
          "target": {
            "node": 2,
            "path": "scale"
          }
        },
        {
          "sampler": 6,
          "target": {
            "node": 3,
            "path": "translation"
          }
        },
        {
          "sampler": 7,
          "target": {
            "node": 3,
            "path": "rotation"
          }
        },
        {
          "sampler": 8,
          "target": {
            "node": 3,
            "path": "scale"
          }
        },
        {
          "sampler": 9,
          "target": {
            "node": 4,
            "path": "translation"
          }
        },
        {
          "sampler": 10,
          "target": {
            "node": 4,
            "path": "rotation"
          }
        },
        {
          "sampler": 11,
          "target": {
            "node": 4,
            "path": "scale"
          }
        },
        {
          "sampler": 12,
          "target": {
            "node": 5,
            "path": "translation"
          }
        },
        {
          "sampler": 13,
          "target": {
            "node": 5,
            "path": "rotation"
          }
        },
        {
          "sampler": 14,
          "target": {
            "node": 5,
            "path": "scale"
          }
        },
        {
          "sampler": 15,
          "target": {
            "node": 6,
            "path": "translation"
          }
        },
        {
          "sampler": 16,
          "target": {
            "node": 6,
            "path": "rotation"
          }
        },
        {
          "sampler": 17,
          "target": {
            "node": 6,
            "path": "scale"
          }
        }
      ]
    },
    {
      "name": "dance",
      "samplers": [
        {
          "input": 16,
          "output": 1,
          "interpolation": "LINEAR"
        },
        {
          "input": 16,
          "output": 2,
          "interpolation": "LINEAR"
        },
        {
          "input": 16,
          "output": 3,
          "interpolation": "LINEAR"
        },
        {
          "input": 16,
          "output": 4,
          "interpolation": "LINEAR"
        },
        {
          "input": 16,
          "output": 2,
          "interpolation": "LINEAR"
        },
        {
          "input": 16,
          "output": 3,
          "interpolation": "LINEAR"
        },
        {
          "input": 14,
          "output": 32,
          "interpolation": "LINEAR"
        },
        {
          "input": 14,
          "output": 33,
          "interpolation": "LINEAR"
        },
        {
          "input": 16,
          "output": 3,
          "interpolation": "LINEAR"
        },
        {
          "input": 16,
          "output": 6,
          "interpolation": "LINEAR"
        },
        {
          "input": 14,
          "output": 30,
          "interpolation": "LINEAR"
        },
        {
          "input": 16,
          "output": 3,
          "interpolation": "LINEAR"
        },
        {
          "input": 16,
          "output": 7,
          "interpolation": "LINEAR"
        },
        {
          "input": 14,
          "output": 31,
          "interpolation": "LINEAR"
        },
        {
          "input": 16,
          "output": 3,
          "interpolation": "LINEAR"
        },
        {
          "input": 16,
          "output": 8,
          "interpolation": "LINEAR"
        },
        {
          "input": 16,
          "output": 2,
          "interpolation": "LINEAR"
        },
        {
          "input": 16,
          "output": 3,
          "interpolation": "LINEAR"
        }
      ],
      "channels": [
        {
          "sampler": 0,
          "target": {
            "node": 1,
            "path": "translation"
          }
        },
        {
          "sampler": 1,
          "target": {
            "node": 1,
            "path": "rotation"
          }
        },
        {
          "sampler": 2,
          "target": {
            "node": 1,
            "path": "scale"
          }
        },
        {
          "sampler": 3,
          "target": {
            "node": 2,
            "path": "translation"
          }
        },
        {
          "sampler": 4,
          "target": {
            "node": 2,
            "path": "rotation"
          }
        },
        {
          "sampler": 5,
          "target": {
            "node": 2,
            "path": "scale"
          }
        },
        {
          "sampler": 6,
          "target": {
            "node": 3,
            "path": "translation"
          }
        },
        {
          "sampler": 7,
          "target": {
            "node": 3,
            "path": "rotation"
          }
        },
        {
          "sampler": 8,
          "target": {
            "node": 3,
            "path": "scale"
          }
        },
        {
          "sampler": 9,
          "target": {
            "node": 4,
            "path": "translation"
          }
        },
        {
          "sampler": 10,
          "target": {
            "node": 4,
            "path": "rotation"
          }
        },
        {
          "sampler": 11,
          "target": {
            "node": 4,
            "path": "scale"
          }
        },
        {
          "sampler": 12,
          "target": {
            "node": 5,
            "path": "translation"
          }
        },
        {
          "sampler": 13,
          "target": {
            "node": 5,
            "path": "rotation"
          }
        },
        {
          "sampler": 14,
          "target": {
            "node": 5,
            "path": "scale"
          }
        },
        {
          "sampler": 15,
          "target": {
            "node": 6,
            "path": "translation"
          }
        },
        {
          "sampler": 16,
          "target": {
            "node": 6,
            "path": "rotation"
          }
        },
        {
          "sampler": 17,
          "target": {
            "node": 6,
            "path": "scale"
          }
        }
      ]
    },
    {
      "name": "gesture-positive",
      "samplers": [
        {
          "input": 24,
          "output": 1,
          "interpolation": "LINEAR"
        },
        {
          "input": 24,
          "output": 2,
          "interpolation": "LINEAR"
        },
        {
          "input": 24,
          "output": 3,
          "interpolation": "LINEAR"
        },
        {
          "input": 24,
          "output": 4,
          "interpolation": "LINEAR"
        },
        {
          "input": 24,
          "output": 2,
          "interpolation": "LINEAR"
        },
        {
          "input": 24,
          "output": 3,
          "interpolation": "LINEAR"
        },
        {
          "input": 24,
          "output": 5,
          "interpolation": "LINEAR"
        },
        {
          "input": 22,
          "output": 34,
          "interpolation": "LINEAR"
        },
        {
          "input": 24,
          "output": 3,
          "interpolation": "LINEAR"
        },
        {
          "input": 24,
          "output": 6,
          "interpolation": "LINEAR"
        },
        {
          "input": 22,
          "output": 35,
          "interpolation": "LINEAR"
        },
        {
          "input": 24,
          "output": 3,
          "interpolation": "LINEAR"
        },
        {
          "input": 24,
          "output": 7,
          "interpolation": "LINEAR"
        },
        {
          "input": 22,
          "output": 36,
          "interpolation": "LINEAR"
        },
        {
          "input": 24,
          "output": 3,
          "interpolation": "LINEAR"
        },
        {
          "input": 24,
          "output": 8,
          "interpolation": "LINEAR"
        },
        {
          "input": 24,
          "output": 2,
          "interpolation": "LINEAR"
        },
        {
          "input": 24,
          "output": 3,
          "interpolation": "LINEAR"
        }
      ],
      "channels": [
        {
          "sampler": 0,
          "target": {
            "node": 1,
            "path": "translation"
          }
        },
        {
          "sampler": 1,
          "target": {
            "node": 1,
            "path": "rotation"
          }
        },
        {
          "sampler": 2,
          "target": {
            "node": 1,
            "path": "scale"
          }
        },
        {
          "sampler": 3,
          "target": {
            "node": 2,
            "path": "translation"
          }
        },
        {
          "sampler": 4,
          "target": {
            "node": 2,
            "path": "rotation"
          }
        },
        {
          "sampler": 5,
          "target": {
            "node": 2,
            "path": "scale"
          }
        },
        {
          "sampler": 6,
          "target": {
            "node": 3,
            "path": "translation"
          }
        },
        {
          "sampler": 7,
          "target": {
            "node": 3,
            "path": "rotation"
          }
        },
        {
          "sampler": 8,
          "target": {
            "node": 3,
            "path": "scale"
          }
        },
        {
          "sampler": 9,
          "target": {
            "node": 4,
            "path": "translation"
          }
        },
        {
          "sampler": 10,
          "target": {
            "node": 4,
            "path": "rotation"
          }
        },
        {
          "sampler": 11,
          "target": {
            "node": 4,
            "path": "scale"
          }
        },
        {
          "sampler": 12,
          "target": {
            "node": 5,
            "path": "translation"
          }
        },
        {
          "sampler": 13,
          "target": {
            "node": 5,
            "path": "rotation"
          }
        },
        {
          "sampler": 14,
          "target": {
            "node": 5,
            "path": "scale"
          }
        },
        {
          "sampler": 15,
          "target": {
            "node": 6,
            "path": "translation"
          }
        },
        {
          "sampler": 16,
          "target": {
            "node": 6,
            "path": "rotation"
          }
        },
        {
          "sampler": 17,
          "target": {
            "node": 6,
            "path": "scale"
          }
        }
      ]
    },
    {
      "name": "gesture-negative",
      "samplers": [
        {
          "input": 24,
          "output": 1,
          "interpolation": "LINEAR"
        },
        {
          "input": 24,
          "output": 2,
          "interpolation": "LINEAR"
        },
        {
          "input": 24,
          "output": 3,
          "interpolation": "LINEAR"
        },
        {
          "input": 24,
          "output": 4,
          "interpolation": "LINEAR"
        },
        {
          "input": 24,
          "output": 2,
          "interpolation": "LINEAR"
        },
        {
          "input": 24,
          "output": 3,
          "interpolation": "LINEAR"
        },
        {
          "input": 24,
          "output": 5,
          "interpolation": "LINEAR"
        },
        {
          "input": 22,
          "output": 37,
          "interpolation": "LINEAR"
        },
        {
          "input": 24,
          "output": 3,
          "interpolation": "LINEAR"
        },
        {
          "input": 24,
          "output": 6,
          "interpolation": "LINEAR"
        },
        {
          "input": 22,
          "output": 35,
          "interpolation": "LINEAR"
        },
        {
          "input": 24,
          "output": 3,
          "interpolation": "LINEAR"
        },
        {
          "input": 24,
          "output": 7,
          "interpolation": "LINEAR"
        },
        {
          "input": 22,
          "output": 36,
          "interpolation": "LINEAR"
        },
        {
          "input": 24,
          "output": 3,
          "interpolation": "LINEAR"
        },
        {
          "input": 24,
          "output": 8,
          "interpolation": "LINEAR"
        },
        {
          "input": 24,
          "output": 2,
          "interpolation": "LINEAR"
        },
        {
          "input": 24,
          "output": 3,
          "interpolation": "LINEAR"
        }
      ],
      "channels": [
        {
          "sampler": 0,
          "target": {
            "node": 1,
            "path": "translation"
          }
        },
        {
          "sampler": 1,
          "target": {
            "node": 1,
            "path": "rotation"
          }
        },
        {
          "sampler": 2,
          "target": {
            "node": 1,
            "path": "scale"
          }
        },
        {
          "sampler": 3,
          "target": {
            "node": 2,
            "path": "translation"
          }
        },
        {
          "sampler": 4,
          "target": {
            "node": 2,
            "path": "rotation"
          }
        },
        {
          "sampler": 5,
          "target": {
            "node": 2,
            "path": "scale"
          }
        },
        {
          "sampler": 6,
          "target": {
            "node": 3,
            "path": "translation"
          }
        },
        {
          "sampler": 7,
          "target": {
            "node": 3,
            "path": "rotation"
          }
        },
        {
          "sampler": 8,
          "target": {
            "node": 3,
            "path": "scale"
          }
        },
        {
          "sampler": 9,
          "target": {
            "node": 4,
            "path": "translation"
          }
        },
        {
          "sampler": 10,
          "target": {
            "node": 4,
            "path": "rotation"
          }
        },
        {
          "sampler": 11,
          "target": {
            "node": 4,
            "path": "scale"
          }
        },
        {
          "sampler": 12,
          "target": {
            "node": 5,
            "path": "translation"
          }
        },
        {
          "sampler": 13,
          "target": {
            "node": 5,
            "path": "rotation"
          }
        },
        {
          "sampler": 14,
          "target": {
            "node": 5,
            "path": "scale"
          }
        },
        {
          "sampler": 15,
          "target": {
            "node": 6,
            "path": "translation"
          }
        },
        {
          "sampler": 16,
          "target": {
            "node": 6,
            "path": "rotation"
          }
        },
        {
          "sampler": 17,
          "target": {
            "node": 6,
            "path": "scale"
          }
        }
      ]
    }
  ],
  "scenes": [
    {
      "name": "animal-penguin",
      "nodes": [
        0
      ]
    }
  ],
  "scene": 0,
  "extensionsUsed": [
    "EXT_meshopt_compression",
    "KHR_mesh_quantization",
    "KHR_texture_transform"
  ],
  "extensionsRequired": [
    "EXT_meshopt_compression",
    "KHR_mesh_quantization"
  ]
}