{
  "asset": {
    "generator": "glTF-Transform v4.5.1",
    "version": "2.0"
  },
  "accessors": [
    {
      "type": "SCALAR",
      "componentType": 5126,
      "count": 2,
      "max": [
        0.10000000149011612
      ],
      "min": [
        0
      ],
      "normalized": false,
      "byteOffset": 0,
      "bufferView": 0
    },
    {
      "type": "VEC3",
      "componentType": 5126,
      "count": 2,
      "normalized": false,
      "byteOffset": 0,
      "bufferView": 1
    },
    {
      "type": "VEC4",
      "componentType": 5126,
      "count": 2,
      "normalized": false,
      "byteOffset": 0,
      "bufferView": 2
    },
    {
      "type": "VEC3",
      "componentType": 5126,
      "count": 2,
      "normalized": false,
      "byteOffset": 24,
      "bufferView": 1
    },
    {
      "type": "VEC3",
      "componentType": 5126,
      "count": 2,
      "normalized": false,
      "byteOffset": 48,
      "bufferView": 1
    },
    {
      "type": "VEC3",
      "componentType": 5126,
      "count": 2,
      "normalized": false,
      "byteOffset": 72,
      "bufferView": 1
    },
    {
      "type": "VEC4",
      "componentType": 5126,
      "count": 2,
      "normalized": false,
      "byteOffset": 32,
      "bufferView": 2
    },
    {
      "type": "VEC3",
      "componentType": 5126,
      "count": 2,
      "normalized": false,
      "byteOffset": 96,
      "bufferView": 1
    },
    {
      "type": "VEC4",
      "componentType": 5126,
      "count": 2,
      "normalized": false,
      "byteOffset": 64,
      "bufferView": 2
    },
    {
      "type": "VEC3",
      "componentType": 5126,
      "count": 2,
      "normalized": false,
      "byteOffset": 120,
      "bufferView": 1
    },
    {
      "type": "VEC3",
      "componentType": 5126,
      "count": 2,
      "normalized": false,
      "byteOffset": 144,
      "bufferView": 1
    },
    {
      "type": "VEC3",
      "componentType": 5126,
      "count": 2,
      "normalized": false,
      "byteOffset": 168,
      "bufferView": 1
    },
    {
      "type": "VEC3",
      "componentType": 5126,
      "count": 2,
      "normalized": false,
      "byteOffset": 192,
      "bufferView": 1
    },
    {
      "type": "SCALAR",
      "componentType": 5126,
      "count": 2,
      "max": [
        1
      ],
      "min": [
        0
      ],
      "normalized": false,
      "byteOffset": 8,
      "bufferView": 0
    },
    {
      "type": "SCALAR",
      "componentType": 5126,
      "count": 30,
      "max": [
        1
      ],
      "min": [
        0
      ],
      "normalized": false,
      "byteOffset": 16,
      "bufferView": 0
    },
    {
      "type": "VEC4",
      "componentType": 5126,
      "count": 30,
      "normalized": false,
      "byteOffset": 96,
      "bufferView": 2
    },
    {
      "type": "VEC4",
      "componentType": 5126,
      "count": 30,
      "normalized": false,
      "byteOffset": 576,
      "bufferView": 2
    },
    {
      "type": "VEC4",
      "componentType": 5126,
      "count": 30,
      "normalized": false,
      "byteOffset": 1056,
      "bufferView": 2
    },
    {
      "type": "SCALAR",
      "componentType": 5126,
      "count": 15,
      "max": [
        0.5
      ],
      "min": [
        0
      ],
      "normalized": false,
      "byteOffset": 136,
      "bufferView": 0
    },
    {
      "type": "VEC3",
      "componentType": 5126,
      "count": 15,
      "normalized": false,
      "byteOffset": 216,
      "bufferView": 1
    },
    {
      "type": "SCALAR",
      "componentType": 5126,
      "count": 2,
      "max": [
        0.5
      ],
      "min": [
        0
      ],
      "normalized": false,
      "byteOffset": 196,
      "bufferView": 0
    },
    {
      "type": "VEC4",
      "componentType": 5126,
      "count": 15,
      "normalized": false,
      "byteOffset": 1536,
      "bufferView": 2
    },
    {
      "type": "VEC4",
      "componentType": 5126,
      "count": 15,
      "normalized": false,
      "byteOffset": 1776,
      "bufferView": 2
    },
    {
      "type": "VEC4",
      "componentType": 5126,
      "count": 15,
      "normalized": false,
      "byteOffset": 2016,
      "bufferView": 2
    },
    {
      "type": "VEC4",
      "componentType": 5126,
      "count": 15,
      "normalized": false,
      "byteOffset": 2256,
      "bufferView": 2
    },
    {
      "type": "VEC4",
      "componentType": 5126,
      "count": 15,
      "normalized": false,
      "byteOffset": 2496,
      "bufferView": 2
    },
    {
      "type": "SCALAR",
      "componentType": 5126,
      "count": 8,
      "max": [
        0.25
      ],
      "min": [
        0
      ],
      "normalized": false,
      "byteOffset": 204,
      "bufferView": 0
    },
    {
      "type": "VEC3",
      "componentType": 5126,
      "count": 8,
      "normalized": false,
      "byteOffset": 396,
      "bufferView": 1
    },
    {
      "type": "SCALAR",
      "componentType": 5126,
      "count": 2,
      "max": [
        0.25
      ],
      "min": [
        0
      ],
      "normalized": false,
      "byteOffset": 236,
      "bufferView": 0
    },
    {
      "type": "VEC4",
      "componentType": 5126,
      "count": 8,
      "normalized": false,
      "byteOffset": 2736,
      "bufferView": 2
    },
    {
      "type": "VEC4",
      "componentType": 5126,
      "count": 8,
      "normalized": false,
      "byteOffset": 2864,
      "bufferView": 2
    },
    {
      "type": "VEC4",
      "componentType": 5126,
      "count": 8,
      "normalized": false,
      "byteOffset": 2992,
      "bufferView": 2
    },
    {
      "type": "VEC4",
      "componentType": 5126,
      "count": 8,
      "normalized": false,
      "byteOffset": 3120,
      "bufferView": 2
    },
    {
      "type": "VEC4",
      "componentType": 5126,
      "count": 8,
      "normalized": false,
      "byteOffset": 3248,
      "bufferView": 2
    },
    {
      "type": "VEC4",
      "componentType": 5126,
      "count": 15,
      "normalized": false,
      "byteOffset": 3376,
      "bufferView": 2
    },
    {
      "type": "VEC4",
      "componentType": 5126,
      "count": 15,
      "normalized": false,
      "byteOffset": 3616,
      "bufferView": 2
    },
    {
      "type": "VEC4",
      "componentType": 5126,
      "count": 15,
      "normalized": false,
      "byteOffset": 3856,
      "bufferView": 2
    },
    {
      "type": "VEC3",
      "componentType": 5126,
      "count": 15,
      "normalized": false,
      "byteOffset": 492,
      "bufferView": 1
    },
    {
      "type": "VEC4",
      "componentType": 5126,
      "count": 15,
      "normalized": false,
      "byteOffset": 4096,
      "bufferView": 2
    },
    {
      "type": "VEC4",
      "componentType": 5126,
      "count": 8,
      "normalized": false,
      "byteOffset": 4336,
      "bufferView": 2
    },
    {
      "type": "VEC4",
      "componentType": 5126,
      "count": 8,
      "normalized": false,
      "byteOffset": 4464,
      "bufferView": 2
    },
    {
      "type": "VEC4",
      "componentType": 5126,
      "count": 8,
      "normalized": false,
      "byteOffset": 4592,
      "bufferView": 2
    },
    {
      "type": "VEC4",
      "componentType": 5126,
      "count": 8,
      "normalized": false,
      "byteOffset": 4720,
      "bufferView": 2
    },
    {
      "type": "SCALAR",
      "componentType": 5123,
      "count": 1146,
      "normalized": false,
      "byteOffset": 0,
      "bufferView": 3
    },
    {
      "type": "SCALAR",
      "componentType": 5123,
      "count": 276,
      "normalized": false,
      "byteOffset": 2292,
      "bufferView": 3
    },
    {
      "type": "SCALAR",
      "componentType": 5123,
      "count": 276,
      "normalized": false,
      "byteOffset": 2844,
      "bufferView": 3
    },
    {
      "type": "SCALAR",
      "componentType": 5123,
      "count": 132,
      "normalized": false,
      "byteOffset": 3396,
      "bufferView": 3
    },
    {
      "type": "SCALAR",
      "componentType": 5123,
      "count": 132,
      "normalized": false,
      "byteOffset": 3660,
      "bufferView": 3
    },
    {
      "type": "SCALAR",
      "componentType": 5123,
      "count": 132,
      "normalized": false,
      "byteOffset": 3924,
      "bufferView": 3
    },
    {
      "type": "SCALAR",
      "componentType": 5123,
      "count": 132,
      "normalized": false,
      "byteOffset": 4188,
      "bufferView": 3
    },
    {
      "type": "VEC3",
      "componentType": 5122,
      "count": 688,
      "max": [
        27207,
        32767,
        26351
      ],
      "min": [
        -27207,
        -32767,
        -26351
      ],
      "normalized": true,
      "byteOffset": 0,
      "bufferView": 4
    },
    {
      "type": "VEC3",
      "componentType": 5122,
      "count": 688,
      "normalized": true,
      "byteOffset": 0,
      "bufferView": 5
    },
    {
      "type": "VEC2",
      "componentType": 5123,
      "count": 688,
      "normalized": true,
      "byteOffset": 0,
      "bufferView": 6
    },
    {
      "type": "VEC3",
      "componentType": 5122,
      "count": 48,
      "max": [
        32767,
        9457,
        28371
      ],
      "min": [
        -32767,
        -9457,
        -28371
      ],
      "normalized": true,
      "byteOffset": 0,
      "bufferView": 7
    },
    {
      "type": "VEC3",
      "componentType": 5122,
      "count": 48,
      "normalized": true,
      "byteOffset": 0,
      "bufferView": 8
    },
    {
      "type": "VEC2",
      "componentType": 5123,
      "count": 48,
      "normalized": true,
      "byteOffset": 0,
      "bufferView": 9
    },
    {
      "type": "VEC3",
      "componentType": 5122,
      "count": 48,
      "max": [
        32767,
        9457,
        28371
      ],
      "min": [
        -32767,
        -9457,
        -28371
      ],
      "normalized": true,
      "byteOffset": 0,
      "bufferView": 10
    },
    {
      "type": "VEC3",
      "componentType": 5122,
      "count": 48,
      "normalized": true,
      "byteOffset": 0,
      "bufferView": 11
    },
    {
      "type": "VEC2",
      "componentType": 5123,
      "count": 48,
      "normalized": true,
      "byteOffset": 0,
      "bufferView": 12
    },
    {
      "type": "VEC3",
      "componentType": 5122,
      "count": 75,
      "max": [
        32767,
        26759,
        32767
      ],
      "min": [
        -32767,
        -26759,
        -32767
      ],
      "normalized": true,
      "byteOffset": 0,
      "bufferView": 13
    },
    {
      "type": "VEC3",
      "componentType": 5122,
      "count": 75,
      "normalized": true,
      "byteOffset": 0,
      "bufferView": 14
    },
    {
      "type": "VEC2",
      "componentType": 5123,
      "count": 75,
      "normalized": true,
      "byteOffset": 0,
      "bufferView": 15
    },
    {
      "type": "VEC3",
      "componentType": 5122,
      "count": 74,
      "max": [
        32767,
        26759,
        32767
      ],
      "min": [
        -32767,
        -26759,
        -32767
      ],
      "normalized": true,
      "byteOffset": 0,
      "bufferView": 16
    },
    {
      "type": "VEC3",
      "componentType": 5122,
      "count": 74,
      "normalized": true,
      "byteOffset": 0,
      "bufferView": 17
    },
    {
      "type": "VEC2",
      "componentType": 5123,
      "count": 74,
      "normalized": true,
      "byteOffset": 0,
      "bufferView": 18
    },
    {
      "type": "VEC3",
      "componentType": 5122,
      "count": 75,
      "max": [
        32767,
        26759,
        32767
      ],
      "min": [
        -32767,
        -26759,
        -32767
      ],
      "normalized": true,
      "byteOffset": 0,
      "bufferView": 19
    },
    {
      "type": "VEC3",
      "componentType": 5122,
      "count": 75,
      "normalized": true,
      "byteOffset": 0,
      "bufferView": 20
    },
    {
      "type": "VEC2",
      "componentType": 5123,
      "count": 75,
      "normalized": true,
      "byteOffset": 0,
      "bufferView": 21
    },
    {
      "type": "VEC3",
      "componentType": 5122,
      "count": 75,
      "max": [
        32767,
        26759,
        32767
      ],
      "min": [
        -32767,
        -26759,
        -32767
      ],
      "normalized": true,
      "byteOffset": 0,
      "bufferView": 22
    },
    {
      "type": "VEC3",
      "componentType": 5122,
      "count": 75,
      "normalized": true,
      "byteOffset": 0,
      "bufferView": 23
    },
    {
      "type": "VEC2",
      "componentType": 5123,
      "count": 75,
      "normalized": true,
      "byteOffset": 0,
      "bufferView": 24
    }
  ],
  "bufferViews": [
    {
      "buffer": 1,
      "byteOffset": 0,
      "byteLength": 244,
      "extensions": {
        "EXT_meshopt_compression": {
          "buffer": 0,
          "byteOffset": 0,
          "byteLength": 233,
          "mode": "ATTRIBUTES",
          "byteStride": 4,
          "count": 61
        }
      }
    },
    {
      "buffer": 1,
      "byteOffset": 244,
      "byteLength": 672,
      "extensions": {
        "EXT_meshopt_compression": {
          "buffer": 0,
          "byteOffset": 236,
          "byteLength": 344,
          "mode": "ATTRIBUTES",
          "byteStride": 12,
          "count": 56
        }
      }
    },
    {
      "buffer": 1,
      "byteOffset": 916,
      "byteLength": 4848,
      "extensions": {
        "EXT_meshopt_compression": {
          "buffer": 0,
          "byteOffset": 580,
          "byteLength": 2560,
          "mode": "ATTRIBUTES",
          "byteStride": 16,
          "count": 303
        }
      }
    },
    {
      "buffer": 1,
      "byteOffset": 5764,
      "byteLength": 4452,
      "target": 34963,
      "extensions": {
        "EXT_meshopt_compression": {
          "buffer": 0,
          "byteOffset": 3140,
          "byteLength": 820,
          "mode": "TRIANGLES",
          "byteStride": 2,
          "count": 2226
        }
      }
    },
    {
      "buffer": 1,
      "byteOffset": 10216,
      "byteLength": 5504,
      "target": 34962,
      "byteStride": 8,
      "extensions": {
        "EXT_meshopt_compression": {
          "buffer": 0,
          "byteOffset": 3960,
          "byteLength": 3930,
          "mode": "ATTRIBUTES",
          "byteStride": 8,
          "count": 688
        }
      }
    },
    {
      "buffer": 1,
      "byteOffset": 15720,
      "byteLength": 5504,
      "target": 34962,
      "byteStride": 8,
      "extensions": {
        "EXT_meshopt_compression": {
          "buffer": 0,
          "byteOffset": 7892,
          "byteLength": 3700,
          "mode": "ATTRIBUTES",
          "byteStride": 8,
          "count": 688
        }
      }
    },
    {
      "buffer": 1,
      "byteOffset": 21224,
      "byteLength": 2752,
      "target": 34962,
      "byteStride": 4,
      "extensions": {
        "EXT_meshopt_compression": {
          "buffer": 0,
          "byteOffset": 11592,
          "byteLength": 1267,
          "mode": "ATTRIBUTES",
          "byteStride": 4,
          "count": 688
        }
      }
    },
    {
      "buffer": 1,
      "byteOffset": 23976,
      "byteLength": 384,
      "target": 34962,
      "byteStride": 8,
      "extensions": {
        "EXT_meshopt_compression": {
          "buffer": 0,
          "byteOffset": 12860,
          "byteLength": 296,
          "mode": "ATTRIBUTES",
          "byteStride": 8,
          "count": 48
        }
      }
    },
    {
      "buffer": 1,
      "byteOffset": 24360,
      "byteLength": 384,
      "target": 34962,
      "byteStride": 8,
      "extensions": {
        "EXT_meshopt_compression": {
          "buffer": 0,
          "byteOffset": 13156,
          "byteLength": 311,
          "mode": "ATTRIBUTES",
          "byteStride": 8,
          "count": 48
        }
      }
    },
    {
      "buffer": 1,
      "byteOffset": 24744,
      "byteLength": 192,
      "target": 34962,
      "byteStride": 4,
      "extensions": {
        "EXT_meshopt_compression": {
          "buffer": 0,
          "byteOffset": 13468,
          "byteLength": 87,
          "mode": "ATTRIBUTES",
          "byteStride": 4,
          "count": 48
        }
      }
    },
    {
      "buffer": 1,
      "byteOffset": 24936,
      "byteLength": 384,
      "target": 34962,
      "byteStride": 8,
      "extensions": {
        "EXT_meshopt_compression": {
          "buffer": 0,
          "byteOffset": 13556,
          "byteLength": 313,
          "mode": "ATTRIBUTES",
          "byteStride": 8,
          "count": 48
        }
      }
    },
    {
      "buffer": 1,
      "byteOffset": 25320,
      "byteLength": 384,
      "target": 34962,
      "byteStride": 8,
      "extensions": {
        "EXT_meshopt_compression": {
          "buffer": 0,
          "byteOffset": 13872,
          "byteLength": 320,
          "mode": "ATTRIBUTES",
          "byteStride": 8,
          "count": 48
        }
      }
    },
    {
      "buffer": 1,
      "byteOffset": 25704,
      "byteLength": 192,
      "target": 34962,
      "byteStride": 4,
      "extensions": {
        "EXT_meshopt_compression": {
          "buffer": 0,
          "byteOffset": 14192,
          "byteLength": 101,
          "mode": "ATTRIBUTES",
          "byteStride": 4,
          "count": 48
        }
      }
    },
    {
      "buffer": 1,
      "byteOffset": 25896,
      "byteLength": 600,
      "target": 34962,
      "byteStride": 8,
      "extensions": {
        "EXT_meshopt_compression": {
          "buffer": 0,
          "byteOffset": 14296,
          "byteLength": 482,
          "mode": "ATTRIBUTES",
          "byteStride": 8,
          "count": 75
        }
      }
    },
    {
      "buffer": 1,
      "byteOffset": 26496,
      "byteLength": 600,
      "target": 34962,
      "byteStride": 8,
      "extensions": {
        "EXT_meshopt_compression": {
          "buffer": 0,
          "byteOffset": 14780,
          "byteLength": 465,
          "mode": "ATTRIBUTES",
          "byteStride": 8,
          "count": 75
        }
      }
    },
    {
      "buffer": 1,
      "byteOffset": 27096,
      "byteLength": 300,
      "target": 34962,
      "byteStride": 4,
      "extensions": {
        "EXT_meshopt_compression": {
          "buffer": 0,
          "byteOffset": 15248,
          "byteLength": 167,
          "mode": "ATTRIBUTES",
          "byteStride": 4,
          "count": 75
        }
      }
    },
    {
      "buffer": 1,
      "byteOffset": 27396,
      "byteLength": 592,
      "target": 34962,
      "byteStride": 8,
      "extensions": {
        "EXT_meshopt_compression": {
          "buffer": 0,
          "byteOffset": 15416,
          "byteLength": 484,
          "mode": "ATTRIBUTES",
          "byteStride": 8,
          "count": 74
        }
      }
    },
    {
      "buffer": 1,
      "byteOffset": 27988,
      "byteLength": 592,
      "target": 34962,
      "byteStride": 8,
      "extensions": {
        "EXT_meshopt_compression": {
          "buffer": 0,
          "byteOffset": 15900,
          "byteLength": 491,
          "mode": "ATTRIBUTES",
          "byteStride": 8,
          "count": 74
        }
      }
    },
    {
      "buffer": 1,
      "byteOffset": 28580,
      "byteLength": 296,
      "target": 34962,
      "byteStride": 4,
      "extensions": {
        "EXT_meshopt_compression": {
          "buffer": 0,
          "byteOffset": 16392,
          "byteLength": 175,
          "mode": "ATTRIBUTES",
          "byteStride": 4,
          "count": 74
        }
      }
    },
    {
      "buffer": 1,
      "byteOffset": 28876,
      "byteLength": 600,
      "target": 34962,
      "byteStride": 8,
      "extensions": {
        "EXT_meshopt_compression": {
          "buffer": 0,
          "byteOffset": 16568,
          "byteLength": 475,
          "mode": "ATTRIBUTES",
          "byteStride": 8,
          "count": 75
        }
      }
    },
    {
      "buffer": 1,
      "byteOffset": 29476,
      "byteLength": 600,
      "target": 34962,
      "byteStride": 8,
      "extensions": {
        "EXT_meshopt_compression": {
          "buffer": 0,
          "byteOffset": 17044,
          "byteLength": 476,
          "mode": "ATTRIBUTES",
          "byteStride": 8,
          "count": 75
        }
      }
    },
    {
      "buffer": 1,
      "byteOffset": 30076,
      "byteLength": 300,
      "target": 34962,
      "byteStride": 4,
      "extensions": {
        "EXT_meshopt_compression": {
          "buffer": 0,
          "byteOffset": 17520,
          "byteLength": 169,
          "mode": "ATTRIBUTES",
          "byteStride": 4,
          "count": 75
        }
      }
    },
    {
      "buffer": 1,
      "byteOffset": 30376,
      "byteLength": 600,
      "target": 34962,
      "byteStride": 8,
      "extensions": {
        "EXT_meshopt_compression": {
          "buffer": 0,
          "byteOffset": 17692,
          "byteLength": 495,
          "mode": "ATTRIBUTES",
          "byteStride": 8,
          "count": 75
        }
      }
    },
    {
      "buffer": 1,
      "byteOffset": 30976,
      "byteLength": 600,
      "target": 34962,
      "byteStride": 8,
      "extensions": {
        "EXT_meshopt_compression": {
          "buffer": 0,
          "byteOffset": 18188,
          "byteLength": 487,
          "mode": "ATTRIBUTES",
          "byteStride": 8,
          "count": 75
        }
      }
    },
    {
      "buffer": 1,
      "byteOffset": 31576,
      "byteLength": 300,
      "target": 34962,
      "byteStride": 4,
      "extensions": {
        "EXT_meshopt_compression": {
          "buffer": 0,
          "byteOffset": 18676,
          "byteLength": 179,
          "mode": "ATTRIBUTES",
          "byteStride": 4,
          "count": 75
        }
      }
    }
  ],
  "samplers": [
    {
      "minFilter": 9987,
      "wrapS": 10497,
      "wrapT": 10497
    }
  ],
  "textures": [
    {
      "source": 0,
      "sampler": 0
    }
  ],
  "images": [
    {
      "name": "colormap",
      "mimeType": "image/png",
      "uri": "Textures/colormap.png"
    }
  ],
  "buffers": [
    {
      "uri": "animal-bee.bin",
      "byteLength": 18856
    },
    {
      "byteLength": 31876,
      "extensions": {
        "EXT_meshopt_compression": {
          "fallback": true
        }
      }
    }
  ],
  "materials": [
    {
      "name": "colormap",
      "doubleSided": true,
      "pbrMetallicRoughness": {
        "metallicFactor": 0,
        "baseColorTexture": {
          "index": 0,
          "extensions": {
            "KHR_texture_transform": {
              "texCoord": 0
            }
          }
        }
      }
    }
  ],
  "meshes": [
    {
      "name": "body",
      "primitives": [
        {
          "attributes": {
            "POSITION": 50,
            "NORMAL": 51,
            "TEXCOORD_0": 52
          },
          "mode": 4,
          "material": 0,
          "indices": 43
        }
      ]
    },
    {
      "name": "wing-left",
      "primitives": [
        {
          "attributes": {
            "POSITION": 53,
            "NORMAL": 54,
            "TEXCOORD_0": 55
          },
          "mode": 4,
          "material": 0,
          "indices": 44
        }
      ]
    },
    {
      "name": "wing-right",
      "primitives": [
        {
          "attributes": {
            "POSITION": 56,
            "NORMAL": 57,
            "TEXCOORD_0": 58
          },
          "mode": 4,
          "material": 0,
          "indices": 45
        }
      ]
    },
    {
      "name": "leg-back-left",
      "primitives": [
        {
          "attributes": {
            "POSITION": 59,
            "NORMAL": 60,
            "TEXCOORD_0": 61
          },
          "mode": 4,
          "material": 0,
          "indices": 46
        }
      ]
    },
    {
      "name": "leg-back-right",
      "primitives": [
        {
          "attributes": {
            "POSITION": 62,
            "NORMAL": 63,
            "TEXCOORD_0": 64
          },
          "mode": 4,
          "material": 0,
          "indices": 47
        }
      ]
    },
    {
      "name": "leg-front-left",
      "primitives": [
        {
          "attributes": {
            "POSITION": 65,
            "NORMAL": 66,
            "TEXCOORD_0": 67
          },
          "mode": 4,
          "material": 0,
          "indices": 48
        }
      ]
    },
    {
      "name": "leg-front-right",
      "primitives": [
        {
          "attributes": {
            "POSITION": 68,
            "NORMAL": 69,
            "TEXCOORD_0": 70
          },
          "mode": 4,
          "material": 0,
          "indices": 49
        }
      ]
    }
  ],
  "nodes": [
    {
      "name": "animal-bee",
      "children": [
        1
      ]
    },
    {
      "name": "root",
      "children": [
        2,
        5,
        6,
        7,
        8
      ]
    },
    {
      "name": "body",
      "translation": [
        1.573182e-8,
        0.181249976,
        -3.80835026e-8
      ],
      "children": [
        3,
        4,
        9
      ]
    },
    {
      "name": "wing-left",
      "translation": [
        0.196499825,
        1.31929493,
        -0.0220000148
      ],
      "rotation": [
        0,
        0,
        0.49999997,
        0.8660254
      ],
      "children": [
        10
      ]
    },
    {
      "name": "wing-right",
      "translation": [
        -0.196499825,
        1.31929493,
        -0.0220000148
      ],
      "rotation": [
        0,
        0,
        -0.49999997,
        0.8660254
      ],
      "children": [
        11
      ]
    },
    {
      "name": "leg-back-left",
      "translation": [
        0.25,
        0.3,
        -0.25
      ],
      "children": [
        12
      ]
    },
    {
      "name": "leg-back-right",
      "translation": [
        -0.25,
        0.3,
        -0.25
      ],
      "children": [
        13
      ]
    },
    {
      "name": "leg-front-left",
      "translation": [
        0.25,
        0.3,
        0.25
      ],
      "children": [
        14
      ]
    },
    {
      "name": "leg-front-right",
      "translation": [
        -0.25,
        0.3,
        0.25
      ],
      "children": [
        15
      ]
    },
    {
      "translation": [
        5.960464477539063e-8,
        0.7614279463887215,
        0.021528780460357666
      ],
      "scale": [
        0.8039279505610466,
        0.8039279505610466,
        0.8039279505610466
      ],
      "mesh": 0
    },
    {
      "translation": [
        0.20000001788139343,
        0,
        0
      ],
      "scale": [
        0.3465000092983246,
        0.3465000092983246,
        0.3465000092983246
      ],
      "mesh": 1
    },
    {
      "translation": [
        -0.20000001788139343,
        0,
        0
      ],
      "scale": [
        0.3465000092983246,
        0.3465000092983246,
        0.3465000092983246
      ],
      "mesh": 2
    },
    {
      "translation": [
        0,
        -0.14687500894069672,
        0
      ],
      "scale": [
        0.18750004470348358,
        0.18750004470348358,
        0.18750004470348358
      ],
      "mesh": 3
    },
    {
      "translation": [
        0,
        -0.14687500894069672,
        0
      ],
      "scale": [
        0.18750004470348358,
        0.18750004470348358,
        0.18750004470348358
      ],
      "mesh": 4
    },
    {
      "translation": [
        0,
        -0.14687500894069672,
        0
      ],
      "scale": [
        0.18750004470348358,
        0.18750004470348358,
        0.18750004470348358
      ],
      "mesh": 5
    },
    {
      "translation": [
        0,
        -0.14687500894069672,
        0
      ],
      "scale": [
        0.18750004470348358,
        0.18750004470348358,
        0.18750004470348358
      ],
      "mesh": 6
    }
  ],
  "animations": [
    {
      "name": "static",
      "samplers": [
        {
          "input": 0,
          "output": 1,
          "interpolation": "LINEAR"
        },
        {
          "input": 0,
          "output": 2,
          "interpolation": "LINEAR"
        },
        {
          "input": 0,
          "output": 3,
          "interpolation": "LINEAR"
        },
        {
          "input": 0,
          "output": 4,
          "interpolation": "LINEAR"
        },
        {
          "input": 0,
          "output": 2,
          "interpolation": "LINEAR"
        },
        {
          "input": 0,
          "output": 3,
          "interpolation": "LINEAR"
        },
        {
          "input": 0,
          "output": 5,
          "interpolation": "LINEAR"
        },
        {
          "input": 0,
          "output": 6,
          "interpolation": "LINEAR"
        },
        {
          "input": 0,
          "output": 3,
          "interpolation": "LINEAR"
        },
        {
          "input": 0,
          "output": 7,
          "interpolation": "LINEAR"
        },
        {
          "input": 0,
          "output": 8,
          "interpolation": "LINEAR"
        },
        {
          "input": 0,
          "output": 3,
          "interpolation": "LINEAR"
        },
        {
          "input": 0,
          "output": 9,
          "interpolation": "LINEAR"
        },
        {
          "input": 0,
          "output": 2,
          "interpolation": "LINEAR"
        },
        {
          "input": 0,
          "output": 3,
          "interpolation": "LINEAR"
        },
        {
          "input": 0,
          "output": 10,
          "interpolation": "LINEAR"
        },
        {
          "input": 0,
          "output": 2,
          "interpolation": "LINEAR"
        },
        {
          "input": 0,
          "output": 3,
          "interpolation": "LINEAR"
        },
        {
          "input": 0,
          "output": 11,
          "interpolation": "LINEAR"
        },
        {
          "input": 0,
          "output": 2,
          "interpolation": "LINEAR"
        },
        {
          "input": 0,
          "output": 3,
          "interpolation": "LINEAR"
        },
        {
          "input": 0,
          "output": 12,
          "interpolation": "LINEAR"
        },
        {
          "input": 0,
          "output": 2,
          "interpolation": "LINEAR"
        },
        {
          "input": 0,
          "output": 3,
          "interpolation": "LINEAR"
        }
      ],
      "channels": [
        {
          "sampler": 0,
          "target": {
            "node": 1,
            "path": "translation"
          }
        },
        {
          "sampler": 1,
          "target": {
            "node": 1,
            "path": "rotation"
          }
        },
        {
          "sampler": 2,
          "target": {
            "node": 1,
            "path": "scale"
          }
        },
        {
          "sampler": 3,
          "target": {
            "node": 2,
            "path": "translation"
          }
        },
        {
          "sampler": 4,
          "target": {
            "node": 2,
            "path": "rotation"
          }
        },
        {
          "sampler": 5,
          "target": {
            "node": 2,
            "path": "scale"
          }
        },
        {
          "sampler": 6,
          "target": {
            "node": 3,
            "path": "translation"
          }
        },
        {
          "sampler": 7,
          "target": {
            "node": 3,
            "path": "rotation"
          }
        },
        {
          "sampler": 8,
          "target": {
            "node": 3,
            "path": "scale"
          }
        },
        {
          "sampler": 9,
          "target": {
            "node": 4,
            "path": "translation"
          }
        },
        {
          "sampler": 10,
          "target": {
            "node": 4,
            "path": "rotation"
          }
        },
        {
          "sampler": 11,
          "target": {
            "node": 4,
            "path": "scale"
          }
        },
        {
          "sampler": 12,
          "target": {
            "node": 5,
            "path": "translation"
          }
        },
        {
          "sampler": 13,
          "target": {
            "node": 5,
            "path": "rotation"
          }
        },
        {
          "sampler": 14,
          "target": {
            "node": 5,
            "path": "scale"
          }
        },
        {
          "sampler": 15,
          "target": {
            "node": 6,
            "path": "translation"
          }
        },
        {
          "sampler": 16,
          "target": {
            "node": 6,
            "path": "rotation"
          }
        },
        {
          "sampler": 17,
          "target": {
            "node": 6,
            "path": "scale"
          }
        },
        {
          "sampler": 18,
          "target": {
            "node": 7,
            "path": "translation"
          }
        },
        {
          "sampler": 19,
          "target": {
            "node": 7,
            "path": "rotation"
          }
        },
        {
          "sampler": 20,
          "target": {
            "node": 7,
            "path": "scale"
          }
        },
        {
          "sampler": 21,
          "target": {
            "node": 8,
            "path": "translation"
          }
        },
        {
          "sampler": 22,
          "target": {
            "node": 8,
            "path": "rotation"
          }
        },
        {
          "sampler": 23,
          "target": {
            "node": 8,
            "path": "scale"
          }
        }
      ]
    },
    {
      "name": "idle",
      "samplers": [
        {
          "input": 13,
          "output": 1,
          "interpolation": "LINEAR"
        },
        {
          "input": 13,
          "output": 2,
          "interpolation": "LINEAR"
        },
        {
          "input": 13,
          "output": 3,
          "interpolation": "LINEAR"
        },
        {
          "input": 13,
          "output": 4,
          "interpolation": "LINEAR"
        },
        {
          "input": 14,
          "output": 15,
          "interpolation": "LINEAR"
        },
        {
          "input": 13,
          "output": 3,
          "interpolation": "LINEAR"
        },
        {
          "input": 13,
          "output": 5,
          "interpolation": "LINEAR"
        },
        {
          "input": 14,
          "output": 16,
          "interpolation": "LINEAR"
        },
        {
          "input": 13,
          "output": 3,
          "interpolation": "LINEAR"
        },
        {
          "input": 13,
          "output": 7,
          "interpolation": "LINEAR"
        },
        {
          "input": 14,
          "output": 17,
          "interpolation": "LINEAR"
        },
        {
          "input": 13,
          "output": 3,
          "interpolation": "LINEAR"
        },
        {
          "input": 13,
          "output": 9,
          "interpolation": "LINEAR"
        },
        {
          "input": 13,
          "output": 2,
          "interpolation": "LINEAR"
        },
        {
          "input": 13,
          "output": 3,
          "interpolation": "LINEAR"
        },
        {
          "input": 13,
          "output": 10,
          "interpolation": "LINEAR"
        },
        {
          "input": 13,
          "output": 2,
          "interpolation": "LINEAR"
        },
        {
          "input": 13,
          "output": 3,
          "interpolation": "LINEAR"
        },
        {
          "input": 13,
          "output": 11,
          "interpolation": "LINEAR"
        },
        {
          "input": 13,
          "output": 2,
          "interpolation": "LINEAR"
        },
        {
          "input": 13,
          "output": 3,
          "interpolation": "LINEAR"
        },
        {
          "input": 13,
          "output": 12,
          "interpolation": "LINEAR"
        },
        {
          "input": 13,
          "output": 2,
          "interpolation": "LINEAR"
        },
        {
          "input": 13,
          "output": 3,
          "interpolation": "LINEAR"
        }
      ],
      "channels": [
        {
          "sampler": 0,
          "target": {
            "node": 1,
            "path": "translation"
          }
        },
        {
          "sampler": 1,
          "target": {
            "node": 1,
            "path": "rotation"
          }
        },
        {
          "sampler": 2,
          "target": {
            "node": 1,
            "path": "scale"
          }
        },
        {
          "sampler": 3,
          "target": {
            "node": 2,
            "path": "translation"
          }
        },
        {
          "sampler": 4,
          "target": {
            "node": 2,
            "path": "rotation"
          }
        },
        {
          "sampler": 5,
          "target": {
            "node": 2,
            "path": "scale"
          }
        },
        {
          "sampler": 6,
          "target": {
            "node": 3,
            "path": "translation"
          }
        },
        {
          "sampler": 7,
          "target": {
            "node": 3,
            "path": "rotation"
          }
        },
        {
          "sampler": 8,
          "target": {
            "node": 3,
            "path": "scale"
          }
        },
        {
          "sampler": 9,
          "target": {
            "node": 4,
            "path": "translation"
          }
        },
        {
          "sampler": 10,
          "target": {
            "node": 4,
            "path": "rotation"
          }
        },
        {
          "sampler": 11,
          "target": {
            "node": 4,
            "path": "scale"
          }
        },
        {
          "sampler": 12,
          "target": {
            "node": 5,
            "path": "translation"
          }
        },
        {
          "sampler": 13,
          "target": {
            "node": 5,
            "path": "rotation"
          }
        },
        {
          "sampler": 14,
          "target": {
            "node": 5,
            "path": "scale"
          }
        },
        {
          "sampler": 15,
          "target": {
            "node": 6,
            "path": "translation"
          }
        },
        {
          "sampler": 16,
          "target": {
            "node": 6,
            "path": "rotation"
          }
        },
        {
          "sampler": 17,
          "target": {
            "node": 6,
            "path": "scale"
          }
        },
        {
          "sampler": 18,
          "target": {
            "node": 7,
            "path": "translation"
          }
        },
        {
          "sampler": 19,
          "target": {
            "node": 7,
            "path": "rotation"
          }
        },
        {
          "sampler": 20,
          "target": {
            "node": 7,
            "path": "scale"
          }
        },
        {
          "sampler": 21,
          "target": {
            "node": 8,
            "path": "translation"
          }
        },
        {
          "sampler": 22,
          "target": {
            "node": 8,
            "path": "rotation"
          }
        },
        {
          "sampler": 23,
          "target": {
            "node": 8,
            "path": "scale"
          }
        }
      ]
    },
    {
      "name": "walk",
      "samplers": [
        {
          "input": 18,
          "output": 19,
          "interpolation": "LINEAR"
        },
        {
          "input": 20,
          "output": 2,
          "interpolation": "LINEAR"
        },
        {
          "input": 20,
          "output": 3,
          "interpolation": "LINEAR"
        },
        {
          "input": 20,
          "output": 4,
          "interpolation": "LINEAR"
        },
        {
          "input": 18,
          "output": 21,
          "interpolation": "LINEAR"
        },
        {
          "input": 20,
          "output": 3,
          "interpolation": "LINEAR"
        },
        {
          "input": 20,
          "output": 5,
          "interpolation": "LINEAR"
        },
        {
          "input": 18,
          "output": 22,
          "interpolation": "LINEAR"
        },
        {
          "input": 20,
          "output": 3,
          "interpolation": "LINEAR"
        },
        {
          "input": 20,
          "output": 7,
          "interpolation": "LINEAR"
        },
        {
          "input": 18,
          "output": 23,
          "interpolation": "LINEAR"
        },
        {
          "input": 20,
          "output": 3,
          "interpolation": "LINEAR"
        },
        {
          "input": 20,
          "output": 9,
          "interpolation": "LINEAR"
        },
        {
          "input": 18,
          "output": 24,
          "interpolation": "LINEAR"
        },
        {
          "input": 20,
          "output": 3,
          "interpolation": "LINEAR"
        },
        {
          "input": 20,
          "output": 10,
          "interpolation": "LINEAR"
        },
        {
          "input": 18,
          "output": 25,
          "interpolation": "LINEAR"
        },
        {
          "input": 20,
          "output": 3,
          "interpolation": "LINEAR"
        },
        {
          "input": 20,
          "output": 11,
          "interpolation": "LINEAR"
        },
        {
          "input": 18,
          "output": 25,
          "interpolation": "LINEAR"
        },
        {
          "input": 20,
          "output": 3,
          "interpolation": "LINEAR"
        },
        {
          "input": 20,
          "output": 12,
          "interpolation": "LINEAR"
        },
        {
          "input": 18,
          "output": 24,
          "interpolation": "LINEAR"
        },
        {
          "input": 20,
          "output": 3,
          "interpolation": "LINEAR"
        }
      ],
      "channels": [
        {
          "sampler": 0,
          "target": {
            "node": 1,
            "path": "translation"
          }
        },
        {
          "sampler": 1,
          "target": {
            "node": 1,
            "path": "rotation"
          }
        },
        {
          "sampler": 2,
          "target": {
            "node": 1,
            "path": "scale"
          }
        },
        {
          "sampler": 3,
          "target": {
            "node": 2,
            "path": "translation"
          }
        },
        {
          "sampler": 4,
          "target": {
            "node": 2,
            "path": "rotation"
          }
        },
        {
          "sampler": 5,
          "target": {
            "node": 2,
            "path": "scale"
          }
        },
        {
          "sampler": 6,
          "target": {
            "node": 3,
            "path": "translation"
          }
        },
        {
          "sampler": 7,
          "target": {
            "node": 3,
            "path": "rotation"
          }
        },
        {
          "sampler": 8,
          "target": {
            "node": 3,
            "path": "scale"
          }
        },
        {
          "sampler": 9,
          "target": {
            "node": 4,
            "path": "translation"
          }
        },
        {
          "sampler": 10,
          "target": {
            "node": 4,
            "path": "rotation"
          }
        },
        {
          "sampler": 11,
          "target": {
            "node": 4,
            "path": "scale"
          }
        },
        {
          "sampler": 12,
          "target": {
            "node": 5,
            "path": "translation"
          }
        },
        {
          "sampler": 13,
          "target": {
            "node": 5,
            "path": "rotation"
          }
        },
        {
          "sampler": 14,
          "target": {
            "node": 5,
            "path": "scale"
          }
        },
        {
          "sampler": 15,
          "target": {
            "node": 6,
            "path": "translation"
          }
        },
        {
          "sampler": 16,
          "target": {
            "node": 6,
            "path": "rotation"
          }
        },
        {
          "sampler": 17,
          "target": {
            "node": 6,
            "path": "scale"
          }
        },
        {
          "sampler": 18,
          "target": {
            "node": 7,
            "path": "translation"
          }
        },
        {
          "sampler": 19,
          "target": {
            "node": 7,
            "path": "rotation"
          }
        },
        {
          "sampler": 20,
          "target": {
            "node": 7,
            "path": "scale"
          }
        },
        {
          "sampler": 21,
          "target": {
            "node": 8,
            "path": "translation"
          }
        },
        {
          "sampler": 22,
          "target": {
            "node": 8,
            "path": "rotation"
          }
        },
        {
          "sampler": 23,
          "target": {
            "node": 8,
            "path": "scale"
          }
        }
      ]
    },
    {
      "name": "run",
      "samplers": [
        {
          "input": 26,
          "output": 27,
          "interpolation": "LINEAR"
        },
        {
          "input": 28,
          "output": 2,
          "interpolation": "LINEAR"
        },
        {
          "input": 28,
          "output": 3,
          "interpolation": "LINEAR"
        },
        {
          "input": 28,
          "output": 4,
          "interpolation": "LINEAR"
        },
        {
          "input": 26,
          "output": 29,
          "interpolation": "LINEAR"
        },
        {
          "input": 28,
          "output": 3,
          "interpolation": "LINEAR"
        },
        {
          "input": 28,
          "output": 5,
          "interpolation": "LINEAR"
        },
        {
          "input": 26,
          "output": 30,
          "interpolation": "LINEAR"
        },
        {
          "input": 28,
          "output": 3,
          "interpolation": "LINEAR"
        },
        {
          "input": 28,
          "output": 7,
          "interpolation": "LINEAR"
        },
        {
          "input": 26,
          "output": 31,
          "interpolation": "LINEAR"
        },
        {
          "input": 28,
          "output": 3,
          "interpolation": "LINEAR"
        },
        {
          "input": 28,
          "output": 9,
          "interpolation": "LINEAR"
        },
        {
          "input": 26,
          "output": 32,
          "interpolation": "LINEAR"
        },
        {
          "input": 28,
          "output": 3,
          "interpolation": "LINEAR"
        },
        {
          "input": 28,
          "output": 10,
          "interpolation": "LINEAR"
        },
        {
          "input": 26,
          "output": 32,
          "interpolation": "LINEAR"
        },
        {
          "input": 28,
          "output": 3,
          "interpolation": "LINEAR"
        },
        {
          "input": 28,
          "output": 11,
          "interpolation": "LINEAR"
        },
        {
          "input": 26,
          "output": 33,
          "interpolation": "LINEAR"
        },
        {
          "input": 28,
          "output": 3,
          "interpolation": "LINEAR"
        },
        {
          "input": 28,
          "output": 12,
          "interpolation": "LINEAR"
        },
        {
          "input": 26,
          "output": 33,
          "interpolation": "LINEAR"
        },
        {
          "input": 28,
          "output": 3,
          "interpolation": "LINEAR"
        }
      ],
      "channels": [
        {
          "sampler": 0,
          "target": {
            "node": 1,
            "path": "translation"
          }
        },
        {
          "sampler": 1,
          "target": {
            "node": 1,
            "path": "rotation"
          }
        },
        {
          "sampler": 2,
          "target": {
            "node": 1,
            "path": "scale"
          }
        },
        {
          "sampler": 3,
          "target": {
            "node": 2,
            "path": "translation"
          }
        },
        {
          "sampler": 4,
          "target": {
            "node": 2,
            "path": "rotation"
          }
        },
        {
          "sampler": 5,
          "target": {
            "node": 2,
            "path": "scale"
          }
        },
        {
          "sampler": 6,
          "target": {
            "node": 3,
            "path": "translation"
          }
        },
        {
          "sampler": 7,
          "target": {
            "node": 3,
            "path": "rotation"
          }
        },
        {
          "sampler": 8,
          "target": {
            "node": 3,
            "path": "scale"
          }
        },
        {
          "sampler": 9,
          "target": {
            "node": 4,
            "path": "translation"
          }
        },
        {
          "sampler": 10,
          "target": {
            "node": 4,
            "path": "rotation"
          }
        },
        {
          "sampler": 11,
          "target": {
            "node": 4,
            "path": "scale"
          }
        },
        {
          "sampler": 12,
          "target": {
            "node": 5,
            "path": "translation"
          }
        },
        {
          "sampler": 13,
          "target": {
            "node": 5,
            "path": "rotation"
          }
        },
        {
          "sampler": 14,
          "target": {
            "node": 5,
            "path": "scale"
          }
        },
        {
          "sampler": 15,
          "target": {
            "node": 6,
            "path": "translation"
          }
        },
        {
          "sampler": 16,
          "target": {
            "node": 6,
            "path": "rotation"
          }
        },
        {
          "sampler": 17,
          "target": {
            "node": 6,
            "path": "scale"
          }
        },
        {
          "sampler": 18,
          "target": {
            "node": 7,
            "path": "translation"
          }
        },
        {
          "sampler": 19,
          "target": {
            "node": 7,
            "path": "rotation"
          }
        },
        {
          "sampler": 20,
          "target": {
            "node": 7,
            "path": "scale"
          }
        },
        {
          "sampler": 21,
          "target": {
            "node": 8,
            "path": "translation"
          }
        },
        {
          "sampler": 22,
          "target": {
            "node": 8,
            "path": "rotation"
          }
        },
        {
          "sampler": 23,
          "target": {
            "node": 8,
            "path": "scale"
          }
        }
      ]
    },
    {
      "name": "eat",
      "samplers": [
        {
          "input": 20,
          "output": 1,
          "interpolation": "LINEAR"
        },
        {
          "input": 20,
          "output": 2,
          "interpolation": "LINEAR"
        },
        {
          "input": 20,
          "output": 3,
          "interpolation": "LINEAR"
        },
        {
          "input": 20,
          "output": 4,
          "interpolation": "LINEAR"
        },
        {
          "input": 18,
          "output": 34,
          "interpolation": "LINEAR"
        },
        {
          "input": 20,
          "output": 3,
          "interpolation": "LINEAR"
        },
        {
          "input": 20,
          "output": 5,
          "interpolation": "LINEAR"
        },
        {
          "input": 18,
          "output": 35,
          "interpolation": "LINEAR"
        },
        {
          "input": 20,
          "output": 3,
          "interpolation": "LINEAR"
        },
        {
          "input": 20,
          "output": 7,
          "interpolation": "LINEAR"
        },
        {
          "input": 18,
          "output": 36,
          "interpolation": "LINEAR"
        },
        {
          "input": 20,
          "output": 3,
          "interpolation": "LINEAR"
        },
        {
          "input": 20,
          "output": 9,
          "interpolation": "LINEAR"
        },
        {
          "input": 20,
          "output": 2,
          "interpolation": "LINEAR"
        },
        {
          "input": 20,
          "output": 3,
          "interpolation": "LINEAR"
        },
        {
          "input": 20,
          "output": 10,
          "interpolation": "LINEAR"
        },
        {
          "input": 20,
          "output": 2,
          "interpolation": "LINEAR"
        },
        {
          "input": 20,
          "output": 3,
          "interpolation": "LINEAR"
        },
        {
          "input": 20,
          "output": 11,
          "interpolation": "LINEAR"
        },
        {
          "input": 20,
          "output": 2,
          "interpolation": "LINEAR"
        },
        {
          "input": 20,
          "output": 3,
          "interpolation": "LINEAR"
        },
        {
          "input": 20,
          "output": 12,
          "interpolation": "LINEAR"
        },
        {
          "input": 20,
          "output": 2,
          "interpolation": "LINEAR"
        },
        {
          "input": 20,
          "output": 3,
          "interpolation": "LINEAR"
        }
      ],
      "channels": [
        {
          "sampler": 0,
          "target": {
            "node": 1,
            "path": "translation"
          }
        },
        {
          "sampler": 1,
          "target": {
            "node": 1,
            "path": "rotation"
          }
        },
        {
          "sampler": 2,
          "target": {
            "node": 1,
            "path": "scale"
          }
        },
        {
          "sampler": 3,
          "target": {
            "node": 2,
            "path": "translation"
          }
        },
        {
          "sampler": 4,
          "target": {
            "node": 2,
            "path": "rotation"
          }
        },
        {
          "sampler": 5,
          "target": {
            "node": 2,
            "path": "scale"
          }
        },
        {
          "sampler": 6,
          "target": {
            "node": 3,
            "path": "translation"
          }
        },
        {
          "sampler": 7,
          "target": {
            "node": 3,
            "path": "rotation"
          }
        },
        {
          "sampler": 8,
          "target": {
            "node": 3,
            "path": "scale"
          }
        },
        {
          "sampler": 9,
          "target": {
            "node": 4,
            "path": "translation"
          }
        },
        {
          "sampler": 10,
          "target": {
            "node": 4,
            "path": "rotation"
          }
        },
        {
          "sampler": 11,
          "target": {
            "node": 4,
            "path": "scale"
          }
        },
        {
          "sampler": 12,
          "target": {
            "node": 5,
            "path": "translation"
          }
        },
        {
          "sampler": 13,
          "target": {
            "node": 5,
            "path": "rotation"
          }
        },
        {
          "sampler": 14,
          "target": {
            "node": 5,
            "path": "scale"
          }
        },
        {
          "sampler": 15,
          "target": {
            "node": 6,
            "path": "translation"
          }
        },
        {
          "sampler": 16,
          "target": {
            "node": 6,
            "path": "rotation"
          }
        },
        {
          "sampler": 17,
          "target": {
            "node": 6,
            "path": "scale"
          }
        },
        {
          "sampler": 18,
          "target": {
            "node": 7,
            "path": "translation"
          }
        },
        {
          "sampler": 19,
          "target": {
            "node": 7,
            "path": "rotation"
          }
        },
        {
          "sampler": 20,
          "target": {
            "node": 7,
            "path": "scale"
          }
        },
        {
          "sampler": 21,
          "target": {
            "node": 8,
            "path": "translation"
          }
        },
        {
          "sampler": 22,
          "target": {
            "node": 8,
            "path": "rotation"
          }
        },
        {
          "sampler": 23,
          "target": {
            "node": 8,
            "path": "scale"
          }
        }
      ]
    },
    {
      "name": "dance",
      "samplers": [
        {
          "input": 20,
          "output": 1,
          "interpolation": "LINEAR"
        },
        {
          "input": 20,
          "output": 2,
          "interpolation": "LINEAR"
        },
        {
          "input": 20,
          "output": 3,
          "interpolation": "LINEAR"
        },
        {
          "input": 18,
          "output": 37,
          "interpolation": "LINEAR"
        },
        {
          "input": 18,
          "output": 38,
          "interpolation": "LINEAR"
        },
        {
          "input": 20,
          "output": 3,
          "interpolation": "LINEAR"
        },
        {
          "input": 20,
          "output": 5,
          "interpolation": "LINEAR"
        },
        {
          "input": 18,
          "output": 35,
          "interpolation": "LINEAR"
        },
        {
          "input": 20,
          "output": 3,
          "interpolation": "LINEAR"
        },
        {
          "input": 20,
          "output": 7,
          "interpolation": "LINEAR"
        },
        {
          "input": 18,
          "output": 36,
          "interpolation": "LINEAR"
        },
        {
          "input": 20,
          "output": 3,
          "interpolation": "LINEAR"
        },
        {
          "input": 20,
          "output": 9,
          "interpolation": "LINEAR"
        },
        {
          "input": 20,
          "output": 2,
          "interpolation": "LINEAR"
        },
        {
          "input": 20,
          "output": 3,
          "interpolation": "LINEAR"
        },
        {
          "input": 20,
          "output": 10,
          "interpolation": "LINEAR"
        },
        {
          "input": 20,
          "output": 2,
          "interpolation": "LINEAR"
        },
        {
          "input": 20,
          "output": 3,
          "interpolation": "LINEAR"
        },
        {
          "input": 20,
          "output": 11,
          "interpolation": "LINEAR"
        },
        {
          "input": 20,
          "output": 2,
          "interpolation": "LINEAR"
        },
        {
          "input": 20,
          "output": 3,
          "interpolation": "LINEAR"
        },
        {
          "input": 20,
          "output": 12,
          "interpolation": "LINEAR"
        },
        {
          "input": 20,
          "output": 2,
          "interpolation": "LINEAR"
        },
        {
          "input": 20,
          "output": 3,
          "interpolation": "LINEAR"
        }
      ],
      "channels": [
        {
          "sampler": 0,
          "target": {
            "node": 1,
            "path": "translation"
          }
        },
        {
          "sampler": 1,
          "target": {
            "node": 1,
            "path": "rotation"
          }
        },
        {
          "sampler": 2,
          "target": {
            "node": 1,
            "path": "scale"
          }
        },
        {
          "sampler": 3,
          "target": {
            "node": 2,
            "path": "translation"
          }
        },
        {
          "sampler": 4,
          "target": {
            "node": 2,
            "path": "rotation"
          }
        },
        {
          "sampler": 5,
          "target": {
            "node": 2,
            "path": "scale"
          }
        },
        {
          "sampler": 6,
          "target": {
            "node": 3,
            "path": "translation"
          }
        },
        {
          "sampler": 7,
          "target": {
            "node": 3,
            "path": "rotation"
          }
        },
        {
          "sampler": 8,
          "target": {
            "node": 3,
            "path": "scale"
          }
        },
        {
          "sampler": 9,
          "target": {
            "node": 4,
            "path": "translation"
          }
        },
        {
          "sampler": 10,
          "target": {
            "node": 4,
            "path": "rotation"
          }
        },
        {
          "sampler": 11,
          "target": {
            "node": 4,
            "path": "scale"
          }
        },
        {
          "sampler": 12,
          "target": {
            "node": 5,
            "path": "translation"
          }
        },
        {
          "sampler": 13,
          "target": {
            "node": 5,
            "path": "rotation"
          }
        },
        {
          "sampler": 14,
          "target": {
            "node": 5,
            "path": "scale"
          }
        },
        {
          "sampler": 15,
          "target": {
            "node": 6,
            "path": "translation"
          }
        },
        {
          "sampler": 16,
          "target": {
            "node": 6,
            "path": "rotation"
          }
        },
        {
          "sampler": 17,
          "target": {
            "node": 6,
            "path": "scale"
          }
        },
        {
          "sampler": 18,
          "target": {
            "node": 7,
            "path": "translation"
          }
        },
        {
          "sampler": 19,
          "target": {
            "node": 7,
            "path": "rotation"
          }
        },
        {
          "sampler": 20,
          "target": {
            "node": 7,
            "path": "scale"
          }
        },
        {
          "sampler": 21,
          "target": {
            "node": 8,
            "path": "translation"
          }
        },
        {
          "sampler": 22,
          "target": {
            "node": 8,
            "path": "rotation"
          }
        },
        {
          "sampler": 23,
          "target": {
            "node": 8,
            "path": "scale"
          }
        }
      ]
    },
    {
      "name": "gesture-positive",
      "samplers": [
        {
          "input": 28,
          "output": 1,
          "interpolation": "LINEAR"
        },
        {
          "input": 28,
          "output": 2,
          "interpolation": "LINEAR"
        },
        {
          "input": 28,
          "output": 3,
          "interpolation": "LINEAR"
        },
        {
          "input": 28,
          "output": 4,
          "interpolation": "LINEAR"
        },
        {
          "input": 26,
          "output": 39,
          "interpolation": "LINEAR"
        },
        {
          "input": 28,
          "output": 3,
          "interpolation": "LINEAR"
        },
        {
          "input": 28,
          "output": 5,
          "interpolation": "LINEAR"
        },
        {
          "input": 26,
          "output": 40,
          "interpolation": "LINEAR"
        },
        {
          "input": 28,
          "output": 3,
          "interpolation": "LINEAR"
        },
        {
          "input": 28,
          "output": 7,
          "interpolation": "LINEAR"
        },
        {
          "input": 26,
          "output": 41,
          "interpolation": "LINEAR"
        },
        {
          "input": 28,
          "output": 3,
          "interpolation": "LINEAR"
        },
        {
          "input": 28,
          "output": 9,
          "interpolation": "LINEAR"
        },
        {
          "input": 28,
          "output": 2,
          "interpolation": "LINEAR"
        },
        {
          "input": 28,
          "output": 3,
          "interpolation": "LINEAR"
        },
        {
          "input": 28,
          "output": 10,
          "interpolation": "LINEAR"
        },
        {
          "input": 28,
          "output": 2,
          "interpolation": "LINEAR"
        },
        {
          "input": 28,
          "output": 3,
          "interpolation": "LINEAR"
        },
        {
          "input": 28,
          "output": 11,
          "interpolation": "LINEAR"
        },
        {
          "input": 28,
          "output": 2,
          "interpolation": "LINEAR"
        },
        {
          "input": 28,
          "output": 3,
          "interpolation": "LINEAR"
        },
        {
          "input": 28,
          "output": 12,
          "interpolation": "LINEAR"
        },
        {
          "input": 28,
          "output": 2,
          "interpolation": "LINEAR"
        },
        {
          "input": 28,
          "output": 3,
          "interpolation": "LINEAR"
        }
      ],
      "channels": [
        {
          "sampler": 0,
          "target": {
            "node": 1,
            "path": "translation"
          }
        },
        {
          "sampler": 1,
          "target": {
            "node": 1,
            "path": "rotation"
          }
        },
        {
          "sampler": 2,
          "target": {
            "node": 1,
            "path": "scale"
          }
        },
        {
          "sampler": 3,
          "target": {
            "node": 2,
            "path": "translation"
          }
        },
        {
          "sampler": 4,
          "target": {
            "node": 2,
            "path": "rotation"
          }
        },
        {
          "sampler": 5,
          "target": {
            "node": 2,
            "path": "scale"
          }
        },
        {
          "sampler": 6,
          "target": {
            "node": 3,
            "path": "translation"
          }
        },
        {
          "sampler": 7,
          "target": {
            "node": 3,
            "path": "rotation"
          }
        },
        {
          "sampler": 8,
          "target": {
            "node": 3,
            "path": "scale"
          }
        },
        {
          "sampler": 9,
          "target": {
            "node": 4,
            "path": "translation"
          }
        },
        {
          "sampler": 10,
          "target": {
            "node": 4,
            "path": "rotation"
          }
        },
        {
          "sampler": 11,
          "target": {
            "node": 4,
            "path": "scale"
          }
        },
        {
          "sampler": 12,
          "target": {
            "node": 5,
            "path": "translation"
          }
        },
        {
          "sampler": 13,
          "target": {
            "node": 5,
            "path": "rotation"
          }
        },
        {
          "sampler": 14,
          "target": {
            "node": 5,
            "path": "scale"
          }
        },
        {
          "sampler": 15,
          "target": {
            "node": 6,
            "path": "translation"
          }
        },
        {
          "sampler": 16,
          "target": {
            "node": 6,
            "path": "rotation"
          }
        },
        {
          "sampler": 17,
          "target": {
            "node": 6,
            "path": "scale"
          }
        },
        {
          "sampler": 18,
          "target": {
            "node": 7,
            "path": "translation"
          }
        },
        {
          "sampler": 19,
          "target": {
            "node": 7,
            "path": "rotation"
          }
        },
        {
          "sampler": 20,
          "target": {
            "node": 7,
            "path": "scale"
          }
        },
        {
          "sampler": 21,
          "target": {
            "node": 8,
            "path": "translation"
          }
        },
        {
          "sampler": 22,
          "target": {
            "node": 8,
            "path": "rotation"
          }
        },
        {
          "sampler": 23,
          "target": {
            "node": 8,
            "path": "scale"
          }
        }
      ]
    },
    {
      "name": "gesture-negative",
      "samplers": [
        {
          "input": 28,
          "output": 1,
          "interpolation": "LINEAR"
        },
        {
          "input": 28,
          "output": 2,
          "interpolation": "LINEAR"
        },
        {
          "input": 28,
          "output": 3,
          "interpolation": "LINEAR"
        },
        {
          "input": 28,
          "output": 4,
          "interpolation": "LINEAR"
        },
        {
          "input": 26,
          "output": 42,
          "interpolation": "LINEAR"
        },
        {
          "input": 28,
          "output": 3,
          "interpolation": "LINEAR"
        },
        {
          "input": 28,
          "output": 5,
          "interpolation": "LINEAR"
        },
        {
          "input": 26,
          "output": 40,
          "interpolation": "LINEAR"
        },
        {
          "input": 28,
          "output": 3,
          "interpolation": "LINEAR"
        },
        {
          "input": 28,
          "output": 7,
          "interpolation": "LINEAR"
        },
        {
          "input": 26,
          "output": 41,
          "interpolation": "LINEAR"
        },
        {
          "input": 28,
          "output": 3,
          "interpolation": "LINEAR"
        },
        {
          "input": 28,
          "output": 9,
          "interpolation": "LINEAR"
        },
        {
          "input": 28,
          "output": 2,
          "interpolation": "LINEAR"
        },
        {
          "input": 28,
          "output": 3,
          "interpolation": "LINEAR"
        },
        {
          "input": 28,
          "output": 10,
          "interpolation": "LINEAR"
        },
        {
          "input": 28,
          "output": 2,
          "interpolation": "LINEAR"
        },
        {
          "input": 28,
          "output": 3,
          "interpolation": "LINEAR"
        },
        {
          "input": 28,
          "output": 11,
          "interpolation": "LINEAR"
        },
        {
          "input": 28,
          "output": 2,
          "interpolation": "LINEAR"
        },
        {
          "input": 28,
          "output": 3,
          "interpolation": "LINEAR"
        },
        {
          "input": 28,
          "output": 12,
          "interpolation": "LINEAR"
        },
        {
          "input": 28,
          "output": 2,
          "interpolation": "LINEAR"
        },
        {
          "input": 28,
          "output": 3,
          "interpolation": "LINEAR"
        }
      ],
      "channels": [
        {
          "sampler": 0,
          "target": {
            "node": 1,
            "path": "translation"
          }
        },
        {
          "sampler": 1,
          "target": {
            "node": 1,
            "path": "rotation"
          }
        },
        {
          "sampler": 2,
          "target": {
            "node": 1,
            "path": "scale"
          }
        },
        {
          "sampler": 3,
          "target": {
            "node": 2,
            "path": "translation"
          }
        },
        {
          "sampler": 4,
          "target": {
            "node": 2,
            "path": "rotation"
          }
        },
        {
          "sampler": 5,
          "target": {
            "node": 2,
            "path": "scale"
          }
        },
        {
          "sampler": 6,
          "target": {
            "node": 3,
            "path": "translation"
          }
        },
        {
          "sampler": 7,
          "target": {
            "node": 3,
            "path": "rotation"
          }
        },
        {
          "sampler": 8,
          "target": {
            "node": 3,
            "path": "scale"
          }
        },
        {
          "sampler": 9,
          "target": {
            "node": 4,
            "path": "translation"
          }
        },
        {
          "sampler": 10,
          "target": {
            "node": 4,
            "path": "rotation"
          }
        },
        {
          "sampler": 11,
          "target": {
            "node": 4,
            "path": "scale"
          }
        },
        {
          "sampler": 12,
          "target": {
            "node": 5,
            "path": "translation"
          }
        },
        {
          "sampler": 13,
          "target": {
            "node": 5,
            "path": "rotation"
          }
        },
        {
          "sampler": 14,
          "target": {
            "node": 5,
            "path": "scale"
          }
        },
        {
          "sampler": 15,
          "target": {
            "node": 6,
            "path": "translation"
          }
        },
        {
          "sampler": 16,
          "target": {
            "node": 6,
            "path": "rotation"
          }
        },
        {
          "sampler": 17,
          "target": {
            "node": 6,
            "path": "scale"
          }
        },
        {
          "sampler": 18,
          "target": {
            "node": 7,
            "path": "translation"
          }
        },
        {
          "sampler": 19,
          "target": {
            "node": 7,
            "path": "rotation"
          }
        },
        {
          "sampler": 20,
          "target": {
            "node": 7,
            "path": "scale"
          }
        },
        {
          "sampler": 21,
          "target": {
            "node": 8,
            "path": "translation"
          }
        },
        {
          "sampler": 22,
          "target": {
            "node": 8,
            "path": "rotation"
          }
        },
        {
          "sampler": 23,
          "target": {
            "node": 8,
            "path": "scale"
          }
        }
      ]
    }
  ],
  "scenes": [
    {
      "name": "animal-bee",
      "nodes": [
        0
      ]
    }
  ],
  "scene": 0,
  "extensionsUsed": [
    "EXT_meshopt_compression",
    "KHR_mesh_quantization",
    "KHR_texture_transform"
  ],
  "extensionsRequired": [
    "EXT_meshopt_compression",
    "KHR_mesh_quantization"
  ]
}